<svg xmlns="http://www.w3.org/2000/svg" width="128px" height="50px" viewBox="0 0 214.25 105.81" class="sc-jSFjdj dnoSoe">
    <style type="text/css">* { fill: white }</style>
    <path fill="currentColor" d="M529.11,244.21H473.86v50.55h-159V350h163.7V299.46h50.55ZM473.86,345.32H319.56V299.46h154.3Zm50.55-50.56H478.56V248.91h45.85Z" transform="translate(-314.86 -244.21)"></path>
    <path fill="currentColor" d="M347.5,333.81h-4.77V311h13.09v4H347.5v5.44h6.75v3.95H347.5Z" transform="translate(-314.86 -244.21)"></path>
    <path fill="currentColor" d="M394.74,333.81h-4.85V315h-6.2v-4h17.25v4h-6.2Z" transform="translate(-314.86 -244.21)"></path>
    <path fill="currentColor" d="M422.59,333.81h-4.83v-9.4h-9.05v9.4h-4.84V311h4.84v9.41h9.05V311h4.83Z" transform="translate(-314.86 -244.21)"></path>
    <path fill="currentColor" d="M435.93,333.81l-5.5-17.92h-.14q.3,5.48.3,7.3v10.62h-4.33V311h6.6l5.4,17.47h.1L444.09,311h6.59v22.84h-4.51V323c0-.51,0-1.1,0-1.76s.09-2.44.21-5.32h-.14l-5.89,17.89Z" transform="translate(-314.86 -244.21)"></path>
    <path fill="currentColor" d="M362.27,324.36h5.64v9.45h13.16v-4h-8.32v-5.45h7.77v-3.94h-7.77v-5.48h8.32v-4H363l-10,22.84h5.25Zm4.13-9.53h1.51v5.59H364Z" transform="translate(-314.86 -244.21)"></path>
</svg>