<svg viewBox="0 0 819 857" fill="none" xmlns="http://www.w3.org/2000/svg" class="sc-eCApnc iylGhi"><path opacity="0.1" d="M-133.988 756.081C-133.988 756.081 119.007 694.818 175.05 689.835C231.093 684.851 328.229 679.867 381.786 696.066C435.342 712.274 475.188 733.456 527.497 725.977C579.799 718.497 681.924 715.36 711.816 727.528C741.708 739.688 789.077 746.491 809 789C828.923 831.5 812 880.504 812 880.504H-37.9139L-150 810.716L-133.988 756.081Z" fill="#00B5AC"></path><path opacity="0.1" d="M361.869 183.048L357.194 177.267C355.148 175.583 352.617 174.643 350.003 174.142H349.813C348.987 174.627 348.161 174.573 347.343 174.432L345.032 173.821C342.175 172.787 339.705 170.844 337.977 168.275L335.348 164.444C331.135 159.212 325.444 156 319.177 156C311.676 156 304.985 160.622 300.673 167.805C298.074 172.199 293.384 174.808 288.405 174.933H288.003C279.714 174.62 273 184.341 273 196.31C273 208.279 279.714 218 288.003 218C289.822 217.992 291.618 217.53 293.224 216.653C298.627 213.747 305.727 213.692 311.388 216.277C316.298 218.54 321.913 218.54 326.831 216.277C332.597 213.692 339.159 213.825 344.82 216.637C346.419 217.499 348.192 217.953 349.995 217.961C358.285 217.961 364.999 208.255 364.999 196.271C365.044 191.665 363.968 187.114 361.869 183.048Z" fill="#00B5AC"></path><path opacity="0.03" d="M339 214.797C334.702 213.943 330.254 214.449 326.228 216.26C321.35 218.546 315.773 218.546 310.896 216.26C305.123 213.603 298.53 213.737 292.855 216.632C291.259 217.525 289.476 217.992 287.669 218C280.353 218 274.272 210.265 273 200.055C274.46 198.932 275.702 197.524 276.658 195.911C280.948 188.65 287.586 184 295.038 184C302.489 184 309.06 188.603 313.312 195.784C315.916 200.197 320.522 202.855 325.46 202.791H325.648C331.504 202.744 336.546 207.647 339 214.797Z" fill="black"></path><path opacity="0.1" d="M538.469 37.5162L531.709 29.5053C528.751 27.1643 525.096 25.8722 521.31 25.1654H521.034C519.838 25.8418 518.643 25.7582 517.462 25.5682L514.129 24.7245C509.998 23.288 506.426 20.5974 503.928 17.0328L500.127 11.72C494.034 4.46912 485.811 0 476.752 0C465.9 0 456.236 6.40725 449.998 16.3791C446.242 22.4748 439.46 26.085 432.263 26.2674H431.689C419.71 25.8342 410 39.3099 410 55.9171C410 72.5243 419.71 86 431.689 86C434.317 85.9924 436.908 85.3464 439.238 84.1303C447.055 80.0944 457.317 80.0184 465.494 83.6134C472.598 86.7601 480.714 86.7601 487.819 83.6134C496.149 80.0336 505.645 80.2084 513.83 84.1075C516.136 85.3008 518.704 85.9316 521.31 85.9468C533.288 85.9468 542.998 72.4787 542.998 55.8639C543.06 49.4642 541.504 43.1558 538.469 37.5162Z" fill="#00B5AC"></path><path opacity="0.03" d="M505 81.5722C498.807 80.3869 492.409 81.0905 486.617 83.5988C479.597 86.7647 471.57 86.7647 464.55 83.5988C456.234 79.9204 446.743 80.104 438.579 84.1111C436.282 85.3423 433.72 85.9924 431.112 86C420.575 86 411.827 75.3091 410 61.1923C412.107 59.6399 413.889 57.6975 415.261 55.4645C421.432 45.4313 430.991 39 441.725 39C452.459 39 461.904 45.3625 468.037 55.2886C471.782 61.3835 478.415 65.0542 485.525 64.9777H485.798C494.213 64.9165 501.467 71.6996 505 81.5722Z" fill="black"></path><path opacity="0.1" d="M764.136 134.738L759.498 129.242C757.469 127.636 754.961 126.75 752.364 126.265H752.174C751.354 126.729 750.534 126.671 749.724 126.541L747.437 125.962C744.603 124.977 742.153 123.131 740.439 120.685L737.831 117.04C733.651 112.066 728.01 109 721.795 109C714.35 109 707.72 113.396 703.44 120.237C700.864 124.419 696.211 126.896 691.274 127.021H690.879C682.662 126.723 676 135.968 676 147.362C676 158.755 682.662 168 690.879 168C692.683 167.995 694.46 167.552 696.058 166.717C701.421 163.948 708.461 163.896 714.071 166.363C718.945 168.521 724.513 168.521 729.387 166.363C735.102 163.907 741.617 164.027 747.232 166.702C748.815 167.52 750.576 167.953 752.364 167.963C760.581 167.963 767.243 158.724 767.243 147.325C767.285 142.935 766.218 138.607 764.136 134.738Z" fill="#00B5AC"></path><path opacity="0.03" d="M741.174 164.96C736.925 164.147 732.536 164.63 728.563 166.351C723.747 168.523 718.24 168.523 713.424 166.351C707.719 163.827 701.208 163.953 695.606 166.702C694.031 167.547 692.273 167.993 690.484 167.998C683.255 167.998 677.253 160.664 676 150.979C677.446 149.914 678.668 148.581 679.609 147.049C683.843 140.166 690.401 135.754 697.765 135.754C705.129 135.754 711.609 140.119 715.816 146.929C718.385 151.11 722.936 153.628 727.814 153.576H728.001C733.774 153.534 738.751 158.187 741.174 164.96Z" fill="black"></path><path opacity="0.1" d="M135.531 141.492L131.818 137.114C130.197 135.84 128.191 135.127 126.108 134.747H125.954C125.301 135.119 124.64 135.073 123.994 134.967L122.165 134.504C119.898 133.723 117.938 132.251 116.57 130.301L114.48 127.403C111.137 123.443 106.617 121 101.645 121C95.6885 121 90.3855 124.505 86.9577 129.952C84.898 133.283 81.1781 135.256 77.2201 135.354H76.905C70.3261 135.119 65 142.478 65 151.559C65 160.633 70.3261 168 76.905 168C78.3498 167.992 79.7717 167.643 81.0475 166.976C85.336 164.768 90.9696 164.73 95.4579 166.695C99.3545 168.41 103.812 168.41 107.709 166.695C112.282 164.738 117.492 164.836 121.989 166.968C123.257 167.621 124.663 167.962 126.093 167.97C132.671 167.97 137.998 160.611 137.998 151.529C138.051 148.016 137.198 144.572 135.531 141.492Z" fill="#00B5AC"></path><path opacity="0.03" d="M118 165.558C114.547 164.902 110.978 165.296 107.741 166.679C103.825 168.425 99.3446 168.425 95.4281 166.679C90.7932 164.647 85.4939 164.747 80.944 166.957C79.6617 167.637 78.2326 168 76.7804 168C70.9018 168 66.0197 162.081 65 154.278C66.1742 153.42 67.1707 152.346 67.9354 151.11C71.3807 145.562 76.7108 142 82.6976 142C88.6843 142 93.9526 145.516 97.3747 151.009C99.4604 154.378 103.161 156.41 107.131 156.364H107.286C111.99 156.348 116.038 160.096 118 165.558Z" fill="black"></path><path d="M262.916 541.643L258.077 538.609C257.611 538.326 257.161 538.012 256.703 537.721C281.776 533.377 298.607 509.368 294.294 484.102C291.279 466.459 278.464 452.133 261.359 447.284L261.595 466.406L251.169 445.599H251.039C225.63 444.411 204.067 464.199 202.876 489.802C202.831 490.691 202.876 491.564 202.876 492.437C199.251 488.262 195.946 483.788 193.77 478.893C189.359 468.972 189.275 457.741 189.618 444.074C190.313 417.008 191.473 389.728 192.984 362.547C215.478 360.026 232.827 341.403 233.896 318.627C233.957 317.21 233.934 315.815 233.896 314.413C233.896 314.061 233.896 313.724 233.843 313.372C233.751 312.023 233.629 310.69 233.423 309.373C233.423 309.158 233.346 308.944 233.308 308.737C233.125 307.618 232.896 306.523 232.629 305.435C232.53 305.021 232.43 304.623 232.324 304.217C232.003 303.029 231.644 301.888 231.232 300.708C231.095 300.325 230.934 299.934 230.789 299.574C230.469 298.732 230.11 297.889 229.736 297.069C229.538 296.633 229.347 296.203 229.133 295.774C229.072 295.667 229.034 295.552 228.973 295.437C218.936 275.473 196.19 265.575 174.879 271.895L175.185 296.786L164.873 276.224C147.47 286.252 138.547 306.507 142.852 326.242H142.806C142.875 326.579 142.974 326.893 143.051 327.222C143.196 327.835 143.348 328.441 143.524 329.046C143.738 329.819 143.99 330.593 144.241 331.375C144.432 331.949 144.615 332.516 144.837 333.083C145.15 333.903 145.508 334.707 145.86 335.504C146.066 335.971 146.249 336.446 146.478 336.906C147.066 338.109 147.699 339.273 148.386 340.422C148.623 340.828 148.897 341.196 149.157 341.594C149.653 342.368 150.142 343.142 150.699 343.87C151.027 344.329 151.386 344.766 151.729 345.21C152.241 345.854 152.752 346.49 153.271 347.102C153.645 347.547 154.042 347.968 154.431 348.389C155.027 349.025 155.645 349.623 156.271 350.228C156.637 350.581 156.98 350.948 157.393 351.278C158.072 351.891 158.782 352.465 159.492 353.032C159.85 353.315 160.209 353.614 160.576 353.89C161.667 354.664 162.789 355.438 163.957 356.219C164.171 356.349 164.407 356.456 164.629 356.594C165.606 357.169 166.59 357.72 167.605 358.218C168.04 358.433 168.491 358.632 168.933 358.831C169.765 359.207 170.605 359.567 171.468 359.904L173.009 360.448C173.857 360.731 174.719 361.007 175.589 361.221C176.101 361.359 176.612 361.505 177.131 361.635C178.07 361.857 179.032 362.049 180.001 362.217L180.184 362.256C179.551 373.724 178.986 385.2 178.49 396.676C167.361 373.64 139.799 364.048 116.931 375.256C116.13 375.655 115.336 376.068 114.55 376.513L122.694 398.997L105.94 382.787C96.9564 391.061 91.6058 402.59 91.0562 414.84C90.8425 419.138 91.2394 423.443 92.224 427.626C98.0479 452.57 122.839 468.037 147.6 462.177C159.95 459.25 170.559 451.321 176.917 440.251C176.917 441.416 176.841 442.58 176.81 443.752C176.505 455.803 176.116 470.803 182.085 484.194C186.122 493.265 192.618 500.642 199.014 507.246C203.197 511.544 207.525 515.703 211.967 519.733C216.341 525.647 222.042 530.428 228.606 533.691C235.903 539.353 243.46 544.677 251.276 549.595L256.153 552.652C260.542 555.387 265.038 558.206 269.434 561.125C268.663 561.048 267.892 560.964 267.121 560.926C247.078 559.983 228.736 572.218 221.76 591.171L250.558 614.736L218.898 607.335C218.928 632.984 239.582 653.753 265.045 653.722C271.938 653.714 278.739 652.152 284.952 649.141L282.853 651.814C281.433 653.584 280.036 655.354 278.655 657.1C259.924 681.01 254.711 703.694 263.984 721L275.266 714.864C266.198 698.017 279.769 676.467 288.676 665.129C290.027 663.405 291.409 661.674 292.798 659.935C304.766 644.95 318.33 627.974 317.994 607.144C317.46 575.711 287.219 556.819 262.916 541.643Z" fill="#00978D"></path><path d="M438.148 517.468L444.218 513.686C444.8 513.318 445.367 512.913 445.942 512.568C419.194 507.967 399.243 485.38 397.971 458.261C397.534 449.211 399.243 440.184 402.968 431.922C409.997 416.257 423.616 404.52 440.14 399.872L439.841 423.707L452.909 397.782H453.062C484.969 396.296 512.04 420.966 513.534 452.878C513.588 453.988 513.534 455.068 513.534 456.163C518.094 450.964 522.233 445.39 524.962 439.288C530.503 426.892 530.618 412.949 530.173 395.914C529.307 362.179 527.851 328.192 525.95 294.312C497.707 291.165 475.933 267.966 474.592 239.568C474.515 237.799 474.538 236.061 474.592 234.323C474.592 233.887 474.615 233.458 474.661 233.022C474.768 231.337 474.929 229.676 475.182 228.037C475.22 227.769 475.281 227.501 475.327 227.264C475.565 225.87 475.849 224.492 476.186 223.145C476.308 222.639 476.431 222.126 476.569 221.598C476.983 220.128 477.42 218.666 477.941 217.234C478.11 216.751 478.309 216.3 478.5 215.825C478.922 214.761 479.359 213.727 479.834 212.724C480.079 212.188 480.324 211.645 480.608 211.116C480.669 210.986 480.731 210.841 480.8 210.703C493.392 185.812 521.957 173.477 548.698 181.371L548.307 212.357L561.252 186.73C583.103 199.226 594.286 224.477 588.867 249.062H588.928C588.844 249.475 588.714 249.835 588.622 250.279C588.438 251.053 588.238 251.826 588.031 252.546C587.763 253.51 587.449 254.46 587.135 255.401C586.897 256.114 586.659 256.826 586.361 257.53C585.962 258.556 585.525 259.551 585.073 260.547C584.812 261.129 584.575 261.726 584.299 262.3C583.525 263.793 582.751 265.255 581.908 266.68C581.616 267.185 581.271 267.652 580.957 268.142C580.336 269.099 579.708 270.048 579.033 270.967C578.612 271.541 578.175 272.085 577.738 272.644C577.102 273.417 576.458 274.236 575.776 275.01C575.301 275.523 574.81 276.059 574.312 276.61C573.607 277.383 572.871 278.08 572.128 278.792C571.622 279.267 571.132 279.742 570.58 280.201C569.721 280.974 568.84 281.671 567.928 282.375C567.476 282.735 567.039 283.11 566.571 283.455C565.199 284.466 563.789 285.423 562.325 286.311C562.057 286.472 561.758 286.609 561.482 286.778C560.271 287.498 559.022 288.171 557.75 288.799C557.198 289.067 556.638 289.305 556.079 289.572C555.036 290.047 553.979 290.491 552.906 290.905C552.331 291.119 551.756 291.326 551.189 291.525C550.055 291.915 548.913 292.26 547.763 292.581C547.119 292.758 546.483 292.934 545.824 293.102C544.636 293.378 543.44 293.615 542.222 293.822L541.984 293.868C542.789 308.17 543.502 322.465 544.115 336.775C558.079 308.071 592.668 296.126 621.364 310.1C622.383 310.597 623.387 311.118 624.376 311.677L614.22 339.692L635.244 319.502C646.518 329.815 653.24 344.179 653.929 359.446C654.198 364.782 653.699 370.127 652.465 375.325C645.177 406.418 614.067 425.72 582.981 418.431C567.453 414.787 554.109 404.895 546.123 391.075C546.123 392.522 546.222 393.984 546.261 395.439C546.652 410.461 547.127 429.151 539.646 445.834C534.573 457.15 526.41 466.331 518.34 474.561C513.09 479.921 507.671 485.112 502.076 490.119C496.581 497.485 489.414 503.442 481.168 507.492C472.009 514.551 462.52 521.189 452.718 527.322L446.601 531.143C441.098 534.55 435.457 538.057 429.924 541.701C430.897 541.609 431.863 541.502 432.852 541.456C458.006 540.285 481.022 555.506 489.79 579.119L453.66 608.55L493.408 599.339C493.362 631.305 467.418 657.192 435.457 657.146C426.812 657.131 418.282 655.186 410.487 651.442C411.384 652.56 412.273 653.67 413.177 654.78C414.948 656.985 416.726 659.19 418.45 661.372C441.964 691.156 448.502 719.47 436.86 741L422.704 733.351C434.032 712.357 416.986 685.498 405.812 671.387C404.118 669.243 402.378 667.084 400.638 664.91C385.616 646.243 368.586 625.08 369.008 599.125C369.651 559.924 407.628 536.388 438.148 517.468Z" fill="#00978D"></path><path d="M694 319.567V590.433C694 593.51 691.504 596 688.435 596H136.557C133.489 596 131 593.51 131 590.44V590.433V319.567C130.992 316.497 133.481 314 136.55 314H136.557H688.435C691.511 313.992 694 316.49 694 319.567Z" fill="#0D3D4E"></path><path d="M694 317.667V330H131V317.667C131 315.641 132.664 314 134.718 314H690.29C692.344 314 694 315.641 694 317.667Z" fill="#CBCEDA"></path><path d="M142.5 326C144.985 326 147 324.209 147 322C147 319.791 144.985 318 142.5 318C140.015 318 138 319.791 138 322C138 324.209 140.015 326 142.5 326Z" fill="#00B5AC"></path><path d="M153.5 326C155.985 326 158 324.209 158 322C158 319.791 155.985 318 153.5 318C151.015 318 149 319.791 149 322C149 324.209 151.015 326 153.5 326Z" fill="#00B5AC"></path><path d="M164.5 326C166.433 326 168 324.209 168 322C168 319.791 166.433 318 164.5 318C162.567 318 161 319.791 161 322C161 324.209 162.567 326 164.5 326Z" fill="#00B5AC"></path><path opacity="0.2" d="M604 512.433V558.793L220.352 559L220 465.582C224.044 477.548 234.029 479.697 251.606 458.589C294.566 407.072 352.962 393.517 398.162 392.097C429.095 391.122 459.96 397.531 489.418 410.272C501.65 415.576 550 421.287 581.912 423.827C593.923 424.779 603.19 434.826 603.22 446.923L604 512.433Z" fill="#00B5AC"></path><path opacity="0.2" d="M604 466.206V559H220V538.831C230.981 536.062 272.037 525.41 291.726 495.984C315.281 460.761 347.291 451.497 372.062 450.531C389.035 449.856 405.932 454.227 422.063 462.947C440.207 472.755 475.186 484.588 501.763 450.239C531.156 412.263 576.306 443.56 587.762 455.063C591.84 459.12 604 466.206 604 466.206Z" fill="#00B5AC"></path><path fill-rule="evenodd" clip-rule="evenodd" d="M219 368H221V557H604V559H219V368Z" fill="#00B5AC"></path><path d="M268 558V443" stroke="#00B5AC" stroke-miterlimit="10"></path><path d="M315 558V412" stroke="#00B5AC" stroke-miterlimit="10"></path><path d="M362 558V397" stroke="#00B5AC" stroke-miterlimit="10"></path><path d="M408 558V392" stroke="#00B5AC" stroke-miterlimit="10"></path><path d="M454 558V398" stroke="#00B5AC" stroke-miterlimit="10"></path><path d="M501 558V416" stroke="#00B5AC" stroke-miterlimit="10"></path><path d="M548 558V426" stroke="#00B5AC" stroke-miterlimit="10"></path><path d="M268.5 449C273.194 449 277 445.194 277 440.5C277 435.806 273.194 432 268.5 432C263.806 432 260 435.806 260 440.5C260 445.194 263.806 449 268.5 449Z" fill="#00B5AC"></path><path d="M314.5 420C319.194 420 323 416.194 323 411.5C323 406.806 319.194 403 314.5 403C309.806 403 306 406.806 306 411.5C306 416.194 309.806 420 314.5 420Z" fill="#00B5AC"></path><path d="M361.5 406C366.194 406 370 402.194 370 397.5C370 392.806 366.194 389 361.5 389C356.806 389 353 392.806 353 397.5C353 402.194 356.806 406 361.5 406Z" fill="#00B5AC"></path><path d="M416.321 393.542C417.082 388.849 413.897 384.427 409.206 383.665C404.516 382.903 400.097 386.09 399.335 390.783C398.574 395.477 401.759 399.899 406.45 400.66C411.14 401.422 415.559 398.235 416.321 393.542Z" fill="#00B5AC"></path><path d="M454 406C458.971 406 463 402.194 463 397.5C463 392.806 458.971 389 454 389C449.029 389 445 392.806 445 397.5C445 402.194 449.029 406 454 406Z" fill="#00B5AC"></path><path d="M501 426C505.971 426 510 421.971 510 417C510 412.029 505.971 408 501 408C496.029 408 492 412.029 492 417C492 421.971 496.029 426 501 426Z" fill="#00B5AC"></path><path d="M547.5 435C552.194 435 556 431.194 556 426.5C556 421.806 552.194 418 547.5 418C542.806 418 539 421.806 539 426.5C539 431.194 542.806 435 547.5 435Z" fill="#00B5AC"></path><path d="M110.843 426.257C112.382 426.788 113.673 427.835 114.474 429.205C115.091 430.444 115.075 431.883 115.492 433.192C116.382 435.947 119.059 437.771 120.718 440.203C122.971 443.467 123.243 447.623 123.083 451.532C122.931 455.442 122.442 459.437 123.419 463.215C123.9 465.063 124.726 466.825 125.039 468.703C125.447 470.989 125.103 473.375 125.696 475.622C126.353 477.631 127.379 479.516 128.718 481.179L134 488.59C131.643 488.044 129.319 487.367 127.051 486.551C127.756 488.667 129.054 490.553 130.81 492L126.986 487.559C126.209 486.536 125.247 485.666 124.149 484.973C122.746 484.196 121.095 484.088 119.516 483.78C116.486 483.188 113.456 481.702 111.973 479.109C110.001 475.622 111.26 471.243 110.162 467.425C109.352 464.639 107.356 462.338 105.978 459.768C102.868 453.949 103.052 447.084 102.074 440.596C101.657 437.848 101.016 435.147 101 432.33C101 430.283 101.208 426.373 103.437 425.318C105.417 424.464 109.032 425.519 110.843 426.257Z" fill="#051C23"></path><path d="M151.144 732.645L154.977 746.297C155.614 748.893 156.507 751.414 157.644 753.829C159.515 757.481 162.454 760.472 166.075 762.393C167.727 763.259 169.507 763.927 170.939 765.096C172.371 766.265 173.401 768.224 172.848 770.001C172.295 771.777 170.341 772.787 168.515 773.303C164.189 774.488 159.591 774.154 155.485 772.362C153.53 771.496 151.705 770.297 149.689 769.583C147.674 768.869 145.296 768.687 143.477 769.803C143.038 770.13 142.561 770.388 142.046 770.57C141.22 770.684 140.379 770.487 139.682 770.023C137.334 768.816 135.084 767.434 132.947 765.893C132.076 765.331 131.318 764.61 130.728 763.76C129.273 761.451 130.296 758.384 131.228 755.841C133.69 749.03 135.296 741.939 136 734.726C135.97 734.08 136.227 733.458 136.697 733.01C137.038 732.828 137.417 732.744 137.803 732.767L154.174 732" fill="#0D3D4E"></path><path d="M108.708 746.204C109.576 747.912 110.932 749.321 111.906 750.96C114.745 755.777 114.071 762.165 116.992 766.928C119.456 770.961 124.355 773.662 124.939 778.387C125.179 779.934 124.7 781.504 123.644 782.627C122.617 783.597 121.172 783.89 119.808 784.136C116.902 784.813 113.928 785.09 110.947 784.975C107.981 784.736 104.97 783.612 103.015 781.304C101.704 779.749 100.453 777.541 98.4681 777.802C97.7864 777.887 97.0449 778.279 96.4681 777.895C96.0337 777.479 95.8165 776.879 95.8914 776.279L95 740.879C97.8614 740.563 102.828 739.393 105.606 740.402C107.996 741.279 107.614 744.049 108.708 746.204Z" fill="#0D3D4E"></path><path d="M137.843 583.748C144.928 592.582 147.023 604.288 149.294 615.399C152.224 629.732 155.823 643.904 160.091 657.91C161.229 661.641 162.399 665.381 162.832 669.257C163.598 676.637 161.586 683.978 160.022 691.228C156.757 706.399 155.512 721.919 154.282 737.387C149.233 733.069 141.921 732.68 136.446 736.442C135.619 717.792 135.239 698.943 137.76 680.437C138.238 676.964 138.815 673.347 137.76 670.019C137.054 667.879 135.718 666.02 134.601 664.063C132.293 660.027 131.01 655.511 128.907 651.375C125.535 644.735 120.122 639.046 118.368 631.788C116.872 636.289 116.88 640.851 116.606 645.58C115.824 659.006 113.508 672.303 109.689 685.197C109.013 687.458 108.292 689.819 108.748 692.134C110.896 703.063 107.799 713.923 108.748 725.019C109.021 728.385 109.401 731.743 109.773 735.102L109.894 736.183L110.722 743.639C107.647 741.537 104.397 741.834 100.692 742.032C99.4388 742.032 98.1936 742.253 97.0167 742.68C95.5058 743.289 94.3137 744.484 93.7062 746C93.2583 733.906 88.9227 723.039 86.941 711.105C84.2152 694.678 86.5158 677.901 87.4497 661.268C87.7534 657.689 87.6775 654.087 87.2371 650.522C86.774 647.91 86.1286 645.336 85.2934 642.815C82.5144 633.738 79.5532 624.622 78.6344 615.171C77.7157 605.72 77.0551 592.362 82.1727 584.35C83.752 581.883 87.6471 582.994 90.1072 581.395C92.0434 580.177 94.177 579.301 96.4093 578.806C109.856 575.683 124.108 582.56 137.843 583.748Z" fill="#051C23"></path><path d="M113.285 473.878C113.582 477.228 114.297 481.177 117.354 482.587C119.096 483.353 121.112 483.087 122.99 483.391C126.542 483.967 129.47 486.688 131.113 489.879C132.756 493.069 133.327 496.692 133.715 500.262C134.194 504.734 134.346 509.578 131.882 513.345C129.896 516.414 126.497 518.241 122.922 519.188C115.742 521.06 108.098 519.658 102.059 515.353C99.2064 513.14 96.628 510.601 94.3614 507.789C89.2502 501.862 84.101 495.366 83.059 487.62C82.9373 486.741 82.9449 485.672 83.6675 485.149C84.1695 484.869 84.7475 484.755 85.318 484.831L90.2162 484.914C91.456 484.914 92.8555 484.914 93.6997 483.989C94.544 483.065 94.4679 481.882 94.4679 480.745L94.1332 466.564C94.0572 466.064 94.1789 465.548 94.4679 465.132C94.7798 464.851 95.1753 464.677 95.5936 464.647C98.2937 464.192 101.116 464.647 103.755 463.919C106.272 463.229 110.22 460.357 112.068 463.305C113.62 465.852 113.034 471.021 113.285 473.878Z" fill="#E0B8A4"></path><path d="M120.894 505.911C123.9 505.965 127.292 505.129 128.742 502.406C129.74 500.557 129.573 498.314 129.384 496.217L128.304 484.474C131.22 484.164 134.363 483.893 136.908 485.371C140.292 487.336 141.493 491.684 141.894 495.645C142.604 503.079 141.448 510.583 141.849 518.041C142.188 524.299 143.601 530.767 141.796 536.77C141.033 539.277 139.764 541.582 138.94 544.065C137.905 547.199 137.641 550.564 137.414 553.875C137.135 557.426 136.863 561.108 138.026 564.473C138.993 567.289 140.889 569.664 142.241 572.302C144.455 576.673 144.931 582.553 141.599 586.104C138.54 589.345 133.516 589.477 129.241 588.456C124.965 587.427 120.833 585.477 116.475 585.284C108.739 584.951 101.85 590.088 94.3114 591.759C93.2991 592.037 92.2416 592.076 91.2142 591.867C90.3078 591.566 89.4617 591.094 88.7214 590.475L84.5818 587.419C83.7509 586.908 83.0635 586.197 82.58 585.346C82.2326 584.394 82.1419 583.365 82.3232 582.375C83.7131 569.162 91.0103 556.482 88.9027 543.377C88.2455 539.942 87.2408 536.585 85.9038 533.359C80.6538 519.596 74.3538 505.307 76.3933 490.678C76.839 487.437 77.7682 484.125 79.9437 481.735C82.1193 479.344 85.8056 478.153 88.6232 479.685C91.4409 481.217 92.4455 484.628 93.6919 487.599C96.0941 493.362 99.9013 498.399 104.759 502.22C106.806 503.83 109.291 505.887 111.973 505.965C114.783 506.05 117.834 505.849 120.894 505.911Z" fill="#FF6584"></path><path d="M113.285 473.878C113.582 477.228 114.297 481.177 117.354 482.587C119.096 483.353 121.112 483.087 122.99 483.391C126.542 483.967 129.47 486.688 131.113 489.879C132.756 493.069 133.327 496.692 133.715 500.262C134.194 504.734 134.346 509.578 131.882 513.345C129.896 516.414 126.497 518.241 122.922 519.188C115.742 521.06 108.098 519.658 102.059 515.353C99.2064 513.14 96.628 510.601 94.3614 507.789C89.2502 501.862 84.101 495.366 83.059 487.62C82.9373 486.741 82.9449 485.672 83.6675 485.149C84.1695 484.869 84.7475 484.755 85.318 484.831L90.2162 484.914C91.456 484.914 92.8555 484.914 93.6997 483.989C94.544 483.065 94.4679 481.882 94.4679 480.745L94.1332 466.564C94.0572 466.064 94.1789 465.548 94.4679 465.132C94.7798 464.851 95.1753 464.677 95.5936 464.647C98.2937 464.192 101.116 464.647 103.755 463.919C106.272 463.229 110.22 460.357 112.068 463.305C113.62 465.852 113.034 471.021 113.285 473.878Z" fill="#E0B8A4"></path><path d="M148.265 535.72C152.633 540.756 153.489 548.019 153.972 554.764C155.296 573.331 155.34 591.973 154.111 610.547C154.045 613.305 153.599 616.032 152.787 618.653C151.858 621.228 150.109 623.613 147.651 624.639C146.078 625.3 143.876 625.125 143.166 623.515C142.515 622.048 143.488 620.438 144.22 618.979C145.902 615.698 146.466 611.922 145.822 608.268C144.929 608.944 144.608 610.167 144.344 611.291L142.918 617.528C140.986 617.24 140.262 614.786 139.955 612.788C139.391 609.157 138.85 605.298 140.247 601.917C140.986 600.117 142.245 598.59 142.991 596.789C144.878 592.269 145.617 587.104 144.403 582.341C140.313 566.251 138.528 549.629 139.106 533C141.908 534.656 145.047 535.583 148.265 535.72Z" fill="#EEC8B3"></path><path d="M153 539.832C147.402 539.885 141.834 540.618 136.418 542C135.702 538.503 136.045 534.877 136.418 531.304L138.81 506.854C138.985 505.041 138.65 488.409 142.184 491.347C143.487 492.435 145.124 502.156 145.535 503.719C146.152 506.076 146.64 508.455 147.074 510.857C147.958 515.775 148.559 520.73 149.39 525.654C149.626 527.105 151.72 539.832 153 539.832Z" fill="#FF6584"></path><path d="M101 473C111.493 473 120 464.493 120 454C120 443.507 111.493 435 101 435C90.5066 435 82 443.507 82 454C82 464.493 90.5066 473 101 473Z" fill="#EEC8B3"></path><path d="M107.968 429.75C107.99 429.158 107.861 428.573 107.581 428.041C107.089 427.418 106.361 427.033 105.581 426.972C102.884 426.54 99.9287 427.649 97.5041 426.394C96.1858 425.717 95.2539 424.447 93.9734 423.708C90.9049 421.968 87.0711 423.708 84.4268 425.971C80.1536 429.573 77.0396 434.392 75.4863 439.803C74.2892 443.99 73.8043 448.893 70.3948 451.533C68.978 452.626 67.152 453.234 66.114 454.697C65.417 455.874 65.0305 457.213 64.9851 458.591C64.629 461.77 64.3335 465.041 65.1518 468.12C65.7731 470.46 66.9853 472.515 67.743 474.771C69.819 481.313 67.9627 488.487 63 493.159C64.2426 493.952 65.7428 494.213 67.1748 493.89C67.1444 494.56 66.9323 495.206 66.5686 495.768C70.9328 495.63 74.7211 491.304 78.9943 492.251C82.2599 492.967 84.0783 496.384 86.5028 498.716C89.6396 501.703 94.5038 502.957 98.4361 501.187C102.368 499.409 104.763 494.367 103.088 490.334C101.186 485.747 95.3221 483.93 93.2915 479.435C91.7231 475.933 92.8824 471.83 92.5263 467.989C92.2459 464.695 90.8367 461.616 89.9654 458.43C89.094 455.235 88.8061 451.595 90.5866 448.824C92.4732 445.876 96.0797 444.729 99.368 443.636C106.823 441.173 108.248 437.37 107.968 429.75Z" fill="#051C23"></path><path d="M139.38 585.488C141.345 584.341 142.746 582.328 143.218 579.981C143.295 580.277 143.359 580.581 143.429 580.877C144.344 584.888 144.154 589.103 142.894 593C141.95 590.379 140.774 587.865 139.38 585.488ZM140.802 568.291C139.612 566.453 138.613 564.493 137.81 562.427C136.711 559.108 136.965 555.508 137.225 551.96C137.366 549.279 137.711 546.621 138.253 544C138.57 552.15 139.429 560.27 140.824 568.291H140.802Z" fill="url(#paint0_linear)"></path><path d="M103.102 497.222C103.641 494.554 104.18 491.732 103.218 489.174C101.448 484.467 95.6534 482.955 91.6442 479.901C89.3202 478.125 87.535 475.729 86.4884 472.985C85.7651 471.054 85.665 468.402 87.4503 467.418C88.1506 467.092 88.9201 466.952 89.6819 467.014C95.9074 467.162 101.663 470.581 106.45 474.636C109.236 476.993 111.898 479.691 113.268 483.079C114.137 485.522 114.661 488.073 114.822 490.662L115.83 499.207C116.492 504.107 116.877 509.046 117 513.992C117 516.822 116.823 519.652 116.469 522.459C116.223 524.452 115.846 526.514 114.684 528.142C112.529 531.189 108.366 531.872 104.649 531.972C103.249 532.05 101.833 531.965 100.455 531.709C94.2837 530.36 89.5973 521.645 94.276 516.264C96.2613 513.985 99.2317 513.907 100.371 510.775C101.84 506.603 102.217 501.556 103.102 497.222Z" fill="#EEC8B3"></path><path d="M98.5635 499.274L103.395 507.232C103.683 507.64 103.88 508.109 103.986 508.601C104.114 509.639 103.357 510.554 102.751 511.4C98.6165 517.129 99.6843 525.01 100.911 532C87.4469 527.679 77.6101 515.914 75.5882 501.727C74.9823 497.567 74.0131 490.708 77.6479 488.001C86.3792 481.465 94.4592 492.453 98.5635 499.274Z" fill="#FF6584"></path><path d="M123.311 482.873C121.326 482.561 119.196 482.873 117.356 482.046C114.101 480.595 113.37 476.52 113.056 473.079C113.056 472.759 113.016 472.408 113 472.033C114.157 470.878 115.419 469.824 116.761 468.872C117.975 468.185 119.269 467.631 120.611 467.225L124.203 466C124.549 466.921 124.822 467.873 125.015 468.833C125.425 471.151 125.079 473.57 125.674 475.849C126.333 477.886 127.362 479.798 128.704 481.484L134 489C133.044 488.781 132.087 488.532 131.147 488.266C129.307 485.55 126.566 483.389 123.311 482.873Z" fill="#051C23"></path><path d="M776.829 524.045C776.299 527.417 775.57 530.751 774.655 534.023C773.153 539.638 771.408 545.169 769.663 550.699L768.168 555.394C767.653 557.282 766.873 559.084 765.865 560.724C765.636 561.134 765.429 561.559 765.25 562C763.698 555.742 765.379 548.696 765.028 542.021C764.763 536.97 763.312 531.849 764.399 526.961C765.121 523.665 766.945 520.834 768.225 517.748C769.419 514.886 770.163 511.761 771.508 509C771.508 509.054 771.508 509.101 771.558 509.147C772.752 512.55 774.19 515.845 775.849 519.017C776.314 519.728 776.671 520.525 776.9 521.368C777.05 522.265 777.029 523.178 776.85 524.068L776.829 524.045Z" fill="url(#paint1_linear)"></path><path d="M633.728 492.317C633.455 491.392 633.257 490.443 633.143 489.486C632.641 486.663 631.365 484.058 630.111 481.484C629.913 480.955 629.564 480.504 629.115 480.17C628.249 479.773 627.231 480.092 626.729 480.916C626.273 481.741 626.091 482.689 626.212 483.623C626.281 484.665 626.433 485.847 625.718 486.578C625.422 486.85 625.065 487.044 624.677 487.146C622.367 487.892 619.814 487.223 617.633 486.111C615.459 484.999 613.522 483.444 611.371 482.269C610.239 481.663 609.068 481.118 607.875 480.652C606.637 480.139 604.927 479.812 604.228 480.971C603.673 481.896 604.228 483.086 604.866 483.973C605.945 485.505 607.199 486.904 608.605 488.133C612.769 491.804 618.036 493.849 622.937 496.408C628.424 499.27 633.538 502.832 638.159 507C638.607 506.456 638.873 505.779 638.926 505.071C639.298 503.065 640.917 499.005 639.283 497.263C637.513 495.366 634.716 495.241 633.728 492.317Z" fill="#C17E47"></path><path d="M712 757.759C716.056 761.004 721.193 762.473 726.308 761.866C727.375 761.735 728.592 761.343 728.937 760.312C729.065 759.682 728.997 759.028 728.742 758.443C727.938 756.482 727.322 754.452 726.894 752.375C726.631 750.484 726.699 748.238 725.189 747.1C723.019 745.462 717.333 745.546 715.921 748.084C715.59 748.638 713.457 759.012 712 757.759Z" fill="#C17E47"></path><path d="M743.099 747.309C742.898 748.1 743.36 748.913 744.127 749.12C744.194 749.136 744.261 749.151 744.328 749.159C747.791 750.263 751.373 750.885 755 751L754.248 743.534C754.3 742.898 753.846 742.337 753.228 742.276C753.168 742.268 753.108 742.268 753.049 742.276C750.971 741.915 746.599 740.465 744.603 741.21C742.354 742.054 743.144 745.084 743.099 747.309Z" fill="#C17E47"></path><path d="M720.933 452.339C721.539 453.899 721.83 455.566 721.807 457.233C721.999 463.227 720.971 469.703 716.775 474C721.477 472.601 726.763 473.442 731.204 471.355C733.26 470.391 734.994 468.847 736.919 467.646C740.348 465.513 744.345 464.473 747.92 462.57C751.487 460.666 754.793 457.454 755 453.433C753.45 451.812 750.957 451.575 748.925 450.596C746.738 449.526 745.112 447.576 743.57 445.703C741.744 443.631 740.149 441.375 738.806 438.967C737.456 436.543 736.911 433.752 737.257 431C733.291 431.711 730.414 435.159 726.663 436.643C725.205 437.216 723.625 437.476 722.206 438.134C720.181 439.059 716.077 442.216 716 444.694C716 447.4 719.882 449.954 720.933 452.339Z" fill="#A0616A"></path><path d="M720.933 452.339C721.539 453.899 721.83 455.566 721.807 457.233C721.999 463.227 720.971 469.703 716.775 474C721.477 472.601 726.763 473.442 731.204 471.355C733.26 470.391 734.994 468.847 736.919 467.646C740.348 465.513 744.345 464.473 747.92 462.57C751.487 460.666 754.793 457.454 755 453.433C753.45 451.812 750.957 451.575 748.925 450.596C746.738 449.526 745.112 447.576 743.57 445.703C741.744 443.631 740.149 441.375 738.806 438.967C737.456 436.543 736.911 433.752 737.257 431C733.291 431.711 730.414 435.159 726.663 436.643C725.205 437.216 723.625 437.476 722.206 438.134C720.181 439.059 716.077 442.216 716 444.694C716 447.4 719.882 449.954 720.933 452.339Z" fill="#B87640"></path><path d="M772.209 608.201C770.755 619.997 769.742 632.252 767.823 643.995C767.055 648.906 768.006 654.055 766.659 658.851C766.08 660.902 765.121 662.829 764.694 664.91C764.085 668.085 764.885 671.329 765.463 674.496C766.879 682.429 766.879 690.545 766.857 698.608C766.857 702.954 766.857 707.329 765.989 711.598C764.953 716.777 762.738 721.658 761.497 726.753C759.906 733.255 760.058 740.622 760.599 747.293C759.152 746.765 757.515 747.293 756.145 747.951C754.775 748.609 753.389 749.496 751.851 749.596C749.78 749.787 747.831 748.693 746.042 747.622C744.672 746.811 743.477 746.077 742.114 745.235C740.782 733.623 739.449 721.972 739.503 710.275C739.503 703.482 740.035 696.665 739.503 689.887C738.97 683.11 737.424 676.546 737.736 669.844C737.881 666.792 738.399 663.793 738.749 660.764C739.891 650.964 739.731 641.57 739.046 631.732C738.376 631.9 738.109 632.987 738.353 633.629C737.371 634.517 736.587 635.603 736.039 636.812C734.805 639.52 734.546 642.802 734.379 645.839L733.382 664.78C733.359 666.578 733.13 668.376 732.719 670.128C732.369 671.374 731.851 672.553 731.532 673.807C730.397 678.344 732.217 683.018 732.795 687.654C733.267 691.525 732.864 695.395 732.476 699.213L730.001 723.295C729.103 732.054 728.22 741.005 730.001 749.611C730.116 750.147 730.23 750.69 730.374 751.225C729.948 751.348 729.514 751.447 729.08 751.516C727.55 751.73 725.989 751.73 724.459 751.516C723.028 751.371 721.581 751.118 720.157 750.95C716.754 750.56 713.359 750.414 711.098 753C707.664 737.348 704.216 721.459 705.129 705.463C705.449 699.825 706.317 694.233 706.911 688.625C707.832 679.942 708.113 671.199 707.74 662.478C706.971 643.544 703.119 624.824 702.48 605.89C702.35 601.851 702.366 597.774 701.566 593.811C700.691 589.519 698.863 585.297 699.008 580.944C699.153 576.583 702.32 571.749 706.713 571.986C718.825 572.659 729.895 565.942 741.984 564.795C747.466 564.267 753.046 563.487 758.474 564.473C763.903 565.46 769.308 568.543 771.447 573.653C772.605 576.43 772.696 579.513 772.78 582.512C773.046 591.095 773.267 599.694 772.209 608.201Z" fill="#051C23"></path><path d="M710.564 756.931C708.499 758.165 707.793 760.686 706.592 762.727C703.962 767.175 698.805 769.452 694.559 772.506C692.526 773.976 690.477 776.207 691.121 778.584C698.46 780.564 706.451 782.331 713.523 779.596C716.388 778.485 719.08 776.657 722.157 776.558C724.497 776.489 726.922 777.441 729.12 776.786C729.677 776.664 730.164 776.344 730.501 775.903C730.76 775.431 730.886 774.897 730.87 774.364C731.059 770.724 731.043 767.083 730.815 763.443C730.596 759.894 731.082 757.381 726.906 757.533C722.11 757.739 714.724 754.449 710.564 756.931Z" fill="#0D3D4E"></path><path d="M746.951 748.601C746.082 748.262 745.158 748.062 744.218 748C742.599 748.123 741.146 748.994 740.294 750.342C739.464 751.675 738.872 753.124 738.517 754.641C738.106 755.751 737.94 756.93 738.019 758.108C738.327 760.335 740.349 762.007 740.886 764.203C741.849 768.171 737.687 772.447 739.591 776.099C740.799 778.441 743.824 779.088 746.469 779.496C750.512 780.121 755.109 780.614 758.283 778.094C760.013 776.707 761.008 774.627 761 772.447C760.953 769.581 759.184 767.03 758.386 764.272C757.272 760.374 758.947 755.212 757.178 751.652C755.685 748.601 750.165 749.603 746.951 748.601Z" fill="#0D3D4E"></path><path d="M722.5 449C733.822 449 743 440.046 743 429C743 417.954 733.822 409 722.5 409C711.178 409 702 417.954 702 429C702 440.046 711.178 449 722.5 449Z" fill="#C17E47"></path><path d="M732.365 462.28C730.185 461.36 727.767 461.185 725.479 461.763L723.637 458.583C722.861 457.183 721.702 455.592 720.083 455.661C718.878 455.813 717.872 456.658 717.511 457.807C717.173 458.94 717.035 460.119 717.104 461.291C717.212 462.037 716.951 462.782 716.398 463.3C716.099 463.467 715.761 463.566 715.423 463.589C714.172 463.809 712.898 463.931 711.624 463.962C709.513 463.962 707.248 463.452 705.414 464.441C703.579 465.43 702.719 467.522 701.829 469.447C700.524 472.186 698.827 474.727 696.778 476.972C694.506 479.475 691.681 481.841 691.036 485.151C690.767 486.558 692.057 487.608 693.078 488.62C697.154 492.629 702.842 495.094 705.859 499.941C706.565 501.075 707.141 502.353 708.231 503.129C707.555 504.582 709.006 506.073 709.313 507.64C709.436 508.66 709.459 509.695 709.397 510.722C709.536 512.228 709.789 513.719 710.173 515.18C710.572 517.569 710.756 519.981 710.725 522.4L710.856 530.496C710.91 533.988 710.963 537.518 710.196 540.926C709.144 545.545 706.588 549.973 706.788 554.72C706.941 555.61 706.849 556.523 706.527 557.368C704.408 561.218 702.735 565.478 700.462 569.282C699.81 570.203 699.288 571.207 698.912 572.272C698.305 574.464 699.549 576.845 701.384 578.214C703.218 579.584 705.529 580.147 707.785 580.573C728.703 584.544 750.427 579.767 770.2 571.915C770.722 571.755 771.206 571.489 771.62 571.146C773.064 569.754 771.928 567.403 771.106 565.592C767.997 558.829 770.477 550.969 770.032 543.582C769.74 538.598 768.105 533.577 769.333 528.708C770.108 525.459 772.181 522.659 773.616 519.623C775.167 516.337 776.042 512.692 778.076 509.695C779.596 507.633 781.385 505.769 783.38 504.156L796 493.01C794.327 490.324 794.258 486.954 793.475 483.895C792.791 481.263 791.433 478.843 790.619 476.256C789.483 472.658 789.329 468.557 786.988 465.613C786.067 464.433 784.862 463.52 783.826 462.432C782.643 461.185 781.715 459.731 780.51 458.506C777.025 454.969 771.766 453.843 766.8 453.363C761.841 452.884 756.706 452.861 752.108 450.891C749.859 449.932 747.448 448.471 745.115 449.194C743.265 449.765 742.075 451.56 741.323 453.333C740.57 455.106 740.041 457.03 738.805 458.514C737.277 460.287 734.583 461.458 732.365 462.28Z" fill="#E5B533"></path><path d="M672.659 502.683C671.925 503.853 670.96 504.867 669.818 505.681C667.471 507.065 664.499 506.332 661.882 505.555C654.626 503.394 647.324 501.218 640.554 497.916C640.222 497.702 639.813 497.605 639.411 497.657C639.095 497.753 638.825 497.946 638.632 498.198C637.566 499.33 636.586 500.537 635.706 501.802C634.772 502.979 634.185 504.371 634 505.836C634.008 507.642 634.834 509.36 636.254 510.544C637.667 511.699 639.241 512.654 640.94 513.379C649.578 517.509 658.27 521.536 667.023 525.459C667.587 525.755 668.204 525.94 668.845 525.999C670.628 526.036 671.755 524.26 673.176 523.246C674.596 522.224 676.464 521.943 678.155 521.403C681.219 520.433 683.883 518.597 686.484 516.777L694.821 510.966C702.131 505.873 709.804 500.322 713 492.246L702.849 489.041C699.8 488.072 696.604 486.606 693.439 486.043C691.092 485.607 688.275 488.575 686.523 489.841C684.052 491.595 681.675 493.475 679.405 495.466C677.174 497.435 674.079 499.967 672.659 502.683Z" fill="#E5B533"></path><path d="M769.024 566.562C766.142 567.704 762.871 565.983 759.81 566.492C758.381 566.809 757.014 567.372 755.771 568.152L746.845 573.108C746.293 573.402 745.695 574.135 746.177 574.521C746.316 574.614 746.472 574.668 746.643 574.676C749.618 575.062 752.407 573.255 755.367 572.753C756.672 572.576 757.985 572.529 759.298 572.607C759.515 572.591 759.733 572.622 759.935 572.699C760.378 572.954 760.634 573.433 760.595 573.942C760.595 574.444 760.448 574.923 760.432 575.424C760.525 576.575 760.976 577.671 761.729 578.551C764.573 582.604 767.727 586.433 771.161 590C772.031 588.904 772.784 587.723 773.406 586.472L776.342 581.006C779.395 575.37 782.511 569.519 783 563.134C780.801 562.439 776.715 560.139 774.439 561.343C772.163 562.547 771.642 565.72 769.024 566.562Z" fill="#C17E47"></path><path d="M719.517 426.262C725.159 426.859 730.298 429.505 735.346 432.106C734.485 433.452 735.574 435.387 737.112 435.848C738.643 436.309 740.325 435.659 741.627 434.714C742.929 433.777 744.002 432.56 745.312 431.652C746.439 430.889 747.87 430.08 747.992 428.719C748.114 427.358 746.819 426.308 746.012 425.181C743.112 421.136 746.317 414.801 743.348 410.802C741.855 408.799 739.259 408.043 736.952 407.06C733.762 405.714 730.861 403.771 727.664 402.433C724.466 401.095 720.789 400.399 717.568 401.67C711.546 404.051 709.391 412.223 703.27 414.355C702.615 414.484 702.013 414.824 701.564 415.315C700.795 416.48 699.828 423.352 700.026 424.765C700.315 427.132 700.97 428.001 703.315 428.704C708.317 430.193 714.149 425.688 719.517 426.262Z" fill="#051C23"></path><path d="M793.39 488C795.241 489.664 796.68 491.728 797.598 494.03C798.345 496.233 798.937 498.482 799.38 500.762C800.461 505.144 802.235 509.333 803.192 513.723C804.81 521.232 803.986 529.057 800.827 536.073C799.707 538.522 798.306 540.871 797.723 543.498C797.505 544.507 797.404 545.546 797.108 546.54C796.626 547.918 795.957 549.228 795.124 550.437L782.218 571C781.214 568.574 779.207 566.687 776.71 565.825C774.228 564.993 771.56 564.839 769 565.362C769.957 563.868 770.385 562.189 771.365 560.688C771.902 559.887 772.392 559.063 772.835 558.208C773.279 557.283 773.66 556.336 773.987 555.366L775.683 550.637C777.667 545.115 779.619 539.585 781.354 533.978C782.405 530.713 783.229 527.378 783.844 524.005C784.031 523.15 784.054 522.264 783.906 521.394C783.642 520.539 783.237 519.731 782.708 519.007C780.833 515.849 779.199 512.56 777.838 509.156C776.811 506.776 775.784 504.104 776.702 501.693C777.285 500.415 778.157 499.283 779.238 498.374C783.525 494.377 788.278 490.896 793.39 488Z" fill="#E5B533"></path><path opacity="0.1" d="M728.377 752L729.254 750.083C727.565 741.472 728.406 732.509 729.254 723.707L731.609 699.569C731.986 695.689 732.341 691.81 731.913 687.984C731.362 683.329 729.63 678.675 730.71 674.105C731.007 672.848 731.507 671.667 731.841 670.417C732.232 668.661 732.449 666.859 732.471 665.058L733.42 646.073C733.573 643.029 733.826 639.739 735 637.025V636.504L731.978 609L724 752H728.377Z" fill="black"></path><path fill-rule="evenodd" clip-rule="evenodd" d="M676.503 669.855C677.217 679.818 677.71 689.789 677.969 699.769L677.969 699.77C678.043 702.687 678.114 706.24 676.691 709.44L676.673 709.48L676.654 709.52C675.632 711.57 674.261 713.425 672.607 715.003C668.928 718.805 664.808 722.15 660.346 724.969L659.277 723.278L660.347 724.969C660.346 724.969 660.346 724.969 660.346 724.969C659.959 725.214 659.57 725.458 659.182 725.702C656.553 727.352 653.939 728.992 651.842 730.917C649.471 733.093 648.045 735.383 648.001 738.099C648.001 738.098 648.001 738.098 648.001 738.098L646.006 738.067L648.001 738.099C648.001 738.099 648.001 738.099 648.001 738.099C647.971 740.011 648.66 741.836 649.82 743.733C650.75 745.252 651.887 746.678 653.088 748.183C653.42 748.6 653.757 749.022 654.096 749.454C655.671 751.463 657.219 753.937 658.054 756.565C658.893 759.208 659.06 762.185 657.569 764.948L654.049 763.049C654.86 761.546 654.875 759.772 654.242 757.776C653.603 755.767 652.357 753.719 650.948 751.922C650.659 751.554 650.357 751.175 650.046 750.785C648.825 749.257 647.481 747.575 646.408 745.82C645.035 743.576 643.955 740.994 644.001 738.036L644.001 738.034C644.071 733.773 646.36 730.519 649.137 727.97C651.526 725.777 654.486 723.922 657.085 722.294C657.468 722.054 657.844 721.819 658.208 721.588L658.209 721.588C662.415 718.931 666.297 715.777 669.76 712.193L669.79 712.162L669.821 712.133C671.141 710.879 672.236 709.404 673.053 707.776C673.048 707.789 673.042 707.802 673.036 707.815L674.864 708.628L673.074 707.735C673.067 707.749 673.06 707.762 673.053 707.776C674.037 705.532 674.047 702.894 673.97 699.871C673.97 699.872 673.97 699.872 673.97 699.872L675.969 699.821L673.97 699.871C673.713 689.955 673.223 680.045 672.513 670.141L676.503 669.855Z" fill="#57B894"></path><path d="M685.982 668.998C685.811 665.076 683.737 661.511 680.483 659.554L678.014 664.662L678.092 658.474C676.911 658.109 675.684 657.955 674.457 658.011C667.98 658.344 663.088 664.475 664.144 671.37C664.944 676.591 669.215 680.643 674.263 680.976C680.911 681.415 686.269 675.755 685.99 668.998H685.982Z" fill="#57B894"></path><path d="M666.773 743.043C663.985 748.44 657.354 750.56 651.957 747.772C646.56 744.985 644.44 738.353 647.228 732.957C650.016 727.56 656.647 725.44 662.044 728.228C664.475 729.486 666.354 731.598 667.309 734.168L660.421 739.798L668 738.043C667.992 739.782 667.573 741.498 666.773 743.043Z" fill="#57B894"></path><path d="M661.174 721.972C654.912 722.398 649.47 717.845 649.028 711.806C648.643 706.517 652.231 701.717 657.553 700.408L657.489 704.938L660.074 700.013C666.343 699.719 671.681 704.38 671.986 710.428C671.986 710.443 671.986 710.459 671.986 710.474C672.05 711.744 671.89 713.014 671.497 714.229C670.1 718.651 665.966 721.748 661.174 721.972Z" fill="#57B894"></path><path d="M687.449 704.992C681.35 705.227 676.226 700.265 676.008 693.922C675.782 687.571 680.547 682.235 686.638 682.007C688.626 681.934 690.599 682.413 692.346 683.412L690.389 689L694.413 684.972C696.565 687.027 697.852 689.894 697.985 692.931C698.039 694.003 697.946 695.067 697.712 696.115C696.589 701.134 692.393 704.765 687.449 704.992Z" fill="#57B894"></path><path opacity="0.1" d="M684.732 672.063C682.148 672.322 679.644 673.084 677.052 673.232C674.461 673.379 671.618 672.803 669.979 670.909C669.105 669.889 668.656 668.602 667.916 667.492C667.207 666.457 666.238 665.599 665.096 665C662.434 670.221 664.789 676.471 670.342 678.971C675.903 681.471 682.558 679.259 685.22 674.045C685.559 673.387 685.819 672.692 686 671.974C685.575 671.989 685.157 672.019 684.732 672.063Z" fill="black"></path><path opacity="0.1" d="M687.683 704.984C681.55 705.32 676.321 700.268 676.014 693.715C675.92 691.743 676.289 689.779 677.082 688C677.97 688.638 678.731 689.452 679.32 690.392C680.113 691.675 680.6 693.161 681.527 694.327C683.27 696.509 686.23 697.222 688.923 697.096C691.616 696.97 694.215 696.148 696.869 695.88C697.246 695.88 697.615 695.821 698 695.812C696.854 700.998 692.645 704.741 687.683 704.984Z" fill="black"></path><path opacity="0.1" d="M662.223 721.986C656.331 722.286 651.307 717.773 651.013 711.918C650.93 710.224 651.247 708.544 651.948 707C652.839 707.577 653.616 708.312 654.242 709.159C655.072 710.329 655.592 711.678 656.573 712.757C658.383 714.752 661.416 715.456 664.154 715.396C666.885 715.336 669.367 714.692 672 714.489C670.665 718.792 666.749 721.798 662.223 721.986Z" fill="black"></path><path opacity="0.1" d="M667 742.861C664.523 748.944 658.029 751.666 652.495 748.944C646.961 746.221 644.484 739.083 646.961 733C647.866 733.655 648.679 734.446 649.376 735.365C650.428 736.761 651.117 738.352 652.317 739.67C654.562 742.095 658.192 743.116 661.427 743.193C663.285 743.201 665.15 743.09 667 742.861Z" fill="black"></path><path d="M640 758.576C640 758.576 648.601 758.319 651.194 756.497C653.787 754.676 664.39 752.514 665.058 755.424C665.725 758.334 677.978 769.954 668.28 769.999C658.575 770.044 645.724 768.517 643.13 766.937C640.537 765.365 640 758.576 640 758.576Z" fill="#656380"></path><path opacity="0.2" d="M668.473 769.916C658.752 769.995 645.897 768.319 643.31 766.715C641.336 765.474 640.553 761.047 640.284 759H640C640 759 640.545 766.145 643.11 767.797C645.675 769.441 658.56 771.054 668.281 770.999C671.084 770.999 672.052 769.947 671.998 768.43C671.622 769.323 670.562 769.892 668.473 769.916Z" fill="black"></path><path fill-rule="evenodd" clip-rule="evenodd" d="M29.4974 663.855C28.7834 673.818 28.2896 683.789 28.0313 693.769L28.0313 693.77C27.9571 696.687 27.8864 700.24 29.3088 703.44L29.3267 703.48L29.3465 703.52C30.3682 705.57 31.7391 707.425 33.3929 709.003C37.0716 712.805 41.1924 716.15 45.6543 718.969L46.7226 717.278L45.6533 718.969C45.6536 718.969 45.654 718.969 45.6543 718.969C46.0415 719.214 46.4299 719.458 46.818 719.702C49.4471 721.352 52.0614 722.992 54.1582 724.917C56.5293 727.093 57.9546 729.383 57.9991 732.099C57.9991 732.098 57.9991 732.098 57.9991 732.098L59.9936 732.067L57.9991 732.099C57.9991 732.099 57.9991 732.099 57.9991 732.099C58.0286 734.011 57.3403 735.836 56.1797 737.733C55.2502 739.252 54.1126 740.678 52.912 742.183C52.5798 742.6 52.2428 743.022 51.9041 743.454C50.3294 745.463 48.781 747.937 47.9461 750.565C47.1069 753.208 46.9398 756.185 48.4312 758.948L51.9512 757.049C51.1402 755.546 51.1247 753.772 51.7584 751.776C52.3966 749.767 53.6429 747.719 55.0521 745.922C55.3405 745.554 55.6435 745.175 55.9544 744.785C57.175 743.257 58.5187 741.575 59.5919 739.82C60.9645 737.576 62.0446 734.994 61.9986 732.036L61.9986 732.034C61.9292 727.773 59.6397 724.519 56.863 721.97C54.4739 719.777 51.5138 717.922 48.9149 716.294C48.5317 716.054 48.1564 715.819 47.7919 715.588L47.7908 715.588C43.5854 712.931 39.7034 709.777 36.2401 706.193L36.2104 706.162L36.1794 706.133C34.8592 704.879 33.7641 703.404 32.9466 701.776C32.9523 701.789 32.9582 701.802 32.964 701.815L31.1364 702.628L32.9263 701.735C32.933 701.749 32.9398 701.762 32.9466 701.776C31.9628 699.532 31.9532 696.894 32.03 693.871C32.03 693.872 32.03 693.872 32.03 693.872L30.0307 693.821L32.03 693.871C32.2867 683.955 32.7774 674.045 33.4872 664.141L29.4974 663.855Z" fill="#57B894"></path><path d="M20.0182 662.998C20.1891 659.076 22.2626 655.511 25.5166 653.554L27.9861 658.662L27.9084 652.474C29.0889 652.109 30.3159 651.955 31.5429 652.011C38.0197 652.344 42.9123 658.475 41.8561 665.37C41.0563 670.591 36.7849 674.643 31.7371 674.976C25.0894 675.415 19.7309 669.755 20.0105 662.998H20.0182Z" fill="#57B894"></path><path d="M39.2269 737.043C42.0147 742.44 48.6462 744.56 54.043 741.772C59.4399 738.985 61.5598 732.353 58.7721 726.957C55.9843 721.56 49.3528 719.44 43.9559 722.228C41.5254 723.486 39.6462 725.598 38.6911 728.168L45.5789 733.798L38 732.043C38.0078 733.782 38.4271 735.498 39.2269 737.043Z" fill="#57B894"></path><path d="M44.8265 715.972C51.0877 716.398 56.5302 711.845 56.9717 705.806C57.357 700.517 53.7688 695.717 48.4468 694.408L48.511 698.938L45.9262 694.013C39.6569 693.719 34.3188 698.38 34.0137 704.428C34.0137 704.443 34.0137 704.459 34.0137 704.474C33.9495 705.744 34.1101 707.014 34.5034 708.229C35.9002 712.651 40.0342 715.748 44.8265 715.972Z" fill="#57B894"></path><path d="M18.5514 698.992C24.65 699.227 29.7739 694.265 29.9923 687.922C30.2184 681.571 25.4533 676.235 19.3625 676.007C17.3738 675.934 15.4007 676.413 13.6537 677.412L15.6112 683L11.587 678.972C9.43453 681.027 8.14771 683.894 8.01513 686.931C7.96054 688.003 8.05415 689.067 8.28812 690.115C9.41115 695.134 13.6069 698.765 18.5514 698.992Z" fill="#57B894"></path><path opacity="0.1" d="M21.2681 666.063C23.8515 666.322 26.3562 667.084 28.9475 667.232C31.5388 667.379 34.3822 666.803 36.0205 664.909C36.8948 663.889 37.3437 662.602 38.0841 661.492C38.793 660.457 39.7618 659.599 40.9039 659C43.5661 664.221 41.211 670.471 35.6582 672.971C30.0975 675.471 23.442 673.259 20.7798 668.045C20.4411 667.387 20.1812 666.692 20 665.974C20.4253 665.989 20.8428 666.019 21.2681 666.063Z" fill="black"></path><path opacity="0.1" d="M18.3175 698.984C24.4499 699.32 29.6794 694.268 29.9856 687.715C30.0798 685.743 29.7107 683.779 28.9177 682C28.0304 682.638 27.2688 683.452 26.6799 684.392C25.8868 685.675 25.4 687.161 24.4735 688.327C22.7303 690.509 19.7701 691.222 17.0769 691.096C14.3837 690.97 11.7846 690.148 9.13064 689.88C8.75375 689.88 8.38475 689.821 8 689.812C9.14639 694.998 13.355 698.741 18.3175 698.984Z" fill="black"></path><path opacity="0.1" d="M43.7769 715.986C49.6686 716.286 54.6929 711.773 54.9871 705.918C55.07 704.224 54.7532 702.544 54.0516 701C53.1615 701.577 52.3844 702.312 51.7583 703.159C50.9284 704.329 50.4079 705.678 49.4272 706.757C47.6167 708.752 44.5841 709.456 41.8456 709.396C39.1148 709.336 36.6328 708.692 34 708.489C35.3353 712.792 39.2506 715.798 43.7769 715.986Z" fill="black"></path><path opacity="0.1" d="M39 736.861C41.4768 742.944 47.9708 745.666 53.505 742.944C59.0392 740.221 61.516 733.083 59.0392 727C58.1336 727.655 57.3209 728.446 56.6243 729.365C55.5716 730.761 54.8827 732.352 53.683 733.67C51.4384 736.095 47.8083 737.116 44.5729 737.193C42.7153 737.201 40.8499 737.09 39 736.861Z" fill="black"></path><path d="M66 752.576C66 752.576 57.3993 752.319 54.806 750.497C52.2128 748.676 41.6096 746.514 40.9421 749.424C40.2746 752.334 28.0218 763.954 37.7197 763.999C47.4252 764.044 60.2764 762.517 62.8697 760.937C65.4629 759.365 66 752.576 66 752.576Z" fill="#656380"></path><path opacity="0.2" d="M37.5267 763.916C47.2482 763.995 60.1026 762.319 62.6904 760.715C64.6639 759.474 65.4471 755.047 65.7158 753H66C66 753 65.4548 760.145 62.89 761.797C60.3253 763.441 47.4402 765.054 37.7187 764.999C34.9159 764.999 33.9484 763.947 34.0021 762.43C34.3784 763.323 35.4381 763.892 37.5267 763.916Z" fill="black"></path><defs><linearGradient id="paint0_linear" x1="140.502" y1="593.003" x2="140.502" y2="544.002" gradientUnits="userSpaceOnUse"><stop stop-color="#808080" stop-opacity="0.25"></stop><stop offset="0.54" stop-color="#808080" stop-opacity="0.12"></stop><stop offset="1" stop-color="#808080" stop-opacity="0.1"></stop></linearGradient><linearGradient id="paint1_linear" x1="770.499" y1="561.994" x2="770.499" y2="508.993" gradientUnits="userSpaceOnUse"><stop stop-color="#808080" stop-opacity="0.25"></stop><stop offset="0.54" stop-color="#808080" stop-opacity="0.12"></stop><stop offset="1" stop-color="#808080" stop-opacity="0.1"></stop></linearGradient></defs></svg>
