
<svg width="45" height="129" viewBox="0 0 45 129" fill="none" xmlns="http://www.w3.org/2000/svg">
<path d="M15.3215 26.7575C15.9544 27.0529 16.3412 27.7491 16.2076 28.4734L14.3932 38.6913C13.5001 43.7264 11.946 48.6349 9.78007 53.2691L5.3849 62.6713C5.01219 63.4659 4.06987 63.8105 3.27523 63.4378C2.48058 63.0651 2.136 62.1227 2.50871 61.3281L6.90387 51.926C8.95729 47.5449 10.427 42.9036 11.2709 38.1357L13.0852 27.9178C13.2399 27.0529 14.0627 26.4762 14.9277 26.6309C15.0683 26.652 15.2019 26.6942 15.3215 26.7575Z" fill="#A87463"/>
<path d="M4.80795 66.4195C4.67434 66.7008 4.34382 66.8204 4.06253 66.6868C3.95001 66.6375 3.86563 66.5531 3.80937 66.4547C3.7953 66.4266 3.76718 66.4055 3.73201 66.4055C3.70389 66.4055 3.66872 66.4125 3.64763 66.4406C3.46479 66.6516 3.15537 66.729 2.88111 66.6094C2.71937 66.5321 2.60685 66.4055 2.55059 66.2578C2.53653 66.2297 2.5084 66.2015 2.47324 66.1945C2.43808 66.1875 2.40292 66.2015 2.38182 66.2297C2.16382 66.4828 1.80517 66.5602 1.50279 66.4195C1.2215 66.293 1.02459 65.9906 1.07382 65.639C1.08085 65.6038 1.06679 65.5686 1.03866 65.5475C1.01053 65.5264 0.975368 65.5194 0.940207 65.5335C0.778464 65.6038 0.588593 65.6108 0.412787 65.5264C0.0822707 65.3717 -0.0583745 64.985 0.0893029 64.6615C0.0893029 64.6615 0.349497 64.0637 0.45498 63.8246C0.476077 63.7754 0.45498 63.7121 0.405755 63.691C-0.26231 63.3816 -0.0513422 62.4322 0.644852 61.5321C1.45356 60.4702 3.52105 58.9372 4.99079 59.7037C6.2144 60.3366 6.79105 62.0525 6.04563 63.7684C5.91201 64.0708 6.17221 63.5222 4.80795 66.4195Z" fill="#A87463"/>
<path d="M14.9834 38.7968C14.0762 43.8811 12.508 48.8389 10.321 53.5224L7.22678 60.1397C7.14942 60.3015 6.95955 60.3718 6.79078 60.2944L3.42936 58.7192C3.26762 58.6418 3.19729 58.452 3.27465 58.2832L6.36884 51.6658C8.40117 47.3269 9.84981 42.7419 10.6866 38.0233L12.508 27.8054C12.6135 27.2287 12.9299 26.7295 13.4081 26.3919C13.8863 26.0614 14.463 25.9348 15.0396 26.0333C15.2295 26.0684 15.4123 26.1247 15.5881 26.202C16.4812 26.6169 16.9876 27.5944 16.8117 28.5578L14.9834 38.7968Z" fill="#CC8900"/>
<path d="M14.7304 60.4844C13.781 60.6532 13.0286 61.4408 12.9442 62.4464L11.5026 79.359C10.7923 87.6641 11.1791 96.0325 12.6418 104.232L15.4125 119.766C15.6235 120.955 16.7557 121.742 17.9441 121.531C19.1326 121.32 19.9202 120.188 19.7092 119L16.9385 103.466C15.5391 95.6387 15.1734 87.65 15.8485 79.7247L17.2901 62.8121C17.3956 61.6096 16.5025 60.5547 15.3 60.4492C15.1101 60.4422 14.9203 60.4492 14.7304 60.4844Z" fill="#A87463"/>
<path d="M18.7742 127.896L18.7812 127.98C18.7882 128.107 18.8726 128.198 18.9711 128.198H19.2805C19.3789 128.198 19.4633 128.107 19.4704 127.98L19.6673 125.413L19.0344 127.481C18.9781 127.642 18.8867 127.776 18.7742 127.896Z" fill="#664400"/>
<path d="M20.2441 119.309L19.4003 121.77C19.3932 121.799 19.3792 121.827 19.3721 121.855C19.1471 122.495 18.8588 123.114 18.5001 123.697C18.4087 123.838 18.3173 123.979 18.2259 124.119L17.4594 125.237C17.2625 125.533 16.9109 125.709 16.5381 125.709H16.4397H13.7182C13.5002 125.709 13.2892 125.758 13.1134 125.849C13.1064 125.849 13.1064 125.856 13.1064 125.856C13.0501 125.877 13.0009 125.913 12.9517 125.941C12.9025 125.976 12.8532 126.011 12.811 126.046C12.7689 126.081 12.7267 126.123 12.6845 126.166C12.6493 126.208 12.6141 126.257 12.586 126.299C12.5649 126.327 12.5438 126.363 12.5298 126.398C12.5087 126.426 12.5016 126.44 12.4876 126.475C12.4594 126.524 12.4454 126.581 12.4313 126.637C12.4172 126.672 12.4102 126.714 12.4032 126.749C12.3961 126.77 12.3961 126.792 12.3891 126.813C12.3821 126.855 12.3821 126.904 12.3821 126.953C12.3821 127.291 12.5298 127.607 12.7759 127.832C13.015 128.057 13.3525 128.198 13.7182 128.198H17.3117H18.0149C18.3103 128.198 18.5845 128.085 18.7814 127.896C18.901 127.783 18.9854 127.642 19.0346 127.481L19.6675 125.413L20.2863 123.395C20.4621 122.825 20.5325 122.235 20.4903 121.644C20.441 121.032 20.3637 120.195 20.2441 119.309Z" fill="#CC8900"/>
<path d="M16.4332 125.709H16.5316C16.9044 125.709 17.256 125.533 17.4529 125.237L18.2194 124.119C18.3178 123.979 18.4093 123.838 18.4936 123.697C18.8523 123.114 19.1406 122.495 19.3656 121.855C19.3727 121.827 19.3867 121.799 19.3938 121.771L20.2376 119.309H20.2447C20.1955 118.972 20.1392 118.627 20.0759 118.29H20.0689C19.886 116.714 18.782 115.505 17.4529 115.505C15.9902 115.505 14.8017 116.967 14.8017 118.761L14.7455 119.78C14.7033 120.505 14.6118 121.222 14.4571 121.939L13.8875 124.605C13.8102 124.984 13.6203 125.329 13.339 125.61L13.1069 125.849C13.2898 125.758 13.4937 125.709 13.7117 125.709H16.4332Z" fill="#A87463"/>
<path d="M25.4548 60.4844C24.5054 60.6532 23.753 61.4408 23.6686 62.4464L22.227 79.359C21.5167 87.6641 21.9035 96.0325 23.3662 104.232L26.1369 119.766C26.3479 120.955 27.4801 121.742 28.6685 121.531C29.857 121.32 30.6446 120.188 30.4336 119L27.6629 103.466C26.2635 95.6387 25.8978 87.65 26.5729 79.7247L28.0145 62.8121C28.12 61.6096 27.2269 60.5547 26.0244 60.4492C25.8275 60.4422 25.6376 60.4492 25.4548 60.4844Z" fill="#A87463"/>
<path d="M29.4902 127.896L29.4973 127.98C29.5043 128.107 29.5887 128.198 29.6871 128.198H29.9966C30.095 128.198 30.1794 128.107 30.1864 127.98L30.3833 125.413L29.7504 127.481C29.6942 127.642 29.6098 127.776 29.4902 127.896Z" fill="#664400"/>
<path d="M30.9602 119.309L30.1163 121.77C30.1093 121.799 30.0952 121.827 30.0882 121.855C29.8632 122.495 29.5749 123.114 29.2162 123.697C29.1248 123.838 29.0334 123.979 28.942 124.119L28.1754 125.237C27.9785 125.533 27.6269 125.709 27.2542 125.709H27.1558H24.4343C24.2163 125.709 24.0053 125.758 23.8295 125.849C23.8225 125.849 23.8225 125.856 23.8225 125.856C23.7662 125.877 23.717 125.913 23.6678 125.941C23.6185 125.976 23.5693 126.011 23.5271 126.046C23.4849 126.081 23.4427 126.123 23.4005 126.166C23.3654 126.208 23.3302 126.257 23.3021 126.299C23.281 126.327 23.2599 126.363 23.2458 126.398C23.2247 126.426 23.2177 126.44 23.2036 126.475C23.1755 126.524 23.1614 126.581 23.1474 126.637C23.1333 126.672 23.1263 126.714 23.1192 126.749C23.1122 126.77 23.1122 126.792 23.1052 126.813C23.0981 126.855 23.0981 126.904 23.0981 126.953C23.0981 127.291 23.2458 127.607 23.492 127.832C23.731 128.057 24.0686 128.198 24.4343 128.198H28.0278H28.731C29.0263 128.198 29.3006 128.085 29.4975 127.896C29.6171 127.783 29.7014 127.642 29.7507 127.481L30.3836 125.413L31.0024 123.395C31.1782 122.825 31.2485 122.235 31.2063 121.644C31.1571 121.032 31.0798 120.195 30.9602 119.309Z" fill="#CC8900"/>
<path d="M27.1561 125.709H27.2545C27.6273 125.709 27.9789 125.533 28.1758 125.237L28.9423 124.119C29.0407 123.979 29.1322 123.838 29.2165 123.697C29.5752 123.114 29.8635 122.495 30.0885 121.855C30.0956 121.827 30.1096 121.799 30.1167 121.771L30.9605 119.309H30.9676C30.9184 118.972 30.8621 118.627 30.7988 118.29H30.7918C30.6089 116.714 29.5049 115.505 28.1758 115.505C26.7131 115.505 25.5246 116.967 25.5246 118.761L25.4684 119.78C25.4262 120.505 25.3347 121.222 25.18 121.939L24.6104 124.605C24.5331 124.984 24.3432 125.329 24.0619 125.61L23.8298 125.849C24.0127 125.758 24.2166 125.709 24.4346 125.709H27.1561Z" fill="#A87463"/>
<path d="M43.3941 37.2006C43.9356 37.8757 44.2591 38.7196 44.2802 39.5916C44.3083 40.8152 43.7598 42.0037 42.8105 42.7702L31.2916 52.0598C30.6095 52.6083 29.6109 52.5028 29.0624 51.8207C28.5139 51.1386 28.6194 50.14 29.3015 49.5915L40.8133 40.2948C41.0032 40.1401 41.1087 39.9081 41.1016 39.669C41.0946 39.4299 40.975 39.1978 40.7781 39.0572L28.8233 30.3442C28.113 29.8308 27.9583 28.8323 28.4787 28.129C28.9921 27.4188 29.9907 27.2641 30.6939 27.7844L42.6487 36.4974C42.93 36.6943 43.1761 36.9334 43.3941 37.2006Z" fill="#A87463"/>
<path d="M43.1832 43.2342L34.0623 50.597C33.9217 50.7095 33.7178 50.6884 33.6052 50.5478L31.2705 47.6575C31.158 47.5169 31.1791 47.3129 31.3198 47.2004L40.4406 39.8377C40.4828 39.8025 40.5109 39.7392 40.5109 39.69C40.5109 39.6478 40.4969 39.6056 40.4687 39.5775C40.4617 39.5634 40.4476 39.5564 40.4336 39.5423L28.4787 30.8293C28.324 30.7168 28.1834 30.5832 28.0638 30.4355C27.445 29.669 27.4168 28.579 27.9935 27.7844C28.3381 27.3132 28.8444 27.0038 29.421 26.9124C29.9977 26.8209 30.5743 26.9616 31.0455 27.3062L43.0003 36.0191C43.3168 36.2512 43.6051 36.5255 43.8583 36.8349C44.4912 37.6155 44.8498 38.5929 44.8709 39.5915C44.9061 40.9839 44.2732 42.3482 43.1832 43.2342Z" fill="#FFAB00"/>
<path d="M13.7245 35.8925C14.0129 37.2779 14.1605 38.6914 14.1605 40.1049V63.4449H20.0817V38.4242C20.0817 37.081 20.4825 35.766 21.235 34.6549C21.7343 33.9165 22.332 33.0656 23.0352 32.0248C24.9129 29.2681 25.3981 27.1444 25.4965 25.9208C25.4965 25.9138 25.4965 25.9138 25.4965 25.9138C25.5036 25.8645 25.5036 25.8153 25.5036 25.7661C25.5176 25.5762 25.5247 25.4074 25.5176 25.2668C25.5247 25.2598 25.5106 24.9503 25.5036 24.7464C25.5036 24.7323 25.5036 24.7183 25.5036 24.7042C25.5036 24.6339 25.4965 24.5776 25.4965 24.5776C25.4895 24.5003 25.4754 24.437 25.4403 24.3878V24.3807C25.4121 24.3385 25.377 24.3104 25.3348 24.2893C25.3278 24.2823 25.3207 24.2823 25.3137 24.2752C25.2715 24.2541 25.2223 24.2331 25.173 24.219C25.173 24.219 25.173 24.219 25.166 24.219C25.159 24.219 25.159 24.219 25.152 24.219C25.0535 24.1979 24.941 24.1768 24.8214 24.1627C24.7792 24.1557 24.73 24.1557 24.6808 24.1487C24.6456 24.1416 24.6175 24.1346 24.5823 24.1346C24.5542 24.1346 24.5261 24.1346 24.4909 24.1276C24.3643 24.1135 24.2378 24.1065 24.1112 24.0994C24.069 24.0994 24.0268 24.0924 23.9846 24.0924C23.9424 24.0924 23.9072 24.0924 23.865 24.0924C22.775 24.0924 20.0254 24.1135 18.9425 24.2893C18.8018 24.3104 18.6682 24.3456 18.5416 24.3878C18.4994 24.4018 18.4643 24.4159 18.4221 24.43C18.3447 24.4581 18.2674 24.4932 18.19 24.5284C18.1478 24.5495 18.1056 24.5706 18.0705 24.5987C18.0072 24.6339 17.9439 24.6761 17.8806 24.7183C17.8454 24.7464 17.8032 24.7745 17.7681 24.8027C17.747 24.8238 17.7189 24.8378 17.6978 24.8519C17.7048 24.8519 17.7048 24.8519 17.7118 24.8519C17.2688 25.2316 16.9383 25.7591 16.5234 26.4131C16.4179 26.5818 16.3124 26.7436 16.228 26.9123C14.3996 30.33 13.2956 33.8954 13.6894 35.8152C13.7105 35.8363 13.7175 35.8644 13.7245 35.8925Z" fill="#996700"/>
<path d="M17.7051 24.852C18.0286 24.5707 18.4154 24.3808 18.9428 24.2894C20.0258 24.1136 22.7754 24.0925 23.8654 24.0925C23.9076 24.0925 23.9428 24.0925 23.9849 24.0925C24.2029 24.0925 24.3998 24.1065 24.5827 24.1347C24.7866 24.1558 24.9765 24.1909 25.1593 24.2261C25.1734 24.2261 25.1804 24.2331 25.1945 24.2331C25.3211 24.2542 25.3984 24.3105 25.4406 24.3878C25.4899 24.4722 25.4969 24.5918 25.5039 24.7113C25.5039 24.7254 25.5039 24.7394 25.5039 24.7535C25.8907 24.8168 26.2634 24.8871 26.608 24.9645C26.5798 24.9363 26.5588 24.9152 26.5306 24.8871C26.2915 24.648 25.9469 24.2683 25.7782 23.9729C25.6938 23.8393 25.5531 23.7409 25.3914 23.7057V23.6987C24.8288 23.5861 24.2662 23.5299 23.6966 23.5299C19.1116 23.5158 18.5982 23.5299 17.4871 24.2894C17.4098 24.3386 17.3254 24.4019 17.241 24.4581C16.9105 24.6972 16.587 24.9363 16.2776 25.2036C16.7066 25.084 17.1847 24.9574 17.7051 24.852Z" fill="#FFEECC"/>
<path d="M21.8541 27.2077C23.0581 27.2077 24.0341 26.2317 24.0341 25.0277C24.0341 23.8237 23.0581 22.8477 21.8541 22.8477C20.6501 22.8477 19.6741 23.8237 19.6741 25.0277C19.6741 26.2317 20.6501 27.2077 21.8541 27.2077Z" fill="#E28F84"/>
<path d="M22.0933 29.4512C21.9878 29.4582 21.8893 29.4582 21.7909 29.4512C20.5462 29.3668 19.5406 28.3682 19.4702 27.0954L18.985 17.9112C18.9147 16.5329 19.9695 15.3585 21.3479 15.2882C22.7402 15.2109 23.9006 16.2727 23.9709 17.6511L24.4561 26.8352C24.5264 28.2065 23.4716 29.3809 22.0933 29.4512Z" fill="#A87463"/>
<path d="M24.1889 21.814L23.9709 17.6368C23.9006 16.2585 22.7332 15.1966 21.3479 15.274C19.9695 15.3443 18.9147 16.5187 18.985 17.897L19.3015 23.9307C20.1383 23.7479 21.0173 23.4525 21.9245 23.0587C22.7051 22.7282 23.4646 22.2992 24.1889 21.814Z" fill="#976758"/>
<path d="M28.0355 62.6292C28.0355 63.8317 27.0581 64.8092 25.8555 64.8092C24.653 64.8092 23.6755 63.8317 23.6755 62.6292C23.6755 61.4267 24.653 60.4492 25.8555 60.4492C27.0581 60.4492 28.0355 61.4267 28.0355 62.6292Z" fill="#E28F84"/>
<path d="M17.297 62.6292C17.297 63.8317 16.3195 64.8092 15.117 64.8092C13.9145 64.8092 12.937 63.8317 12.937 62.6292C12.937 61.4267 13.9145 60.4492 15.117 60.4492C16.3266 60.4492 17.297 61.4267 17.297 62.6292Z" fill="#E28F84"/>
<path d="M31.024 28.1923C31.024 29.0713 30.3138 29.7815 29.4348 29.7815C28.5557 29.7815 27.8455 29.0713 27.8455 28.1923C27.8455 27.3132 28.5557 26.603 29.4348 26.603C30.3138 26.603 31.024 27.3132 31.024 28.1923Z" fill="#E28F84"/>
<path d="M16.2355 28.1923C16.2355 29.0713 15.5252 29.7815 14.6462 29.7815C13.7671 29.7815 13.0569 29.0713 13.0569 28.1923C13.0569 27.3132 13.7671 26.603 14.6462 26.603C15.5252 26.603 16.2355 27.3132 16.2355 28.1923Z" fill="#E28F84"/>
<path d="M30.82 28.9728C31.242 28.2063 30.9677 27.2429 30.2012 26.8139C30.0676 26.7436 26.9382 25.0418 21.7133 25.0418C16.868 25.0418 13.9497 26.7717 13.8301 26.8421C13.0777 27.2921 12.8386 28.2696 13.2957 29.0221C13.4433 29.2682 13.6543 29.4651 13.9075 29.5987C14.4067 29.8659 14.6247 30.4707 14.4138 30.9981C14.1184 31.7154 13.5769 32.3061 12.8808 32.6437C11.7204 33.2133 10.9258 34.4017 10.9258 35.7801C10.9258 37.4327 12.072 38.818 13.6121 39.1837C14.0411 41.7083 15.6233 44.9079 14.2661 48.6632C13.8442 49.8376 13.4785 50.7729 13.1761 51.6167C12.3885 53.424 12.0439 55.7025 12.0439 58.2552C12.0439 65.8149 15.124 66.1172 22.8877 66.1172C22.8877 66.1172 30.82 66.4407 30.7146 59.8093C30.6935 58.4521 30.2434 56.6026 29.8707 55.4352C28.851 52.2989 27.4164 50.9065 26.6007 49.718C24.9692 47.3411 24.8989 44.2047 26.46 41.7505C27.1844 40.6112 27.8946 39.0852 28.5908 37.0459C29.2729 35.0487 29.5472 33.375 29.4909 31.9967C29.4488 30.9981 29.8355 30.0277 30.5458 29.3315C30.6513 29.233 30.7427 29.1065 30.82 28.9728Z" fill="#A87463"/>
<path d="M22.2827 37.6999H13.0845C12.3813 37.6999 11.7343 37.4889 11.1858 37.1373C11.7132 38.4031 12.965 39.2892 14.4206 39.2892H21.9451C23.879 39.2892 25.4472 37.721 25.4472 35.7871C25.4472 35.759 25.4402 35.7308 25.4402 35.7027C24.8776 36.8841 23.6751 37.6999 22.2827 37.6999Z" fill="#D57C78"/>
<path d="M19.048 39.9081H15.0607C14.9974 39.9081 14.9341 39.9011 14.8708 39.9011C14.9412 40.2597 15.0045 40.6465 15.0467 41.0965V45.555V52.3622H19.0691V41.4622C19.055 41.0754 19.048 40.7731 19.041 40.5691C19.0339 40.3371 19.041 40.1191 19.048 39.9081Z" fill="#F3F4F7"/>
<path d="M19.2805 38.3188C19.7376 36.6592 20.8698 35.1965 23.0357 32.0249C24.3718 30.0699 24.9977 28.4385 25.286 27.2148C23.6897 28.4525 21.6363 29.7887 18.732 29.7887C16.9247 29.7887 15.9261 29.212 15.4479 28.4596C14.4071 30.7099 13.3101 33.9166 13.6969 35.8083C13.9149 36.8701 14.1821 37.6085 14.4212 38.3258H19.2805V38.3188Z" fill="#F3F4F7"/>
<path d="M19.0482 39.908C19.0693 39.3314 19.1466 38.818 19.2802 38.3187H14.428C14.4561 38.4031 14.4842 38.4875 14.5124 38.5719C14.646 38.9868 14.7726 39.4158 14.878 39.901C14.9413 39.908 15.0046 39.908 15.0679 39.908H19.0482Z" fill="#D7D1DA"/>
<path d="M21.0668 26.561C20.1596 26.561 19.3017 25.8859 19.0345 25.3936C18.9008 25.1545 18.936 25.0069 18.9923 24.9154C19.0485 24.824 19.1751 24.7959 19.2665 24.8521C19.3509 24.9084 19.3861 25.0139 19.3439 25.1053C19.372 25.3233 20.1596 26.1601 21.0738 26.1601C21.1863 26.1601 21.2707 26.2516 21.2707 26.357C21.2707 26.4625 21.1723 26.561 21.0668 26.561Z" fill="#E5E3E8"/>
<path d="M21.0665 26.5609C20.954 26.5609 20.8696 26.4694 20.8696 26.364C20.8696 26.2585 20.961 26.1671 21.0665 26.1671C22.1073 26.1671 24.3084 25.1333 24.4842 24.9153C24.5405 24.8239 24.66 24.7958 24.7585 24.852C24.8499 24.9083 24.878 25.0349 24.8218 25.1263C24.5827 25.506 22.1143 26.5609 21.0665 26.5609Z" fill="#E5E3E8"/>
<path d="M20.7853 26.9265C20.7712 26.9265 20.7642 26.9265 20.7501 26.9195C20.7009 26.8984 20.6728 26.8421 20.6939 26.7929L20.9611 26.1038C20.9822 26.0545 21.0384 26.0264 21.0877 26.0475C21.1369 26.0686 21.165 26.1248 21.1439 26.1741L20.8767 26.8632C20.8626 26.8984 20.8275 26.9265 20.7853 26.9265Z" fill="#E2DFE5"/>
<path d="M21.0602 28.2908C21.1516 28.1994 21.1938 28.0869 21.1727 27.9954L20.9266 26.7929C20.9195 26.7507 20.8773 26.7226 20.8281 26.7226C20.7789 26.7226 20.7156 26.7507 20.6734 26.7929L19.506 27.9884C19.4146 28.0798 19.3724 28.1923 19.3935 28.2838L19.6537 29.5425C19.6607 29.5777 19.6889 29.5918 19.724 29.5918C19.7592 29.5918 19.8014 29.5707 19.8366 29.5425L21.0602 28.2908Z" fill="#E5E3E8"/>
<path d="M19.7521 28.1571C19.745 28.136 19.7591 28.1079 19.7802 28.0868L20.4694 27.3836C20.4764 27.3765 20.4905 27.3695 20.4975 27.3695C20.5045 27.3695 20.5116 27.3765 20.5186 27.3836L20.6663 28.0868C20.6733 28.1079 20.6592 28.136 20.6381 28.1571L19.949 28.8603C19.9419 28.8674 19.9279 28.8744 19.9208 28.8744C19.9138 28.8744 19.9068 28.8674 19.8998 28.8603L19.7521 28.1571Z" fill="#FFAB00"/>
<path d="M11.4749 72.8682V72.9104C11.4678 73.0651 10.7083 84.591 10.5185 87.6148C10.5114 87.6992 10.5466 87.7907 10.6029 87.8539C10.6661 87.9172 10.7435 87.9524 10.8349 87.9524H28.9078C29.0766 87.9524 29.2172 87.8188 29.2243 87.65L29.9627 71.2086C30.0611 68.9583 30.3213 66.6587 30.7292 64.4717C30.8628 63.7474 30.9261 62.9738 30.912 62.137C30.8909 60.3086 30.4338 57.8614 30.0541 56.3213C29.6532 54.6898 29.1751 53.4099 28.7039 52.3621H12.6774C12.1218 54.4859 11.8405 57.0808 11.8405 60.0976C11.8405 61.497 11.9038 62.6995 12.0234 63.7474C12.3891 66.7572 11.6788 69.8232 11.4749 72.8682Z" fill="#CED5D8"/>
<path d="M16.2778 25.2036C14.562 25.7099 13.5845 26.2936 13.5142 26.3358C12.5648 26.9054 12.2062 28.1079 12.6562 29.0995C13.043 28.6775 13.5845 28.0657 14.0908 27.4399C14.787 26.5749 15.5043 25.8506 16.2778 25.2036Z" fill="#CC8900"/>
<path d="M11.4322 32.9742C10.729 33.7197 10.3211 34.7182 10.3211 35.7871C10.3211 37.1725 10.9892 38.5016 12.3323 39.2962C12.8176 39.5846 13.1692 40.0557 13.3098 40.6042C13.3731 40.8433 13.4294 41.0754 13.4856 41.2723C13.8302 42.5873 14.21 44.0149 14.21 45.555C14.21 46.4902 14.0693 47.4537 13.7036 48.4663C13.0778 50.2033 12.6558 51.23 12.3464 52.0879C11.4744 54.5422 10.5813 56.7292 10.3844 59.2468C10.3352 59.3452 10.2508 60.7024 10.1453 62.777C10.1383 62.9457 10.2016 63.1145 10.3141 63.2411C10.4336 63.3677 10.5954 63.438 10.7641 63.438H11.9948C13.6825 63.438 15.0538 62.0667 15.0538 60.379V45.555V41.0965C15.0046 40.8082 14.6952 39.2611 13.7599 38.4031C12.7543 37.4749 11.5236 35.2879 11.4322 32.9742Z" fill="#FFAB00"/>
<path d="M31.3407 29.2611C31.9244 28.2063 31.5446 26.8772 30.4898 26.3005C30.4054 26.2513 29.02 25.5059 26.615 24.9714C26.9455 25.323 27.1916 25.7309 27.3534 26.181C27.6558 27.0178 28.0566 28.1781 28.148 28.9587C28.1621 29.0572 28.1058 29.1627 28.0004 29.2049C27.3182 29.5213 25.307 30.4425 25.307 30.4425L26.7486 32.6999C26.8189 32.8054 26.7838 32.9531 26.6713 33.0234C25.736 33.6281 21.8401 36.1949 21.0525 37.2146C20.1383 38.382 19.0905 40.5057 19.0764 41.4621V60.3367C19.0764 62.0455 20.4618 63.4379 22.1776 63.4379H30.9047C31.0735 63.4379 31.2422 63.3676 31.3547 63.241C31.4743 63.1144 31.5376 62.9527 31.5235 62.7769C31.418 60.7023 31.3266 59.3451 31.2844 59.2467C31.1789 57.9527 30.8203 56.4197 30.4405 55.2453C29.3998 52.0527 27.916 50.5618 27.0932 49.3804C25.5883 47.1863 25.5391 44.3172 26.9666 42.0739C27.7613 40.8221 28.4785 39.2399 29.1607 37.2427C29.8358 35.2526 30.1522 33.4805 30.096 31.9756C30.0608 31.1528 30.3843 30.3441 30.975 29.7604C31.1086 29.6127 31.2352 29.444 31.3407 29.2611Z" fill="#FFAB00"/>
<path d="M9.57603 13.2203C9.49868 13.2414 9.45648 13.3188 9.47758 13.3891C9.49868 13.4665 9.57603 13.5087 9.64636 13.4876L13.8798 12.3554L13.8095 12.0881L9.57603 13.2203Z" fill="#511724"/>
<path d="M15.5252 13.6425C15.6026 13.5581 15.6026 13.3753 15.5323 13.2979L14.7657 12.4611L14.5759 12.2571C14.5196 12.1868 14.4212 12.0954 14.3297 12.0532C14.2735 12.0251 14.168 11.997 13.9852 12.0462C13.95 12.0532 13.7812 12.1024 13.7601 12.1095C13.7109 12.1235 13.6828 12.1868 13.7039 12.2642C13.725 12.3415 13.7601 12.3908 13.8234 12.3837C13.8234 12.3837 13.8726 12.3697 13.9008 12.3626C14.0977 12.3134 14.3157 12.6158 14.3719 12.7072L14.5477 12.9533L15.1103 13.741C15.1947 13.8605 15.3213 13.8746 15.4197 13.7691L15.5252 13.6425Z" fill="#511724"/>
<path d="M29.3855 10.2108C29.3855 5.668 25.3067 1.98309 20.2787 1.98309C19.5333 1.98309 18.7808 2.06748 18.0565 2.23625C15.8484 2.74961 13.8863 4.02948 12.6346 5.76645C11.9947 6.65251 11.5938 7.61593 11.3336 8.64264C11.0031 9.93658 11.0875 11.2375 11.0875 12.5737C11.0875 13.7973 10.975 15.0772 11.1086 16.3008C11.3407 18.4316 12.5432 20.5201 14.456 21.7789C16.6219 23.1994 19.4348 22.5525 21.6429 21.582C23.8089 20.6326 25.8131 19.0223 27.1211 17.222C28.5767 15.2178 29.3362 12.8268 29.3784 10.4359C29.3855 10.3585 29.3855 10.2812 29.3855 10.2108Z" fill="#A87463"/>
<path d="M18.9078 17.5807C18.9008 17.5878 18.3453 18.2839 16.8755 18.2839C15.4198 18.2839 14.8643 17.6088 14.8362 17.5737C14.7025 17.3979 14.4564 17.3627 14.2806 17.4963C14.1048 17.6299 14.0696 17.8761 14.1962 18.0519C14.2243 18.0941 14.9768 19.0786 16.8685 19.0786C18.7602 19.0786 19.5126 18.0941 19.5407 18.0519C19.6673 17.8761 19.6322 17.6299 19.4563 17.4963C19.2876 17.3698 19.0344 17.4049 18.9078 17.5807Z" fill="#92324C"/>
<path d="M22.1214 11.7017C21.3127 10.689 19.8148 10.9773 19.7515 10.9914C19.6109 11.0195 19.5194 11.1531 19.5476 11.2938C19.5757 11.4344 19.7093 11.5188 19.85 11.4977C19.864 11.4977 21.1087 11.2586 21.7135 12.0251C21.7627 12.0884 21.8401 12.1236 21.9174 12.1236C21.9737 12.1236 22.03 12.1025 22.0792 12.0673C22.1917 11.9759 22.2058 11.8142 22.1214 11.7017Z" fill="#73292C"/>
<path d="M13.8933 11.4977C14.034 11.5258 14.1676 11.4344 14.1957 11.2938C14.2238 11.1531 14.1324 11.0195 13.9918 10.9914C13.9285 10.9773 12.4236 10.689 11.6219 11.7017C11.5305 11.8142 11.5516 11.9759 11.6641 12.0673C11.7133 12.1025 11.7696 12.1236 11.8258 12.1236C11.9032 12.1236 11.9735 12.0884 12.0298 12.0251C12.6346 11.2586 13.8793 11.4977 13.8933 11.4977Z" fill="#73292C"/>
<path d="M12.7332 13.2488V13.8887C12.7332 14.1841 12.9723 14.4302 13.2606 14.4302C13.5559 14.4302 13.795 14.1841 13.795 13.8887V13.2488C13.795 12.9464 13.5559 12.7073 13.2606 12.7073C12.9723 12.7073 12.7332 12.9464 12.7332 13.2488Z" fill="#332200"/>
<path d="M20.4761 14.4302C20.7715 14.4302 21.0106 14.1841 21.0106 13.8887V13.2488C21.0106 12.9464 20.7715 12.7073 20.4761 12.7073C20.1807 12.7073 19.9417 12.9464 19.9417 13.2488V13.8887C19.9487 14.1841 20.1807 14.4302 20.4761 14.4302Z" fill="#332200"/>
<path d="M23.0846 13.2203C23.0072 13.2414 22.965 13.3187 22.9861 13.389C23.0072 13.4664 23.0846 13.5086 23.1549 13.4875L27.3883 12.3553L27.318 12.0881L23.0846 13.2203Z" fill="#332200"/>
<path d="M29.034 13.6424C29.1114 13.5581 29.1114 13.3752 29.041 13.2979L28.2745 12.461L28.0847 12.2571C28.0284 12.1868 27.9299 12.0953 27.8385 12.0532C27.7823 12.025 27.6768 11.9969 27.4939 12.0461C27.4588 12.0532 27.29 12.1024 27.2689 12.1094C27.2197 12.1235 27.1916 12.1868 27.2127 12.2641C27.2337 12.3415 27.2689 12.3907 27.3322 12.3837C27.3322 12.3837 27.3814 12.3696 27.4096 12.3626C27.6065 12.3133 27.8245 12.6157 27.8807 12.7072L28.0565 12.9533L28.6191 13.7409C28.7035 13.8604 28.8301 13.8745 28.9285 13.769L29.034 13.6424Z" fill="#511724"/>
<path d="M26.8115 17.6227C26.3263 18.2275 25.7778 18.8042 25.1589 19.3386V19.3456C25.384 20.4849 25.9958 20.9068 25.9958 20.9068C25.9817 20.4286 26.2841 18.9448 26.7975 17.904C26.7975 17.8196 26.8045 17.7282 26.8115 17.6368C26.8115 17.6227 26.8115 17.6227 26.8115 17.6227Z" fill="#E9DADC"/>
<path d="M31.5514 7.11657C32.0788 7.7776 32.332 8.52302 32.332 8.52302C32.1421 5.30927 29.2097 2.19398 26.2069 0.885983C24.5473 0.16166 22.5923 -0.0422755 20.8905 0.00695036C19.2871 0.00695036 17.8455 0.231983 17.1071 0.660951C16.9946 0.717209 16.9102 0.773467 16.861 0.829725C15.8132 0.53437 14.0833 1.08289 13.6543 2.35573C13.9497 4.73263 16.2844 4.09269 19.6528 5.90702C21.2562 6.77198 22.0719 7.80573 22.4868 8.6496C24.5332 10.1615 25.5529 12.8971 25.1591 15.4428C25.6654 14.8802 26.3897 13.4175 26.4179 11.5961C26.9664 12.3767 27.3391 13.1643 27.4375 13.959C27.4375 13.959 27.5852 13.6214 27.761 13.0518C27.9439 13.966 28.0142 14.9857 27.8454 16.0757C27.6274 16.4695 27.3883 16.8562 27.1211 17.2219C27.0226 17.3555 26.9171 17.5032 26.8046 17.6368C26.7976 17.7282 26.7906 17.8197 26.7906 17.9041C26.7554 19.4863 27.8032 20.295 27.8032 20.295C27.5641 18.987 28.5838 17.1375 29.3503 15.7662C30.5247 13.6636 31.903 11.6524 31.7483 8.53005C31.7342 8.04482 31.6639 7.57366 31.5514 7.11657Z" fill="#CED5D8"/>
<path d="M12.1844 4.01532C10.9889 5.18268 10.363 7.14468 11.2983 8.81132C11.3124 8.74803 11.3194 8.69177 11.3335 8.63552C11.5937 7.60881 11.9945 6.64539 12.6345 5.75932C12.2758 5.20377 12.1422 4.5779 12.1844 4.01532Z" fill="#CED5D8"/>
<path d="M22.9223 10.2804C22.8942 10.2103 22.8662 10.1472 22.8381 10.0771C22.8662 10.1472 22.8942 10.2173 22.9223 10.2804Z" fill="#E9DADC"/>
<path d="M19.6524 5.89999C16.291 4.08566 13.9493 4.7256 13.6539 2.34869C13.6399 2.34869 13.6188 2.34869 13.6047 2.34869C13.5977 2.34869 13.5906 2.34869 13.5906 2.34869C13.5836 2.34869 13.5836 2.34869 13.5766 2.34869C12.789 2.39792 12.2615 3.12224 12.1912 4.01534C12.142 4.57792 12.2756 5.19676 12.6413 5.75934C15.0674 9.5216 21.516 7.40489 22.8451 10.0771C22.8803 10.1404 22.9084 10.2108 22.9295 10.2811C22.9295 10.2811 22.9576 9.57786 22.4935 8.64257C22.0715 7.7987 21.2558 6.76495 19.6524 5.89999Z" fill="#E7EBEC"/>
<path opacity="0.2" d="M13.9924 15.0348H10.413C9.93482 15.0348 9.54102 14.648 9.54102 14.1628V13.2064C9.54102 12.7282 9.92779 12.3344 10.413 12.3344H13.9924C14.4706 12.3344 14.8644 12.7212 14.8644 13.2064V14.1628C14.8644 14.648 14.4706 15.0348 13.9924 15.0348Z" fill="#EEECF0"/>
<path d="M14.8645 14.2543C14.7872 14.2543 14.7239 14.191 14.7239 14.1136C14.7239 13.1572 15.3497 12.5384 16.3132 12.5384C16.3905 12.5384 16.4538 12.6017 16.4538 12.679C16.4538 12.7564 16.3905 12.8197 16.3132 12.8197C15.4904 12.8197 15.0052 13.3049 15.0052 14.1136C14.9981 14.191 14.9419 14.2543 14.8645 14.2543Z" fill="#332200"/>
<path opacity="0.2" d="M18.6618 15.0348H22.192C22.6702 15.0348 23.064 14.648 23.064 14.1628V13.2064C23.064 12.7282 22.6772 12.3344 22.192 12.3344H18.6618C18.1836 12.3344 17.7898 12.7212 17.7898 13.2064V14.1628C17.7898 14.648 18.1836 15.0348 18.6618 15.0348Z" fill="#EEECF0"/>
<path d="M13.9925 15.1754H10.413C9.85749 15.1754 9.40039 14.7253 9.40039 14.1628V13.2064C9.40039 13.129 9.46368 13.0657 9.54104 13.0657C9.61839 13.0657 9.68168 13.129 9.68168 13.2064V14.1628C9.68168 14.5636 10.0122 14.8941 10.413 14.8941H13.9925C14.3933 14.8941 14.7238 14.5636 14.7238 14.1628C14.7238 14.0854 14.7871 14.0221 14.8645 14.0221C14.9418 14.0221 15.0051 14.0854 15.0051 14.1628C14.9981 14.7253 14.548 15.1754 13.9925 15.1754Z" fill="#332200"/>
<path d="M22.1923 15.1754H18.6621C18.1065 15.1754 17.6494 14.7253 17.6494 14.1628C17.6494 14.0854 17.7127 14.0221 17.7901 14.0221C17.8674 14.0221 17.9307 14.0854 17.9307 14.1628C17.9307 14.5636 18.2612 14.8941 18.6621 14.8941H22.1923C22.5931 14.8941 22.9236 14.5636 22.9236 14.1628V13.2064C22.9236 13.129 22.9869 13.0657 23.0643 13.0657C23.1416 13.0657 23.2049 13.129 23.2049 13.2064V14.1628C23.1979 14.7253 22.7478 15.1754 22.1923 15.1754Z" fill="#332200"/>
<path d="M17.7897 14.2543C17.7124 14.2543 17.6491 14.191 17.6491 14.1136C17.6491 13.3119 17.1357 12.8197 16.3059 12.8197C16.2286 12.8197 16.1653 12.7564 16.1653 12.679C16.1653 12.6017 16.2286 12.5384 16.3059 12.5384C17.2904 12.5384 17.9233 13.1572 17.9233 14.1136C17.9304 14.191 17.8671 14.2543 17.7897 14.2543Z" fill="#332200"/>
<path d="M27.1065 10.6397C26.5017 10.4921 25.9391 10.8366 25.8407 11.5469C25.7141 12.4259 26.2626 12.4822 26.1571 13.2698C26.0938 13.755 25.8899 13.9308 25.8266 14.409C25.7633 14.845 25.8688 15.3514 26.2696 15.4498C26.9307 15.6116 27.7745 14.4864 28.0277 13.3894C28.2809 12.2712 28.1402 10.8929 27.1065 10.6397Z" fill="#A87463"/>
<path d="M17.9091 24.0293C17.3536 24.3387 16.6433 24.8942 16.2776 25.2036C15.4971 25.8436 14.7798 26.5679 14.0906 27.4399C13.5843 28.0658 13.0498 28.6706 12.656 29.0995C12.5646 29.198 12.4802 29.2894 12.4099 29.3597C12.3677 29.4089 12.3326 29.4441 12.2974 29.4793C12.2904 29.4863 12.2833 29.4933 12.2763 29.5004C12.2482 29.5426 12.2482 29.5918 12.2693 29.634C12.2763 29.648 12.2833 29.6551 12.2904 29.6691C12.3958 29.8238 12.5224 29.9575 12.6842 30.0559L13.5562 30.6115C13.5562 30.6115 12.1497 32.1445 11.5801 32.6297C11.4254 32.7633 11.4324 32.8899 11.4324 32.9532C11.4324 32.9602 11.4324 32.9602 11.4324 32.9602C11.5309 35.2738 12.7545 37.4609 13.7601 38.3821C14.6954 39.24 15.0048 40.7871 15.054 41.0755C14.9626 40.0136 14.7587 39.2752 14.5196 38.5509C14.2594 37.7562 13.95 36.9686 13.7109 35.7872C13.1694 33.1712 15.4971 28.0166 16.5378 26.3921C17.1145 25.4849 17.5224 24.8028 18.3029 24.4582C18.3592 24.4301 18.4014 24.3879 18.4225 24.3246C18.4436 24.2684 18.4366 24.198 18.4084 24.1488C18.3029 23.9941 18.0849 23.9378 17.9091 24.0293Z" fill="#FFEECC"/>
<path d="M28.1406 28.952C28.0492 28.1714 27.6554 27.0111 27.3459 26.1742C27.0435 25.3303 26.3403 24.5287 25.9676 24.1489C25.9043 24.0856 25.8199 24.0505 25.7355 24.0505C25.6441 24.0505 25.5668 24.0927 25.5035 24.156C25.4402 24.2263 25.4191 24.3318 25.4543 24.4232C25.4894 24.5146 25.4965 24.6271 25.5035 24.7537C25.5105 25.0069 25.5175 25.2671 25.5175 25.2741C25.5246 25.471 25.5105 25.7453 25.4965 25.914C25.4965 25.914 25.4965 25.914 25.4965 25.9211C25.398 27.1447 24.9198 29.2684 23.0352 32.0251C19.9972 36.4905 18.9775 37.5595 19.0408 40.5693C19.0479 40.7732 19.0549 41.0756 19.069 41.4624C19.083 40.506 20.1308 38.3822 21.045 37.2149C21.8397 36.1952 25.7285 33.6354 26.6638 33.0236C26.7763 32.9533 26.8115 32.8056 26.7412 32.7002L25.2995 30.4428C25.2995 30.4428 27.3037 29.5216 27.9929 29.2051C28.0984 29.1559 28.1546 29.0504 28.1406 28.952Z" fill="#FFEECC"/>
<path d="M27.1075 47.4607C26.7348 47.531 26.3832 47.6646 26.0527 47.8545L24.9135 48.5296C24.6955 48.6562 24.6251 48.9374 24.7517 49.1554C24.7658 49.1765 24.7798 49.1976 24.7939 49.2187C24.8502 49.282 24.8713 49.3734 24.8572 49.4578C24.8431 49.5422 24.7939 49.6196 24.7166 49.6618L24.6955 49.6758C24.4775 49.8024 24.4071 50.0837 24.5337 50.3017C24.6462 50.4916 24.8783 50.576 25.0822 50.4986C25.1104 50.4916 25.1315 50.4775 25.1596 50.4634C25.1877 50.4494 25.2229 50.4494 25.251 50.4634C25.2791 50.4845 25.2932 50.5127 25.2932 50.5478C25.2862 50.6393 25.3073 50.7236 25.3565 50.808C25.4831 51.026 25.7644 51.0964 25.9824 50.9698C26.0105 50.9487 26.0527 50.9487 26.0808 50.9698C26.1089 50.9909 26.13 51.019 26.13 51.0612C26.13 51.1315 26.1441 51.2018 26.1863 51.2581C26.2918 51.4339 26.5238 51.4831 26.6997 51.3776L27.5013 50.8784C27.5998 50.8221 27.7123 50.801 27.8178 50.8291C27.9233 50.8573 28.0217 50.9276 28.0709 51.026C28.6195 51.9824 29.4211 52.5591 30.0751 52.3973C30.9049 52.1864 31.1792 50.8643 30.694 49.4367C29.7798 46.6942 29.6954 46.9754 27.1075 47.4607Z" fill="#A87463"/>
</svg>
