
<svg width="68" height="133" viewBox="0 0 68 133" fill="none" xmlns="http://www.w3.org/2000/svg">
<path d="M52.3463 64.167C52.5676 63.1033 51.8894 62.0611 50.8257 61.8398L33.9711 58.3204C32.6505 58.042 31.6796 56.9141 31.6011 55.5648L30.6373 38.3747C30.5731 37.2896 29.6522 36.4615 28.5671 36.5187C27.482 36.5829 26.6539 37.5109 26.711 38.5889L27.6748 55.779C27.8461 58.8986 30.1091 61.5185 33.1645 62.161L50.019 65.6804C51.0827 65.9089 52.125 65.2307 52.3463 64.167Z" fill="#A87463"/>
<path d="M27.2386 55.815L26.2749 38.6178C26.2606 38.4036 26.2821 38.1966 26.3249 37.9896C26.5462 36.9259 27.4599 36.1406 28.545 36.0835C29.8657 36.0121 31.0008 37.0258 31.0793 38.3465L32.043 55.5366C32.093 56.4075 32.5784 57.1714 33.3066 57.5925L32.3072 62.3755C29.4517 61.4546 27.41 58.8561 27.2386 55.815Z" fill="#00918A"/>
<path d="M32.2434 62.6466L32.2506 62.6038L32.2934 62.3825L33.2928 57.5995L33.3071 57.5139C33.3143 57.471 33.3357 57.4282 33.3571 57.3854C33.4499 57.2283 33.6355 57.1355 33.8282 57.1784L35.9699 57.6281C36.2055 57.6781 36.3554 57.9065 36.3054 58.1421L36.2626 58.3562L36.1698 58.7846L35.3631 62.6324L35.2703 63.0607L35.2274 63.2748C35.1775 63.5104 34.949 63.6603 34.7135 63.6104L32.5718 63.1606C32.3505 63.1106 32.1935 62.8822 32.2434 62.6466Z" fill="#004845"/>
<path d="M24.5122 124.375C22.6062 124.375 21.6996 126.345 21.3355 127.531C20.9714 128.708 19.8292 132.028 21.8566 132.028C23.884 132.028 32.2649 132.028 32.2649 132.028C32.2649 132.028 32.9431 131.935 32.9431 130.771C32.9431 129.608 31.8294 129.479 31.2798 129.279C30.7229 129.08 29.4237 128.544 28.0388 127.138C26.6396 125.739 25.9328 124.375 24.5122 124.375Z" fill="#230A24"/>
<path d="M24.0764 130.186C25.2043 130.186 26.1966 129.365 26.3679 128.216L28.8094 112.218C30.0087 104.344 30.1729 96.3341 29.2948 88.4172L27.5101 72.3336C27.3673 71.0558 26.218 70.142 24.9473 70.2777C23.6695 70.4205 22.7557 71.5698 22.8985 72.8405L24.6832 88.9241C25.5184 96.4412 25.3613 104.037 24.2191 111.511L21.7777 127.509C21.5849 128.78 22.4559 129.965 23.7266 130.157C23.8408 130.179 23.9621 130.186 24.0764 130.186Z" fill="#02090C"/>
<path d="M20.5645 131.571H33.0359C33.1858 131.571 33.3071 131.692 33.3071 131.842V132.121C33.3071 132.442 33.0501 132.699 32.7289 132.699H20.8786C20.5573 132.699 20.3003 132.442 20.3003 132.121V131.842C20.2932 131.692 20.4146 131.571 20.5645 131.571Z" fill="#E7EBEC"/>
<path d="M27.803 131.193C27.803 129.272 29.0808 128.98 30.53 128.98H31.0297C31.1368 129.022 31.2367 129.065 31.3438 129.101C31.4223 129.13 31.5151 129.158 31.6151 129.187C32.1862 129.358 33.1356 129.644 33.1356 130.779C33.1356 130.786 33.1356 130.786 33.1356 130.793C33.1356 131.25 33.0357 131.578 33.0357 131.578H27.803C27.803 131.45 27.803 131.321 27.803 131.193Z" fill="#9DABB1"/>
<path d="M27.8029 131.193C27.8029 131.328 27.8029 131.45 27.8029 131.578H20.9568C20.6713 129.672 21.5422 127.373 21.9348 126.595C22.2418 126.895 22.6559 127.102 23.2127 127.102C24.3549 127.102 24.7975 126.51 25.4542 126.11C25.854 126.617 26.9034 128.002 28.3026 128.987C28.5025 129.13 28.5168 129.408 28.3454 129.579C28.0099 129.908 27.8029 130.422 27.8029 131.193Z" fill="#6B8289"/>
<path d="M31.0297 128.98H30.53C29.6591 128.98 28.8524 129.087 28.3455 129.579C28.5169 129.408 28.5026 129.13 28.3027 128.987C26.9035 127.994 25.8541 126.61 25.4543 126.11C25.7899 125.903 26.1825 125.753 26.7536 125.753C26.7607 125.753 26.7607 125.753 26.7679 125.753C26.9392 125.753 27.0963 125.831 27.2105 125.96C27.2176 125.967 27.2248 125.974 27.2319 125.981C27.5246 126.317 27.8244 126.66 28.1671 127.009C29.0451 127.887 30.0017 128.551 31.0297 128.98Z" fill="#6B8289"/>
<path d="M21.9347 126.588C21.5492 127.366 20.6783 129.672 20.9567 131.571H20.6854C20.1714 130.572 20.7639 128.694 21.0852 127.659L21.1423 127.473C21.2351 127.174 21.3564 126.831 21.5278 126.474C21.5777 126.367 21.7134 126.353 21.7919 126.438C21.8419 126.488 21.8847 126.538 21.9347 126.588Z" fill="#9DABB1"/>
<path d="M27.2246 129.18C27.4959 128.509 28.3882 127.98 29.0521 127.909C29.1806 127.895 29.5304 127.859 29.7446 128.109C29.8088 128.18 29.8516 128.273 29.8802 128.38C29.8231 128.344 29.766 128.309 29.716 128.273C29.6232 128.209 29.2092 128.223 28.9807 128.273C28.4453 128.38 27.76 128.816 27.5601 129.308C27.5316 129.379 27.4673 129.415 27.3959 129.415C27.3745 129.415 27.3531 129.408 27.3317 129.401C27.2317 129.372 27.1889 129.272 27.2246 129.18Z" fill="#092E3B"/>
<path d="M26.4249 128.523C26.6605 127.887 27.6099 127.273 28.1953 127.231C28.3166 127.224 28.6879 127.195 28.9234 127.473C29.002 127.566 29.0519 127.68 29.0805 127.816C29.0377 127.78 28.9948 127.752 28.952 127.716C28.6664 127.473 28.1881 127.573 28.0597 127.609C27.5885 127.73 26.9175 128.209 26.7533 128.644C26.7247 128.716 26.6605 128.758 26.5891 128.758C26.5677 128.758 26.5462 128.751 26.5248 128.744C26.432 128.708 26.3892 128.608 26.4249 128.523Z" fill="#092E3B"/>
<path d="M25.6188 127.859C25.8544 127.202 26.8823 126.567 27.4178 126.524C27.5677 126.51 27.9246 126.474 28.1459 126.738C28.2316 126.845 28.2887 126.981 28.3101 127.145C28.2815 127.116 28.2459 127.088 28.2173 127.052C28.0174 126.852 27.6248 126.817 27.3678 126.881C26.9609 126.967 26.1328 127.473 25.9543 127.973C25.9258 128.044 25.8615 128.087 25.7901 128.087C25.7687 128.087 25.7473 128.087 25.733 128.08C25.6331 128.044 25.5902 127.945 25.6188 127.859Z" fill="#092E3B"/>
<path d="M23.834 111.461C24.969 104.022 25.1261 96.4554 24.2909 88.974L22.5062 72.8904C22.342 71.4055 23.4128 70.0634 24.8976 69.8992C24.9976 69.8849 25.0975 69.8849 25.1975 69.8849C26.5753 69.8849 27.7389 70.9201 27.8888 72.2978L29.6735 88.3814C30.5587 96.334 30.3945 104.379 29.188 112.282L27.1963 125.339C27.1678 125.524 27.0036 125.667 26.8108 125.667H22.1135C21.878 125.667 21.6924 125.453 21.728 125.224L23.834 111.461Z" fill="#092E3B"/>
<path d="M13.5821 124.375C11.676 124.375 10.7694 126.346 10.4053 127.531C10.0412 128.708 8.89903 132.028 10.9264 132.028C12.9538 132.028 21.3347 132.028 21.3347 132.028C21.3347 132.028 22.0129 131.935 22.0129 130.772C22.0129 129.608 20.8993 129.479 20.3496 129.28C19.7928 129.08 18.4935 128.544 17.1086 127.138C15.7094 125.739 15.0027 124.375 13.5821 124.375Z" fill="#341731"/>
<path d="M13.1467 130.186C14.2746 130.186 15.2669 129.365 15.4382 128.216L17.8797 112.218C19.079 104.344 19.2432 96.3343 18.3651 88.4174L16.5804 72.3338C16.4376 71.056 15.2883 70.1422 14.0176 70.2779C12.7469 70.4135 11.826 71.57 11.9688 72.8407L13.7535 88.9243C14.5887 96.4414 14.4317 104.037 13.2895 111.511L10.848 127.509C10.6553 128.78 11.5262 129.965 12.7969 130.158C12.9111 130.179 13.0325 130.186 13.1467 130.186Z" fill="#02090C"/>
<path d="M9.63479 131.571H22.1062C22.2561 131.571 22.3775 131.692 22.3775 131.842V132.121C22.3775 132.442 22.1205 132.699 21.7992 132.699H9.9489C9.62766 132.699 9.37066 132.442 9.37066 132.121V131.842C9.36352 131.692 9.48488 131.571 9.63479 131.571Z" fill="#E7EBEC"/>
<path d="M16.8733 131.193C16.8733 129.272 18.1511 128.98 19.6003 128.98H20.1C20.2071 129.023 20.307 129.065 20.4141 129.101C20.4926 129.13 20.5854 129.158 20.6854 129.187C21.2565 129.358 22.2059 129.644 22.2059 130.779C22.2059 130.786 22.2059 130.786 22.2059 130.793C22.2059 131.25 22.106 131.578 22.106 131.578H16.8733C16.8733 131.45 16.8733 131.321 16.8733 131.193Z" fill="#9DABB1"/>
<path d="M16.8735 131.193C16.8735 131.328 16.8735 131.45 16.8735 131.578H10.0274C9.74184 129.672 10.6128 127.373 11.0054 126.595C11.3124 126.895 11.7264 127.102 12.2832 127.102C13.4254 127.102 13.868 126.51 14.5248 126.11C14.9246 126.617 15.974 128.002 17.3732 128.987C17.573 129.13 17.5873 129.408 17.416 129.579C17.0805 129.908 16.8735 130.422 16.8735 131.193Z" fill="#6B8289"/>
<path d="M20.1 128.98H19.6003C18.7294 128.98 17.9227 129.087 17.4159 129.579C17.5872 129.408 17.5729 129.13 17.373 128.987C15.9738 127.995 14.9244 126.61 14.5247 126.11C14.8602 125.903 15.2528 125.753 15.8239 125.753C15.831 125.753 15.831 125.753 15.8382 125.753C16.0095 125.753 16.1666 125.832 16.2808 125.96C16.2879 125.967 16.2951 125.974 16.3022 125.981C16.5949 126.317 16.8947 126.66 17.2374 127.009C18.1154 127.887 19.072 128.551 20.1 128.98Z" fill="#6B8289"/>
<path d="M11.0045 126.588C10.619 127.366 9.74808 129.672 10.0265 131.571H9.75522C9.24123 130.572 9.83375 128.694 10.155 127.659L10.2121 127.473C10.3049 127.174 10.4263 126.831 10.5976 126.474C10.6476 126.367 10.7832 126.353 10.8617 126.438C10.9117 126.488 10.9545 126.538 11.0045 126.588Z" fill="#9DABB1"/>
<path d="M16.2949 129.18C16.5662 128.509 17.4585 127.98 18.1224 127.909C18.2509 127.895 18.6007 127.859 18.8149 128.109C18.8791 128.18 18.922 128.273 18.9505 128.38C18.8934 128.344 18.8363 128.309 18.7863 128.273C18.6935 128.209 18.2795 128.223 18.051 128.273C17.5156 128.38 16.8303 128.816 16.6304 129.308C16.6019 129.38 16.5376 129.415 16.4662 129.415C16.4448 129.415 16.4234 129.408 16.402 129.401C16.302 129.372 16.2592 129.272 16.2949 129.18Z" fill="#092E3B"/>
<path d="M15.4949 128.523C15.7305 127.887 16.68 127.274 17.2654 127.231C17.3867 127.224 17.7579 127.195 17.9935 127.473C18.072 127.566 18.122 127.68 18.1506 127.816C18.1077 127.78 18.0649 127.752 18.0221 127.716C17.7365 127.473 17.2582 127.573 17.1297 127.609C16.6586 127.73 15.9875 128.209 15.8233 128.644C15.7948 128.716 15.7305 128.758 15.6591 128.758C15.6377 128.758 15.6163 128.751 15.5949 128.744C15.5021 128.708 15.4593 128.608 15.4949 128.523Z" fill="#092E3B"/>
<path d="M14.6886 127.859C14.9242 127.202 15.9522 126.567 16.4876 126.524C16.6375 126.51 16.9944 126.474 17.2157 126.738C17.3014 126.845 17.3585 126.981 17.3799 127.145C17.3514 127.116 17.3157 127.088 17.2871 127.052C17.0872 126.852 16.6946 126.817 16.4376 126.881C16.0307 126.967 15.2026 127.473 15.0241 127.973C14.9956 128.045 14.9313 128.087 14.8599 128.087C14.8385 128.087 14.8171 128.087 14.8028 128.08C14.7029 128.045 14.6601 127.945 14.6886 127.859Z" fill="#092E3B"/>
<path d="M12.9045 111.461C14.0396 104.023 14.1966 96.4555 13.3614 88.9741L11.5767 72.8834C11.4125 71.3985 12.4833 70.0565 13.9682 69.8923C14.0681 69.878 14.1681 69.878 14.268 69.878C15.6458 69.878 16.8094 70.9131 16.9593 72.2909L18.744 88.3745C19.6292 96.327 19.465 104.372 18.2586 112.275L16.2669 125.332C16.2383 125.517 16.0741 125.66 15.8814 125.66H11.1841C10.9485 125.66 10.7629 125.446 10.7986 125.218L12.9045 111.461Z" fill="#092E3B"/>
<path d="M22.7204 33.449C21.9137 33.3419 20.8643 33.7916 20.3289 34.1914C20.2361 34.2556 20.2861 34.3984 20.4003 34.3984H23.627C23.7198 34.3984 23.7769 34.2985 23.7269 34.2199C23.5556 33.9629 23.1987 33.5132 22.7204 33.449Z" fill="#331D37"/>
<path d="M17.1163 30.6578C20.2431 30.6578 21.9564 31.593 22.5703 32.0784C22.9772 32.3997 23.277 32.8066 23.791 33.3706C23.9338 33.5348 24.0551 33.7204 24.1123 33.9274C24.3193 34.6912 22.506 35.4694 19.8504 35.4408C17.3233 35.4122 13.961 34.6198 13.6754 33.806C13.6254 33.6632 13.6825 33.5062 13.7968 33.4063C14.7676 32.521 14.9747 31.3503 15.3602 31.0647C15.7385 30.7863 16.4238 30.6578 17.1163 30.6578Z" fill="#33C4BD"/>
<path d="M18.7864 36.7399C20.0678 36.7399 21.1065 35.7012 21.1065 34.4198C21.1065 33.1385 20.0678 32.0997 18.7864 32.0997C17.505 32.0997 16.4663 33.1385 16.4663 34.4198C16.4663 35.7012 17.505 36.7399 18.7864 36.7399Z" fill="#A87463"/>
<path d="M19.0869 39.5454C20.3862 39.317 21.4284 38.2605 21.5784 36.8827L22.8134 25.7391C22.999 24.0686 21.7925 22.5624 20.1221 22.3768C18.4445 22.1911 16.9453 23.3976 16.7597 25.0681L15.5247 36.2116C15.3391 37.8821 16.5455 39.3884 18.216 39.574C18.5158 39.6097 18.8085 39.5954 19.0869 39.5454Z" fill="#A87463"/>
<path d="M16.1377 30.7006L16.7588 25.0753C16.9444 23.4048 18.4435 22.1984 20.1211 22.384C21.7916 22.5696 22.998 24.0758 22.8124 25.7463L22.2413 31.6501C21.8844 32.0498 20.5566 32.7922 18.3222 31.8571C17.5726 31.5358 16.8444 31.1361 16.1377 30.7006Z" fill="#946251"/>
<path d="M27.3366 73.4757C27.827 72.2919 27.2648 70.9347 26.081 70.4443C24.8971 69.9539 23.5399 70.5161 23.0495 71.6999C22.5591 72.8838 23.1213 74.241 24.3052 74.7313C25.489 75.2217 26.8462 74.6596 27.3366 73.4757Z" fill="#A87463"/>
<path d="M16.3966 73.4719C16.887 72.288 16.3249 70.9308 15.141 70.4404C13.9572 69.9501 12.6 70.5122 12.1096 71.6961C11.6192 72.8799 12.1814 74.2371 13.3652 74.7275C14.5491 75.2179 15.9063 74.6557 16.3966 73.4719Z" fill="#A87463"/>
<path d="M29.5615 38.8007C30.2417 38.1205 30.2417 37.0176 29.5615 36.3374C28.8812 35.6571 27.7784 35.6571 27.0981 36.3374C26.4179 37.0176 26.4179 38.1205 27.0981 38.8007C27.7783 39.4809 28.8812 39.4809 29.5615 38.8007Z" fill="#A87463"/>
<path d="M9.46599 38.7998C10.1462 38.1196 10.1462 37.0167 9.46599 36.3365C8.78576 35.6562 7.68289 35.6562 7.00266 36.3365C6.32243 37.0167 6.32243 38.1196 7.00266 38.7998C7.68289 39.48 8.78576 39.48 9.46599 38.7998Z" fill="#A87463"/>
<path d="M7.15802 36.1973C9.39958 34.2341 15.596 33.8415 18.4372 33.8772C21.5069 33.8415 28.3744 34.0342 29.8664 36.7327C29.8664 36.7327 29.8664 36.7398 29.8735 36.7398C30.0306 37.0325 30.0448 37.2253 30.0448 37.2253C30.1234 37.6036 30.0805 38.0034 29.8949 38.3746C29.845 38.4745 29.7878 38.5602 29.7236 38.6459C28.9669 39.6096 28.5957 40.816 28.6599 42.0368C28.8241 45.0779 28.6242 49.4539 27.7819 53.0019C26.8038 57.1138 26.7182 61.4256 27.5606 65.5732C27.6819 66.18 27.7533 66.8439 27.7533 67.4864C27.7533 68.0218 27.7533 68.5501 27.7462 69.0569C27.739 74.1754 28.1245 76.1885 19.3367 76.1885H19.3296C12.6763 76.1885 11.6483 74.8393 11.5912 69.5923C11.5341 67.2937 12.1266 65.7303 12.7833 64.2311C14.3467 60.676 14.3253 56.6141 12.712 53.0733C11.9124 51.3171 11.2985 49.5539 10.6774 48.1904C9.99924 46.6841 9.11403 44.4282 8.84276 42.151C8.69285 40.8874 8.07178 39.731 7.10091 38.9029C6.93672 38.7601 6.79394 38.5816 6.68686 38.3817C6.49411 38.0105 6.45842 37.6107 6.53695 37.2324C6.65117 36.7969 6.7868 36.4828 7.15802 36.1973Z" fill="#A87463"/>
<path d="M6.13747 37.1468L6.14461 37.104C6.28738 36.6685 6.45157 36.2402 6.90131 35.8975C9.20713 33.8773 15.1751 33.5489 17.3524 33.4918C18.9301 34.3841 21.0003 35.1908 21.0003 35.1908C21.0003 35.1908 22.0783 34.5911 22.5066 33.6131C25.8975 33.8915 29.1671 34.6697 30.2093 36.5543C30.3806 36.8612 30.4163 37.0968 30.4235 37.1754C30.5163 37.6536 30.4449 38.1248 30.2307 38.546C30.1665 38.6602 30.0951 38.7744 30.0166 38.8744C29.3241 39.7667 28.9743 40.8804 29.0314 42.0083C29.1813 44.7496 29.0386 49.2969 28.1391 53.0805C27.4466 56.0002 27.211 59.0342 27.4395 62.0182C27.4538 62.2395 27.2824 62.4322 27.054 62.4322H13.5047C13.2477 62.4322 13.0692 62.1895 13.1334 61.9468C13.8545 59.0556 13.5903 55.9788 12.341 53.2233C11.9056 52.2667 11.5272 51.3243 11.1703 50.4177C10.8705 49.6682 10.592 48.9614 10.3136 48.3404C9.27852 46.0488 8.65031 43.9572 8.44328 42.1154C8.31478 40.966 7.70799 39.9309 6.82993 39.1742C6.6229 38.9957 6.45871 38.7887 6.33735 38.546C6.10177 38.1248 6.03753 37.6394 6.13747 37.1468Z" fill="#00918A"/>
<path d="M18.7295 37.8607C18.9008 37.9606 19.1221 37.9035 19.2363 37.7393L21.0067 35.1908L23.698 37.8607C23.7694 37.9321 23.8908 37.8964 23.9122 37.7964C23.9978 37.4181 24.1549 36.6114 24.2191 35.7547C24.1906 36.6257 24.0335 37.4181 23.9407 37.8749C23.8979 38.1105 23.8122 38.2819 23.6766 38.2819C23.5552 38.2819 23.441 38.2319 23.3554 38.1319L21.0852 35.7619L19.5575 37.9535C19.4148 38.1605 19.1721 38.289 18.9222 38.289C18.7937 38.289 18.6581 38.2533 18.5438 38.1891C17.4231 37.5608 15.1244 35.9189 14.1892 34.5983C15.3243 35.8975 17.8514 37.3752 18.7295 37.8607Z" fill="#00B5AC"/>
<path d="M27.9383 65.5804C28.0668 66.2087 28.1239 66.8511 28.1239 67.4865V67.5436C28.1239 68.0647 28.1239 68.5716 28.1167 69.0642V69.6852C28.1239 72.0696 28.1239 73.7971 26.9674 74.9536C25.8109 76.1101 23.5979 76.5813 19.3147 76.5813C12.3187 76.5813 11.2479 75.0107 11.1908 69.6067C11.1265 67.2081 11.7619 65.5662 12.4115 64.0813C12.6114 63.6316 12.7756 63.1818 12.9255 62.7178C12.9755 62.5536 13.1254 62.4465 13.2896 62.4465H27.1387C27.3386 62.4465 27.5028 62.5964 27.5242 62.7963C27.6099 63.7244 27.7527 64.6595 27.9383 65.5804Z" fill="#092E3B"/>
<path d="M16.6233 62.939H26.0607L26.2677 65.1163H16.4163L16.6304 62.939H16.6233Z" fill="#9D4939"/>
<path d="M27.032 62.939H27.5317C27.6102 63.6672 27.7173 64.3953 27.8529 65.1092H27.239L27.032 62.939Z" fill="#9D4939"/>
<path d="M12.4044 64.0741C12.5686 63.7029 12.7114 63.3245 12.8399 62.939H15.6597L15.4526 65.1092H11.9761C12.1117 64.7523 12.2545 64.4096 12.4044 64.0741Z" fill="#9D4939"/>
<path d="M21.285 65.1163H24.1048C24.2119 65.1163 24.2976 65.0307 24.2976 64.9236V63.1389C24.2976 63.0318 24.2119 62.9462 24.1048 62.9462H21.285C21.178 62.9462 21.0923 63.0318 21.0923 63.1389V64.9236C21.0923 65.0307 21.178 65.1163 21.285 65.1163Z" fill="#CDC4CF"/>
<path d="M22.6348 33.2349C22.6633 33.1064 22.6562 32.9779 22.6276 32.8494C22.5991 32.7351 22.6491 32.6067 22.749 32.5424C22.8632 32.471 23.0131 32.4924 23.1059 32.5924C23.313 32.8208 23.5271 33.0778 23.8055 33.3848C23.9412 33.5347 24.0482 33.7132 24.1054 33.9059C24.448 35.1338 24.0625 37.1398 23.9126 37.8037C23.8912 37.9036 23.7698 37.9393 23.6984 37.8679L21 35.198C21 35.198 22.3706 34.4413 22.6348 33.2349Z" fill="#33C4BD"/>
<path d="M13.7968 33.4063C14.2394 32.9994 14.5249 32.5354 14.7391 32.1213C14.8747 31.8643 15.1817 31.7501 15.453 31.8572C15.5315 31.8857 15.5958 31.95 15.6172 32.0285C15.9313 33.235 21.0069 35.2053 21.0069 35.2053L19.2365 37.7538C19.1223 37.918 18.9081 37.968 18.7297 37.8752C17.666 37.2826 14.1751 35.241 13.6754 33.8275C13.6255 33.6847 13.6897 33.4991 13.7968 33.4063Z" fill="#33C4BD"/>
<path d="M23.7554 21.7342C23.9624 21.677 24.1052 21.4772 24.0838 21.2559L23.9624 20.0637C23.9339 19.7996 24.0981 19.5568 24.355 19.4926L28.6454 18.3504C28.881 18.2861 29.0238 18.0434 28.9595 17.8078C28.8953 17.5723 28.6526 17.4295 28.417 17.4937L24.1266 18.6359C23.4413 18.8144 23.0058 19.4569 23.0772 20.1636L23.1986 21.3558C23.2271 21.5985 23.4413 21.777 23.6911 21.7556C23.7126 21.7484 23.734 21.7413 23.7554 21.7342Z" fill="#E7EBEC"/>
<path d="M15.4889 10.4906C16.2599 10.2836 17.0523 10.1694 17.8519 10.1408C20.2648 10.0552 22.6348 10.8119 24.391 12.2253C25.2904 12.9464 25.9543 13.8102 26.504 14.781C27.1893 16.0017 27.4535 17.3367 27.8176 18.6859C28.1459 19.9281 28.61 21.1845 28.7956 22.4623C29.1239 24.6825 28.4529 27.1239 26.8181 28.9229C24.9692 30.9574 21.8924 31.0716 19.351 30.7004C16.8596 30.3363 14.361 29.2513 12.5264 27.7878C10.4847 26.1602 9.06407 23.9472 8.37161 21.5414C8.3502 21.4629 8.32878 21.3915 8.30736 21.313C7.08664 16.7156 10.3062 11.8684 15.4889 10.4906Z" fill="#A87463"/>
<path d="M16.1878 20.8417C16.8517 19.978 18.3579 19.7495 18.5221 19.7281C18.7363 19.6995 18.929 19.8495 18.9576 20.0565C18.9862 20.2706 18.8362 20.4634 18.6292 20.4919C18.258 20.5419 17.2015 20.7918 16.8017 21.3129C16.7446 21.3843 16.6732 21.4271 16.5947 21.4485C16.4805 21.4771 16.3591 21.4557 16.2592 21.3772C16.0878 21.2558 16.0593 21.0131 16.1878 20.8417Z" fill="#092E3B"/>
<path d="M24.7624 18.8643C24.5554 18.9429 24.3412 18.85 24.2627 18.6502C24.1842 18.4503 24.277 18.229 24.4768 18.1504C24.6339 18.0862 26.0545 17.5437 27.0611 17.9577C27.261 18.0434 27.3538 18.2647 27.2681 18.4646C27.2181 18.5788 27.1253 18.6573 27.0111 18.693C26.9326 18.7144 26.8469 18.7073 26.7612 18.6787C26.1545 18.4217 25.1122 18.7287 24.7624 18.8643Z" fill="#092E3B"/>
<path d="M26.439 20.2135L26.5461 20.6133C26.6389 20.9702 26.4604 21.3272 26.1391 21.4128C25.825 21.4985 25.4895 21.2772 25.3967 20.9203L25.2896 20.5205C25.1968 20.1636 25.3753 19.8066 25.6965 19.721C26.0106 19.6424 26.3462 19.8566 26.439 20.2135Z" fill="#092E3B"/>
<path d="M18.701 23.3903C18.3797 23.476 18.0513 23.2547 17.9514 22.8977L17.8443 22.498C17.7515 22.141 17.93 21.7841 18.2512 21.6984C18.5653 21.6128 18.9009 21.8341 18.9937 22.191L19.1007 22.5908C19.2007 22.9477 19.0151 23.3046 18.701 23.3903Z" fill="#092E3B"/>
<path d="M25.7117 23.7472L20.3291 25.175C20.1577 25.2178 20.015 25.3392 19.9293 25.4962C19.8508 25.6533 19.8365 25.8389 19.9079 26.0102C20.5289 27.595 22.2565 28.4802 23.927 28.0376L24.0055 28.0162C25.676 27.5736 26.7325 25.946 26.4898 24.2612C26.4612 24.0828 26.3613 23.9257 26.2185 23.8329C26.0615 23.733 25.883 23.7044 25.7117 23.7472Z" fill="#92324C"/>
<path d="M23.3766 25.6389C24.5331 25.332 25.4682 24.6252 25.9965 23.7472C25.8966 23.7258 25.7966 23.7186 25.7038 23.7472L20.3212 25.1749C20.2213 25.2035 20.1356 25.2534 20.0642 25.3248C20.9637 25.8174 22.1202 25.9745 23.2766 25.6675L23.3766 25.6389Z" fill="#E7EBEC"/>
<path d="M17.1521 7.54235C16.0027 7.84932 15.2746 8.3062 13.5327 9.26993C11.7837 10.2337 10.2917 11.1546 8.52134 12.8322C7.07217 14.2028 7.0579 17.658 7.91455 20.7704C8.55703 23.112 9.37085 24.6111 11.2198 26.5814C9.71351 23.2048 10.1418 21.7056 11.4554 20.4206C12.9402 18.9572 14.7892 18.2719 14.5464 17.2939C13.9111 14.7739 15.1104 13.339 16.4882 12.9749C18.3514 12.4824 21.1998 11.7257 22.1135 11.4829C23.0059 11.2474 23.8911 11.8542 24.2837 12.1397C24.7406 11.1189 24.8405 9.21282 23.3057 8.42756C21.7708 7.64229 21.728 7.9564 20.3288 7.57804C18.9082 7.19255 18.5156 7.18541 17.1521 7.54235Z" fill="#092E3B"/>
<path d="M13.0261 18.793L13.8399 21.8556C13.8684 21.9698 13.847 22.0911 13.7756 22.1839C13.6114 22.4052 13.2973 22.8407 13.0832 23.1976C13.176 22.6408 12.4907 19.8353 10.7559 20.9204L10.6274 20.4278L13.0261 18.793Z" fill="#6B8289"/>
<path d="M16.4732 12.9679C15.0883 13.332 13.8962 14.7669 14.5315 17.2868C14.7742 18.2577 12.9324 18.9502 11.4404 20.4136C10.1269 21.6986 9.69857 23.1906 11.2048 26.5743C10.2554 25.5606 9.57721 24.6683 9.05608 23.726C6.59322 17.8794 14.146 13.5176 16.4732 12.9679Z" fill="#3A5862"/>
<path d="M28.2172 18.4717L28.774 18.3218C28.9739 18.2647 29.0881 18.0291 29.0239 17.7936C28.9596 17.558 28.7454 17.4081 28.5456 17.458L27.9887 17.6079C27.7888 17.6651 27.6746 17.9006 27.7389 18.1362C27.796 18.3789 28.0102 18.5288 28.2172 18.4717Z" fill="#E7EBEC"/>
<path d="M18.8658 24.9323C20.3506 24.5397 21.5785 22.962 21.0645 21.0132C20.6219 19.3427 18.5445 19.8924 17.7664 20.0994C17.6308 20.1351 17.5023 20.1708 17.3809 20.2065C17.2881 20.235 17.1953 20.2565 17.1168 20.2779C16.3315 20.4849 15.3392 20.9775 15.8247 22.7907C16.2601 24.4683 17.4594 25.3035 18.8658 24.9323ZM17.8306 20.3564C18.9586 20.0566 20.5005 19.8067 20.8361 21.0703C21.3144 22.855 20.1722 24.3041 18.7944 24.6682C17.5023 25.0109 16.4529 24.2684 16.0388 22.7336C15.7104 21.4915 16.0531 20.8418 17.181 20.542C17.2595 20.5206 17.3452 20.4992 17.4452 20.4706C17.5594 20.4278 17.6879 20.3921 17.8306 20.3564Z" fill="#E7EBEC"/>
<path d="M27.261 22.705C28.6674 22.3338 29.2884 21.006 28.8458 19.3355C28.3604 17.5152 27.261 17.5865 26.4758 17.7936C26.3972 17.815 26.3116 17.8364 26.2116 17.8578C26.0903 17.8864 25.9618 17.9221 25.8261 17.9578C25.048 18.1648 22.9706 18.7145 23.4132 20.3921C23.9272 22.3409 25.769 23.0977 27.261 22.705ZM25.8904 18.2147C26.026 18.1791 26.1545 18.1434 26.2759 18.1148C26.3758 18.0934 26.4615 18.0648 26.54 18.0506C27.6679 17.7507 28.289 18.1505 28.6174 19.3926C29.0243 20.9275 28.4818 22.0982 27.1896 22.4409C25.8119 22.805 24.1057 22.1196 23.6345 20.3278C23.2919 19.0643 24.7553 18.5146 25.8904 18.2147Z" fill="#E7EBEC"/>
<path d="M15.9245 21.7341C16.0459 21.7056 16.1458 21.6056 16.1815 21.4557C16.2814 21.0559 16.6027 20.8061 17.2166 20.649C17.2952 20.6276 17.3808 20.6062 17.4808 20.5776C18.2089 20.3706 19.5653 19.9923 20.2149 20.4563C20.4005 20.5919 20.6361 20.5348 20.736 20.3278C20.836 20.1208 20.7717 19.8495 20.5861 19.7139C19.6438 19.0357 18.1447 19.4569 17.2452 19.7139L16.9953 19.7852C16.6812 19.8709 15.7103 20.1279 15.4534 21.1487C15.3962 21.3772 15.5176 21.6342 15.7175 21.7127C15.7817 21.7484 15.8531 21.7555 15.9245 21.7341Z" fill="#E7EBEC"/>
<path d="M20.5078 20.5205C20.5577 20.5063 20.6077 20.4777 20.6506 20.442C21.1788 19.9423 21.5643 19.8424 21.9784 19.7353C22.1782 19.6782 22.2925 19.4426 22.2282 19.207C22.164 18.9714 21.9498 18.8215 21.7499 18.8715C21.3002 18.9928 20.7862 19.1285 20.1366 19.7424C19.9795 19.8923 19.9652 20.1707 20.108 20.3635C20.2151 20.4991 20.3721 20.5562 20.5078 20.5205Z" fill="#E7EBEC"/>
<path d="M28.2244 18.4717C28.2957 18.4503 28.36 18.4146 28.4028 18.3503C28.5385 18.179 28.517 17.8935 28.3529 17.7293C27.6247 16.9726 26.6538 17.2295 26.3397 17.3081L26.0827 17.3723C25.1761 17.6008 23.6627 17.9791 23.1844 19.0285C23.0916 19.2355 23.163 19.5068 23.3557 19.6353C23.5485 19.7638 23.7769 19.6924 23.8697 19.4854C24.1981 18.7572 25.5687 18.4146 26.304 18.229C26.404 18.2076 26.4896 18.179 26.5682 18.1647C27.1821 18.0005 27.5819 18.0576 27.8674 18.3575C27.9674 18.4646 28.103 18.5002 28.2244 18.4717Z" fill="#E7EBEC"/>
<path d="M23.6415 19.6853C23.7772 19.6496 23.8914 19.5211 23.9057 19.3498C23.9342 19.1142 23.7843 18.8786 23.5773 18.8287C22.7064 18.6145 22.1924 18.7501 21.7426 18.8715C21.5428 18.9286 21.4285 19.1642 21.4928 19.3998C21.557 19.6353 21.7712 19.7852 21.9711 19.7353C22.3851 19.6282 22.7706 19.5211 23.4702 19.6924C23.5345 19.6996 23.5916 19.6996 23.6415 19.6853Z" fill="#E7EBEC"/>
<path d="M10.5418 25.2464C10.7488 25.1893 10.8916 24.9894 10.8702 24.7681L10.7488 23.5759C10.7202 23.3118 10.8844 23.069 11.1414 23.0048L15.4318 21.8626C15.6674 21.7984 15.8102 21.5556 15.7459 21.3201C15.6817 21.0845 15.439 20.9417 15.2034 21.006L10.913 22.1482C10.2277 22.3266 9.7922 22.9691 9.86359 23.6758L9.98495 24.868C10.0135 25.1107 10.2277 25.2892 10.4775 25.2678C10.4989 25.2535 10.5204 25.2535 10.5418 25.2464Z" fill="#E7EBEC"/>
<path d="M15.3683 21.8841L15.9251 21.7342C16.125 21.6771 16.2392 21.4415 16.175 21.2059C16.1107 20.9703 15.8966 20.8204 15.6967 20.8704L15.1399 21.0203C14.94 21.0774 14.8258 21.313 14.89 21.5486C14.9542 21.7913 15.1684 21.9341 15.3683 21.8841Z" fill="#E7EBEC"/>
<path d="M11.3123 21.0845C11.9405 20.7419 12.6686 20.956 12.9899 21.7127C13.3896 22.6479 12.7971 22.8835 13.1469 23.7259C13.3682 24.247 13.6395 24.3826 13.8537 24.8966C14.0535 25.3606 14.0821 25.9603 13.668 26.1887C12.9827 26.5671 11.7049 25.5605 11.1052 24.4183C10.4842 23.2476 10.2414 21.6699 11.3123 21.0845Z" fill="#A87463"/>
<path d="M49.9692 59.5982C50.783 59.691 51.5041 59.5982 55.4446 59.5982C55.873 59.5982 56.2156 59.948 56.2156 60.3906C56.2156 60.512 56.1871 60.6262 56.1371 60.7333C56.0943 60.8189 56.1014 60.9189 56.1514 60.9974C56.2014 61.0759 56.287 61.1259 56.387 61.1259H56.5012C56.9295 61.1259 57.2722 61.4757 57.2722 61.9183C57.2722 62.3538 56.9295 62.7107 56.5012 62.7107H56.2442C56.1371 62.7107 56.0372 62.7607 55.9729 62.8535C55.9087 62.9392 55.8944 63.0534 55.9301 63.1533C55.9586 63.2318 55.9729 63.3175 55.9729 63.4032C55.9729 63.8101 55.6517 64.1385 55.2519 64.1385H54.8379C54.7379 64.1385 54.638 64.1884 54.5737 64.267C54.5095 64.3455 54.4881 64.4526 54.5166 64.5525C54.5309 64.6025 54.538 64.6596 54.538 64.7167C54.538 65.0808 54.2525 65.3735 53.8955 65.3735C46.8924 65.3735 50.1977 65.3949 48.2202 65.2592C46.0501 65.1093 44.4153 63.7173 44.5795 62.1467C44.6509 61.4329 45.0863 60.8047 45.7431 60.3478C45.7431 60.3406 46.564 59.1984 49.9692 59.5982Z" fill="#A87463"/>
<path d="M22.9132 51.7026C22.6991 50.7246 21.7282 50.1106 20.7502 50.3248L4.91645 53.837L9.79221 38.3674C10.092 37.4108 9.56377 36.3971 8.60718 36.0973C7.65059 35.7974 6.63689 36.3257 6.33706 37.2823L1.43274 52.8376C1.05439 54.0512 1.34708 55.3862 2.20373 56.3213C3.06038 57.2565 4.36677 57.6706 5.60891 57.3921L21.5354 53.8585C22.5135 53.6443 23.1274 52.6806 22.9132 51.7026Z" fill="#A87463"/>
<path d="M4.4163 53.3301L5.41572 57.8275C4.12361 58.0202 2.80294 57.5633 1.9106 56.5925C1.43944 56.0785 1.11106 55.4503 0.961145 54.7721C0.811231 54.0939 0.839786 53.38 1.04681 52.7161L5.95113 37.1608C6.3152 35.9972 7.56449 35.3476 8.7281 35.7188C9.47767 35.9544 10.0559 36.5826 10.2272 37.3535C10.3129 37.7319 10.2915 38.1245 10.1773 38.4957L5.72269 52.6305L4.72326 52.8518C4.5091 52.8946 4.36633 53.1159 4.4163 53.3301Z" fill="#00918A"/>
<path d="M5.45861 58.0417V58.0345L5.41578 57.8275L4.41635 53.3301C4.36638 53.116 4.50202 52.9018 4.72332 52.8518L5.72274 52.6305L5.95118 52.5805L6.69361 52.4164C6.90778 52.3664 7.12194 52.502 7.17191 52.7233L7.21474 52.9232L7.30041 53.3158L8.08567 56.8495L8.17134 57.2421L8.21417 57.442C8.26414 57.6562 8.1285 57.8704 7.9072 57.9203L5.94405 58.3558C5.72274 58.3986 5.50858 58.263 5.45861 58.0417Z" fill="#004845"/>
<path d="M20.2004 50.6246C20.2004 50.6246 25.0262 48.9613 26.0541 48.8328C27.0821 48.7043 28.3385 49.7894 29.1167 50.2534C29.8948 50.7175 29.3808 51.4099 28.3956 51.1244C28.3956 51.1244 29.3808 51.3956 29.2951 51.8525C29.2023 52.3023 28.3457 52.1452 28.1529 52.0381C28.1529 52.0381 29.0239 52.5307 28.9025 52.8305C28.7811 53.1303 28.5598 53.2803 28.1315 53.0875C27.7032 52.8948 27.3605 52.7663 27.3605 52.7663C27.3605 52.7663 27.8317 52.8948 27.7674 53.0661C27.7032 53.2374 27.7674 53.6229 26.9108 53.3017C26.0541 52.9804 25.6044 52.4664 24.9833 52.6592C24.3622 52.8519 23.9768 53.6872 22.2206 53.2803C20.4645 52.8734 19.8291 52.5521 20.2004 50.6246Z" fill="#A87463"/>
<path d="M66.7235 42.8222H47.4346C46.6136 42.8936 46.1425 43.6289 45.9497 44.4284L42.5874 62.1753L41.9377 61.9326L45.3001 44.1857C45.4857 43.3933 45.964 42.6509 46.785 42.5795H66.0738C66.3665 42.608 66.4165 42.6509 67.0162 42.8793C66.8377 42.8293 66.9091 42.8436 66.7235 42.8222Z" fill="#FAFBFB"/>
<path d="M41.9089 62.5322C41.8875 62.2253 41.9018 62.211 41.9375 61.9397L42.5871 62.1824L45.9494 44.4355C46.1422 43.6288 46.6133 42.9007 47.4343 42.8293H66.7232C66.9088 42.8436 66.8374 42.8364 67.0159 42.8864C67.6013 43.1862 67.6869 43.7859 67.5941 44.4426L64.2318 62.1896C64.039 62.9891 63.5679 63.7244 62.7469 63.7958C62.5042 63.7958 62.1258 63.7958 61.6333 63.7958C57.5285 63.7958 45.6853 63.7958 43.458 63.7958C43.1225 63.7672 42.837 63.6173 42.5157 63.496L42.4943 63.4817H42.43C39.4175 63.4817 31.3222 63.4817 27.4958 63.4817C27.3245 63.4817 27.1531 63.4817 27.0032 63.4817C26.8676 63.4817 26.7605 63.3746 26.7605 63.239V62.6322C26.7605 62.5751 26.8033 62.5322 26.8604 62.5322C32.1931 62.5322 36.6905 62.5322 41.9089 62.5322Z" fill="#E7EBEC"/>
<path d="M42.4947 63.4745L42.5161 63.4888C43.0301 63.6816 43.1371 63.7601 43.4584 63.7887C45.6857 63.7887 57.5289 63.7887 61.6336 63.7887V63.8029C61.6336 63.9243 61.5337 64.0314 61.4052 64.0314C58.4569 64.0314 30.78 64.0314 27.7317 64.0314C27.5961 64.0314 27.489 63.9243 27.489 63.7887V63.4745C31.3154 63.4745 39.4107 63.4745 42.4233 63.4745H42.4947Z" fill="#CED5D8"/>
</svg>
