
<svg width="66" height="131" viewBox="0 0 66 131" fill="none" xmlns="http://www.w3.org/2000/svg">
<path d="M32.4637 27.6947C31.596 27.8104 30.9813 28.6058 31.0898 29.4735L32.9699 44.044C33.3097 46.6544 35.7104 48.5055 38.3208 48.1729L52.8985 46.2928C53.7662 46.1771 54.3809 45.3817 54.2724 44.514C54.1567 43.6463 53.3613 43.0316 52.4936 43.1401L37.9159 45.0201C37.0409 45.1358 36.231 44.514 36.1226 43.6318L34.2425 29.0613C34.1268 28.1936 33.3314 27.579 32.4637 27.6947Z" fill="#FFCFB4"/>
<path d="M56.6441 46.8858C56.9551 46.8424 57.172 46.5604 57.1286 46.2567C57.1141 46.1337 57.0635 46.0253 56.984 45.9457C56.9623 45.924 56.9551 45.8879 56.9623 45.859C56.9695 45.83 56.9912 45.8011 57.0201 45.7866C57.2805 45.6782 57.4468 45.4034 57.4106 45.1069C57.3889 44.9334 57.3022 44.7815 57.1792 44.6803C57.1503 44.6586 57.1431 44.6225 57.1431 44.5935C57.1503 44.5574 57.172 44.5284 57.2009 44.5212C57.5046 44.3911 57.6926 44.0729 57.6492 43.7475C57.6131 43.4438 57.3889 43.1618 57.0346 43.1039C56.9985 43.0967 56.9695 43.075 56.9623 43.0389C56.9478 43.0027 56.9551 42.9666 56.984 42.9449C57.0997 42.8075 57.1648 42.6339 57.1431 42.4387C57.0997 42.0771 56.7743 41.8241 56.4127 41.8674C56.4127 41.8674 55.762 41.9325 55.5016 41.9614C55.4438 41.9687 55.4004 41.9253 55.3932 41.8747C55.2992 41.1443 54.3302 41.0576 53.26 41.4408C52.0018 41.8891 49.9121 43.3932 50.1941 45.0274C50.4255 46.3868 51.8861 47.457 53.7445 47.269C54.0699 47.2256 53.4697 47.2979 56.6441 46.8858Z" fill="#FFCFB4"/>
<path d="M32.182 44.1525L30.3019 29.5748C30.1356 28.2732 31.0539 27.0729 32.3555 26.9065C33.6571 26.7402 34.8575 27.6586 35.0238 28.9601L36.9038 43.5379C36.9617 43.9789 37.3666 44.2971 37.8077 44.2393L48.7265 42.8292C48.8712 42.8075 49.0013 42.9088 49.023 43.0534L49.0375 43.1908L49.5436 47.1244L49.5581 47.2618C49.5798 47.4064 49.4786 47.5366 49.3339 47.5583L38.4151 48.9683C35.3781 49.3588 32.5797 47.1967 32.182 44.1525Z" fill="#092E3B"/>
<path d="M50.0351 43.0605C50.1508 43.0461 50.2592 43.1256 50.2737 43.2485L50.7293 46.7556C50.7437 46.8713 50.6642 46.9797 50.5413 46.9942L49.5506 47.1244L49.0444 43.1907L50.0351 43.0605Z" fill="#FFF7E6"/>
<path d="M31.7912 62.3313C32.1889 62.7363 32.4275 63.2931 32.413 63.9077L32.066 87.0975C31.9936 91.8555 30.0702 96.3026 26.6572 99.6216L10.8791 114.93C10.0042 115.783 8.60134 115.761 7.74808 114.879C6.89482 114.004 6.91651 112.601 7.7987 111.748L23.5768 96.44C26.1438 93.9453 27.59 90.6046 27.6406 87.0252L27.9877 63.8354C28.0094 62.6134 29.0145 61.6372 30.2365 61.6589C30.8511 61.6733 31.4007 61.9264 31.7912 62.3313Z" fill="#FFCFB4"/>
<path d="M4.29895 113.512L4.53757 114.828C4.58096 115.089 4.59542 115.342 4.58096 115.602L0.676212 118.805C0.574978 118.885 0.437589 118.878 0.350817 118.784L0.0688074 118.494C-0.0179647 118.408 -0.0251957 118.263 0.0615764 118.169L1.9561 115.942C2.41888 115.392 2.84551 114.821 3.23599 114.221L4.35679 112.5C4.26279 112.818 4.23387 113.165 4.29895 113.512Z" fill="#CC8900"/>
<path d="M7.36502 110.707C7.68319 111.032 7.7338 111.531 7.49518 111.921C7.18425 112.435 7.02517 113.021 7.03963 113.621L7.06855 114.828C7.09025 115.942 6.97455 117.048 6.72146 118.133L6.20806 120.288C6.0996 120.743 6.22976 121.221 6.56238 121.56L6.74316 121.748L7.90012 122.942L8.13151 123.18C8.61599 123.679 8.60153 124.482 8.10259 124.966C7.85673 125.205 7.53134 125.328 7.20594 125.321C6.88055 125.313 6.56238 125.19 6.31653 124.937L3.95199 122.5L3.59767 122.132C3.24335 121.763 3.12765 121.228 3.3012 120.743L3.8146 119.283C3.98091 118.82 4.10384 118.35 4.19061 117.865L4.53047 116.036C4.55939 115.891 4.57386 115.747 4.58109 115.602C4.59555 115.342 4.58109 115.081 4.5377 114.828L4.29908 113.512C4.234 113.165 4.26292 112.818 4.35693 112.507C4.57386 111.777 5.17403 111.191 5.96221 111.018L7.36502 110.707Z" fill="#FFAB00"/>
<path d="M6.54759 121.56C6.2222 121.221 6.09204 120.743 6.19327 120.288L6.70668 118.133C6.95976 117.048 7.07546 115.942 7.05376 114.828L7.02484 113.621C7.01038 113.021 7.16946 112.435 7.48039 111.922C7.71902 111.531 7.6684 111.032 7.35023 110.707L7.58163 110.656C8.1818 110.425 8.83259 110.374 9.45446 110.504C10.0763 110.634 10.6693 110.945 11.1393 111.437C12.1299 112.464 12.3252 113.968 11.7322 115.183L11.6888 115.269C11.6744 115.291 11.6671 115.313 11.6527 115.335L10.7994 116.976C10.2716 118.01 9.61354 118.972 8.84705 119.847L7.8781 120.953C7.61778 121.257 7.51655 121.669 7.62501 122.059L7.87087 122.934L6.71391 121.741L6.54759 121.56Z" fill="#FFCFB4"/>
<path d="M23.2514 96.2087C25.7388 93.7935 27.1417 90.5468 27.1923 87.0832L27.5394 63.8933C27.5611 62.4544 28.7542 61.2974 30.1931 61.3191C30.8946 61.3263 31.5453 61.6083 32.0298 62.1145C32.5143 62.6134 32.7818 63.2787 32.7674 63.9729L32.4203 87.1627C32.348 92.0292 30.3812 96.5775 26.8886 99.9688L13.4461 113.006C13.3232 113.122 13.1352 113.122 13.0195 112.999L9.80171 109.68C9.68601 109.557 9.68601 109.369 9.80894 109.253L23.2514 96.2087Z" fill="#041218"/>
<path d="M19.1518 61.6515C20.128 61.5937 21.0608 62.1939 21.379 63.1628L26.8022 79.4977C29.4633 87.5169 31.0613 95.8614 31.5602 104.3L32.5003 120.281C32.5726 121.503 31.6398 122.551 30.4177 122.616C29.1957 122.688 28.1472 121.756 28.0821 120.534L27.1421 104.553C26.6721 96.505 25.1463 88.5437 22.601 80.886L17.1778 64.5512C16.7945 63.3942 17.4236 62.136 18.5806 61.7528C18.7686 61.6949 18.9566 61.6588 19.1518 61.6515Z" fill="#FFCFB4"/>
<path d="M26.7438 104.654C26.2738 96.6424 24.7553 88.71 22.2244 81.0885L16.8012 64.7536C16.3456 63.387 17.0904 61.9046 18.4571 61.4491C18.674 61.3768 18.8981 61.3334 19.1295 61.3189C20.3082 61.2466 21.3928 61.9842 21.7616 63.105L27.1849 79.4398C29.8604 87.4951 31.4656 95.8759 31.9573 104.343L32.7021 117.077C32.7094 117.243 32.5864 117.388 32.4201 117.395L27.7995 117.663C27.6332 117.67 27.4886 117.547 27.4814 117.381L26.7438 104.654Z" fill="#07252F"/>
<path d="M28.8769 130.346L28.8697 130.433C28.8625 130.556 28.7757 130.657 28.6745 130.657H28.3563C28.2551 130.657 28.1755 130.563 28.1611 130.433L27.9658 127.83L28.6094 129.927C28.6672 130.093 28.7612 130.23 28.8769 130.346Z" fill="#CC8900"/>
<path d="M27.3875 121.64L28.248 124.135C28.2553 124.164 28.2697 124.193 28.2769 124.221C28.5011 124.872 28.7976 125.501 29.1591 126.087C29.2459 126.232 29.3399 126.376 29.4411 126.514L30.2149 127.649C30.4173 127.945 30.7716 128.126 31.1477 128.126H31.2489H34.0111C34.2353 128.126 34.445 128.177 34.6258 128.271C34.633 128.271 34.633 128.278 34.633 128.278C34.6836 128.3 34.7415 128.336 34.7921 128.365C34.8427 128.401 34.8933 128.437 34.9367 128.473C34.9801 128.509 35.0235 128.553 35.0596 128.596C35.0958 128.64 35.1319 128.69 35.1609 128.734C35.1826 128.763 35.2043 128.799 35.2187 128.835C35.2332 128.856 35.2476 128.878 35.2621 128.907C35.291 128.958 35.3055 129.008 35.3199 129.066C35.3344 129.102 35.3416 129.139 35.3489 129.182C35.3561 129.204 35.3561 129.225 35.3633 129.247C35.3706 129.29 35.3706 129.341 35.3706 129.392C35.3706 129.739 35.2187 130.057 34.9729 130.281C34.727 130.512 34.3871 130.65 34.0184 130.65H30.3739H29.6581C29.3616 130.65 29.0796 130.534 28.8844 130.339C28.7614 130.223 28.6747 130.079 28.624 129.919L27.9805 127.822L27.3586 125.776C27.1778 125.198 27.1055 124.597 27.1561 123.997C27.1923 123.397 27.2646 122.544 27.3875 121.64Z" fill="#FFAB00"/>
<path d="M31.2488 128.133H31.1476C30.7716 128.133 30.4172 127.953 30.2148 127.656L29.4411 126.521C29.3398 126.376 29.2458 126.239 29.159 126.094C28.7975 125.501 28.501 124.872 28.2769 124.229C28.2696 124.2 28.2552 124.171 28.2479 124.142L27.3947 121.647H27.3875C27.4381 121.307 27.4959 120.953 27.5538 120.613H27.561C27.749 119.015 28.8626 117.786 30.2148 117.786C31.7044 117.786 32.9047 119.268 32.9047 121.09L32.9626 122.124C33.0059 122.862 33.0999 123.592 33.2518 124.315L33.8303 127.02C33.9098 127.403 34.1051 127.757 34.3871 128.039L34.6257 128.278C34.4449 128.184 34.2352 128.133 34.0111 128.133H31.2488Z" fill="#FFCFB4"/>
<path d="M17.3942 17.7448C17.5822 20.0588 17.5677 23.6959 13.9595 24.3974C14.8995 24.5781 19.7154 23.6381 18.8693 18.2582C18.1462 17.2748 17.3942 17.7448 17.3942 17.7448Z" fill="#B33734"/>
<path d="M21.5665 21.2373C20.8723 22.4449 19.5418 23.2837 16.8519 22.9221C15.1526 22.6907 12.8387 21.635 12.4121 19.5814C12.1734 18.4389 12.2024 16.8987 13.4316 15.5176C13.4316 15.5176 11.3636 19.5452 16.6567 21.1216C19.9106 22.0833 21.5665 21.2373 21.5665 21.2373Z" fill="#C74038"/>
<path d="M19.2885 16.248C18.2039 15.2284 13.9231 14.4619 14.5884 18.5475C15.2536 22.633 19.7079 21.9388 20.4093 21.6134C21.118 21.288 21.7398 18.5547 19.2885 16.248Z" fill="#B33734"/>
<path d="M18.515 15.1488C20.424 14.7005 24.5095 16.5082 23.4177 19.7622C22.333 23.0161 16.23 21.0421 15.9914 18.316C15.7528 15.5754 18.515 15.1488 18.515 15.1488Z" fill="#B33734"/>
<path d="M18.3704 14.6789C17.6183 13.869 16.0492 14.3173 15.4924 15.9443C14.7766 18.0124 14.979 20.724 18.3125 21.8303C19.0284 22.069 22.3113 22.6691 23.4248 19.7623C19.8889 22.2425 17.6617 19.473 17.3146 18.5547C16.6349 16.747 17.6473 15.4815 18.5222 15.1489C18.5511 14.9898 18.5222 14.838 18.3704 14.6789Z" fill="#D24D3E"/>
<path d="M15.688 16.3058C12.0435 20.2034 11.277 23.2404 14.7262 26.0026C13.9236 25.106 13.3162 24.3323 13.3162 23.0885C13.3162 20.912 16.5123 19.1621 15.688 16.3058Z" fill="#B33734"/>
<path d="M15.4923 15.9442C16.0491 14.3173 17.6255 13.8689 18.3703 14.6788C18.5221 14.8379 18.551 14.9898 18.5149 15.1416C17.7484 15.4381 16.8734 16.4432 17.1338 17.9111C16.7867 18.3594 16.5987 18.7933 16.5697 19.2054C16.5191 20.0225 17.0325 20.7601 17.5821 21.5338C14.95 20.2973 14.8343 17.8532 15.4923 15.9442Z" fill="#C74038"/>
<path d="M20.6194 14.462C18.508 15.5032 15.8976 17.1519 15.7674 19.1621C15.6445 21.0494 17.6041 22.3655 17.821 23.696C17.9801 24.6649 17.0329 25.0843 16.6135 25.106C17.0473 24.8746 17.3583 24.5348 17.1341 23.949C16.6641 22.7053 13.5403 22.1702 13.3234 19.4586C13.1064 16.7397 17.4016 13.992 19.0286 13.2255C19.3612 13.2327 20.6194 14.462 20.6194 14.462Z" fill="#D24D3E"/>
<path d="M15.6877 22.6185C13.1135 21.9821 11.6022 20.2829 11.7324 18.598C11.8987 16.501 14.1548 14.6788 15.3551 14.1003C15.7673 14.1799 18.1463 15.1633 18.1463 15.1633C18.1463 15.1633 13.3738 16.6457 13.3666 19.3067C13.3521 21.0132 15.6877 22.6185 15.6877 22.6185Z" fill="#C74038"/>
<path d="M17.481 39.3367C17.1556 38.6064 16.8302 37.7821 16.5121 36.842C15.9119 35.0849 15.6227 33.5809 15.5937 32.2937C15.5793 31.5562 15.2105 30.8765 14.6031 30.4643C13.8728 29.9581 13.6847 28.9602 14.1837 28.2299C14.914 27.1669 15.9697 26.5379 17.0906 26.5017C24.0974 25.5761 24.7771 25.7858 30.1714 26.5017C31.2995 26.5451 32.3552 27.167 33.0783 28.2371C33.5772 28.9675 33.3965 29.9726 32.6589 30.4715C31.8057 31.0572 31.379 32.0985 31.5743 33.1108C31.7261 33.899 31.8129 34.6944 31.8635 35.4681C31.9575 37.0156 31.8563 38.6426 31.4513 40.1177L30.6053 45.042C30.3305 46.6473 30.4751 48.3032 31.0247 49.8362L32.0587 52.6924C32.8975 54.5508 33.2663 56.9081 33.2663 59.5619C33.2663 65.9685 29.1085 67.5304 22.268 67.5304C22.268 67.5304 13.0123 67.9064 14.4874 59.5619C14.8056 57.783 15.3768 56.0548 16.1433 54.4206C16.5772 53.5023 17.0906 52.7936 17.6618 52.0344C17.5823 52.1356 17.51 52.2369 17.4304 52.3309C19.484 49.6409 20.8651 46.9221 19.2092 43.2415C19.2382 43.2415 17.481 39.3367 17.481 39.3367Z" fill="#FFCFB4"/>
<path d="M24.8932 26.9243C25.7573 26.0602 25.7573 24.6592 24.8932 23.7951C24.0291 22.931 22.6282 22.931 21.7641 23.7951C20.9 24.6592 20.9 26.0602 21.7641 26.9243C22.6282 27.7884 24.0291 27.7884 24.8932 26.9243Z" fill="#FFCFB4"/>
<path d="M23.0847 29.8424C23.1859 29.8496 23.2944 29.8496 23.3956 29.8424C24.6538 29.7556 25.6806 28.7432 25.7457 27.4489L26.2374 18.1354C26.3097 16.7398 25.2395 15.5467 23.8439 15.4744C22.4339 15.3948 21.2552 16.4722 21.1829 17.8678L20.6912 27.1813C20.6189 28.5769 21.6891 29.7701 23.0847 29.8424Z" fill="#FFCFB4"/>
<path d="M20.9587 22.0981L21.1829 17.8607C21.2552 16.4651 22.4339 15.3877 23.8439 15.4673C25.2395 15.5396 26.3097 16.7327 26.2374 18.1283L25.912 24.2457C25.066 24.0577 24.1765 23.7612 23.251 23.3635C22.4628 23.0237 21.6963 22.5898 20.9587 22.0981Z" fill="#EBB79A"/>
<path d="M33.6856 59.4968C33.6856 67.5304 30.193 67.8703 22.3112 67.8703C22.304 67.8703 22.304 67.8703 22.2967 67.8703C22.2967 67.8703 22.2244 67.8703 22.1015 67.8703C21.1036 67.8703 17.6906 67.704 15.5936 65.5708C14.4656 64.4283 13.916 62.9098 13.9449 61.0659C13.9666 59.6269 14.4294 57.7107 14.8271 56.5104C15.1091 55.6354 15.4273 54.8906 15.7599 54.2398C15.825 54.1024 15.9696 54.0229 16.1215 54.0229H32.7094C32.8902 54.0229 33.0565 54.1458 33.0999 54.3194C33.4831 55.8089 33.6856 57.5372 33.6856 59.4968Z" fill="#07252F"/>
<path d="M33.5848 57.2841H14.5962C14.6757 57.0093 14.748 56.7418 14.8276 56.5104C14.9722 56.062 15.1313 55.6499 15.2904 55.2594H33.31C33.433 55.8957 33.527 56.5754 33.5848 57.2841Z" fill="#8E504B"/>
<path d="M26.1941 54.8688H28.3779C28.5876 54.8688 28.7539 55.0351 28.7539 55.2448V57.3057C28.7539 57.5154 28.5876 57.6817 28.3779 57.6817H26.1941C25.9844 57.6817 25.8181 57.5154 25.8181 57.3057V55.2448C25.8181 55.0351 25.9844 54.8688 26.1941 54.8688ZM26.2664 56.9803C26.2664 57.1177 26.3821 57.2334 26.5195 57.2334H28.0597C28.1971 57.2334 28.3128 57.1177 28.3128 56.9803V55.563C28.3128 55.4256 28.1971 55.3099 28.0597 55.3099H26.5195C26.3821 55.3099 26.2664 55.4256 26.2664 55.563V56.9803Z" fill="#4D3C5B"/>
<path d="M27.7208 56.4887H28.3065C28.4222 56.4887 28.5235 56.3947 28.5235 56.2717C28.5235 56.156 28.4295 56.0548 28.3065 56.0548H27.7208C27.6051 56.0548 27.5039 56.1488 27.5039 56.2717C27.5111 56.3947 27.6051 56.4887 27.7208 56.4887Z" fill="#4D3C5B"/>
<path d="M31.8345 54.7388H32.572L32.8251 57.8047H32.0948L31.8345 54.7388Z" fill="#321A39"/>
<path d="M22.4413 54.7388H21.5158L21.2988 57.8047H22.2244L22.4413 54.7388Z" fill="#321A39"/>
<path d="M14.8277 56.5104C15.0446 55.8523 15.276 55.2666 15.5146 54.7388H16.0786C15.8328 55.2666 15.6014 55.8523 15.3917 56.5104C15.2688 56.8864 15.1458 57.3275 15.0229 57.8047H14.4517C14.5746 57.3275 14.7047 56.8864 14.8277 56.5104Z" fill="#321A39"/>
<path d="M17.0251 25.9159C17.7554 25.8219 18.4134 25.7423 19.0063 25.6628C19.122 26.7836 19.0714 28.2226 19.0353 28.9601C19.0208 29.2566 19.1944 29.5241 19.4691 29.6398L19.9825 29.8568C19.8741 30.5726 19.6499 31.1873 19.4691 31.7296C19.8162 31.5777 20.1416 31.4259 20.4453 31.274C20.7346 31.5271 21.1684 31.9176 21.7324 32.4744C22.1518 32.8866 22.6508 33.4 23.222 34.0146C24.4875 35.374 25.977 37.5723 26.9388 39.0763H22.3615C21.5661 39.0763 20.843 38.7003 20.3152 38.1001C19.7945 37.4999 19.4691 36.6611 19.4691 35.7356C19.4691 38.4617 21.1323 40.6816 23.1714 40.6816H27.9366H30.6193C31.2267 40.6816 31.8052 40.4863 32.3114 40.132C32.2969 40.1971 32.2825 40.2694 32.2608 40.3345L31.4148 45.1648C30.8869 48.2524 32.1595 50.1542 32.7959 52.2729L32.8103 52.2657C33.6564 54.124 34.0902 56.5175 34.0902 59.381C34.0902 59.8871 34.0685 60.3572 34.0179 60.8055C34.0035 60.9646 33.8661 61.0875 33.6998 61.0875H32.4054C30.8941 61.0875 29.2961 58.2529 29.0502 56.4741C29.0502 56.2789 29.043 56.0836 29.0213 55.8884C29.0068 56.0619 29.0213 56.2644 29.0502 56.4741C29.0358 57.5949 28.6164 58.6796 27.8643 59.5256C26.9677 60.5379 25.7023 61.1019 24.3718 61.1019C24.1621 61.1019 13.6554 61.1019 13.8651 61.1019C13.7783 61.1019 13.6916 61.0658 13.6337 61.0007C13.5759 60.9356 13.5397 60.8561 13.5469 60.7693C13.5614 60.2848 13.6192 59.7787 13.7133 59.2508C14.1616 56.7489 15.1739 53.9649 16.8009 51.7884C16.8154 51.7739 16.837 51.7378 16.837 51.7378C18.9196 49.0189 19.9319 46.7122 18.5074 43.5812C18.3266 43.198 16.9455 40.1826 16.7792 39.7054L16.7575 39.7199C16.0923 38.2447 15.3547 36.2128 15.0293 34.4846C14.769 33.1035 14.2411 31.7874 13.4819 30.5799C12.9612 29.7628 12.9829 28.7577 13.5397 27.9622C14.3857 26.7257 15.6656 25.9737 17.0251 25.9159Z" fill="#092E3B"/>
<path d="M19.9825 29.8568L19.4691 29.6399C19.2016 29.5242 19.028 29.2566 19.0353 28.9602C19.0787 28.2226 19.122 26.7764 19.0063 25.6628C19.0859 25.6556 19.1582 25.6484 19.2305 25.6339C20.0765 27.3983 20.1561 28.7577 19.9825 29.8568Z" fill="#3A5862"/>
<path d="M23.6273 28.613C23.4609 28.8517 23.2946 29.0686 23.1283 29.2711C22.3835 30.1677 21.5737 30.7173 20.4456 31.2813C20.1491 31.4331 19.8237 31.585 19.4694 31.7368C19.6574 31.1945 19.8744 30.5799 19.9828 29.864C20.1564 28.7649 20.0768 27.4055 19.238 25.6411C19.2597 25.6411 19.3248 25.6339 19.4188 25.6194C19.7225 25.5832 20.0262 25.6339 20.301 25.764C23.8297 27.3765 25.3844 28.3455 26.5703 29.6905L24.4733 28.4395C24.1768 28.2659 23.8153 28.3455 23.6273 28.613Z" fill="#FFF7E6"/>
<path d="M23.1713 40.6815C21.1249 40.6815 19.469 38.4616 19.469 35.7355C19.469 36.6539 19.7944 37.4927 20.315 38.1001C20.8357 38.7002 21.5588 39.0763 22.3614 39.0763H26.9386C27.546 40.0235 27.9437 40.6888 27.9437 40.6888H23.1713V40.6815Z" fill="#092E3B"/>
<path d="M23.1275 29.2711C23.5614 30.0231 23.9663 30.8836 24.3206 31.867C24.3857 32.0478 24.4508 32.2213 24.5159 32.3949C25.7018 35.6633 26.6852 37.782 27.2854 39.0763C27.6975 39.9729 27.9361 40.4719 27.9434 40.6888C27.9434 40.6888 27.5457 40.0236 26.9383 39.0763C25.9765 37.5723 24.487 35.374 23.2215 34.0146C22.6503 33.4 22.1513 32.8938 21.7319 32.4744C21.1679 31.9176 20.7268 31.5271 20.4448 31.274C21.5656 30.7173 22.3755 30.1677 23.1275 29.2711Z" fill="#3A5862"/>
<path d="M28.6234 28.266C29.0428 29.2133 29.4116 30.363 29.6502 31.7369C29.6936 31.961 29.7225 32.178 29.7514 32.3949C30.1491 35.4102 29.5056 37.6808 28.8765 39.0763C28.3992 40.1321 27.9365 40.6889 27.9365 40.6889C27.9292 40.4719 27.6978 39.973 27.2784 39.0763C26.6783 37.782 25.6948 35.6633 24.509 32.3949C24.4439 32.2214 24.3788 32.0478 24.3137 31.867C23.9594 30.8836 23.5545 30.0231 23.1206 29.2711C23.2869 29.0759 23.4532 28.8517 23.6195 28.6131C23.8076 28.3455 24.1763 28.266 24.4583 28.4323L26.5553 29.6833L28.3848 28.3672C28.4571 28.3166 28.5439 28.2805 28.6234 28.266Z" fill="#FFF7E6"/>
<path d="M23.6268 28.6131C23.8148 28.3455 24.1836 28.266 24.4656 28.4323L26.5626 29.6833L28.392 28.3672C28.4571 28.3166 28.5439 28.2805 28.6234 28.266C28.7969 28.6637 28.9633 29.0976 29.1079 29.5603C28.9922 29.4157 28.8693 29.2711 28.7319 29.112L27.0326 30.3341C27.0253 30.3413 27.0181 30.3413 27.0109 30.3485C26.9603 30.3847 26.9024 30.4136 26.8373 30.4353C26.8157 30.4425 26.8012 30.4498 26.7795 30.457C26.7072 30.4787 26.6349 30.4931 26.5626 30.4931C26.483 30.4931 26.4035 30.4787 26.3239 30.457C26.3022 30.4498 26.2806 30.4353 26.2516 30.4281C26.2155 30.4136 26.1793 30.4064 26.1504 30.3847L24.1908 29.2205C24.0317 29.4446 23.8799 29.6399 23.7425 29.799C23.6702 29.8857 23.5979 29.9653 23.5255 30.0448C23.3954 29.7845 23.258 29.5242 23.1206 29.2856C23.2941 29.0686 23.4605 28.8517 23.6268 28.6131Z" fill="#D9CED6"/>
<path d="M30.6121 29.5386C31.2629 30.8257 31.3352 31.7368 31.3352 31.7368C31.3063 31.6717 31.2774 31.6067 31.2484 31.5416C31.1472 31.303 31.0387 31.0788 30.9303 30.8691C30.7495 30.5148 30.5543 30.1966 30.3518 29.8857C30.0119 29.3795 29.6432 28.9312 29.2238 28.4612C29.0647 28.2876 28.8405 28.2226 28.6236 28.2732C28.544 28.2876 28.4645 28.3238 28.3922 28.3744L26.5627 29.6905C27.0761 28.4395 26.9894 27.0005 26.6712 25.952C26.6351 25.8363 26.664 25.7134 26.7363 25.6266C26.8158 25.5399 26.9315 25.4892 27.0472 25.5109C27.1557 25.4025 29.5202 27.3548 30.6121 29.5386Z" fill="#FFF7E6"/>
<path d="M30.576 28.7142C30.7713 28.9529 30.7857 29.2855 30.6122 29.5386C30.0265 28.3671 28.9708 26.8848 27.0618 25.5037H27.069C28.3055 26.0388 29.8819 27.861 30.576 28.7142Z" fill="#321A39"/>
<path d="M27.9365 40.6816C27.9365 40.6816 28.515 40.0959 29.1803 39.0691H31.4219H32.4125C32.4487 39.0691 32.4776 39.0691 32.5138 39.0619C33.3959 38.9679 34.1841 37.7097 34.2998 36.1116C34.2275 37.3264 33.837 38.4183 33.2296 39.2282C32.9548 39.5897 32.6439 39.9007 32.2968 40.1321C31.7907 40.4792 31.2122 40.6816 30.6048 40.6816H27.9365Z" fill="#092E3B"/>
<path d="M29.7516 32.3949C29.7227 32.178 29.6938 31.9611 29.6504 31.7369C29.4117 30.363 29.0502 29.2205 28.6236 28.266C28.8333 28.2154 29.0647 28.2805 29.2237 28.454C29.6431 28.924 30.0119 29.3724 30.3518 29.8785L29.8745 30.4859L30.7567 30.7752C30.8218 30.7969 30.8796 30.8258 30.9303 30.8619C31.0387 31.0716 31.1472 31.303 31.2484 31.5344C31.2701 31.7658 31.2918 32.0551 31.2918 32.3949C31.299 32.8722 31.2629 33.4579 31.1616 34.1159C30.8435 36.1984 29.9613 37.9194 29.1876 39.0764C28.5151 40.1032 27.9438 40.6889 27.9438 40.6889C27.9438 40.6889 28.4066 40.1321 28.8839 39.0764C29.5057 37.6808 30.1493 35.4102 29.7516 32.3949Z" fill="#3A5862"/>
<path d="M29.8672 30.4859L30.3444 29.8785C30.5469 30.1822 30.7421 30.5076 30.9229 30.8619C30.8723 30.8257 30.8072 30.7968 30.7494 30.7751L29.8672 30.4859Z" fill="#3F2949"/>
<path d="M32.521 39.0691C32.4849 39.0763 32.4559 39.0763 32.4198 39.0763H31.4291H29.1875C29.954 37.9193 30.8434 36.1983 31.1616 34.1158C31.2628 33.4578 31.2918 32.8793 31.2918 32.3948C31.2918 32.055 31.2701 31.7657 31.2484 31.5343C31.2773 31.5994 31.3062 31.6645 31.3351 31.7296C31.3351 31.7296 31.2628 30.8185 30.612 29.5314C30.7856 29.2783 30.7711 28.9456 30.5759 28.707C29.8889 27.861 28.3126 26.0388 27.0688 25.4965C27.7413 25.576 28.4861 25.67 29.3466 25.7857L30.2505 25.9086C32.0438 25.9954 33.9528 27.3693 33.9528 29.3C33.96 29.9941 33.6129 30.7245 33.179 31.2451C32.6946 31.8091 32.738 32.6479 33.2731 33.1613C33.3454 33.2264 33.4104 33.2987 33.4683 33.371C33.9889 33.9712 34.3143 34.81 34.3143 35.7356C34.3143 35.8657 34.3071 35.9959 34.2999 36.1188C34.1986 37.7169 33.4104 38.9751 32.521 39.0691Z" fill="#092E3B"/>
<path d="M27.2783 39.0764H28.8691C28.3919 40.1321 27.9291 40.6889 27.9291 40.6889C27.9363 40.4647 27.6977 39.9658 27.2783 39.0764Z" fill="#D9CED6"/>
<path d="M30.3523 2.53087C31.5599 1.6993 34.474 1.95239 34.6547 5.64743C31.0899 5.87159 30.3523 2.53087 30.3523 2.53087Z" fill="#D24D3E"/>
<path d="M30.3523 2.68995C30.9742 2.41517 34.0546 2.24886 34.3727 5.59681C33.1435 2.08978 30.3957 3.25397 30.3957 3.25397L30.3523 2.68995Z" fill="#B33734"/>
<path d="M31.4011 4.04936C31.4662 1.09911 27.7133 0 24.6835 0C17.1488 0 11.8991 8.40243 15.0374 14.18C19.5567 22.4957 31.2204 12.0469 31.4011 4.04936Z" fill="#C74038"/>
<path d="M34.2568 12.3143H35.8838C35.8838 12.6903 35.8838 12.8856 35.8838 12.9868C35.8838 13.0519 35.8838 13.0808 35.8838 13.088C35.8838 13.1459 35.8838 13.2327 35.8838 13.3556H35.5223C35.139 13.3556 34.7196 12.9217 34.2641 12.7193V12.3143H34.2568Z" fill="#43253F"/>
<path d="M15.6879 10.3331C15.6879 5.72696 19.824 1.98853 24.9219 1.98853C25.6811 1.98853 26.4404 2.0753 27.1707 2.24884C29.4123 2.76947 31.4009 4.07106 32.6663 5.82819C33.3171 6.72483 33.722 7.70102 33.9823 8.74229C34.315 10.0511 34.2354 11.3744 34.2354 12.7266C34.2354 13.9703 34.3511 15.2647 34.2137 16.5012C33.9751 18.6632 32.7603 20.7819 30.8224 22.0546C28.6314 23.4935 25.7751 22.8355 23.5335 21.8593C21.3353 20.8976 19.3034 19.2634 17.9729 17.434C16.4978 15.402 15.7241 12.9797 15.6807 10.5573C15.6879 10.485 15.6879 10.4054 15.6879 10.3331Z" fill="#FFCFB4"/>
<path d="M28.1391 17.875H28.0234C27.2063 17.875 26.541 18.3522 26.541 18.9452C26.541 19.5381 27.2063 20.0154 28.0234 20.0154H28.1391C28.9562 20.0154 29.6214 19.5381 29.6214 18.9452C29.6214 18.3522 28.9562 17.875 28.1391 17.875Z" fill="#C74038"/>
<path d="M23.0555 11.8444C23.8726 10.8176 25.3983 11.1068 25.4634 11.1213C25.608 11.1502 25.6948 11.2876 25.6659 11.4322C25.637 11.5768 25.5068 11.6636 25.355 11.6347C25.3405 11.6347 24.0823 11.3888 23.4604 12.1698C23.4098 12.2348 23.3303 12.271 23.258 12.271C23.2001 12.271 23.1423 12.2493 23.0989 12.2131C22.9904 12.1264 22.9687 11.9601 23.0555 11.8444Z" fill="#AE3232"/>
<path d="M31.4003 11.6347C31.2556 11.6636 31.1182 11.5696 31.0966 11.4322C31.0676 11.2876 31.1616 11.1502 31.299 11.1285C31.3641 11.1141 32.8898 10.8248 33.7069 11.8516C33.7937 11.9673 33.7793 12.1264 33.6636 12.2204C33.6129 12.2566 33.5551 12.2783 33.5045 12.2783C33.4249 12.2783 33.3526 12.2421 33.302 12.177C32.6801 11.3961 31.4147 11.6347 31.4003 11.6347Z" fill="#AE3232"/>
<path d="M32.579 13.4134V14.0642C32.579 14.3679 32.3404 14.6138 32.0439 14.6138C31.7474 14.6138 31.5088 14.3679 31.5088 14.0642V13.4134C31.5088 13.1097 31.7474 12.8639 32.0439 12.8639C32.3404 12.8639 32.579 13.1097 32.579 13.4134Z" fill="#33141A"/>
<path d="M24.7264 14.6066C24.4299 14.6066 24.1841 14.3607 24.1841 14.057V13.4062C24.1841 13.1025 24.4227 12.8567 24.7264 12.8567C25.0229 12.8567 25.2687 13.1025 25.2687 13.4062V14.057C25.2615 14.3607 25.0229 14.6066 24.7264 14.6066Z" fill="#33141A"/>
<path d="M16.6705 14.1727C16.6705 14.1655 16.7067 14.0426 16.7573 13.8618C16.8079 13.6738 16.873 13.4207 16.9598 13.1676C17.0031 13.0375 17.0465 12.9073 17.1044 12.7916C17.1333 12.7338 17.1622 12.6687 17.1984 12.6181C17.2345 12.5674 17.2707 12.5096 17.3213 12.4734C17.3647 12.4301 17.4153 12.4011 17.4587 12.3722C17.5021 12.3505 17.5599 12.3361 17.5961 12.3288C17.6178 12.3288 17.6322 12.3288 17.6467 12.3288V12.3216H21.3056C21.3056 12.6976 21.3056 12.8928 21.3056 12.9941C21.3056 13.0592 21.3056 13.0881 21.3056 13.0953C21.3056 13.1532 21.3056 13.2399 21.3056 13.3629H20.944C20.4523 13.3629 19.8883 12.6253 19.2592 12.6253H17.6973C17.6901 12.6253 17.6684 12.6325 17.625 12.6398C17.6105 12.647 17.6033 12.6542 17.5889 12.6615C17.5744 12.6759 17.5527 12.6904 17.531 12.7193C17.4442 12.8133 17.3719 13.0519 17.3285 13.2905C17.2779 13.5364 17.2418 13.7967 17.2056 13.9847C17.1695 14.18 17.1478 14.3101 17.1478 14.3101C17.1478 14.3174 17.1405 14.3318 17.1405 14.339C17.0971 14.4837 16.967 14.5632 16.8368 14.5198C16.6994 14.4692 16.6271 14.3174 16.6705 14.1727Z" fill="#43253F"/>
<path d="M31.4005 4.04938C30.8654 5.59681 34.1699 7.30333 34.047 10.1379C33.9313 12.9724 33.0781 13.6449 33.2588 15.0477C33.4468 16.4578 35.1678 17.7449 34.922 19.0682C34.6689 20.3915 32.4923 22.4378 33.5842 24.5348C33.3022 23.6382 33.3384 22.7343 34.2929 21.7003C35.4498 20.4493 36.3392 19.7624 36.2019 18.4825C36.0645 17.2098 34.9437 16.1324 35.0304 14.6139C35.1317 12.676 38.3567 4.25185 31.4005 4.04938Z" fill="#C74038"/>
<path d="M24.8421 11.5407C27.3007 11.7576 28.0816 12.4952 28.5806 12.4952C29.0795 12.4952 29.8605 11.7576 32.319 11.5407C34.7775 11.3238 35.8694 12.3072 35.8694 12.3072V13.3629C35.8694 13.3629 35.6308 13.5437 35.4139 13.8763C35.3849 14.0788 35.3488 14.2957 35.2982 14.5271C35.1391 15.2575 34.6257 15.7636 34.0255 15.7853L31.6031 15.8721H31.5453C30.7426 15.8721 30.0557 15.243 29.7737 14.3319C29.6869 14.1583 29.5929 13.9703 29.5278 13.7968C29.376 13.3774 28.9204 13.334 28.6963 13.3412C28.6095 13.3412 28.5227 13.3412 28.4432 13.3412C28.219 13.334 27.7635 13.3702 27.6116 13.7968C27.5465 13.9703 27.4598 14.1656 27.3658 14.3319C27.0837 15.2358 26.3968 15.8721 25.5942 15.8721L23.1139 15.7853C22.5138 15.7636 22.0076 15.2575 21.8413 14.5271C21.7907 14.2957 21.7545 14.0788 21.7256 13.8763C21.5086 13.5437 21.27 13.3629 21.27 13.3629V12.3072C21.2917 12.3072 22.3836 11.3238 24.8421 11.5407ZM31.5597 15.5612L34.0255 15.4744C34.4811 15.4599 34.8715 15.0478 35.0017 14.462C35.1536 13.7823 35.1825 13.1894 35.1536 12.864C35.1246 12.488 34.6257 11.8516 32.9481 11.8516C32.8758 11.8516 32.7962 11.8516 32.7167 11.8589C31.3717 11.9023 30.6052 12.1047 30.2365 12.5241C30.0051 12.7844 29.9183 13.1605 29.9617 13.6883C30.0629 14.7513 30.7499 15.5612 31.5597 15.5612ZM22.1667 14.462C22.2968 15.0478 22.6873 15.4599 23.1428 15.4744L25.5652 15.5612H25.6086C26.4185 15.5612 27.1054 14.7513 27.1994 13.6811C27.2501 13.1532 27.1633 12.7772 26.9247 12.5169C26.5559 12.1047 25.7894 11.895 24.4444 11.8516C24.3649 11.8516 24.2926 11.8444 24.213 11.8444C22.5282 11.8444 22.0293 12.4807 22.0076 12.8568C21.9859 13.1822 22.0148 13.7751 22.1667 14.462Z" fill="#092E3B"/>
<path d="M14.798 6.96348C18.5798 -0.961705 29.7879 0.58573 31.4004 4.04938C25.6734 0.188025 17.177 2.75503 15.5645 8.51815C14.8414 11.5046 16.0345 13.1026 16.425 13.8619C15.8682 13.8546 15.0511 13.8474 14.7474 13.5726C13.8435 11.4901 13.9448 9.12555 14.798 6.96348Z" fill="#D24D3E"/>
<path d="M19.0285 13.2183C19.3611 13.2328 20.6193 14.4621 20.6193 14.4621C19.5997 14.961 18.4645 15.6118 17.5461 16.3638C16.9098 16.4578 16.2952 16.5084 15.7311 16.5084C15.3334 16.5084 14.9719 16.4867 14.6465 16.4434C15.9987 14.9321 18.0234 13.6956 19.0285 13.2183Z" fill="#C74038"/>
<path d="M15.0368 14.18C14.7404 13.6376 14.5234 13.0809 14.3716 12.5024C14.6897 12.5964 15.4852 12.6976 16.2589 12.5675L17.0181 14.2523L15.1525 14.3897C15.1164 14.3174 15.0802 14.2523 15.0368 14.18Z" fill="#C74038"/>
<path d="M17.922 13.0158C16.1721 13.4424 14.6681 13.4641 14.5307 13.0158C14.4584 12.7772 14.3788 12.5024 14.3788 12.5024C14.3788 12.5024 11.7901 12.8205 12.6723 14.5343C13.5545 16.2408 17.6834 15.8865 20.7493 14.6934C19.5924 13.0664 17.922 13.0158 17.922 13.0158Z" fill="#D24D3E"/>
<path d="M31.4009 4.04935C27.0623 0.0723 17.2788 4.86646 16.1218 12.4446C16.722 13.8835 18.3562 14.3897 20.3447 14.1077C25.2618 13.4135 28.3784 6.66698 31.4009 4.04935Z" fill="#D24D3E"/>
<path d="M31.4006 4.04936C29.5856 3.49981 26.2376 3.47811 22.116 5.51003C22.7668 3.83243 25.0807 1.56913 27.6477 2.14038C30.2147 2.71163 30.8293 3.22503 31.4006 4.04936Z" fill="#B33734"/>
<path d="M31.4005 4.04933C30.3014 1.93788 26.6642 0.766458 23.0053 1.41725C18.833 2.15481 15.4489 6.75373 15.3621 9.81968C15.2681 12.8784 16.4757 13.305 17.0542 13.5798C15.7454 11.9962 17.9725 8.77841 22.5642 5.95832C24.4009 4.83028 25.7531 3.27562 27.5319 3.08038C30.1423 2.85622 31.4005 4.04933 31.4005 4.04933Z" fill="#C74038"/>
<path d="M15.3545 9.81242C15.369 9.40748 15.4413 8.96639 15.5642 8.51807C15.3545 9.79072 15.8318 11.0923 16.7357 11.9962C16.6055 12.6108 16.6995 13.1531 17.0538 13.5725C16.4753 13.305 15.2678 12.8784 15.3545 9.81242Z" fill="#B33734"/>
<path d="M14.7983 6.96348C18.5802 -0.961705 29.7882 0.58573 31.4007 4.04938C25.6738 0.188025 17.1773 2.75503 15.5648 8.51815C14.7116 8.61938 14.4946 7.85289 14.7983 6.96348Z" fill="#D24D3E"/>
<path d="M31.4004 4.04937C30.8653 7.4841 24.6539 14.7368 20.9589 14.932C16.7866 15.149 14.4727 13.2255 15.3621 9.81971C15.4127 12.365 16.8372 13.6088 19.6211 13.6088C22.5569 13.6088 24.5382 8.9086 26.0929 6.80438C27.8645 4.38199 30.5761 3.74567 31.4004 4.04937Z" fill="#C74038"/>
<path d="M17.4954 12.1769C18.1101 12.0251 18.6813 12.3794 18.7826 13.0953C18.9127 13.9847 18.3487 14.0498 18.4644 14.8452C18.5295 15.3369 18.7319 15.5177 18.8042 16.0021C18.8693 16.4432 18.7609 16.9566 18.3559 17.0579C17.6907 17.2242 16.8302 16.0817 16.5771 14.9681C16.3023 13.8328 16.4542 12.4373 17.4954 12.1769Z" fill="#FFCFB4"/>
<path d="M62.3688 30.3313L34.5283 32.8633L36.3281 52.6527L64.1686 50.1206L62.3688 30.3313Z" fill="#FFF7E6"/>
<path d="M43.3968 43.7548C40.9527 43.979 38.7906 42.1712 38.5664 39.7272C38.5014 39.0113 38.6098 38.281 38.8846 37.6229L40.0705 38.1146C39.8753 38.5919 39.7957 39.0908 39.8463 39.6115C40.0054 41.3469 41.5456 42.6268 43.2811 42.4749C45.0165 42.3159 46.2964 40.7757 46.1445 39.0402C45.9855 37.3048 44.4453 36.0249 42.7098 36.1767L42.5941 34.8968C45.0382 34.6727 47.2003 36.4804 47.4244 38.9245C47.6486 41.3686 45.8336 43.5307 43.3968 43.7548Z" fill="#FFCD66"/>
<path d="M43.339 43.1401C41.2348 43.3281 39.3692 41.7734 39.1812 39.6764C38.9932 37.5722 40.5478 35.7066 42.6448 35.5186C44.7418 35.3306 46.6146 36.8852 46.8027 38.9822C46.9979 41.0865 45.4432 42.9521 43.339 43.1401ZM42.6521 35.5692C40.5768 35.7572 39.0438 37.6011 39.2318 39.6692C39.4198 41.7445 41.2637 43.2775 43.3318 43.0894C45.4071 42.9014 46.94 41.0575 46.752 38.9895C46.564 36.9142 44.7274 35.3812 42.6521 35.5692Z" fill="#CC8900"/>
<path d="M42.9922 41.2602C44.0585 41.2602 44.9229 40.3958 44.9229 39.3295C44.9229 38.2633 44.0585 37.3989 42.9922 37.3989C41.9259 37.3989 41.0615 38.2633 41.0615 39.3295C41.0615 40.3958 41.9259 41.2602 42.9922 41.2602Z" fill="#CC8900"/>
<path d="M54.262 36.9854L51.3311 37.252L51.3992 38.0009L54.3301 37.7343L54.262 36.9854Z" fill="#CC8900"/>
<path d="M54.4856 39.4365L51.5547 39.7031L51.6228 40.452L54.5538 40.1854L54.4856 39.4365Z" fill="#CC8900"/>
<path d="M52.0059 41.7652L49.075 42.0318L49.1431 42.7807L52.074 42.5142L52.0059 41.7652Z" fill="#CC8900"/>
<path d="M49.1064 42.3885L44.4832 42.809L44.4871 42.8522L49.1104 42.4317L49.1064 42.3885Z" fill="#CC8900"/>
<path d="M51.5896 40.1032L49.2033 40.3201L49.1961 40.3129L47.345 38.8016L44.2573 39.0764V39.0258L47.3594 38.7438L47.3667 38.751L49.225 40.2695L51.5823 40.0526L51.5896 40.1032Z" fill="#CC8900"/>
<path d="M51.3566 37.5944L46.6138 38.0538L46.6186 38.1042L51.3615 37.6447L51.3566 37.5944Z" fill="#CC8900"/>
<path d="M60.491 34.2389L50.411 35.1572C50.1434 35.1789 49.912 34.9836 49.8903 34.7233C49.8686 34.4558 50.0639 34.2244 50.3242 34.2027L60.4042 33.2844C60.6718 33.2627 60.9031 33.4579 60.9248 33.7182C60.9538 33.9858 60.7585 34.2172 60.491 34.2389Z" fill="#CC8900"/>
<path d="M56.7453 35.9309L60.8019 35.5621C60.9465 35.5477 61.055 35.3886 61.0405 35.2006C61.026 35.0126 60.8886 34.8752 60.744 34.8897L56.6874 35.2584C56.5428 35.2729 56.4343 35.432 56.4488 35.62C56.4705 35.808 56.6007 35.9454 56.7453 35.9309Z" fill="#E5A219"/>
<path d="M48.502 47.334L38.1544 48.2741C38.0966 48.2813 38.0459 48.2379 38.0387 48.1801L37.9881 47.5944C37.9809 47.5365 38.0242 47.4859 38.0821 47.4787L48.4297 46.5386C48.4875 46.5314 48.5381 46.5748 48.5454 46.6326L48.596 47.2183C48.6032 47.2762 48.5598 47.3268 48.502 47.334Z" fill="#CC8900"/>
<path d="M45.2845 49.1492L38.5669 49.7639C38.3427 49.7856 38.1475 49.6193 38.133 49.4023C38.1113 49.1782 38.2776 48.9829 38.4946 48.9685L45.2122 48.3538C45.4363 48.3321 45.6316 48.4985 45.646 48.7154C45.6677 48.9323 45.5086 49.1276 45.2845 49.1492Z" fill="#E5A219"/>
<path d="M52.8705 46.4695L50.9478 46.6443L51.0984 48.3007L53.0212 48.1258L52.8705 46.4695Z" fill="#E5A219"/>
<path d="M55.0446 44.9319L53.1218 45.1068L53.3936 48.0953L55.3164 47.9204L55.0446 44.9319Z" fill="#E5A219"/>
<path d="M57.0805 41.9445L55.1577 42.1193L55.6817 47.8804L57.6044 47.7055L57.0805 41.9445Z" fill="#E5A219"/>
<path d="M59.4357 42.9685L57.5129 43.1434L57.9256 47.6802L59.8483 47.5054L59.4357 42.9685Z" fill="#E5A219"/>
<path d="M51.0473 47.6379L51.0256 47.5945L54.1784 46.3291L56.1669 42.634L58.582 43.8271L58.5531 43.8778L56.1886 42.7063L54.2217 46.3725H54.2073L51.0473 47.6379Z" fill="#CC8900"/>
<path d="M59.9132 47.9786L51.1636 48.7744L51.1708 48.8536L59.9204 48.0578L59.9132 47.9786Z" fill="#CC8900"/>
<path d="M63.2458 37.0806C62.8698 37.0155 62.4938 37.0155 62.1177 37.0878L60.8162 37.3264C60.5703 37.3698 60.404 37.6085 60.4474 37.8543C60.4546 37.8832 60.4618 37.9049 60.4691 37.9266C60.498 38.0062 60.4908 38.1002 60.4474 38.1725C60.404 38.2448 60.3317 38.3026 60.2449 38.3171L60.216 38.3243C59.9701 38.3677 59.8038 38.6063 59.8472 38.8522C59.8906 39.0764 60.0786 39.2282 60.2955 39.2282C60.3245 39.2282 60.3534 39.2282 60.3751 39.221C60.4112 39.2137 60.4402 39.2282 60.4619 39.2571C60.4835 39.2861 60.4835 39.3222 60.4763 39.3511C60.4402 39.4307 60.4257 39.5247 60.4402 39.6187C60.4835 39.8645 60.7222 40.0308 60.968 39.9875C61.0042 39.9802 61.0403 39.9947 61.062 40.0236C61.0837 40.0525 61.0909 40.0887 61.0765 40.1248C61.0548 40.1899 61.0476 40.2622 61.062 40.3345C61.1054 40.537 61.3006 40.6672 61.5031 40.6238L62.4287 40.4358C62.5372 40.4141 62.6528 40.4358 62.7468 40.5009C62.8409 40.5659 62.8987 40.6599 62.9204 40.7756C63.1012 41.8603 63.658 42.6919 64.3304 42.7642C65.1837 42.8582 65.8996 41.7084 65.943 40.1972C66.0225 37.2975 65.8417 37.5289 63.2458 37.0806Z" fill="#FFCFB4"/>
<path d="M9.63525 44.5791L13.7425 29.1265C13.9883 28.2081 14.9283 27.6658 15.8395 27.9117C16.7578 28.1575 17.3001 29.0975 17.0543 30.0087L12.9471 45.4613C12.882 45.7144 12.9326 45.9892 13.0917 46.1916C13.2508 46.4013 13.5038 46.5243 13.7642 46.5243L29.7519 46.4953C30.6992 46.4953 31.4657 47.2618 31.4729 48.2091C31.4729 49.1564 30.7064 49.9228 29.7591 49.9301L13.7714 49.959C12.4481 49.959 11.1827 49.3371 10.3728 48.2959C9.79433 47.5438 9.49063 46.6183 9.4834 45.6855C9.49063 45.3095 9.54125 44.9407 9.63525 44.5791Z" fill="#FFCFB4"/>
<path d="M9.70041 48.8093C9.01346 47.9199 8.63745 46.8063 8.63745 45.6783C8.63745 45.23 8.68807 44.7889 8.80376 44.3623L12.911 28.9096C13.287 27.514 14.7115 26.7258 16.0565 27.0874C17.4376 27.4562 18.2475 28.8807 17.8787 30.2329L13.7642 45.6711L25.7677 45.6494C25.9268 45.6494 26.0497 45.7723 26.0497 45.9314V46.076L26.0569 50.364V50.5086C26.0569 50.6677 25.934 50.7906 25.7749 50.7906L13.7715 50.8123C12.1951 50.8123 10.6694 50.0675 9.70041 48.8093Z" fill="#3A5862"/>
<path d="M27.1341 46.0687C27.2642 46.0687 27.3655 46.17 27.3655 46.3001L27.3727 50.1253C27.3727 50.2555 27.2714 50.3567 27.1413 50.3567H26.0639L26.0566 46.0687H27.1341Z" fill="#FFF7E6"/>
<path d="M28.6091 47.9199C28.4645 49.395 29.9035 50.6966 31.8342 50.834C32.9839 50.9135 35.9341 51.6873 35.6449 47.7536C35.6304 47.6017 35.6883 47.4571 35.7895 47.3414C35.8908 47.233 36.0354 47.1679 36.1872 47.1679H39.593C39.9184 47.1679 40.186 46.9003 40.186 46.5749C40.186 46.2495 39.9184 45.982 39.593 45.982H38.089C36.7585 45.982 35.3846 45.8663 34.0758 45.6349C33.5768 45.5481 32.9839 45.5409 32.362 45.4975C30.4313 45.3601 28.7538 46.4448 28.6091 47.9199Z" fill="#FFCFB4"/>
</svg>
