
<svg width="53" height="129" viewBox="0 0 53 129" fill="none" xmlns="http://www.w3.org/2000/svg">
<path d="M5.32361 72.4082C5.29347 73.382 4.45709 74.1507 3.45494 74.1214C2.45278 74.0922 1.66161 73.2795 1.69175 72.3057L1.7671 69.831L5.39896 69.9335L5.32361 72.4082Z" fill="#FFCFB4"/>
<path d="M3.45503 74.1216C4.45719 74.1509 5.29357 73.3821 5.32371 72.4083L5.69292 60.2106C5.86623 54.5144 6.8081 48.8548 8.4884 43.4003L12.0901 31.715C12.3765 30.7778 11.8339 29.7968 10.8695 29.5185C9.90498 29.2403 8.89529 29.7675 8.60896 30.7046L4.99971 42.3826C3.22899 48.1373 2.23437 54.1044 2.05353 60.1081L1.68431 72.3058C1.66171 73.2796 2.44535 74.0923 3.45503 74.1216Z" fill="#FFCFB4"/>
<path d="M3.58249 77.3283C0.108865 77.5626 0.455474 75.7981 0.365054 73.6602C0.274634 71.5223 1.57065 69.6919 3.25095 69.5748C4.93879 69.465 6.37797 71.105 6.46839 73.2429C6.56634 75.3808 7.05612 77.0867 3.58249 77.3283Z" fill="#FFCFB4"/>
<path d="M8.14077 30.5582C8.44217 29.5917 9.3765 28.9328 10.4088 28.9621C10.6122 28.9694 10.8082 28.9987 11.0041 29.0572C12.2172 29.4087 12.9104 30.6607 12.5487 31.8394L8.94701 43.5247C7.27425 48.9426 6.33991 54.5583 6.17414 60.2179L5.88781 69.6188C5.88027 69.7945 5.72957 69.9336 5.54873 69.9336L1.60794 69.8238C1.4271 69.8165 1.28394 69.67 1.28394 69.4943L1.57026 60.0934C1.7511 54.0458 2.75326 48.0421 4.53905 42.2507L8.14077 30.5582Z" fill="#DEEDFB"/>
<path d="M32.9843 35.2587C33.2254 34.197 33.783 33.2233 34.5892 32.4692C35.3126 31.7882 35.3276 30.6754 34.6344 29.9725C33.6699 28.9987 32.389 28.4569 31.0176 28.4276C21.938 27.593 21.7345 27.6076 12.7604 28.4276C11.3965 28.4496 10.1156 28.9987 9.14358 29.9725C8.44282 30.6754 8.46543 31.7956 9.18879 32.4692C9.99503 33.2233 10.5451 34.1897 10.7937 35.2514C10.8163 35.3539 10.8389 35.4564 10.8691 35.5589C11.9391 39.8493 12.9563 43.5906 13.755 46.6071C14.8476 50.7218 14.6743 54.9976 13.2803 59.0245C12.9713 59.9104 12.8056 60.8549 12.8056 61.836C12.8056 66.7049 11.6 70.6585 21.8852 70.6585C32.1705 70.6585 30.9649 66.7122 30.9649 61.836C30.9649 60.8549 30.7991 59.9031 30.4902 59.0245C29.1037 55.0196 28.9304 50.6999 30.0155 46.6071C30.8142 43.5906 31.8389 39.8493 32.9014 35.5589C32.9315 35.4564 32.9616 35.3612 32.9843 35.2587Z" fill="#FFCFB4"/>
<path d="M21.8844 33.926C20.1287 33.926 18.7046 32.5423 18.7046 30.8363V21.6624C18.7046 19.9565 20.1287 18.5727 21.8844 18.5727C23.64 18.5727 25.0641 19.9565 25.0641 21.6624V30.8437C25.0641 32.5496 23.64 33.926 21.8844 33.926Z" fill="#FFCFB4"/>
<path d="M21.8844 18.5727C20.1287 18.5727 18.7046 19.9565 18.7046 21.6624V26.6338C19.7067 26.9998 20.7767 27.1902 21.8844 27.1902C22.992 27.1902 24.0544 26.9925 25.0641 26.6338V21.6624C25.0641 19.9565 23.64 18.5727 21.8844 18.5727Z" fill="#E49D90"/>
<path d="M36.0734 12.5692C35.3651 11.9541 35.3048 10.9072 35.9302 10.2189C36.5556 9.5307 37.6407 9.47213 38.349 10.0798L40.1423 11.632L37.8592 14.1213L36.0734 12.5692Z" fill="#FFCFB4"/>
<path d="M35.93 10.2115C35.297 10.8998 35.3648 11.9541 36.0731 12.5618L48.9127 23.6759C48.9504 23.7052 48.9655 23.7565 48.9579 23.8077C48.9504 23.8516 48.9127 23.8956 48.8675 23.9102L32.5392 29.1598C31.6426 29.4527 31.1528 30.3898 31.4466 31.2611C31.7405 32.1324 32.7125 32.6083 33.6092 32.3227L49.945 27.0731C51.1506 26.6851 52.0624 25.6894 52.3185 24.4886C52.5747 23.2806 52.1452 22.0213 51.1958 21.2012L38.3487 10.0798C37.6479 9.46475 36.5629 9.53064 35.93 10.2115Z" fill="#FFCFB4"/>
<path d="M52.763 24.5764C52.6198 25.2427 52.2958 25.8723 51.8286 26.3848C51.3615 26.8973 50.7587 27.2854 50.0881 27.4977L33.7598 32.7473C32.622 33.1134 31.3938 32.513 31.017 31.4074C30.7759 30.6972 30.9417 29.8992 31.4616 29.3428C31.7102 29.0645 32.0418 28.8595 32.4035 28.7424L48.2119 23.6612L37.806 14.6557C37.6779 14.5458 37.6629 14.3555 37.7834 14.231L40.2549 11.5294C40.3679 11.4049 40.5638 11.3902 40.6919 11.5074L51.5122 20.8717C52.5671 21.7869 53.0568 23.2146 52.763 24.5764Z" fill="#DEEDFB"/>
<path d="M29.4495 17.504C28.7638 18.8219 29.0125 20.2862 30.0071 20.7694C31.0017 21.2599 32.358 20.5864 33.0437 19.2685C33.7294 17.9506 33.4807 16.4863 32.4861 16.003C31.4915 15.5125 30.1352 16.1861 29.4495 17.504Z" fill="#FFCFB4"/>
<path d="M13.0687 14.1066C13.1516 12.635 14.1161 11.4855 15.2237 11.5367C16.3314 11.5953 17.1677 12.8327 17.0924 14.3116C17.0095 15.7833 16.045 16.9327 14.9374 16.8815C13.8222 16.8156 12.9934 15.5783 13.0687 14.1066Z" fill="#FFCFB4"/>
<path d="M32.2675 16.6618C33.8649 10.8265 33.4806 5.65751 26.5635 3.87104C19.6464 2.08458 16.6701 6.38235 15.0726 12.2176C13.4752 18.0529 16.0296 23.7857 20.7766 25.0084C25.5237 26.2385 30.67 22.5045 32.2675 16.6618Z" fill="#FFCFB4"/>
<path d="M19.0128 20.0153C19.0204 20.0079 20.0753 19.3344 22.1851 19.8762C24.2798 20.418 24.86 21.5089 24.8675 21.5308C24.9429 21.6846 25.1312 21.7505 25.2895 21.6773C25.4477 21.6041 25.5155 21.421 25.4402 21.2673C25.41 21.2087 24.762 19.9054 22.3433 19.2831C19.9246 18.6608 18.6964 19.4808 18.6436 19.5101C18.5005 19.6053 18.4703 19.7956 18.5683 19.9347C18.6662 20.0738 18.8697 20.1105 19.0128 20.0153Z" fill="#DD7D80"/>
<path d="M17.9062 14.4435L17.7932 14.8535C17.6952 15.2123 17.9137 15.5857 18.2829 15.6809C18.6522 15.776 19.0364 15.5637 19.1344 15.205L19.2474 14.7949C19.3454 14.4362 19.1269 14.0628 18.7576 13.9676C18.3884 13.8651 18.0041 14.0774 17.9062 14.4435Z" fill="#532442"/>
<path d="M27.709 18.1117C28.0782 18.2069 28.4625 17.9945 28.5604 17.6358L28.6734 17.2258C28.7714 16.867 28.5529 16.4936 28.1837 16.3984C27.8145 16.3033 27.4302 16.5156 27.3322 16.8817L27.2192 17.2917C27.1212 17.6431 27.3398 18.0165 27.709 18.1117Z" fill="#532442"/>
<path d="M27.4004 14.7583C28.2066 15.9444 30.2185 16.1933 30.3089 16.2007C30.5274 16.2226 30.7309 16.0762 30.761 15.8565C30.7911 15.6369 30.6254 15.4465 30.4068 15.4172C29.9321 15.3587 28.5834 15.0585 28.0785 14.319C28.0183 14.2385 27.9354 14.1799 27.845 14.1579C27.7395 14.1287 27.6189 14.1433 27.521 14.2092C27.325 14.3337 27.2723 14.5826 27.4004 14.7583Z" fill="#A42D33"/>
<path d="M17.3254 12.0493C17.122 11.9615 16.8808 12.0566 16.798 12.2617C16.7075 12.4593 16.8055 12.6936 17.0089 12.7742C17.0843 12.8034 18.9605 13.5649 20.2716 12.9206C20.4675 12.8254 20.5504 12.5838 20.4524 12.3934C20.3997 12.2909 20.3017 12.2177 20.1962 12.1884C20.1058 12.1665 20.0003 12.1738 19.9099 12.2177C19.1037 12.6131 17.77 12.2324 17.3254 12.0493Z" fill="#A42D33"/>
<path d="M19.0438 0.466431C19.0438 0.466431 18.3732 1.85753 18.6068 3.11684C19.0438 5.51832 19.3678 5.39385 19.3678 5.39385C20.1364 3.49756 19.835 2.36272 19.0438 0.466431Z" fill="#C74038"/>
<path d="M27.4452 2.64094C25.6293 2.20165 22.4194 1.5061 19.8726 3.84168C19.6917 4.01008 19.4205 4.06865 19.1794 3.98811C18.3128 3.69525 17.2353 4.21508 16.7305 5.10099C15.4495 7.37068 15.1707 9.30358 15.0803 12.2249C16.2708 9.78681 16.9189 8.52749 17.9285 7.14371C17.9587 7.09978 18.019 7.07782 18.0792 7.09246C18.132 7.10711 18.1772 7.15836 18.1772 7.20961C18.3204 9.23769 20.1589 10.885 23.3763 12.1224C26.6917 13.389 28.9221 14.2823 30.2558 15.7685C30.2934 15.8051 30.3462 15.8271 30.3989 15.8051C30.4517 15.7905 30.4894 15.7466 30.4969 15.688C30.6627 14.026 30.4668 12.8912 29.6831 11.112C31.8381 12.6569 32.5464 13.6819 32.4861 16.0028C33.4129 13.0449 34.822 11.7051 33.8801 8.75446C32.7725 5.25475 30.0147 3.25596 27.4452 2.64094Z" fill="#C74038"/>
<path d="M24.7708 24.0931C22.985 23.6319 23.4221 22.4238 21.6137 21.9552C19.8128 21.4866 19.5717 22.746 17.7859 22.2847C15.9172 21.8015 14.7794 17.7234 14.7568 17.6282C15.337 21.2524 17.5523 24.1737 20.7848 25.0083C24.0173 25.843 27.4307 24.3787 29.7891 21.5086C29.7138 21.5818 26.6395 24.5764 24.7708 24.0931Z" fill="#C74038"/>
<path d="M31.0851 61.3162C31.1756 61.3162 31.2584 61.2796 31.3187 61.2137C31.379 61.1478 31.4091 61.0599 31.4016 60.9794C31.3338 60.2619 31.1906 59.559 30.9495 58.8854C29.5857 54.9464 29.4274 50.7511 30.4823 46.7316L31.0324 44.6889C31.7407 42.0458 32.5394 39.0439 33.3758 35.6687C33.4059 35.5589 33.4285 35.4564 33.4511 35.3539C33.6696 34.3874 34.182 33.5015 34.9129 32.8059C35.8246 31.9493 35.8548 30.5289 34.9732 29.643C33.9183 28.5814 32.5092 27.981 31.055 27.9591L26.858 27.5783C26.7902 27.571 26.7148 27.571 26.647 27.571H26.4134C25.984 27.5417 25.5394 27.5051 25.0647 27.4758C24.3941 29.1891 23.2412 30.4191 21.8849 31.4954C20.5286 30.4191 19.3758 29.1891 18.7052 27.4758C18.2455 27.5051 17.8085 27.5344 17.3941 27.571H17.1228C17.0475 27.571 16.9797 27.571 16.9043 27.5783L12.7525 27.9591C11.2606 27.9883 9.85156 28.5814 8.79666 29.643C7.91507 30.5289 7.93768 31.9493 8.85694 32.8059C9.59537 33.5015 10.1002 34.3801 10.3263 35.3539C10.3489 35.4564 10.379 35.5662 10.4016 35.6687C11.238 39.022 12.0292 42.0092 12.7375 44.6376C12.9334 45.3698 13.295 46.7316 13.295 46.7389C14.3575 50.7438 14.1917 54.9464 12.8279 58.8781C12.5943 59.559 12.4436 60.2619 12.3758 60.9721C12.3682 61.0599 12.3984 61.1478 12.4587 61.2063C12.5189 61.2722 12.6018 61.3088 12.6922 61.3088H31.0851V61.3162Z" fill="#DEEDFB"/>
<path d="M28.674 31.6785C27.8225 31.0488 26.9786 30.5656 26.1121 30.1629C25.8785 30.0531 25.6374 29.9506 25.3962 29.8481C25.125 29.7382 24.7934 29.7748 24.5749 29.9506C23.4296 30.8438 22.9022 31.0634 21.8925 31.4881C20.8753 31.0708 20.3478 30.8438 19.21 29.9506C18.9915 29.7748 18.66 29.7382 18.3887 29.8481C18.1476 29.9506 17.9065 30.0531 17.6729 30.1629C16.8064 30.5656 15.9624 31.0488 15.1185 31.6785C14.4102 32.191 13.6869 32.8133 12.9409 33.5601C13.5286 33.0915 14.1239 32.6669 14.7342 32.2861C15.6083 31.737 16.52 31.2684 17.5222 30.8658C17.7332 30.7779 17.9441 30.7047 18.1551 30.6241C19.4737 31.5027 20.1594 31.7663 21.4178 32.2129C21.463 32.2276 21.5157 32.2349 21.5609 32.2495C21.5911 32.2569 21.6137 32.2642 21.6438 32.2715C21.7267 32.2861 21.8096 32.2935 21.8925 32.2935C21.9754 32.2935 22.0582 32.2861 22.1487 32.2715C22.1788 32.2642 22.2089 32.2569 22.2315 32.2495C22.2768 32.2349 22.3295 32.2276 22.3747 32.2129C23.5426 31.7956 24.2585 31.5393 25.6374 30.6241C25.8483 30.7047 26.0593 30.7779 26.2703 30.8658C27.2649 31.2611 28.1766 31.7224 29.0582 32.2861C29.661 32.6595 30.2488 33.0842 30.8365 33.5528C30.0981 32.8133 29.3822 32.1983 28.674 31.6785Z" fill="#9CC9F2"/>
<path d="M25.3966 29.848C25.6377 29.9505 25.8713 30.053 26.1124 30.1628C26.9789 30.5582 27.8229 31.0488 28.6743 31.6784C29.4127 32.2129 30.1662 32.8645 30.9423 33.6479C30.4752 32.0738 29.8046 30.7779 29.0435 29.7528C28.388 28.8742 27.6571 28.2007 26.9337 27.7248C26.7529 27.6076 26.572 27.5051 26.3912 27.4026C26.2028 27.3074 26.0145 27.2196 25.8336 27.1537C25.698 27.1024 25.5398 27.1024 25.3966 27.1537C25.261 27.2049 25.1479 27.3001 25.1027 27.4246C25.1027 27.4319 25.1027 27.4319 25.0952 27.4392C24.4246 29.1744 23.2567 30.4118 21.8928 31.4954C22.91 31.0707 23.4375 30.8511 24.5753 29.9578C24.7938 29.7821 25.1253 29.7382 25.3966 29.848Z" fill="#EFF6FD"/>
<path d="M14.7418 29.7604C13.9808 30.7781 13.3026 32.0813 12.8354 33.6555C13.6116 32.8647 14.3726 32.2204 15.111 31.686C15.9625 31.0636 16.8064 30.5731 17.6654 30.1704C17.899 30.0606 18.1401 29.9581 18.3812 29.8556C18.6525 29.7457 18.984 29.7824 19.2025 29.9581C20.3478 30.8513 20.8753 31.0783 21.885 31.4956C20.5211 30.412 19.3532 29.1747 18.6826 27.4394C18.6298 27.315 18.5168 27.2125 18.3737 27.1612C18.2305 27.11 18.0647 27.11 17.9216 27.1685C17.7407 27.2344 17.5599 27.315 17.379 27.4102C17.1982 27.5053 17.0174 27.6078 16.8441 27.7323C16.1282 28.2009 15.3973 28.8818 14.7418 29.7604Z" fill="#EFF6FD"/>
<path d="M31.8312 66.617C31.7935 64.9184 30.3468 63.5419 28.6063 63.5419H28.5309C26.7526 63.5785 25.3285 65.0209 25.3662 66.7488L26.5643 121.785C26.5718 121.997 26.7451 122.166 26.9636 122.166H27.378H32.223H32.6224C32.7279 122.166 32.8334 122.122 32.9087 122.049C32.9841 121.975 33.0293 121.873 33.0217 121.763L31.8312 66.617Z" fill="#12212F"/>
<path d="M27.4538 124.575C27.4839 125.856 28.5614 126.881 29.8725 126.881C29.8951 126.881 29.9102 126.881 29.9253 126.881C31.2665 126.852 32.3214 125.775 32.2988 124.472L32.231 122.158H27.386L27.4538 124.575Z" fill="#708EA9"/>
<path d="M36.7516 127.869C36.9249 127.554 36.9399 127.159 36.7892 126.837C35.9604 125.036 34.4007 123.484 32.2833 122.876C30.1811 122.883 30.1434 125.358 28.6816 125.358C28.0261 125.358 27.687 125.146 27.5137 124.911C27.4534 124.831 27.3479 124.787 27.2424 124.794C27.1369 124.809 27.0465 124.875 27.0088 124.97C26.8205 125.453 26.6999 125.958 26.6246 126.442C26.5492 126.925 26.6698 127.415 26.9486 127.789C27.2349 128.162 27.6493 128.382 28.0863 128.382H35.9303C36.2693 128.374 36.5783 128.184 36.7516 127.869Z" fill="#24425D"/>
<path d="M15.2552 63.5418H15.1799C13.4393 63.5418 11.9926 64.9183 11.9549 66.6169L10.7568 121.77C10.7568 121.873 10.7945 121.975 10.8699 122.056C10.9452 122.129 11.0507 122.173 11.1562 122.173H11.5555H16.4005H16.815C17.0335 122.173 17.2143 122.005 17.2143 121.792L18.4124 66.756C18.4501 65.0134 17.0335 63.5784 15.2552 63.5418Z" fill="#12212F"/>
<path d="M11.4877 124.472C11.4575 125.775 12.52 126.851 13.8612 126.881C13.8763 126.881 13.8989 126.881 13.9139 126.881C15.225 126.881 16.3101 125.863 16.3402 124.574L16.408 122.158H11.563L11.4877 124.472Z" fill="#708EA9"/>
<path d="M7.02664 127.869C6.85334 127.554 6.83827 127.159 6.98897 126.837C7.81781 125.036 9.37756 123.484 11.4949 122.876C13.5971 122.883 13.6348 125.358 15.0966 125.358C15.7521 125.358 16.0912 125.146 16.2645 124.911C16.3248 124.831 16.4303 124.787 16.5358 124.794C16.6413 124.809 16.7317 124.875 16.7694 124.97C16.9577 125.453 17.0783 125.958 17.1537 126.442C17.229 126.925 17.1084 127.415 16.8221 127.789C16.5358 128.162 16.1214 128.382 15.6843 128.382H7.84042C7.50888 128.374 7.19995 128.184 7.02664 127.869Z" fill="#24425D"/>
<path d="M13.0464 58.0727C12.8731 58.0727 12.7149 58.1825 12.6622 58.3509C12.6169 58.4973 12.5642 58.6438 12.519 58.7829C12.1799 59.7713 12.0066 60.7963 12.0066 61.8433C12.0066 62.3119 11.9915 62.7731 11.984 63.2198C11.9237 65.5407 11.871 67.7299 13.4609 69.3113C14.9302 70.7683 17.6051 71.4492 21.8925 71.4492C26.1799 71.4492 28.8624 70.7683 30.3241 69.3113C31.914 67.7299 31.8537 65.5407 31.801 63.2198C31.7935 62.7731 31.7784 62.3119 31.7784 61.8433C31.7784 60.7963 31.6051 59.764 31.266 58.7829C31.2133 58.6365 31.1681 58.4973 31.1229 58.3509C31.0701 58.1898 30.9119 58.0727 30.7386 58.0727H13.0464Z" fill="#12212F"/>
<path d="M19.7833 59.3099C19.7833 59.2366 19.7983 59.1634 19.8209 59.0902H17.2063V61.316H19.8209C19.7983 61.2501 19.7833 61.1769 19.7833 61.0963V59.3099Z" fill="#6B8289"/>
<path d="M23.9947 61.0963C23.9947 61.1695 23.9796 61.2428 23.957 61.316H26.5717V59.0902H23.957C23.9796 59.1634 23.9947 59.2293 23.9947 59.3099V61.0963Z" fill="#6B8289"/>
<path d="M23.2112 61.2721C23.3091 61.2721 23.3845 61.1915 23.3845 61.1037V59.3172C23.3845 59.222 23.3016 59.1488 23.2112 59.1488H20.5664C20.4684 59.1488 20.3931 59.2293 20.3931 59.3172V61.1037C20.3931 61.1988 20.476 61.2721 20.5664 61.2721H23.2112Z" fill="#6B8289"/>
<path d="M16.1961 59.0902H12.4211C12.2553 59.6247 12.1423 60.1738 12.0745 60.7229C12.0745 60.7376 12.0745 60.7522 12.0669 60.7595C12.0443 60.9426 12.0293 61.1256 12.0217 61.3086H16.1886V59.0902H16.1961Z" fill="#6B8289"/>
<path d="M27.5815 61.316H31.7559C31.7484 61.133 31.7258 60.95 31.7107 60.7669C31.7107 60.7523 31.7107 60.7376 31.7032 60.7303C31.6354 60.1739 31.5223 59.6321 31.3566 59.0976H27.5815V61.316Z" fill="#6B8289"/>
<path d="M23.9573 61.316C23.9799 61.2501 23.995 61.1769 23.995 61.0964V59.3099C23.995 59.2367 23.9799 59.1635 23.9573 59.0903C23.8594 58.7754 23.5655 58.5485 23.2114 58.5485H20.5666C20.2125 58.5485 19.9186 58.7754 19.8206 59.0903C19.798 59.1635 19.783 59.2294 19.783 59.3099V61.0964C19.783 61.1696 19.798 61.2428 19.8206 61.316C19.9186 61.6308 20.2125 61.8578 20.5666 61.8578H23.2114C23.5655 61.8578 23.8594 61.6308 23.9573 61.316ZM20.3858 61.0964V59.3099C20.3858 59.2147 20.4686 59.1415 20.5591 59.1415H23.2038C23.3018 59.1415 23.3771 59.222 23.3771 59.3099V61.0964C23.3771 61.1916 23.2943 61.2648 23.2038 61.2648H20.5591C20.4686 61.2721 20.3858 61.1916 20.3858 61.0964Z" fill="#F5F7F7"/>
<path d="M31.4845 21.5599L30.4974 21.1865C30.2412 21.0913 30.1207 20.7984 30.2261 20.5422L32.0722 15.9442C32.1777 15.6807 32.4716 15.5489 32.7278 15.6514L33.7148 16.0248C34.4005 16.281 34.7245 17.0571 34.4457 17.7527L33.2326 20.7765C32.9463 21.472 32.1702 21.8235 31.4845 21.5599Z" fill="#5AA5E9"/>
<path d="M31.2285 19.2317C31.025 19.1584 30.9195 18.9242 31.0024 18.7118L33.7225 11.7417C34.6041 9.49396 33.5116 6.99731 31.2963 6.17729L24.1983 3.46098C21.983 2.64097 19.504 3.65867 17.884 5.6721L15.4653 11.4269C15.3824 11.6392 15.1488 11.7417 14.9454 11.6685C14.7419 11.5953 14.6364 11.361 14.7193 11.1486L17.138 5.39388C18.6375 2.81669 21.8625 1.72577 24.4997 2.69954L31.5977 5.41585C34.2274 6.38962 35.5234 9.34753 34.476 12.0199L31.7559 18.9901C31.673 19.2024 31.4394 19.3049 31.2285 19.2317Z" fill="#5AA5E9"/>
<path d="M24.5764 22.9966C24.7492 22.4687 24.1981 21.8271 23.3454 21.5636C22.4928 21.3001 21.6615 21.5144 21.4887 22.0424C21.3159 22.5703 21.867 23.2119 22.7197 23.4754C23.5723 23.7389 24.4036 23.5246 24.5764 22.9966Z" fill="#5AA5E9"/>
<path d="M24.1678 22.6069C24.1678 22.6069 26.8428 23.6246 30.6178 19.7441L31.311 20.1834C31.311 20.1834 28.1086 23.7344 24.2432 23.2731C24.2432 23.2731 23.113 23.4415 24.1678 22.6069Z" fill="#5AA5E9"/>
<path d="M32.9317 20.7545C32.7207 20.6739 32.6228 20.4396 32.7056 20.2273L33.4215 18.4482C33.5043 18.2359 33.7455 18.126 33.9564 18.2066C34.1674 18.2871 34.2654 18.5214 34.1825 18.7337L33.4667 20.5129C33.3838 20.7252 33.1427 20.8277 32.9317 20.7545Z" fill="white"/>
<path d="M35.1619 5.45972C34.6797 5.37919 34.1899 5.37919 33.7001 5.46705L32.0123 5.76723C31.6883 5.8258 31.4773 6.12599 31.5376 6.4335C31.5451 6.46278 31.5526 6.49939 31.5602 6.52868C31.5978 6.63118 31.5903 6.741 31.53 6.83618C31.4773 6.93136 31.3793 6.99726 31.2663 7.0119L31.2286 7.01922C30.9046 7.07779 30.6936 7.37798 30.7539 7.68549C30.8067 7.96371 31.0553 8.16139 31.3341 8.16139C31.3718 8.16139 31.4019 8.16139 31.4396 8.15407C31.4848 8.14674 31.53 8.16139 31.5526 8.198C31.5828 8.2346 31.5828 8.27853 31.5677 8.31514C31.5225 8.41764 31.4999 8.53479 31.5225 8.65193C31.5828 8.96676 31.8917 9.17177 32.2082 9.11319C32.2534 9.10587 32.2986 9.12051 32.3287 9.15712C32.3589 9.19373 32.3664 9.23766 32.3513 9.28159C32.3212 9.36213 32.3137 9.44999 32.3287 9.54517C32.3815 9.80142 32.6377 9.9625 32.9014 9.91125L34.0995 9.66963C34.2426 9.64035 34.3858 9.66963 34.5063 9.75017C34.6269 9.83071 34.7098 9.95517 34.7324 10.0943C34.9735 11.4634 35.6818 12.5031 36.5559 12.5909C37.656 12.7081 38.5903 11.2584 38.6431 9.36213C38.7561 5.7233 38.53 6.01616 35.1619 5.45972Z" fill="#FFCFB4"/>
</svg>
