
<svg width="49" height="125" viewBox="0 0 49 125" fill="none" xmlns="http://www.w3.org/2000/svg">
<path d="M35.3466 31.1771L32.3887 26.9778C32.3887 26.9778 30.97 24.8427 24.0964 24.8427C17.2158 24.8427 15.8042 26.9778 15.8042 26.9778L12.8462 31.1771C12.605 31.5176 12.6689 31.9929 12.9952 32.2553L15.9602 34.6671C16.1589 34.8303 16.2582 35.0714 16.2511 35.3055V77.7953C16.2511 78.6891 16.9746 79.4126 17.8684 79.4126H30.3316C31.2253 79.4126 31.9489 78.6891 31.9489 77.7953V35.3055C31.9418 35.0714 32.0411 34.8374 32.2397 34.6671L35.2048 32.2553C35.5169 31.9929 35.5878 31.5176 35.3466 31.1771Z" fill="#996700"/>
<path d="M35.3466 31.1771L32.3887 26.9778C32.3887 26.9778 30.97 24.8427 24.0964 24.8427C17.2158 24.8427 15.8042 26.9778 15.8042 26.9778L12.8462 31.1771C12.605 31.5176 12.6689 31.9929 12.9952 32.2553L15.9602 34.6671C16.0454 34.738 16.1092 34.8161 16.1589 34.9083C16.2865 35.1424 16.5064 35.3055 16.7689 35.3055H17.7549C18.2089 35.3055 18.4642 35.0076 18.4146 34.6813C18.0599 32.3334 17.84 29.9216 17.8116 27.524C17.8045 27.1835 17.9748 26.8572 18.2514 26.6657C18.9395 26.1833 20.3511 25.6584 24.1035 25.6584C27.856 25.6584 29.2676 26.1833 29.9556 26.6657C30.2394 26.8643 30.4025 27.1835 30.3954 27.524C30.367 29.9216 30.14 32.3405 29.7925 34.6813C29.7428 35.0076 29.9982 35.3055 30.3316 35.3055H31.424C31.6864 35.3055 31.9063 35.1424 32.034 34.9083C32.0837 34.8161 32.1475 34.738 32.2326 34.6671L35.1977 32.2553C35.5169 31.9929 35.5878 31.5176 35.3466 31.1771Z" fill="#996700"/>
<path d="M29.913 26.5309C29.6931 26.233 29.3952 25.9918 29.0476 25.857C27.7495 25.3605 26.4869 25.1193 24.0893 25.1193C21.6917 25.1193 20.4291 25.3605 19.131 25.857C18.7834 25.9918 18.4855 26.2259 18.2656 26.5309C18.0031 26.8927 17.7477 27.1764 17.5491 27.375C17.2867 27.6375 17.1377 27.9851 17.1377 28.3539V34.6813C17.1377 35.341 17.6768 35.8801 18.3365 35.8801H29.835C30.4947 35.8801 31.0338 35.341 31.0338 34.6813V28.361C31.0338 27.9922 30.8848 27.6375 30.6224 27.3821C30.4237 27.1764 30.1755 26.8998 29.913 26.5309Z" fill="#FFF7E6"/>
<path d="M7.8667 34.4188C7.8667 36.5823 9.61878 38.3344 11.7823 38.3344C13.9458 38.3344 15.6979 36.5823 15.6979 34.4188C15.6979 32.2553 13.9458 30.5032 11.7823 30.5032C9.61878 30.5032 7.8667 32.2553 7.8667 34.4188Z" fill="#FFA795"/>
<path d="M40.3051 34.4188C40.3051 36.5823 38.553 38.3344 36.3895 38.3344C34.226 38.3344 32.4739 36.5823 32.4739 34.4188C32.4739 32.2553 34.226 30.5032 36.3895 30.5032C38.553 30.5032 40.3051 32.2553 40.3051 34.4188Z" fill="#FFA795"/>
<path d="M24.089 37.1499C26.6981 37.1499 28.8132 35.0348 28.8132 32.4256C28.8132 29.8165 26.6981 27.7014 24.089 27.7014C21.4799 27.7014 19.3647 29.8165 19.3647 32.4256C19.3647 35.0348 21.4799 37.1499 24.089 37.1499Z" fill="#FFA795"/>
<path d="M24.089 24.2965C26.6981 24.2965 28.8132 22.1814 28.8132 19.5723C28.8132 16.9632 26.6981 14.8481 24.089 14.8481C21.4799 14.8481 19.3647 16.9632 19.3647 19.5723C19.3647 22.1814 21.4799 24.2965 24.089 24.2965Z" fill="#FFA795"/>
<path d="M32.729 75.2488C36.4429 75.2488 39.4536 72.2381 39.4536 68.5242C39.4536 64.8103 36.4429 61.7996 32.729 61.7996C29.0151 61.7996 26.0044 64.8103 26.0044 68.5242C26.0044 72.2381 29.0151 75.2488 32.729 75.2488Z" fill="#FFA795"/>
<path d="M15.4494 75.2488C19.1633 75.2488 22.174 72.2381 22.174 68.5242C22.174 64.8103 19.1633 61.7996 15.4494 61.7996C11.7356 61.7996 8.72485 64.8103 8.72485 68.5242C8.72485 72.2381 11.7356 75.2488 15.4494 75.2488Z" fill="#FFA795"/>
<path d="M24.089 37.1499C21.4786 37.1499 19.3647 35.036 19.3647 32.4256V19.5723C19.3647 16.9619 21.4786 14.8481 24.089 14.8481C26.6994 14.8481 28.8132 16.9619 28.8132 19.5723V32.4256C28.8061 35.036 26.6923 37.1499 24.089 37.1499Z" fill="#FFA795"/>
<path d="M38.2551 45.1655C38.5033 43.0303 40.3122 37.9514 40.3122 34.4189C40.3122 32.5959 39.1914 31.3332 37.9146 30.3827C35.9142 28.9002 30.2395 27.595 24.0965 27.595C17.9536 27.595 12.2788 28.9002 10.2785 30.3827C9.00166 31.3261 7.8809 32.5888 7.8809 34.4189C7.8809 37.9514 9.68973 43.0374 9.938 45.1655C10.7467 52.3227 7.73193 57.9904 7.73193 63.5446C7.73193 67.1906 8.27104 70.9714 10.8105 73.3903C13.7826 76.2206 18.8119 76.0362 24.0894 76.0362C29.3599 76.0362 34.3962 76.2206 37.3684 73.3903C39.9078 70.9714 40.4469 67.1906 40.4469 63.5446C40.4469 57.9904 37.4251 52.3227 38.2551 45.1655Z" fill="#FFCFB4"/>
<path d="M34.2329 46.6338C37.7016 46.6338 37.2831 42.7678 37.9783 39.3914C37.9925 39.3062 37.8932 39.2637 37.8435 39.3346C36.5383 41.1647 36.3823 44.8817 33.9705 44.8817C31.8141 44.8817 28.9199 42.8459 26.9267 42.6331C26.8416 42.626 26.8061 42.7324 26.877 42.7749C28.4589 43.7467 32.1049 46.6338 34.2329 46.6338Z" fill="#F98F89"/>
<path d="M13.9459 46.6338C10.4772 46.6338 10.8957 42.7678 10.2006 39.3914C10.1864 39.3062 10.2857 39.2637 10.3354 39.3346C11.6406 41.1647 11.7966 44.8817 14.2084 44.8817C16.3648 44.8817 19.2589 42.8459 21.2522 42.6331C21.3373 42.626 21.3728 42.7324 21.3018 42.7749C19.72 43.7467 16.074 46.6338 13.9459 46.6338Z" fill="#F98F89"/>
<path d="M24.089 14.8481C21.4786 14.8481 19.3647 16.9619 19.3647 19.5723V27.9709C20.7905 28.6235 22.3937 28.9782 24.089 28.9782C25.7843 28.9782 27.3874 28.6306 28.8132 27.9709V19.5723C28.8061 16.9619 26.6923 14.8481 24.089 14.8481Z" fill="#E2B399"/>
<path d="M39.7586 56.3447C38.9855 52.8831 38.1839 49.3151 38.6521 45.208C38.7372 44.4561 39.028 43.2999 39.3685 41.9663C39.9644 39.6255 40.7092 36.71 40.7092 34.4118C40.7092 32.759 39.8721 31.3332 38.1484 30.0564C36.6375 28.9356 33.4597 28.0206 29.7427 27.5453C29.3029 27.4886 28.856 27.6304 28.5155 27.9213C26.8131 29.4109 25.0114 30.3543 24.3517 30.6735C24.1885 30.7515 24.0041 30.7515 23.8409 30.6735C23.1883 30.3543 21.3795 29.4109 19.6771 27.9213C19.3437 27.6304 18.8968 27.4886 18.4499 27.5453C14.7329 28.0206 11.548 28.9356 10.0371 30.0564C8.31337 31.3332 7.47634 32.759 7.47634 34.4118C7.47634 36.71 8.21406 39.6255 8.80991 41.9663C9.1504 43.2999 9.44832 44.4561 9.53344 45.208C10.0016 49.308 9.20005 52.8831 8.42686 56.3447C7.86648 58.8345 7.33447 61.1825 7.33447 63.5446C7.33447 64.183 7.34866 64.8782 7.39831 65.6017C7.4125 65.8074 7.58984 65.9705 7.79555 65.9705H24.0892H40.3829C40.5957 65.9705 40.7659 65.8074 40.7801 65.6017C40.8298 64.8711 40.8439 64.183 40.8439 63.5446C40.8439 61.1825 40.3119 58.8345 39.7586 56.3447Z" fill="#FFF7E6"/>
<path d="M25.4229 34.0712L25.1533 33.3619C25.0328 33.0356 25.0682 32.6738 25.2456 32.3759L25.8343 31.4183C26.0188 31.1204 25.8059 30.7302 25.4513 30.7302H22.7132C22.3585 30.7302 22.1457 31.1133 22.3302 31.4183L22.9189 32.3759C23.1033 32.6738 23.1388 33.0356 23.0111 33.3619L22.7487 34.0641C22.6494 34.3337 22.5784 34.6103 22.5501 34.8941L20.7341 51.6417C20.7058 51.9326 20.8334 52.2234 21.0746 52.3865L23.6354 54.1457C23.9049 54.3301 24.2667 54.3301 24.5433 54.1457L27.104 52.3865C27.3452 52.2234 27.48 51.9326 27.4445 51.6417L25.6286 34.8941C25.5931 34.6174 25.5222 34.3408 25.4229 34.0712Z" fill="#092E3B"/>
<path opacity="0.2" d="M26.7844 34.3196C27.7421 33.4258 30.0049 31.0637 30.9412 27.8929C30.9554 27.8433 30.9625 27.7865 30.9625 27.7369C30.5582 27.673 30.1467 27.6163 29.7282 27.5596C29.2884 27.5028 28.8415 27.6447 28.5011 27.9355C27.3164 28.9711 26.0893 29.7372 25.2239 30.2196L26.1602 34.0784C26.2595 34.3976 26.5716 34.5182 26.7844 34.3196Z" fill="#84817A"/>
<path opacity="0.2" d="M17.2369 27.8858C18.1732 31.0637 20.4289 33.4187 21.3936 34.3125C21.6135 34.5111 21.9256 34.3905 22.0108 34.0713L22.9471 30.2125C22.0888 29.7301 20.8545 28.964 19.6699 27.9284C19.3365 27.6375 18.8896 27.4957 18.4428 27.5524C18.0242 27.6092 17.6128 27.6659 17.2085 27.7297C17.2085 27.7865 17.2227 27.8361 17.2369 27.8858Z" fill="#84817A"/>
<path d="M29.4662 27.0204C28.0334 28.5172 26.3309 29.6025 25.2314 30.2196L26.1678 33.0002C26.2529 33.2556 26.565 33.3549 26.7849 33.1917C27.7425 32.4682 30.0053 30.5672 30.9417 28.0135C30.9984 27.8575 30.9559 27.6801 30.8282 27.5737C30.7005 27.4602 30.5161 27.2829 30.3174 27.0488C30.0976 26.7935 29.7003 26.7722 29.4662 27.0204Z" fill="#FFF7E6"/>
<path d="M17.8613 27.0417C17.6556 27.2758 17.4782 27.4531 17.3505 27.5666C17.23 27.6801 17.1803 27.8504 17.237 28.0064C18.1734 30.5601 20.4291 32.4611 21.3938 33.1846C21.6137 33.3478 21.9258 33.2485 22.0109 32.9931L22.9473 30.2125C21.8478 29.6024 20.1454 28.5171 18.7125 27.0133C18.4784 26.7722 18.0812 26.7934 17.8613 27.0417Z" fill="#FFF7E6"/>
<path d="M41.54 115.987C41.54 117.838 40.0362 119.342 38.1848 119.342C36.3334 119.342 34.8296 117.838 34.8296 115.987C34.8296 114.135 36.3334 112.631 38.1848 112.631C40.0362 112.631 41.54 114.135 41.54 115.987Z" fill="#2E112E"/>
<path d="M47.4699 121.555C47.4699 120.2 45.7675 119.746 44.8879 118.881C43.9445 117.951 43.2564 116.831 42.5967 115.724C41.7101 114.227 40.1282 112.716 38.1917 112.624C35.4678 112.752 34.3967 115.433 34.0066 117.051C33.6093 118.71 32.2971 123.385 35.3685 123.385C35.6594 123.385 45.6115 123.385 45.5122 123.385C46.5904 123.392 47.4699 122.569 47.4699 121.555Z" fill="#2E112E"/>
<path d="M39.454 67.8575C40.7166 80.4909 41.4756 103.289 41.5466 115.951C41.5608 117.817 40.057 119.335 38.1914 119.349C36.5741 119.356 35.2192 118.228 34.8787 116.717C32.0981 104.375 27.7002 81.9948 26.0758 69.3897C25.6005 65.7011 28.2038 62.3246 31.8924 61.8493C35.581 61.3741 38.9575 63.9774 39.4327 67.666C39.4327 67.7227 39.4469 67.8078 39.454 67.8575Z" fill="#02090C"/>
<path d="M42.1778 124.371V122.988C42.1778 122.768 42.0004 122.591 41.7805 122.591H37.106V124.371C37.106 124.591 37.2833 124.768 37.5032 124.768H41.7805C42.0004 124.768 42.1778 124.591 42.1778 124.371Z" fill="#191100"/>
<path d="M36.7298 122.988C37.1199 122.988 37.503 123.087 37.8434 123.286L39.1628 124.038C39.2834 124.109 39.4253 124.144 39.5601 124.165H42.5464C42.9224 124.13 43.4615 124.059 43.9864 123.988C44.9795 123.853 46.008 123.711 46.6748 123.711C47.0366 123.711 47.3345 123.733 47.5757 123.768C47.7317 123.789 47.8736 123.669 47.8736 123.513V121.562C47.8736 121.562 47.8736 121.562 47.8736 121.555C47.8736 120.42 46.9443 119.824 46.1286 119.299C45.7668 119.065 45.4263 118.852 45.1781 118.597C44.3836 117.817 43.7736 116.88 43.1777 115.894C42.5535 116.426 41.1845 117.271 38.8081 117.271C36.4247 117.271 35.0415 116.76 34.4031 116.043C34.2329 115.852 33.9349 115.909 33.8498 116.15C33.7576 116.441 33.6796 116.71 33.6157 116.966L33.5519 117.228C33.2043 118.647 32.573 121.207 33.3746 122.69C33.4739 122.874 33.6725 122.988 33.8853 122.988H36.7298Z" fill="#664400"/>
<path d="M37.9429 117.249C38.1841 117.852 38.6452 118.76 39.4255 119.462C38.4679 118.916 37.6166 117.802 37.3896 117.2C37.567 117.221 37.7514 117.235 37.9429 117.249Z" fill="#DDD3DA"/>
<path d="M46.6679 123.314C45.54 123.314 42.9935 123.789 42.1848 123.789H39.7234C39.3829 123.789 39.0495 123.704 38.7587 123.534L37.4393 122.782C37.2194 122.654 36.9782 122.591 36.7229 122.591H33.3748C33.1549 122.591 32.9775 122.768 32.9775 122.988V124.371C32.9775 124.591 33.1549 124.768 33.3748 124.768H37.5032C37.2833 124.768 37.1059 124.591 37.1059 124.371V123.91C37.1059 123.754 37.2691 123.662 37.4039 123.74L38.7516 124.513C39.0424 124.683 39.3758 124.768 39.7163 124.768H45.157C45.5117 124.768 45.8663 124.754 46.221 124.719L47.9164 124.57C48.0582 124.555 48.1717 124.435 48.1717 124.286V123.747C48.1717 123.626 48.1008 123.52 47.9873 123.484C47.7816 123.413 47.3702 123.314 46.6679 123.314Z" fill="#998866"/>
<path d="M47.9161 124.57C47.9799 124.563 48.0296 124.534 48.0722 124.499C47.9019 124.428 47.4763 124.293 46.6606 124.293C45.5327 124.293 42.9861 124.768 42.1775 124.768H45.1567C45.5114 124.768 45.8661 124.754 46.2208 124.719L47.9161 124.57Z" fill="#191100"/>
<path d="M37.872 117.058C38.0848 117.646 38.5601 118.682 39.4255 119.462C39.4255 119.462 43.0219 118.122 45.001 118.434C44.2845 117.689 43.717 116.817 43.1638 115.901C43.0928 115.781 43.0432 115.696 43.0006 115.625C42.802 115.299 42.4899 115.05 42.121 114.958C41.2414 114.745 39.9433 114.915 38.1061 116.292C37.872 116.469 37.7727 116.781 37.872 117.058Z" fill="#664400"/>
<path d="M42.1283 114.667C42.3482 114.667 42.5326 114.49 42.5255 114.27C42.405 102.19 41.6956 80.3561 40.4401 67.7582C40.433 67.7014 40.4259 67.6021 40.4188 67.5454C39.9222 63.7007 36.6309 60.7995 32.7579 60.7995C32.4245 60.7995 32.0911 60.8208 31.7648 60.8633C27.5371 61.4095 24.5365 65.2897 25.0827 69.5174C26.6575 81.7394 30.7149 102.396 33.3324 114.362C33.375 114.547 33.531 114.674 33.7226 114.674H42.1283V114.667Z" fill="#092E3B"/>
<path d="M13.3498 115.986C13.3498 117.838 11.846 119.342 9.99461 119.342C8.14322 119.342 6.6394 117.838 6.6394 115.986C6.6394 114.135 8.14322 112.631 9.99461 112.631C11.846 112.631 13.3498 114.135 13.3498 115.986Z" fill="#2E112E"/>
<path d="M0.709717 121.555C0.709717 120.2 2.41215 119.746 3.29173 118.881C4.23516 117.951 4.92323 116.831 5.58292 115.724C6.4696 114.227 8.05144 112.716 9.98795 112.624C12.7118 112.752 13.7829 115.433 14.1731 117.051C14.5703 118.71 15.8826 123.385 12.8111 123.385C12.5203 123.385 2.5682 123.385 2.66751 123.385C1.5893 123.392 0.709717 122.569 0.709717 121.555Z" fill="#2E112E"/>
<path d="M8.72524 67.8574C7.4626 80.4908 6.7036 103.289 6.63267 115.951C6.61848 117.817 8.12229 119.335 9.98787 119.349C11.6052 119.356 12.96 118.228 13.3005 116.717C16.0811 104.375 20.4791 81.9947 22.1035 69.3896C22.5788 65.701 19.9755 62.3245 16.2869 61.8493C12.5983 61.374 9.22178 63.9773 8.74652 67.6659C8.73942 67.7226 8.73233 67.8078 8.72524 67.8574Z" fill="#02090C"/>
<path d="M5.9939 124.371V122.988C5.9939 122.768 6.17123 122.591 6.39113 122.591H11.0657V124.371C11.0657 124.591 10.8884 124.768 10.6685 124.768H6.39822C6.17123 124.768 5.9939 124.591 5.9939 124.371Z" fill="#191100"/>
<path d="M11.449 122.988C11.0588 122.988 10.6758 123.087 10.3353 123.286L9.01592 124.038C8.89533 124.108 8.75347 124.144 8.61869 124.165H5.63944C5.26349 124.13 4.72438 124.059 4.19947 123.988C3.20638 123.853 2.17783 123.711 1.51105 123.711C1.14928 123.711 0.851358 123.733 0.610181 123.768C0.454125 123.789 0.312256 123.669 0.312256 123.513V121.562C0.312256 121.562 0.312256 121.562 0.312256 121.555C0.312256 120.42 1.2415 119.824 2.05725 119.299C2.41901 119.065 2.7595 118.852 3.00777 118.597C3.80223 117.817 4.41227 116.88 5.00812 115.894C5.63235 116.426 7.00138 117.27 9.37769 117.27C11.7611 117.27 13.1443 116.76 13.7827 116.043C13.953 115.852 14.2509 115.908 14.336 116.15C14.4282 116.44 14.5063 116.71 14.5701 116.965L14.6339 117.228C14.9815 118.647 15.6128 121.207 14.8113 122.69C14.712 122.874 14.5134 122.988 14.3005 122.988H11.449Z" fill="#664400"/>
<path d="M10.2998 117.058C10.087 117.646 9.61175 118.682 8.74635 119.462C8.74635 119.462 5.14997 118.122 3.1709 118.434C3.88734 117.689 4.45481 116.816 5.0081 115.901C5.07904 115.781 5.12869 115.696 5.17125 115.625C5.36987 115.298 5.68198 115.05 6.05084 114.958C6.93043 114.745 8.22853 114.915 10.0657 116.291C10.3069 116.469 10.4062 116.781 10.2998 117.058Z" fill="#664400"/>
<path d="M1.51091 123.314C2.63876 123.314 5.18531 123.789 6.00106 123.789H8.46249C8.80298 123.789 9.13637 123.704 9.4272 123.534L10.7466 122.782C10.9665 122.654 11.2077 122.591 11.463 122.591H14.8111C15.031 122.591 15.2084 122.768 15.2084 122.988V124.371C15.2084 124.591 15.031 124.768 14.8111 124.768H10.6827C10.9026 124.768 11.08 124.591 11.08 124.371V123.91C11.08 123.754 10.9168 123.662 10.782 123.74L9.43429 124.513C9.14346 124.683 8.81007 124.768 8.46958 124.768H3.01472C2.66005 124.768 2.30537 124.754 1.9507 124.719L0.255364 124.57C0.113495 124.555 0 124.435 0 124.286V123.747C0 123.626 0.0709345 123.52 0.18443 123.484C0.397233 123.413 0.808654 123.314 1.51091 123.314Z" fill="#998866"/>
<path d="M0.255421 124.57C0.19158 124.562 0.141926 124.534 0.0993652 124.499C0.269608 124.428 0.695215 124.293 1.51096 124.293C2.63882 124.293 5.18537 124.768 6.00112 124.768H3.02187C2.6672 124.768 2.31252 124.754 1.95785 124.718L0.255421 124.57Z" fill="#191100"/>
<path d="M10.2289 117.249C9.98769 117.852 9.52662 118.76 8.74634 119.462C9.70395 118.916 10.5552 117.802 10.7822 117.199C10.6119 117.221 10.4204 117.235 10.2289 117.249Z" fill="#DDD3DA"/>
<path d="M14.8464 114.355C17.4497 102.445 21.4859 81.9237 23.0749 69.6804C23.3231 67.7651 22.9259 65.8002 21.8406 64.2042C20.578 62.3386 18.6273 61.1398 16.4141 60.8561C16.0807 60.8135 15.7473 60.7923 15.421 60.7923C11.548 60.7923 8.25663 63.6935 7.76009 67.5381C7.753 67.602 7.73881 67.6942 7.73172 67.758C6.47617 80.3489 5.76683 102.183 5.64624 114.263C5.64624 114.483 5.82358 114.66 6.04347 114.66H14.4563C14.6407 114.667 14.8039 114.539 14.8464 114.355Z" fill="#092E3B"/>
<path d="M41.1209 63.5447C41.1209 66.6375 40.7804 71.0709 37.8366 73.887C35.0844 76.5116 30.807 76.7244 25.8983 76.7244H22.2807C17.3791 76.7244 13.0946 76.5116 10.3424 73.887C7.3986 71.078 7.05103 66.6375 7.05103 63.5447C7.05103 61.9984 7.27092 60.4662 7.58303 58.8985C7.6185 58.7141 7.78874 58.5722 7.97317 58.5722H40.1916C40.3832 58.5722 40.5463 58.707 40.5818 58.8914C40.901 60.4662 41.1209 61.9984 41.1209 63.5447Z" fill="#092E3B"/>
<path d="M39.4396 61.6083H41.0215C40.9293 60.7429 40.7874 59.8704 40.6101 58.9908H39.2056L39.4396 61.6083Z" fill="#092E3B"/>
<path d="M32.5026 61.6083H38.4185L38.1845 58.9908H32.4175L32.5026 61.6083Z" fill="#092E3B"/>
<path d="M17.2444 61.6083H30.9277L30.8496 58.9908H17.3295L17.2444 61.6083Z" fill="#092E3B"/>
<path d="M9.99484 58.9908L9.75366 61.6083H15.6696L15.7547 58.9908H9.99484Z" fill="#092E3B"/>
<path d="M8.97364 58.9908H7.56204C7.3918 59.8704 7.24993 60.7429 7.15771 61.6083H8.73955L8.97364 58.9908Z" fill="#092E3B"/>
<path d="M26.2035 62.2112H21.9758C21.5573 62.2112 21.2168 61.8707 21.2168 61.4522V59.1468C21.2168 58.7283 21.5573 58.3878 21.9758 58.3878H26.2035C26.622 58.3878 26.9625 58.7283 26.9625 59.1468V61.4522C26.9625 61.8707 26.622 62.2112 26.2035 62.2112Z" fill="#092E3B"/>
<path d="M24.0969 54.3231C24.0969 54.3302 24.0898 54.3302 24.0898 54.3302C24.0898 54.3302 18.0604 40.9307 17.805 27.8929C17.7979 27.4389 17.3936 27.0984 16.9467 27.1765C13.7405 27.7085 11.0592 28.5597 9.67594 29.5882C7.78908 30.9856 5.05811 32.5675 5.05811 34.426C5.05811 36.7952 7.61884 39.7531 8.22179 42.1295C8.27853 42.3635 8.33528 42.5905 8.39203 42.8104C10.2505 50.9041 5.05811 58.8629 5.05811 69.723C5.05811 72.2412 5.23544 75.6389 5.43406 78.6607C5.46243 79.0793 5.81001 79.4055 6.22853 79.4055H17.5142C18.1313 79.4055 18.7201 79.1218 19.096 78.6324C24.0615 72.2483 26.1824 62.2465 26.7073 59.402C26.7995 58.9055 26.6931 58.3947 26.4236 57.9762C25.6504 56.7774 24.0898 54.3302 24.0898 54.3302L24.0969 54.3231Z" fill="#CC8900"/>
<path d="M24.0968 54.3303V54.3232C24.0898 54.3303 24.0898 54.3303 24.0968 54.3303C24.0898 54.3303 23.884 53.8621 23.5365 53.018C22.9335 53.9543 21.6283 55.9476 20.7487 57.3237C20.3089 58.0047 20.1529 58.8204 20.2948 59.6149C20.6281 61.4379 21.5787 65.9919 23.4513 70.7587C25.402 65.9281 26.3809 61.2109 26.7143 59.4021C26.8065 58.9055 26.7001 58.3948 26.4306 57.9692C25.6574 56.7704 24.0898 54.3303 24.0968 54.3303Z" fill="#996700"/>
<path d="M39.7805 42.7963C39.8372 42.5764 39.894 42.3494 39.9507 42.1153C40.5537 39.739 43.8592 36.3838 43.8592 34.0075C43.8592 32.149 40.8374 30.6807 38.4966 29.5741C36.9431 28.8435 34.432 27.6943 31.2329 27.1623C30.786 27.0914 30.3817 27.4248 30.3746 27.8787C30.1192 40.9307 24.0898 54.3302 24.0898 54.3302C24.0898 54.3302 24.0898 54.3302 24.0827 54.3231V54.3302C24.0898 54.3302 22.5221 56.7704 21.7489 57.9763C21.4794 58.4019 21.373 58.9126 21.4652 59.4021C21.9901 62.2465 24.104 72.2483 29.0765 78.6324C29.4595 79.1218 30.0412 79.4056 30.6583 79.4056H41.944C42.3625 79.4056 42.7101 79.0793 42.7385 78.6608C42.9371 75.6319 43.1144 72.2341 43.1144 69.723C43.1144 58.8629 37.922 50.9041 39.7805 42.7963Z" fill="#CC8900"/>
<path d="M38.3765 44.7257H32.9358C32.7159 44.7257 32.5386 44.5484 32.5386 44.3285V43.5766C32.5386 43.3567 32.7159 43.1793 32.9358 43.1793H38.3765C38.5964 43.1793 38.7737 43.3567 38.7737 43.5766V44.3285C38.7737 44.5484 38.5964 44.7257 38.3765 44.7257Z" fill="#FFAB00"/>
<path d="M38.3622 43.1793L36.3689 39.9943C36.1632 39.668 35.6951 39.668 35.4964 39.9943L33.5032 43.1793H38.3622Z" fill="white"/>
<path d="M23.983 57.7422C23.983 58.1465 23.6567 58.4729 23.2524 58.4729C22.848 58.4729 22.5217 58.1465 22.5217 57.7422C22.5217 57.3379 22.848 57.0116 23.2524 57.0116C23.6567 57.0116 23.983 57.3379 23.983 57.7422Z" fill="#664400"/>
<path d="M24.7142 61.4024C24.7142 61.8068 24.3879 62.1331 23.9836 62.1331C23.5792 62.1331 23.2529 61.8068 23.2529 61.4024C23.2529 60.9981 23.5792 60.6718 23.9836 60.6718C24.3879 60.6718 24.7142 60.9981 24.7142 61.4024Z" fill="#664400"/>
<path d="M25.4444 65.0627C25.4444 65.467 25.1181 65.7933 24.7138 65.7933C24.3095 65.7933 23.9832 65.467 23.9832 65.0627C23.9832 64.6584 24.3095 64.3321 24.7138 64.3321C25.1181 64.3321 25.4444 64.6584 25.4444 65.0627Z" fill="#664400"/>
<path d="M35.0492 37.9231L32.2686 35.9298C31.843 35.6248 31.8217 34.9935 32.226 34.6601L35.1911 32.2483C35.5174 31.9858 35.5812 31.5106 35.34 31.1701L32.3821 26.9708C32.3821 26.9708 32.07 26.5026 31.0272 25.999C30.5165 25.7578 29.9774 26.2685 30.1902 26.7934C30.247 26.9282 30.2895 27.0488 30.325 27.1552C30.3675 27.2758 30.3817 27.3964 30.3817 27.517C30.2328 40.6824 24.0898 54.3302 24.0898 54.3302C24.0898 54.3302 17.9469 40.6824 17.7979 27.5311C17.7979 27.4106 17.8192 27.2829 17.8547 27.1694C17.8902 27.063 17.9398 26.9424 17.9895 26.8076C18.1952 26.2827 17.6561 25.772 17.1524 26.0131C16.1097 26.5097 15.7976 26.9849 15.7976 26.9849L12.8396 31.1843C12.5984 31.5248 12.6623 32 12.9886 32.2625L15.9536 34.6743C16.3651 35.0076 16.3438 35.639 15.9111 35.944L13.1234 37.9231C12.7829 38.1642 12.6907 38.6324 12.9035 38.9871C15.7621 43.69 20.6708 50.9892 24.0898 54.3302C27.5089 50.9892 32.4105 43.69 35.2762 38.9871C35.489 38.6324 35.3897 38.1713 35.0492 37.9231Z" fill="#996700"/>
<path d="M33.7079 10.8473C32.4382 10.8119 31.3813 12.2447 31.3387 14.0394C31.2962 15.834 32.2963 17.3166 33.5661 17.3449C34.8358 17.3804 35.8927 15.9475 35.9353 14.1529C35.9778 12.3653 34.9777 10.8828 33.7079 10.8473Z" fill="#FFCFB4"/>
<path d="M14.1726 12.6704C15.4139 12.4008 16.7191 13.6067 17.088 15.3659C17.4568 17.125 16.7546 18.7636 15.5132 19.0261C14.2719 19.2956 12.9667 18.0898 12.5978 16.3306C12.2219 14.5785 12.9312 12.9399 14.1726 12.6704Z" fill="#FFCFB4"/>
<path d="M32.6082 6.08043C31.0831 2.17194 28.0897 0.0368068 22.8902 0.526255C17.6978 1.00861 15.1441 3.66866 14.3709 7.78286C14.0375 9.56331 14.1156 11.663 14.3213 13.9116C14.683 17.7633 15.4917 20.8206 17.3644 22.9628C19.159 25.0199 21.9396 26.2471 25.2594 25.935C28.572 25.6229 31.0831 23.8992 32.4663 21.5513C33.9063 19.0969 34.1404 15.9403 33.7857 12.0957C33.58 9.84705 33.2679 7.77576 32.6082 6.08043Z" fill="#FFCFB4"/>
<path d="M28.1468 10.6912C28.2603 10.6841 28.3738 10.7054 28.4731 10.7621C29.1966 11.1593 30.1401 11.2586 31.0764 11.0387C31.3814 10.9678 31.6935 11.1593 31.7645 11.4644C31.8354 11.7765 31.6439 12.0815 31.3389 12.1524C30.133 12.4362 28.8916 12.2943 27.9198 11.7623C27.6432 11.6133 27.5368 11.2586 27.6928 10.982C27.785 10.8118 27.9624 10.7054 28.1468 10.6912Z" fill="#C19F76"/>
<path d="M19.613 11.4857C19.4995 11.4928 19.3931 11.5353 19.3009 11.6134C18.6624 12.1312 17.7545 12.4078 16.7969 12.3653C16.4848 12.3511 16.2152 12.5993 16.201 12.9115C16.1868 13.2307 16.4351 13.4931 16.7472 13.5073C17.9886 13.5641 19.1803 13.1952 20.0315 12.4929C20.2798 12.2943 20.3152 11.9326 20.1095 11.6843C19.9818 11.5424 19.7974 11.4715 19.613 11.4857Z" fill="#C19F76"/>
<path d="M19.6131 16.3446C19.1733 16.3872 18.7831 16.0183 18.7335 15.5289L18.6838 14.9756C18.6413 14.4861 18.9534 14.0534 19.3932 14.0109C19.833 13.9683 20.2231 14.3372 20.2727 14.8266L20.3224 15.3799C20.3721 15.8765 20.0528 16.3092 19.6131 16.3446Z" fill="#092E3B"/>
<path d="M29.2742 15.4438C28.8344 15.4863 28.4443 15.1175 28.3946 14.628L28.3449 14.0747C28.3024 13.5853 28.6145 13.1526 29.0543 13.11C29.4941 13.0675 29.8842 13.4363 29.9339 13.9258L29.9835 14.4791C30.0332 14.9756 29.714 15.4012 29.2742 15.4438Z" fill="#092E3B"/>
<path d="M32.3958 20.8135C32.2823 20.9695 32.0553 20.9695 31.9276 20.8348C31.3459 20.2105 30.211 18.9621 29.53 18.2173C29.1824 17.8342 28.6788 17.6427 28.1681 17.6853C25.5222 17.9335 23.5006 18.118 20.8547 18.3662C20.344 18.4159 19.8829 18.6996 19.6134 19.1394C19.0885 19.9977 18.2018 21.4377 17.7478 22.1542C17.6485 22.3173 17.4215 22.3528 17.2796 22.2251C16.3575 21.3668 15.336 19.1536 15.031 18.196C15.6056 21.1398 16.7902 23.6083 19.8333 25.8498C21.3158 26.9422 23.5644 26.8287 25.3236 26.6656C27.0828 26.5024 29.3172 26.1974 30.5657 24.8497C33.1406 22.0832 33.8712 19.4303 33.8925 16.4368C33.7648 17.4299 33.1477 19.7991 32.3958 20.8135ZM24.8625 21.7498C23.1743 21.9059 20.8902 21.608 21.0392 20.4446C21.1952 19.2104 22.011 19.033 24.5859 18.7919C27.1608 18.5507 27.9978 18.572 28.3809 19.7566C28.7356 20.8773 26.5508 21.5938 24.8625 21.7498Z" fill="#C19F76"/>
<path d="M33.0194 3.95238C32.2816 3.30688 31.3666 2.75359 30.4303 2.27833C29.8628 1.99459 29.345 1.73922 28.1887 1.25687C28.1816 1.25687 28.1816 1.24977 28.1745 1.24977C26.0536 0.363093 24.2731 -0.112168 22.8403 0.0226072C21.4074 0.157383 19.7404 0.95185 17.8252 2.22158C17.8181 2.22158 17.8181 2.22867 17.811 2.22867C16.7612 2.91674 16.3001 3.26432 15.7965 3.64736C14.9665 4.28577 14.1721 5.00221 13.5691 5.7754C12.7534 6.81104 12.7746 8.83977 13.2996 10.9465C13.7677 13.0178 14.3352 16.3305 15.2361 19.1253C15.2715 19.2388 15.3567 19.2742 15.4134 19.3806C15.4914 19.5225 15.5482 20.1396 15.5837 20.0616C15.7113 19.7637 15.7326 19.3523 15.6688 19.2246C14.1437 15.919 14.9878 13.3016 14.9736 11.7481C14.9594 10.2017 14.2643 9.53493 14.5551 7.90343C15.0942 4.86744 16.9243 2.81743 17.811 2.22158C19.0949 1.38455 20.7619 0.831261 22.8899 0.632644C25.0179 0.434027 26.7558 0.668111 28.1745 1.25687C29.1534 1.68248 31.3311 3.35653 32.4235 6.23647C33.0123 7.78994 32.4519 8.57022 32.7285 10.0953C32.9981 11.6204 34.3033 14.9189 33.4166 18.4514C33.3811 18.5862 33.3102 18.3166 33.4521 18.3237C33.5372 18.3308 33.4733 18.1606 33.5585 18.1677C33.6791 18.1748 33.7429 17.7633 33.7571 17.6427C34.1188 14.7273 34.1472 11.1097 34.2182 8.98873C34.3671 6.81104 34.0124 4.81778 33.0194 3.95238Z" fill="#C19F76"/>
<path d="M26.2597 20.2248C26.1604 20.2602 26.054 20.2815 25.9547 20.2673C25.2312 20.1822 24.3658 20.3737 23.5713 20.7923C23.3088 20.927 22.9967 20.8774 22.869 20.6717C22.7485 20.466 22.8549 20.1893 23.1173 20.0545C24.1459 19.5154 25.2808 19.2672 26.2455 19.3807C26.5222 19.4161 26.6853 19.636 26.6002 19.8843C26.5505 20.0403 26.4158 20.1609 26.2597 20.2248Z" fill="#C83F33"/>
<path d="M28.9337 12.1524C28.8841 12.1595 28.8486 12.1666 28.799 12.1737C28.2457 12.2588 27.7775 12.3581 27.3732 12.4787C25.238 13.032 24.4578 13.6988 23.8903 13.7484C23.3228 13.7981 22.4361 13.2874 20.2301 13.1455C19.8186 13.1029 19.3363 13.0888 18.7759 13.11C18.7263 13.11 18.6908 13.11 18.6411 13.11C15.2363 13.1739 13.8389 14.4649 13.8389 14.4649L13.9524 15.6991C13.9524 15.6991 14.3141 15.8907 14.6688 16.2737C14.7326 16.5149 14.7965 16.7561 14.8887 16.9973C15.1866 17.8343 15.9385 18.3663 16.7543 18.3095L20.0953 18.1038L20.1733 18.0967C21.2444 17.9974 22.0956 17.1959 22.4078 16.1177C22.5213 15.8907 22.6489 15.6211 22.7199 15.387C22.883 14.8621 23.5356 14.7628 23.8335 14.7486C23.9329 14.7415 24.0393 14.7344 24.1457 14.7203C24.4436 14.6777 25.0962 14.6564 25.3586 15.1388C25.4721 15.3516 25.6495 15.5998 25.7984 15.7985C26.295 16.7986 27.2881 17.43 28.3592 17.3236L31.7569 16.8979C32.5656 16.7986 33.204 16.1389 33.3459 15.2594C33.3884 15.004 33.4097 14.7557 33.4239 14.5074C33.6934 14.0677 34.0197 13.8052 34.0197 13.8052L33.9062 12.5709C33.8992 12.5922 32.2889 11.5849 28.9337 12.1524ZM20.1308 17.6995L16.7259 17.9123C16.0875 17.9549 15.4916 17.5293 15.2505 16.8625C14.9738 16.0893 14.8674 15.4083 14.8674 15.0253C14.8674 14.6209 15.4775 13.791 17.8183 13.5711C17.9176 13.564 18.024 13.5498 18.1375 13.5427C20.1166 13.4151 21.2302 13.5853 21.7481 14.096C22.0176 14.3656 22.1453 14.7486 22.1382 15.3019C22.124 16.5646 21.2657 17.5931 20.1308 17.6995ZM32.9557 15.2097C32.8422 15.912 32.3386 16.4369 31.7002 16.5149L28.3804 16.9334L28.3166 16.9405C27.1887 17.0469 26.146 16.1957 25.8977 14.9614C25.7913 14.4152 25.841 14.018 26.0609 13.7059C26.4723 13.11 27.5363 12.7341 29.5083 12.4929C29.6147 12.4787 29.7211 12.4716 29.8275 12.4574C32.1684 12.2375 32.9203 12.9398 32.9983 13.3441C33.0621 13.713 33.0834 14.401 32.9557 15.2097Z" fill="#664400"/>
<path d="M37.1769 58.6712L36.1484 58.4584C34.8715 58.1889 34.8715 58.1889 32.7151 57.7349L17.145 53.8477C16.8258 53.7768 16.6201 53.4717 16.6697 53.1525L18.8971 48.0027C18.9467 47.6835 19.2447 47.4565 19.5639 47.499C23.373 47.953 35.8859 50.3577 36.2335 50.4003C36.1625 49.9392 34.2189 36.3836 34.2189 36.3836C34.0912 35.4756 34.2118 34.5606 34.5736 33.7023C35.0914 32.4609 36.12 31.482 37.3826 31.0139C40.4754 29.8718 43.6461 31.4466 44.0859 34.5251C44.1072 34.667 44.1285 35.2699 44.1427 35.4118L45.0081 51.6487C45.0364 52.1311 45.0081 52.6205 44.923 53.11C44.6676 54.6634 43.8873 56.075 42.7311 57.0894C41.2485 58.423 39.1631 59.0188 37.1769 58.6712Z" fill="#CC8900"/>
<path d="M23.7845 55.5005C23.7845 55.5005 33.6161 52.4432 33.4884 52.124C33.3607 51.8048 32.1832 51.0033 32.7294 50.8898C33.2756 50.7763 36.0278 51.1664 36.2406 50.7834C36.4534 50.4003 36.2406 50.3932 36.2406 50.3932L34.1906 48.9036L29.8565 50.7834L22.9475 55.1104L22.9688 55.3019L23.7845 55.5005Z" fill="#996700"/>
<path d="M11.7398 58.6717L12.7683 58.4589C14.0451 58.1893 14.0451 58.1893 16.2015 57.7353L32.0909 52.0393C32.4101 51.9684 32.6158 51.6633 32.5661 51.3441L30.6864 46.8611C30.6367 46.5419 30.3388 46.3149 30.0196 46.3574C26.2104 46.8114 13.0379 50.3582 12.6903 50.4007C12.7612 49.9396 14.7048 36.3841 14.7048 36.3841C14.8325 35.4761 14.7119 34.561 14.3502 33.7027C13.8323 32.4614 12.8038 31.4825 11.5411 31.0143C8.43421 29.8652 5.26344 31.8939 4.82365 34.9654C4.80236 35.1072 4.78818 35.2633 4.77399 35.4052L3.90859 51.6421C3.88022 52.1244 3.90859 52.6139 3.99371 53.1033C4.24908 54.6568 5.02936 56.0684 6.18559 57.0827C7.67521 58.4234 9.7536 59.0193 11.7398 58.6717Z" fill="#CC8900"/>
<path d="M30.7361 46.9813C30.7361 46.9813 33.0344 45.4207 33.538 45.2505C34.0416 45.0802 35.5384 45.5129 35.5384 45.5129L36.2406 50.3932C36.2406 50.3932 34.1622 50.9181 33.4883 50.528C32.8145 50.1449 32.3321 50.7834 32.3321 50.7834L30.7361 46.9813Z" fill="#FFCFB4"/>
<path d="M18.961 47.8182C18.961 47.8182 15.9747 45.3426 15.2299 44.9666C14.4921 44.5978 13.4565 44.9666 13.4565 44.9666L12.7046 50.1803C12.7046 50.1803 13.2153 49.6412 13.6977 49.8257C14.18 50.0101 14.2651 49.9888 14.2651 49.9888L18.4999 48.9035L18.961 47.8182Z" fill="#FFCFB4"/>
<path d="M18.5073 48.9178L18.7272 48.3858L21.6143 47.7899L22.4938 47.9247L18.5073 48.9178Z" fill="#996700"/>
<path d="M35.0491 37.923L34.3752 37.4407C34.4604 38.0578 34.588 38.9019 34.7228 39.8666C34.9073 39.5616 35.0917 39.2708 35.2619 38.9799C35.4889 38.6324 35.3896 38.1713 35.0491 37.923Z" fill="#996700"/>
<path d="M13.1233 37.9231C12.7828 38.1643 12.6906 38.6324 12.9034 38.9871C13.2581 39.5688 13.6412 40.193 14.0526 40.8385C14.3079 39.0793 14.5207 37.5755 14.6271 36.852L13.1233 37.9231Z" fill="#996700"/>
<path d="M12.6975 31.6454C12.6975 31.8723 12.7897 32.1064 12.9812 32.2554L14.0453 33.1208C13.6977 32.5391 13.2437 32.0355 12.6975 31.6454Z" fill="#996700"/>
</svg>