
<svg width="62" height="125" viewBox="0 0 62 125" fill="none" xmlns="http://www.w3.org/2000/svg">
<path d="M9.66002 46.6086C10.0494 47.9855 9.16628 49.6406 7.35128 50.3012C7.02444 50.4195 7.62249 50.2178 4.47231 51.2609C4.16634 51.3582 3.8395 51.1983 3.73519 50.8923C3.69346 50.7672 3.69346 50.6489 3.73519 50.5377C3.74214 50.5029 3.74214 50.4751 3.72128 50.4473C3.70042 50.4195 3.6726 50.4055 3.63783 50.4055C3.34576 50.4195 3.0676 50.2386 2.97024 49.9466C2.91461 49.7727 2.92852 49.5989 2.99806 49.4459C3.01197 49.4111 3.01197 49.3763 2.9911 49.3485C2.97024 49.3207 2.93547 49.2999 2.9007 49.3068C2.55995 49.3207 2.24702 49.1121 2.12881 48.7853C2.02449 48.4793 2.1149 48.1177 2.41392 47.909C2.44174 47.8882 2.4626 47.8534 2.45564 47.8186L9.66002 46.6086Z" fill="#FFC0B5"/>
<path d="M38.5053 28.2362C38.6722 28.7439 38.5748 29.321 38.1923 29.7452L29.9101 39.015C27.5805 41.6227 24.5972 43.5768 21.2732 44.6755L9.46524 48.5628C8.65858 48.8271 7.78237 48.389 7.51811 47.5823C7.25386 46.7757 7.69197 45.8994 8.49863 45.6352L20.3066 41.7479C23.116 40.823 25.6403 39.1679 27.6083 36.9635L35.8906 27.6938C36.4608 27.061 37.4343 27.0053 38.0672 27.5686C38.2827 27.7564 38.4288 27.9859 38.5053 28.2362Z" fill="#FFC0B5"/>
<path d="M33.6512 35.3222L38.4842 30.0024C38.9432 29.4878 39.0892 28.7646 38.8737 28.1179C38.7693 27.798 38.5816 27.5129 38.3243 27.2834C37.5315 26.5741 36.3146 26.6436 35.6053 27.4364L30.7722 32.7562L33.6512 35.3222Z" fill="#E7EBEC"/>
<path d="M7.93532 49.6754C8.03963 49.6268 8.14394 49.585 8.25521 49.5364C8.99929 49.2165 9.86159 48.7436 10.0563 47.8882C10.3275 46.6922 9.50693 45.649 8.58205 44.9954C8.08831 44.6477 7.57371 44.3208 7.03825 44.0427C6.19682 43.5976 5.33452 43.2847 4.38181 43.6115C4.07584 43.7158 3.91589 44.0427 4.01325 44.3486C4.12451 44.6616 4.45135 44.8285 4.75733 44.7242C5.49446 44.4808 6.09946 44.7242 6.38457 45.1205C6.48888 45.2596 6.5167 45.4404 6.46802 45.6073C6.41934 45.7742 6.30113 45.9063 6.14118 45.9759C5.54314 46.2193 5.00072 46.4279 4.63216 46.7269C4.41658 46.9008 4.14538 46.9703 3.87417 46.9286C3.60992 46.8869 3.35957 46.7547 3.24135 46.414C2.94233 45.5656 3.69336 45.0927 3.77681 45.044C4.02716 44.898 4.11756 44.5712 3.96457 44.3139C3.81854 44.0635 3.49865 43.9731 3.24135 44.1192C2.68503 44.439 1.75319 45.3987 2.23302 46.7686C2.57377 47.7492 3.39434 48.0134 4.11061 48.0065C4.13842 48.0065 4.16624 48.0273 4.16624 48.0551C4.17319 48.0899 4.15233 48.1247 4.12451 48.1316L7.93532 49.6754Z" fill="#FFC0B5"/>
<path d="M51.447 9.19592C51.447 12.4295 49.3816 15.385 48.8323 15.5797C48.728 15.7397 48.6167 15.8996 48.5054 16.0526C47.2398 17.7841 45.3135 19.3418 43.2273 20.2528C43.0187 20.3432 42.8031 20.4336 42.5875 20.5171C42.6015 21.7827 42.3302 23.0762 41.5931 23.9663C40.6891 25.0581 39.4026 25.8021 38.3525 26.5393C38.3595 26.5671 38.3665 26.5949 38.3734 26.6227C39.646 31.0316 45.2788 30.6143 45.2788 30.6143C43.422 30.2458 42.3511 28.0692 42.7614 26.6227C43.8601 22.798 49.9519 22.5268 51.6069 17.4017C52.4205 14.9121 52.0033 11.2752 51.447 9.19592Z" fill="#864E45"/>
<path d="M41.593 23.9662C42.3301 23.0761 42.6013 21.7827 42.5874 20.517C41.4539 20.9551 40.1952 21.2681 38.9783 21.2333C39.2703 23.097 38.9087 25.9551 35.6195 27.4919C34.3608 28.083 33.2273 27.937 32.3789 27.3876C32.7405 31.8382 38.0186 31.7478 38.0186 31.7478C37.2467 31.3931 36.4887 30.503 36.4887 29.0288C36.4887 27.9857 37.3093 27.2694 38.3455 26.5392C39.4025 25.7951 40.689 25.058 41.593 23.9662Z" fill="#864E45"/>
<path d="M35.6265 27.4851C38.9158 25.9482 39.2774 23.0901 38.9853 21.2264H38.9784C37.9422 22.6172 36.2871 23.9037 34.3052 23.9037C33.0118 23.9037 31.9965 23.2987 31.3915 22.4225C30.2371 24.1193 30.863 26.3933 32.3859 27.3808C33.2343 27.9301 34.3609 28.0762 35.6265 27.4851Z" fill="#8F584E"/>
<path d="M34.3052 23.9106C36.2871 23.9106 37.9421 22.6171 38.9783 21.2333C38.0395 21.2055 37.1285 20.976 36.3149 20.4405C35.5778 19.9607 34.9588 19.3487 34.4582 18.6603C34.2843 19.0914 33.9436 19.4739 33.2412 19.4739C32.0173 19.4739 31.9825 18.0136 32.365 17.499C30.5291 18.862 30.404 21.0038 31.3914 22.4363C31.9964 23.3056 33.0117 23.9106 34.3052 23.9106Z" fill="#9F655A"/>
<path d="M36.5721 57.8882C35.6611 58.0481 34.931 58.8061 34.8475 59.7797L33.4567 76.0591C32.7752 84.0492 33.1438 92.1089 34.5555 100.009L37.2258 114.967C37.4275 116.107 38.5192 116.872 39.6597 116.664C40.8002 116.462 41.5651 115.37 41.3565 114.23L38.6861 99.2716C37.344 91.7334 36.9894 84.0492 37.6361 76.4207L39.0269 60.1413C39.1242 58.9869 38.2689 57.9647 37.1145 57.8673C36.9337 57.8534 36.7529 57.8604 36.5721 57.8882Z" fill="#FFC0B5"/>
<path d="M40.459 123.896L40.4659 123.979C40.4729 124.097 40.5563 124.188 40.6467 124.188H40.9458C41.0362 124.188 41.1196 124.097 41.1266 123.979L41.3143 121.503L40.7024 123.492C40.6607 123.652 40.5772 123.784 40.459 123.896Z" fill="#190A0D"/>
<path d="M41.8779 115.627L41.0643 117.999C41.0573 118.027 41.0434 118.054 41.0364 118.082C40.8209 118.701 40.5427 119.292 40.195 119.855C40.1116 119.995 40.0212 120.127 39.9307 120.266L39.1936 121.344C39.0059 121.629 38.6651 121.796 38.3105 121.796H38.2201H35.5984C35.3898 121.796 35.1881 121.844 35.0143 121.928C35.0073 121.928 35.0073 121.935 35.0073 121.935C34.9586 121.956 34.903 121.99 34.8613 122.018C34.8126 122.053 34.7709 122.088 34.7291 122.122C34.6874 122.157 34.6457 122.199 34.6109 122.234C34.5761 122.275 34.5414 122.317 34.5136 122.366C34.4927 122.394 34.4718 122.428 34.4579 122.463C34.444 122.484 34.4301 122.505 34.4232 122.533C34.3953 122.581 34.3814 122.63 34.3675 122.686C34.3536 122.72 34.3467 122.755 34.3397 122.797C34.3328 122.818 34.3328 122.839 34.3258 122.86C34.3188 122.901 34.3188 122.95 34.3188 122.992C34.3188 123.319 34.4649 123.618 34.6944 123.84C34.9308 124.056 35.2507 124.195 35.5984 124.195H39.0545H39.7291C40.0142 124.195 40.2785 124.083 40.4662 123.903C40.5775 123.791 40.6679 123.659 40.7096 123.506L41.3216 121.517L41.9126 119.577C42.0795 119.028 42.1491 118.458 42.1074 117.887C42.0656 117.289 41.9961 116.483 41.8779 115.627Z" fill="#662835"/>
<path d="M38.213 121.796H38.3034C38.6581 121.796 38.9988 121.629 39.1866 121.344L39.9237 120.266C40.0141 120.134 40.1045 119.994 40.188 119.855C40.5287 119.292 40.8138 118.701 41.0294 118.082C41.0363 118.054 41.0503 118.027 41.0572 117.999L41.8639 115.627H41.8708C41.8221 115.301 41.7665 114.974 41.7109 114.647H41.7039C41.5231 113.131 40.4661 111.963 39.1866 111.963C37.7749 111.963 36.6344 113.367 36.6344 115.099L36.5788 116.079C36.544 116.782 36.4467 117.47 36.3006 118.159L35.7513 120.725C35.6748 121.086 35.494 121.427 35.2228 121.691L35.0002 121.921C35.1741 121.83 35.3758 121.789 35.5844 121.789H38.213V121.796Z" fill="#FFC0B5"/>
<path d="M46.8919 57.8882C45.981 58.0481 45.2508 58.8061 45.1673 59.7797L43.7765 76.0591C43.095 84.0492 43.4636 92.1089 44.8753 100.009L47.5456 114.967C47.7473 116.107 48.8391 116.872 49.9795 116.664C51.12 116.462 51.8849 115.37 51.6763 114.23L49.006 99.2716C47.6638 91.7334 47.3092 84.0492 47.9559 76.4207L49.3467 60.1413C49.4441 58.9869 48.5887 57.9647 47.4344 57.8673C47.2536 57.8534 47.0728 57.8604 46.8919 57.8882Z" fill="#FFC0B5"/>
<path d="M50.7788 123.896L50.7858 123.979C50.7927 124.098 50.8762 124.188 50.9666 124.188H51.2656C51.356 124.188 51.4394 124.098 51.4464 123.979L51.6342 121.504L51.0222 123.493C50.9805 123.653 50.897 123.785 50.7788 123.896Z" fill="#190A0D"/>
<path d="M52.1973 115.628L51.3837 117.999C51.3768 118.027 51.3628 118.054 51.3559 118.082C51.1403 118.701 50.8622 119.292 50.5145 119.856C50.431 119.995 50.3406 120.127 50.2502 120.266L49.5131 121.344C49.3253 121.629 48.9846 121.796 48.6299 121.796H48.5326H45.9109C45.7023 121.796 45.5006 121.844 45.3268 121.928C45.3198 121.928 45.3198 121.935 45.3198 121.935C45.2711 121.956 45.2155 121.99 45.1738 122.018C45.1251 122.053 45.0834 122.088 45.0416 122.123C44.9999 122.157 44.9582 122.199 44.9234 122.234C44.8886 122.276 44.8539 122.317 44.8261 122.366C44.8052 122.394 44.7843 122.429 44.7704 122.463C44.7565 122.484 44.7426 122.505 44.7357 122.533C44.7078 122.582 44.6939 122.63 44.68 122.686C44.6661 122.721 44.6592 122.755 44.6522 122.797C44.6453 122.818 44.6453 122.839 44.6383 122.86C44.6313 122.901 44.6313 122.95 44.6313 122.992C44.6313 123.319 44.7774 123.618 45.0069 123.84C45.2433 124.056 45.5632 124.195 45.9109 124.195H49.367H50.0416C50.3267 124.195 50.5909 124.084 50.7787 123.903C50.89 123.792 50.9804 123.659 51.0221 123.506L51.6341 121.518L52.2251 119.577C52.392 119.028 52.4616 118.458 52.4199 117.888C52.3851 117.29 52.3155 116.483 52.1973 115.628Z" fill="#662835"/>
<path d="M48.5326 121.796H48.623C48.9776 121.796 49.3184 121.629 49.5062 121.344L50.2433 120.266C50.3337 120.134 50.4241 119.995 50.5075 119.856C50.8483 119.292 51.1334 118.701 51.349 118.082C51.3559 118.054 51.3698 118.027 51.3768 117.999L52.1835 115.628H52.1904C52.1417 115.301 52.0861 114.974 52.0305 114.647H52.0235C51.8427 113.131 50.7857 111.963 49.5062 111.963C48.0945 111.963 46.954 113.367 46.954 115.099L46.8984 116.08C46.8636 116.782 46.7663 117.47 46.6202 118.159L46.0709 120.725C45.9944 121.086 45.8136 121.427 45.5424 121.691L45.3198 121.921C45.4937 121.831 45.6953 121.789 45.904 121.789H48.5326V121.796Z" fill="#FFC0B5"/>
<path d="M42.5735 25.6353C39.3816 25.6353 38.9922 24.2932 38.9922 24.2932C39.8823 23.0275 41.3287 22.2695 42.8795 22.2695H45.3899C46.2105 22.2695 46.9685 22.7215 47.3509 23.4517C47.4066 23.556 47.4274 23.6673 47.4135 23.7716C47.3927 24.0498 46.7181 25.6353 42.5735 25.6353Z" fill="#F5F7F7"/>
<path d="M46.0988 23.5699C45.2504 23.4656 44.3116 23.3961 43.2963 23.3961C41.982 23.3961 40.8068 23.5282 39.7915 23.7159C39.8819 24.6686 40.8068 25.3501 42.2185 25.3501C43.7066 25.3501 45.2643 24.5991 46.0988 23.5699Z" fill="#F5F7F7"/>
<path d="M43.4287 25.6701C44.5886 25.6701 45.5288 24.7298 45.5288 23.57C45.5288 22.4101 44.5886 21.4698 43.4287 21.4698C42.2689 21.4698 41.3286 22.4101 41.3286 23.57C41.3286 24.7298 42.2689 25.6701 43.4287 25.6701Z" fill="#FFC0B5"/>
<path d="M43.6582 27.826C43.5608 27.833 43.4634 27.833 43.3661 27.826C42.17 27.7426 41.1964 26.7829 41.1338 25.559L40.6679 16.7135C40.5984 15.3852 41.6137 14.2587 42.9419 14.1891C44.2771 14.1127 45.3967 15.1349 45.4662 16.4631L45.9321 25.3086C46.0017 26.6299 44.9864 27.7565 43.6582 27.826Z" fill="#FFC0B5"/>
<path d="M45.6747 20.4755L45.4591 16.456C45.3896 15.1278 44.27 14.1125 42.9348 14.1821C41.6066 14.2516 40.5913 15.3851 40.6608 16.7064L40.9668 22.52C41.7735 22.3392 42.6149 22.061 43.4911 21.6785C44.2491 21.3517 44.9793 20.9414 45.6747 20.4755Z" fill="#E4797E"/>
<path d="M49.3811 59.9605C49.3811 61.1218 48.4423 62.0606 47.281 62.0606C46.1197 62.0606 45.1809 61.1218 45.1809 59.9605C45.1809 58.7991 46.1197 57.8604 47.281 57.8604C48.4423 57.8604 49.3811 58.7991 49.3811 59.9605Z" fill="#FFC0B5"/>
<path d="M39.0474 59.9605C39.0474 61.1218 38.1086 62.0606 36.9473 62.0606C35.786 62.0606 34.8472 61.1218 34.8472 59.9605C34.8472 58.7991 35.786 57.8604 36.9473 57.8604C38.1086 57.8604 39.0474 58.7991 39.0474 59.9605Z" fill="#FFC0B5"/>
<path d="M52.26 26.8105C52.26 27.652 51.5785 28.3404 50.7301 28.3404C49.8886 28.3404 49.2002 27.6589 49.2002 26.8105C49.2002 25.9691 49.8817 25.2806 50.7301 25.2806C51.5715 25.2806 52.26 25.9621 52.26 26.8105Z" fill="#FFC0B5"/>
<path d="M38.0183 26.8105C38.0183 27.652 37.3368 28.3404 36.4884 28.3404C35.6469 28.3404 34.9585 27.6589 34.9585 26.8105C34.9585 25.9691 35.64 25.2806 36.4884 25.2806C37.3368 25.2806 38.0183 25.9621 38.0183 26.8105Z" fill="#FFC0B5"/>
<path d="M52.0657 27.5546C52.476 26.8175 52.2048 25.8856 51.4676 25.4753C51.3425 25.4058 48.3244 23.7716 43.2967 23.7716C38.6305 23.7716 35.8211 25.4336 35.7029 25.5101C34.9796 25.9482 34.7502 26.887 35.1883 27.6102C35.3343 27.8467 35.536 28.0414 35.7724 28.1666C36.2522 28.4239 36.4678 29.008 36.2592 29.5087C35.9741 30.2041 35.4525 30.7674 34.7849 31.0942C33.6723 31.6436 32.9004 32.791 32.9004 34.1192C32.9004 35.7117 34.0061 37.0399 35.4873 37.3945C35.9045 39.8215 37.4205 42.9021 36.1201 46.5182C35.7098 47.6448 35.3621 48.5488 35.07 49.3624C34.3121 51.1009 33.9852 53.2984 33.9852 55.7532C33.9852 63.0271 36.9476 63.3192 44.4232 63.3192C44.4232 63.3192 52.0587 63.6321 51.9614 57.2483C51.9405 55.9409 51.5094 54.1607 51.1478 53.0342C50.1672 50.0161 48.7834 48.674 47.9976 47.5335C46.426 45.2456 46.3634 42.2276 47.8585 39.8632C48.5539 38.7645 49.2424 37.2972 49.9099 35.3362C50.5636 33.4099 50.8348 31.8035 50.7792 30.4753C50.7375 29.5156 51.113 28.5838 51.7945 27.9093C51.8988 27.8049 51.9892 27.6867 52.0657 27.5546Z" fill="#FFC0B5"/>
<path d="M43.839 35.962H34.9935C34.3189 35.962 33.6931 35.7604 33.1646 35.4196C33.6722 36.6366 34.8752 37.4919 36.273 37.4919H43.5191C45.3828 37.4919 46.8918 35.9829 46.8918 34.1192C46.8918 34.0914 46.8918 34.0636 46.8848 34.0358C46.3424 35.1762 45.1881 35.962 43.839 35.962Z" fill="#E4797E"/>
<path d="M35.1535 37.7005C35.2161 38.0204 35.2995 38.3542 35.383 38.688H48.9503C49.4093 37.7631 49.8474 36.6991 50.2716 35.4544C50.9183 33.5559 51.2173 31.873 51.1617 30.4475C51.1269 29.5991 51.4607 28.7646 52.0657 28.1735C52.1978 28.0414 52.3091 27.8953 52.3995 27.7284C52.9141 26.8105 52.5733 25.6422 51.6554 25.1346C51.5511 25.079 49.5136 23.9733 46.0435 23.5491C43.9364 24.9955 43.4775 29.2444 38.6792 32.2764C39.8475 30.1832 39.5415 27.2973 39.6249 26.282C39.7501 24.8495 40.216 24.0637 40.7932 23.5421C37.5248 23.9733 35.6055 25.1068 35.5012 25.1694C34.5972 25.7187 34.3121 26.894 34.8545 27.791C35.0283 28.0831 35.2856 28.3265 35.5846 28.4864C35.8767 28.6464 36.0158 28.9732 35.9184 29.2861L35.8698 29.4183C35.6264 29.9746 35.2022 30.4266 34.6598 30.7117C33.6306 31.2472 32.8308 32.1651 32.5944 33.2986C32.1911 35.2944 33.3385 37.1372 35.1535 37.7005Z" fill="#E7EBEC"/>
<path d="M43.8462 37.8744C45.7099 37.8744 47.2189 36.3653 47.2189 34.5017C47.2189 34.4738 47.2189 34.446 47.2119 34.4182C46.6695 35.5517 45.5151 36.3445 44.173 36.3445H34.7086C34.0619 36.3445 33.4499 36.1567 32.9353 35.8368C33.3873 36.713 34.1731 37.3945 35.1536 37.7005C35.5152 37.8118 35.8908 37.8674 36.2593 37.8674H43.8462V37.8744Z" fill="#CFBA5D"/>
<path d="M52.337 57.5195C52.3648 56.1079 51.9198 54.2094 51.5025 52.916C49.8892 47.9508 47.2884 47.6587 47.1563 43.8271C47.045 40.7395 48.554 40.4752 50.2717 35.4544C50.835 33.8063 51.134 32.3251 51.1618 31.0316C51.134 31.5115 50.9114 33.6116 50.1813 33.7576C49.2425 33.9454 47.8656 32.5685 47.8656 29.9607C47.8656 27.2695 49.9379 24.7174 50.9601 24.8217C50.369 24.5713 49.4163 24.2167 48.1507 23.9246C47.1076 24.2376 46.2801 26.4281 45.0005 28.3126C44.0965 29.6408 43.0186 30.4058 41.7599 31.9078C40.1257 33.855 39.4512 35.3014 38.9853 35.3014C38.4359 35.3014 37.2815 32.5268 37.7475 29.2097C38.0048 27.3738 38.7141 24.5435 40.4178 23.6047C38.568 23.8829 37.1842 24.3836 36.3636 24.7452C34.5903 25.5101 35.703 27.9649 35.9116 28.8898C36.0924 29.4461 35.3761 30.371 34.6042 30.7465C31.5653 32.2486 31.92 36.6922 35.1467 37.6936C35.251 38.2221 35.3901 38.7645 35.543 39.3417C36.8991 44.5016 36.1272 45.2179 34.7086 49.2025C34.3748 49.9744 34.1105 50.8437 33.9297 51.8103C33.575 53.3888 33.4151 54.3972 33.3386 54.7796C32.7545 58.0967 32.3303 61.9006 32.0243 65.2246C31.621 69.6821 31.3706 74.0701 31.2176 77.4567C31.1829 77.4706 31.009 83.319 31.009 83.3607C30.9951 83.9379 30.0007 83.7501 51.8294 83.7501C52.038 83.7501 52.2049 83.5832 52.2119 83.3746C52.2883 80.5443 52.3231 77.9991 52.3231 77.9991C52.3231 77.9644 52.4135 70.1133 52.3927 70.0924C52.3996 66.5876 52.337 57.5195 52.337 57.5195Z" fill="#CC516A"/>
<path d="M38.999 24.2862C38.7278 24.6826 38.4496 25.1346 38.1854 25.6909C37.629 26.8662 36.9545 27.7563 36.572 28.2083C36.4608 28.3404 36.5651 28.5351 36.732 28.5212C37.2952 28.4725 37.8655 28.3682 38.2549 28.2848C38.4357 28.2431 38.5609 28.4586 38.4357 28.5977C38.2132 28.855 37.9211 29.154 37.7681 29.307C37.7055 29.3696 37.6986 29.467 37.7473 29.5435C38.992 31.5671 38.6721 32.2833 38.6721 32.2833C39.8404 30.1902 39.5344 27.3043 39.6179 26.289C39.7431 24.8564 40.209 24.0706 40.7862 23.5491V23.5352C40.7236 23.1736 40.2994 23.0067 40.0073 23.2222C39.6248 23.5282 39.2841 23.8829 38.999 24.2862Z" fill="#F5F7F7"/>
<path d="M46.9961 25.7883C47.0378 24.9816 47.3507 24.1541 47.4203 23.7647C47.4342 23.6464 47.4064 23.5352 47.3299 23.3961C47.2256 23.2083 47.003 23.1249 46.7944 23.1875C43.9711 24.0498 43.992 28.9176 38.6721 32.2833C40.4941 31.7062 41.4468 30.8786 42.629 30.1554C43.3244 29.7312 44.1519 29.4252 44.5274 29.3001C44.6317 29.2653 44.6874 29.1471 44.6387 29.0428C44.5274 28.7924 44.4301 28.556 44.3883 28.3404C44.3605 28.2083 44.4926 28.0901 44.6248 28.1248C45.6609 28.3821 46.6623 28.41 47.1491 28.403C47.2882 28.403 47.3716 28.257 47.316 28.1318C47.0448 27.5337 46.9544 26.6367 46.9961 25.7883Z" fill="#F5F7F7"/>
<path d="M50.6813 9.3073C50.6813 4.93321 46.7592 1.38666 41.9123 1.38666C41.1891 1.38666 40.4728 1.47011 39.7774 1.63005C37.6495 2.12378 35.7649 3.35465 34.5549 5.02362C33.936 5.87896 33.5535 6.80385 33.3032 7.79132C32.9903 9.03609 33.0668 10.2878 33.0668 11.5743C33.0668 12.7565 32.9555 13.9874 33.0876 15.1626C33.3101 17.214 34.4645 19.2237 36.3073 20.4337C38.3866 21.8037 41.0987 21.1778 43.2266 20.246C45.3128 19.335 47.2391 17.7843 48.5047 16.0458C49.9094 14.1195 50.6396 11.8177 50.6813 9.51592C50.6813 9.44638 50.6813 9.37684 50.6813 9.3073Z" fill="#FFC0B5"/>
<path d="M40.5914 16.5951C40.5845 16.602 40.049 17.2765 38.6304 17.2765C37.2257 17.2765 36.6972 16.6298 36.6694 16.5951C36.5442 16.4282 36.3077 16.3934 36.1408 16.5186C35.974 16.6437 35.9322 16.8802 36.0574 17.054C36.0852 17.0957 36.8084 18.0415 38.6304 18.0415C40.4523 18.0415 41.1756 17.0957 41.2034 17.054C41.3286 16.8871 41.2938 16.6437 41.1199 16.5186C40.953 16.3864 40.7166 16.4212 40.5914 16.5951Z" fill="#DF2B46"/>
<path d="M43.686 10.7468C42.9141 9.77321 41.4607 10.0514 41.4051 10.0583C41.2729 10.0861 41.1825 10.2183 41.2104 10.3504C41.2382 10.4825 41.3634 10.566 41.5024 10.5451C41.5163 10.5451 42.7124 10.3156 43.2966 11.0527C43.3453 11.1153 43.4148 11.1501 43.4913 11.1501C43.5469 11.1501 43.6025 11.1292 43.6443 11.0945C43.7555 11.0041 43.7694 10.8511 43.686 10.7468Z" fill="#41284A"/>
<path d="M35.7653 10.5451C35.8974 10.5729 36.0295 10.4825 36.0574 10.3504C36.0852 10.2182 35.9948 10.0861 35.8626 10.0583C35.8001 10.0444 34.3536 9.76623 33.5817 10.7468C33.4983 10.8511 33.5122 11.011 33.6234 11.0945C33.6721 11.1292 33.7208 11.1501 33.7764 11.1501C33.8529 11.1501 33.9225 11.1153 33.9711 11.0527C34.5553 10.3156 35.7583 10.5451 35.7653 10.5451Z" fill="#41284A"/>
<path d="M34.6945 12.826C34.6945 12.6104 34.8892 12.4366 35.1326 12.4366C35.376 12.4366 35.5707 12.6104 35.5707 12.826C35.5707 12.972 35.6889 13.0972 35.8419 13.0972C35.988 13.0972 36.1131 12.979 36.1131 12.826C36.1131 12.3184 35.675 11.9011 35.1326 11.9011C34.5902 11.9011 34.1521 12.3184 34.1521 12.826C34.1521 12.972 34.2703 13.0972 34.4233 13.0972C34.5693 13.0972 34.6945 12.972 34.6945 12.826Z" fill="#532442"/>
<path d="M41.9683 11.9011C41.4259 11.9011 40.9878 12.3184 40.9878 12.826C40.9878 12.972 41.106 13.0972 41.259 13.0972C41.405 13.0972 41.5302 12.979 41.5302 12.826C41.5302 12.6104 41.7249 12.4366 41.9683 12.4366C42.2117 12.4366 42.4064 12.6104 42.4064 12.826C42.4064 12.972 42.5246 13.0972 42.6776 13.0972C42.8237 13.0972 42.9488 12.979 42.9488 12.826C42.9419 12.3114 42.5038 11.9011 41.9683 11.9011Z" fill="#532442"/>
<path d="M46.3843 2.4923C46.3843 2.4923 43.1715 -0.671782 37.6917 1.64391C33.7627 3.30592 33.0256 7.228 33.0256 7.228C31.4609 8.6953 31.3566 10.6077 31.6278 11.8316C31.6973 11.4978 31.8156 11.157 31.9755 10.8093C33.4219 7.70782 37.2884 7.99989 39.2425 7.50616C42.9559 6.56736 44.3467 5.55903 44.7987 5.14179C44.917 5.01661 44.9795 4.94012 44.9795 4.94012C44.5206 6.69254 44.764 10.7954 47.0032 11.7133C47.4343 11.8872 48.9016 10.9832 49.0755 10.8163C49.0755 10.8163 50.1255 13.3754 48.8321 15.5867C49.7917 15.246 55.4314 6.39351 46.3843 2.4923Z" fill="#8F584E"/>
<path d="M44.7986 5.13483C44.3535 5.55208 42.9557 6.56041 39.2423 7.4992C37.2882 7.99294 33.4287 7.70087 31.9753 10.8024C31.8154 11.1501 31.6972 11.4908 31.6276 11.8246C30.974 14.8148 33.6026 17.1375 33.6026 17.1375C32.6777 14.8774 33.6791 12.52 34.7917 11.2683C37.1769 8.57708 43.8945 7.99294 44.9794 4.93317C44.9794 4.94012 44.9307 5.00966 44.7986 5.13483Z" fill="#AE7663"/>
<path d="M43.0874 50.7117L60.4168 52.624L60.6394 50.5726C60.6533 50.4474 60.5629 50.3431 60.4447 50.3292L43.5603 48.4655C43.4351 48.4516 43.3308 48.542 43.3169 48.6602L43.0874 50.7117Z" fill="#9DABB1"/>
<path d="M57.1138 62.8882L58.6784 63.062C58.9983 63.0968 59.2904 62.8673 59.3252 62.5405L59.499 60.9758L57.1138 62.8882Z" fill="#9DABB1"/>
<path d="M44.0818 61.4487L57.1136 62.8882L59.4989 60.9758L60.4168 52.624L43.0874 50.7117L42.1694 59.0635L44.0818 61.4487Z" fill="#E7EBEC"/>
<path d="M42.5171 61.2749L44.0818 61.4487L42.1694 59.0635L41.9956 60.6281C41.9608 60.955 42.1972 61.2401 42.5171 61.2749Z" fill="#9DABB1"/>
<path d="M50.0416 58.9661C50.1181 58.973 50.1876 58.9174 50.2015 58.8409L50.7578 53.7644C50.7648 53.688 50.7092 53.6115 50.6327 53.6045L47.2947 53.2359C47.2113 53.229 47.1417 53.2846 47.1348 53.3611L46.5785 58.4376C46.5715 58.5141 46.6271 58.5836 46.7036 58.5975L50.0416 58.9661Z" fill="#F5F7F7"/>
<path d="M44.1933 53.2429L61.6271 53.1038L61.6132 51.0454C61.6132 50.9202 61.5089 50.8229 61.3907 50.8229L44.402 50.962C44.2768 50.962 44.1794 51.0663 44.1794 51.1845L44.1933 53.2429Z" fill="#3A5862"/>
<path d="M59.5474 63.6877L61.119 63.6738C61.4458 63.6738 61.7031 63.4096 61.7031 63.0827L61.6892 61.5111L59.5474 63.6877Z" fill="#3A5862"/>
<path d="M46.439 63.7921L59.5474 63.6878L61.6962 61.5042L61.6266 53.1038L44.1929 53.2428L44.2624 61.6503L46.439 63.7921Z" fill="#6B8289"/>
<path d="M44.8676 63.806L46.4392 63.7921L44.2556 61.6503L44.2695 63.2219C44.2765 63.5418 44.5407 63.806 44.8676 63.806Z" fill="#3A5862"/>
<path d="M52.0719 60.6211C52.1484 60.6211 52.2179 60.5585 52.2109 60.475L52.1692 55.3708C52.1692 55.2943 52.0997 55.2247 52.0232 55.2317L48.6713 55.2595C48.5879 55.2595 48.5253 55.329 48.5323 55.4055L48.574 60.5098C48.574 60.5932 48.6366 60.6558 48.72 60.6489L52.0719 60.6211Z" fill="#F5F7F7"/>
<path d="M7.58808 47.0329C7.60199 47.0398 7.62285 47.0398 7.63676 47.0259C7.65066 47.012 7.64371 46.9912 7.63676 46.9773L7.39337 46.7061L7.27515 46.8521L7.58808 47.0329Z" fill="#662835"/>
<path d="M3.65195 44.3903C3.86057 44.5503 4.07614 44.7102 4.27781 44.8702C4.48643 45.0231 4.6881 45.1831 4.89672 45.3222C5.09838 45.4682 5.2931 45.6073 5.48086 45.7394C5.66861 45.8715 5.84247 45.9967 6.00936 46.108C6.3362 46.3305 6.61436 46.5183 6.80908 46.6434C6.89252 46.6991 6.96206 46.7408 7.01074 46.7686L7.25413 46.4626C7.21241 46.4209 7.15678 46.3653 7.08724 46.2888C6.92034 46.1219 6.6839 45.8924 6.39183 45.6212C6.2458 45.4891 6.08586 45.3361 5.91896 45.1831C5.75206 45.0301 5.57126 44.8702 5.3835 44.7033C5.20269 44.5364 5.00798 44.3695 4.80631 44.2026C4.60465 44.0357 4.40994 43.8618 4.20827 43.688C3.97879 43.5002 3.75626 43.3055 3.53373 43.1247L2.95654 43.8479C3.17907 44.0287 3.41551 44.2095 3.65195 44.3903Z" fill="#FF6584"/>
<path d="M2.94967 43.8479L3.52686 43.1247C3.43646 43.0482 3.34605 42.9787 3.26261 42.9022L2.67847 43.6323C2.76887 43.7088 2.85927 43.7784 2.94967 43.8479Z" fill="#FFE0E6"/>
<path d="M0.786696 41.1917C0.696294 41.143 0.585029 41.1569 0.501581 41.2195C0.390316 41.3099 0.376408 41.4768 0.466811 41.5811C0.466811 41.5811 0.480719 41.602 0.515489 41.6437L0.849282 41.2265C0.814512 41.2056 0.786696 41.1917 0.786696 41.1917Z" fill="#FFE0E6"/>
<path d="M3.33896 42.4085C3.31115 42.4502 3.25551 42.4641 3.21379 42.4641C3.14425 42.4572 3.08166 42.4294 3.03299 42.3807L1.67695 41.2263C1.53092 41.1011 1.32229 41.0803 1.14844 41.1707L0.946777 41.2819L0.870283 41.3237C0.828558 41.3445 0.81465 41.4002 0.835512 41.4419C0.856375 41.4836 0.912007 41.4975 0.953731 41.4767L1.12063 41.3863L1.23189 41.3237C1.34316 41.268 1.47528 41.2819 1.56569 41.3584L2.91477 42.5128C2.99126 42.5754 3.08862 42.6171 3.18597 42.631C3.29029 42.6449 3.40155 42.6032 3.47109 42.5198C3.49891 42.485 3.49195 42.4294 3.45718 42.4015C3.42241 42.3668 3.36678 42.3737 3.33896 42.4085Z" fill="#FFE0E6"/>
<path d="M0.8288 41.4352C0.807938 41.3935 0.821846 41.3448 0.863571 41.317L0.940065 41.2752C0.905295 41.2544 0.877479 41.2405 0.849663 41.2266L0.515869 41.6438C0.557593 41.6925 0.62018 41.762 0.710582 41.8594C0.870525 42.0332 1.10696 42.2627 1.39903 42.5409C1.54507 42.673 1.70501 42.826 1.87886 42.972C2.05271 43.1181 2.23351 43.278 2.42127 43.4379C2.50472 43.5075 2.58817 43.577 2.67162 43.6466L3.25576 42.9164C3.17231 42.8469 3.08191 42.7773 2.99846 42.7147C2.80374 42.5617 2.60903 42.4157 2.42823 42.2836C2.24742 42.1445 2.06662 42.0263 1.90667 41.9081C1.57984 41.6855 1.30167 41.5047 1.10696 41.3865L0.940065 41.4769C0.905295 41.4908 0.856617 41.4769 0.8288 41.4352Z" fill="#FF6584"/>
<path d="M7.27499 46.8591L7.39321 46.7131C7.40017 46.6574 7.38626 46.6018 7.34454 46.5601C7.34454 46.5601 7.31672 46.5253 7.25413 46.4697L7.01074 46.7756C7.08028 46.8174 7.11505 46.8452 7.11505 46.8452C7.16373 46.873 7.21936 46.88 7.27499 46.8591Z" fill="#FFA3B5"/>
<path d="M50.6889 25.2737C51.3634 25.2528 51.9893 25.6909 52.1909 26.3654L55.0282 35.9481C56.4259 40.6699 57.2048 45.5655 57.33 50.489L57.5942 60.475C57.6151 61.3164 56.9475 62.0188 56.1061 62.0396C55.2646 62.0605 54.5623 61.3929 54.5414 60.5515L54.2771 50.5655C54.152 45.9063 53.4218 41.2818 52.1005 36.8104L49.2633 27.2277C49.0269 26.4211 49.4858 25.5657 50.2925 25.3293C50.4246 25.2945 50.5567 25.2737 50.6889 25.2737Z" fill="#FFC0B5"/>
<path d="M58.7279 63.945C58.7349 64.244 58.4985 64.4943 58.1994 64.5013C58.0812 64.5082 57.9699 64.4735 57.8795 64.4109C57.8517 64.397 57.8239 64.39 57.7961 64.397C57.7683 64.4109 57.7474 64.4318 57.7405 64.4596C57.6709 64.7238 57.4414 64.9185 57.1563 64.9324C56.9894 64.9394 56.8364 64.8768 56.7182 64.7725C56.6904 64.7516 56.6626 64.7447 56.6278 64.7516C56.6 64.7586 56.5722 64.7864 56.5652 64.8212C56.4887 65.1272 56.2106 65.3497 55.8907 65.3636C55.5917 65.3705 55.2926 65.1967 55.1883 64.8768C55.1744 64.842 55.1536 64.8212 55.1188 64.8142C55.084 64.8073 55.0493 64.8212 55.0284 64.849C54.9171 64.9811 54.7572 65.0646 54.5694 65.0715C54.2148 65.0854 53.9297 64.8142 53.9157 64.4665C53.9157 64.4665 53.881 63.8407 53.8671 63.5903C53.8601 63.5347 53.8184 63.493 53.7628 63.4999C53.0534 63.5208 52.8309 62.6098 53.0395 61.5389C53.2829 60.2802 54.4025 58.0688 55.995 58.0966C57.3232 58.1175 58.5541 59.3484 58.6514 61.1355C58.6653 61.4485 58.6445 60.8713 58.7279 63.945Z" fill="#FFC0B5"/>
<path d="M54.3466 32.2903L52.6081 26.2612C52.3647 25.4337 51.5928 24.8704 50.7305 24.8912C50.5636 24.8982 50.3967 24.9191 50.2367 24.9677C49.2284 25.2668 48.6512 26.3307 48.9502 27.3391L50.6887 33.3682" fill="#E7EBEC"/>
<path d="M54.1243 57.6238L57.942 57.5265L57.9629 58.2914C57.9698 58.5001 57.8029 58.6809 57.5943 58.6809L54.5415 58.7643C54.3329 58.7713 54.1521 58.6044 54.1521 58.3957L54.1243 57.6238Z" fill="#D9C868"/>
<path d="M48.6026 10.4407C48.0116 10.3433 47.497 10.7189 47.4552 11.4004C47.3996 12.2487 47.9351 12.2696 47.8864 13.0345C47.8586 13.5074 47.6847 13.6882 47.6499 14.1541C47.6221 14.5714 47.7612 15.0582 48.1576 15.1208C48.8043 15.2251 49.5345 14.0846 49.6944 13.0137C49.8474 11.915 49.611 10.6076 48.6026 10.4407Z" fill="#FFC0B5"/>
<path d="M4.20794 43.6949C4.20794 43.6949 4.06886 44.7589 5.28581 44.6268C6.50277 44.4947 4.20794 43.6949 4.20794 43.6949Z" fill="#FFC0B5"/>
</svg>
