
<svg width="62" height="134" viewBox="0 0 62 134" fill="none" xmlns="http://www.w3.org/2000/svg">
<path d="M52.6358 82.8399C52.9269 83.1907 53.4419 83.243 53.7928 82.9593C53.9346 82.8473 54.0242 82.698 54.069 82.5338C54.0839 82.489 54.1138 82.4517 54.1585 82.4368C54.2033 82.4219 54.2481 82.4293 54.2854 82.4517C54.6288 82.6906 55.0916 82.6831 55.435 82.4144C55.6365 82.2502 55.756 82.0262 55.7858 81.7948C55.7933 81.7426 55.8231 81.7053 55.8679 81.6829C55.9127 81.6605 55.965 81.6679 56.0098 81.6978C56.4054 81.974 56.9428 81.959 57.3235 81.653C57.6744 81.3693 57.8461 80.8692 57.652 80.3915C57.6296 80.3467 57.637 80.287 57.6744 80.2497C57.7042 80.2123 57.7565 80.1899 57.8087 80.1974C58.07 80.2422 58.3387 80.175 58.5627 80.0033C58.9807 79.6674 59.0479 79.0703 58.7119 78.6522C58.7119 78.6522 58.1222 77.8983 57.8983 77.5923C57.8461 77.5251 57.861 77.4355 57.9207 77.3833C58.7567 76.704 58.1148 75.4275 56.8085 74.3974C55.2708 73.1807 51.7848 71.74 49.9709 73.3524C48.4631 74.696 48.254 77.3385 49.9261 79.5107C50.2247 79.8988 49.6649 79.2121 52.6358 82.8399Z" fill="#E1A781"/>
<path d="M53.4436 77.3803C54.5253 76.4128 54.6178 74.7517 53.6504 73.67C52.6829 72.5883 51.0217 72.4957 49.94 73.4632C48.8583 74.4307 48.7657 76.0918 49.7332 77.1735C50.7007 78.2552 52.3619 78.3478 53.4436 77.3803Z" fill="#E1A781"/>
<path d="M40.9313 70.2768L47.1344 76.6217C47.3135 76.8083 47.6121 76.8158 47.8062 76.6441L53.33 71.7026C53.524 71.5309 53.5464 71.2323 53.3822 71.0308L47.7614 64.1559C46.4625 62.5734 45.4772 61.3566 44.4994 60.0056C43.4767 58.6097 42.5138 57.169 41.618 55.7209C40.7297 54.2727 39.8788 52.7649 39.095 51.2421C38.3784 49.8686 37.7812 48.5399 37.087 47.0022L32.2873 36.3801C30.9063 33.3271 27.3009 31.9685 24.2479 33.3495C23.6731 33.6033 23.1581 33.9467 22.6953 34.3572C20.7097 36.1338 20.1125 38.9629 21.2098 41.3889C21.277 41.5456 21.3666 41.7098 21.4562 41.8666L27.1442 51.9438C27.9653 53.3919 28.8909 55.0416 29.8613 56.5569C30.9138 58.214 32.0409 59.8637 33.2204 61.4462C34.4072 63.0287 35.6687 64.5739 36.9527 66.0519C38.1918 67.4701 39.4831 68.8063 40.9313 70.2768Z" fill="#24425D"/>
<path d="M15.9103 27.9823C17.9108 29.4678 20.5533 30.6397 24.0467 30.3187C25.5098 30.1844 27.2714 29.6917 28.3538 28.8557C29.5481 27.9375 30.3543 26.8253 30.8395 25.6161C31.3993 25.519 31.9368 25.3548 32.422 25.0637C32.4817 25.0263 32.5339 24.989 32.5862 24.9592L32.5937 24.9666C32.728 25.0637 32.8624 25.1682 32.9818 25.2801C33.7581 26.0042 34.1687 27.109 34.0343 28.1615C33.8776 29.3857 32.9893 30.4755 31.8397 30.8861C31.0186 31.1772 30.0557 31.0801 29.3316 30.6397C29.257 30.5949 29.1674 30.5949 29.0928 30.6472C27.9805 31.4459 26.5772 31.8266 25.2112 31.6773C23.3674 31.4683 22.188 30.3262 20.3517 30.3337C20.1651 30.3337 19.9785 30.3486 19.7769 30.3785C18.7319 30.5203 17.6869 30.7965 16.6269 30.7368C15.9924 30.6994 15.3355 30.5203 14.813 30.162C15.3504 29.5275 15.7311 28.796 15.9103 27.9823Z" fill="#092E3B"/>
<path d="M0.704962 67.1564H13.6411C14.7309 67.1564 15.6118 66.2756 15.6118 65.1857V32.1325V31.61V31.5503C15.5222 31.5354 15.4326 31.5204 15.3505 31.4906L13.7307 31.0054C13.4097 30.9083 13.1186 30.7516 12.8648 30.5276L12.3423 30.0798C12.2527 29.9977 12.2154 29.8782 12.2378 29.7663C12.2452 29.7215 12.2676 29.6767 12.2975 29.6394C12.499 29.3856 12.8424 28.9451 13.2305 28.3704C13.4545 28.0345 13.8053 27.7956 14.2009 27.7135C15.1266 27.5269 16.9479 27.2208 18.8812 27.2208C22.0537 27.2208 24.1587 27.8777 25.1664 28.2808C25.5471 28.4376 25.898 28.6391 26.2339 28.8705C27.3162 29.6319 28.7644 30.6321 29.9438 31.3786C30.1304 31.498 30.2946 31.6473 30.429 31.8339L38.3116 42.7546C39.9389 45.009 40.8122 47.7186 40.8122 50.5029V65.1932C40.8122 66.283 41.693 67.1639 42.7829 67.1639H44.2534C44.5968 68.6642 44.7983 70.2841 44.7983 72.1054C44.7983 77.0171 44.1265 80.6076 43.1785 83.1829C43.0516 83.5337 42.7157 83.7651 42.3425 83.7651H25.5322C24.099 83.7651 22.6658 83.8995 21.255 84.1682L17.045 84.9669C16.6717 85.0416 16.3209 84.7803 16.2686 84.4071C15.5073 79.3759 13.3948 73.7551 12.6931 71.986C12.6185 71.7919 12.3423 71.8068 12.2825 72.0009C11.1031 75.8526 10.3044 82.1975 10.0581 84.3548C10.0133 84.7504 9.63262 85.0117 9.24446 84.9221L5.5047 84.0413C4.73584 83.8622 3.9446 83.7651 3.16081 83.7651H3.01152C2.58604 83.7651 2.22027 83.4665 2.14563 83.0485C1.73508 80.9136 0.503418 75.5391 0.503418 70.2915C0.503418 69.1868 0.578064 68.1417 0.704962 67.1564Z" fill="#563A57"/>
<path d="M28.115 31.1921C27.697 30.8637 27.2417 30.5502 26.7565 30.2441C26.2414 29.9157 25.6816 29.6694 25.0844 29.5201C23.8901 29.214 21.5835 28.7363 18.8813 28.7363C15.8731 28.7363 14.9102 29.1767 14.9102 29.1767C15.3953 29.6171 15.8731 30.0724 16.3284 30.5427C16.7017 30.9234 16.4255 31.5654 15.888 31.5654C15.7014 31.5654 15.5222 31.5355 15.3431 31.4832L13.7233 30.998C13.4023 30.901 13.1112 30.7443 12.8574 30.5203L12.3349 30.0724C12.208 29.9605 12.1856 29.7664 12.2901 29.632C12.4916 29.3782 12.835 28.9378 13.2232 28.363C13.4471 28.0271 13.7979 27.7883 14.1936 27.7062C15.1192 27.5195 16.9405 27.2135 18.8739 27.2135C21.9866 27.2135 24.0692 27.8405 25.0993 28.2511C25.5024 28.4078 25.8756 28.6243 26.2339 28.8706C26.9804 29.4006 28.6599 30.5726 29.9886 31.4086C30.0558 31.4534 30.026 31.5504 29.9438 31.5504H29.2422C28.8391 31.5654 28.436 31.4385 28.115 31.1921Z" fill="#472A48"/>
<path d="M12.5211 30.4457L12.9093 29.5574C13.1407 29.0349 13.6408 28.684 14.2156 28.6617C16.0743 28.5795 20.3291 28.4974 23.606 29.1245C26.7412 29.7291 30.4212 32.0879 33.9072 36.0815C33.9296 36.1113 33.937 36.1412 33.9445 36.1636V45.457C33.9445 46.2333 33.3175 46.8603 32.5412 46.8603H15.1487C14.3723 46.8603 13.7453 46.2333 13.7453 45.457V33.8122H13.7528C13.7155 32.8344 13.8498 31.6997 12.6406 30.8786C12.4987 30.7891 12.4539 30.6024 12.5211 30.4457Z" fill="#E0DEE7"/>
<path d="M27.9581 32.4983C27.5551 32.4983 27.1744 32.3341 26.8982 32.043C25.353 30.4456 23.2853 29.8111 19.7247 29.8111C17.7466 29.8111 14.925 29.8111 14.925 29.8111C14.925 29.8111 15.858 29.923 17.2539 31.5876C17.5525 31.9459 17.3062 32.4983 16.8359 32.4983H13.6784C13.5813 31.9161 13.3275 31.3488 12.6408 30.886C12.499 30.7889 12.4542 30.6023 12.5214 30.4456L12.9095 29.5647C13.1409 29.0422 13.6411 28.6914 14.2158 28.669C16.0745 28.5869 20.3293 28.5048 23.6063 29.1318C24.3602 29.2736 25.1515 29.5274 25.9651 29.8708C27.3386 30.4605 28.7643 31.3413 30.205 32.4983H27.9581Z" fill="#F4F3F6"/>
<path d="M35.1617 80.8941C37.9427 78.1131 37.9427 73.6042 35.1617 70.8232C32.3807 68.0422 27.8718 68.0422 25.0908 70.8232C22.3099 73.6042 22.3099 78.1131 25.0908 80.8941C27.8718 83.675 32.3807 83.675 35.1617 80.8941Z" fill="#E1A781"/>
<path d="M32.6832 130.038C34.6496 130.038 36.2438 128.444 36.2438 126.478C36.2438 124.511 34.6496 122.917 32.6832 122.917C30.7167 122.917 29.1226 124.511 29.1226 126.478C29.1226 128.444 30.7167 130.038 32.6832 130.038Z" fill="#E1A781"/>
<path d="M18.0097 78.6248C19.5345 74.9994 17.8316 70.8244 14.2063 69.2996C10.5809 67.7748 6.40582 69.4776 4.88102 73.103C3.35621 76.7284 5.05908 80.9035 8.68446 82.4283C12.3098 83.9531 16.4849 82.2502 18.0097 78.6248Z" fill="#E1A781"/>
<path d="M7.46784 130.038C9.43431 130.038 11.0284 128.444 11.0284 126.478C11.0284 124.511 9.43431 122.917 7.46784 122.917C5.50137 122.917 3.90723 124.511 3.90723 126.478C3.90723 128.444 5.50137 130.038 7.46784 130.038Z" fill="#E1A781"/>
<path d="M32.7923 40.8041C34.4189 39.1775 34.4189 36.5402 32.7923 34.9136C31.1657 33.287 28.5284 33.287 26.9018 34.9136C25.2752 36.5402 25.2752 39.1775 26.9018 40.8041C28.5284 42.4307 31.1657 42.4307 32.7923 40.8041Z" fill="#E1A781"/>
<path d="M9.73489 41.9685C12.0047 41.5945 13.5415 39.4512 13.1675 37.1814C12.7934 34.9116 10.6502 33.3748 8.38035 33.7488C6.11055 34.1229 4.57373 36.2661 4.94778 38.5359C5.32182 40.8057 7.46508 42.3426 9.73489 41.9685Z" fill="#E1A781"/>
<path d="M13.6185 130.456C13.6185 129.411 12.8944 129.083 12.4391 128.65C11.7598 128 11.4911 127.023 11.2895 126.47C10.9611 125.552 10.2669 122.962 7.46017 122.962C4.65348 122.962 4.01899 125.283 3.72041 126.657C3.41436 128.06 2.41411 132.009 4.76545 132.009C4.92221 132.009 12.1405 132.009 12.1106 132.009C12.9466 132.009 13.6185 131.315 13.6185 130.456Z" fill="#E1A781"/>
<path d="M32.6535 122.962C29.9215 122.962 28.7421 125.231 28.2867 126.657C27.809 128.165 26.4878 132.001 29.399 132.001C32.3101 132.001 43.9474 132.001 43.9474 132.001C43.9474 132.001 44.9178 131.89 44.9178 130.509C44.9178 129.128 43.3279 128.978 42.5292 128.732C41.7305 128.493 39.8718 127.859 37.8787 126.194C35.8931 124.537 34.6913 122.962 32.6535 122.962Z" fill="#E1A781"/>
<path d="M18.5377 75.3601C18.8363 79.6448 18.9482 83.8996 19.0229 88.1992C19.0826 91.9539 19.1871 94.6039 18.463 98.9333C17.5673 104.293 12.2301 122.932 10.879 127.485C10.3192 129.366 8.34105 130.441 6.45251 129.889C4.83269 129.411 3.81004 127.874 3.91455 126.246C5.06409 108.324 6.20618 101.733 6.28082 97.6718C6.34054 94.6785 6.03449 92.8571 5.57915 89.1099C5.07156 84.8402 4.62368 80.6077 4.34003 76.3231C4.07877 72.4042 7.04968 69.0078 10.9761 68.754C14.8875 68.5002 18.2764 71.4412 18.5377 75.3601Z" fill="#E1A781"/>
<path d="M37.1022 74.4644C37.9457 78.6744 38.6101 82.877 39.2371 87.1318C39.7745 90.8492 40.2149 93.4692 40.0507 97.8509C39.8417 103.278 36.9231 122.357 36.1617 127.045C35.8482 128.986 34.0193 130.307 32.0785 129.986C30.4065 129.717 29.1972 128.321 29.0927 126.702C27.9506 108.779 28.2492 102.188 27.8013 98.157C27.4803 95.1786 26.9429 93.417 26.0173 89.7519C24.9722 85.5791 23.9645 81.4438 23.136 77.2263C22.382 73.3671 24.8976 69.6273 28.7493 68.8734C32.616 68.1269 36.3483 70.6052 37.1022 74.4644Z" fill="#E1A781"/>
<path d="M7.46784 50.8763C7.46784 45.0614 4.36257 42.2995 4.36257 38.7016C4.36257 34.9469 10.1103 30.2516 18.6647 30.2516C22.4269 30.2516 30.4065 31.8341 33.1684 35.35C33.2281 35.4246 33.2879 35.5067 33.3401 35.5963C35.0122 38.0447 35.7661 41.7994 38.64 43.9342C40.1553 44.8972 41.1555 46.5842 41.1555 48.51C41.1555 51.1525 39.7223 52.7873 36.9082 54.2055C37.8039 55.8701 40.0284 60.528 40.8644 64.2006C41.484 66.9252 41.7229 70.0155 41.0585 73.2776C39.8418 79.2567 34.4449 83.0487 30.205 83.0487C24.3826 83.0487 14.4622 83.0487 11.4166 83.0487C8.38598 83.0487 1.81714 80.3316 1.81714 70.2992C1.83207 61.7672 7.46784 57.5347 7.46784 50.8763Z" fill="#E1A781"/>
<path d="M17.627 51.6302C23.0613 51.6302 23.0314 49.5028 28.6672 49.5028C33.0116 49.5028 36.2736 51.6302 38.7742 51.6302C40.2149 51.6302 40.7076 50.7494 40.8046 50.5628C40.2224 52.0781 38.9161 53.1978 36.9081 54.2055C36.1392 52.8171 32.9892 50.6673 28.6448 50.6673C24.3004 50.6673 21.2101 54.2055 17.6196 54.2055C14.0291 54.2055 10.4685 51.7571 10.4685 47.3381C10.476 47.3381 12.1928 51.6302 17.627 51.6302Z" fill="#F48989"/>
<path d="M19.7918 39.0672C22.5462 39.015 24.7483 36.7458 24.6961 33.9839L24.4497 20.4058C24.3975 17.6513 22.1282 15.4493 19.3663 15.5015C16.6119 15.5538 14.4098 17.823 14.4621 20.5849L14.701 34.1555C14.7607 36.9174 17.0299 39.112 19.7918 39.0672Z" fill="#E1A781"/>
<path d="M14.6114 28.8258L14.4621 20.5849C14.4098 17.8305 16.6119 15.5538 19.3663 15.5015C22.1208 15.4493 24.3975 17.6513 24.4497 20.4058L24.6513 31.7146C24.4572 31.7445 24.293 31.7594 24.181 31.7669C19.971 32.155 16.8657 30.6173 14.6114 28.8258Z" fill="#C68D66"/>
<path d="M3.06335 63.1257H40.767C40.9462 63.1257 41.1029 63.2302 41.1701 63.3869C41.5807 64.3125 42.8944 67.5671 42.9989 70.9859C43.1855 77.2636 41.4911 86.1913 41.1552 89.5653C40.7297 93.8723 40.3415 100.038 40.2445 101.68C40.2296 101.912 40.0355 102.098 39.8041 102.098H4.92203C4.6757 102.098 4.48162 101.897 4.48162 101.658V93.9544C4.48162 80.0479 -1.31837 74.4719 2.63787 63.4317C2.70505 63.2451 2.87673 63.1257 3.06335 63.1257Z" fill="#092E3B"/>
<path d="M6.48212 50.8763C6.48212 47.7113 6.07156 45.4644 5.22806 43.4714C4.55625 41.8814 3.9143 40.3736 3.9143 38.7015C3.9143 35.3201 7.99743 31.6251 13.9915 30.3038C15.0515 30.0724 16.1562 30.386 16.8952 31.1772C17.3954 31.7147 17.9776 32.4611 18.6046 33.4987C21.2919 37.9476 28.0025 42.5309 29.7119 45.233C29.8164 45.3973 30.0702 45.345 30.1076 45.1584C30.4659 43.1728 30.7122 39.0225 29.1372 35.5962C28.2862 33.745 27.4427 32.4089 26.3006 31.4907C26.0991 31.3265 26.2633 31.0055 26.5171 31.0802C29.3536 31.9311 32.0782 33.2374 33.5189 35.0737C33.5861 35.1633 33.6532 35.2529 33.713 35.3424C34.3101 36.2233 34.7804 37.231 35.2805 38.2984C36.1837 40.2392 37.1243 42.2472 38.8859 43.5535C40.5878 44.6359 41.6105 46.4871 41.6105 48.5025C41.6105 49.8088 41.2895 50.9136 40.5953 51.884C39.1099 53.9666 38.8561 56.6763 40.0355 58.938C40.7745 60.3414 41.5806 62.0284 42.4017 64.0737C43.3497 66.4325 43.6782 69.7468 43.708 72.9715C43.7155 73.4417 43.5588 73.9045 43.2751 74.2852C41.7075 76.4126 39.4607 77.8011 37.8483 78.5848C36.8854 79.0551 35.7508 78.4281 35.6537 77.3606L34.9745 70.2917C34.9297 69.8363 34.3101 69.7393 34.131 70.1573L31.063 77.2412C30.5106 78.5177 29.055 79.1223 27.7562 78.6296C19.4332 75.487 8.16911 69.9782 1.68238 68.8137C1.21958 68.7316 0.906065 68.2986 0.958317 67.8358C1.81674 60.2294 6.48212 56.7882 6.48212 50.8763Z" fill="#DEEDFB"/>
<path d="M29.645 47.1068C29.7047 47.6144 30.078 48.0324 30.4885 48.0324C30.8991 48.0324 31.1827 47.6219 31.123 47.1068C31.0633 46.5992 30.6901 46.1812 30.2795 46.1812C29.8689 46.1812 29.5928 46.5918 29.645 47.1068Z" fill="#5AA5E9"/>
<path d="M31.4139 58.1768C31.5184 58.6844 31.9365 59.1024 32.3395 59.1024C32.7501 59.1024 32.9964 58.6918 32.8919 58.1768C32.7874 57.6617 32.3694 57.2512 31.9663 57.2512C31.5632 57.2512 31.3094 57.6617 31.4139 58.1768Z" fill="#5AA5E9"/>
<path d="M33.9221 69.2468C33.9221 69.7544 34.2506 70.1724 34.6611 70.1724C35.0717 70.1724 35.4001 69.7619 35.4001 69.2468C35.4001 68.7318 35.0717 68.3212 34.6611 68.3212C34.2506 68.3212 33.9221 68.7392 33.9221 69.2468Z" fill="#5AA5E9"/>
<path d="M12.5209 30.4457C12.7897 29.8336 13.5436 29.4678 14.193 29.6246C14.6483 29.7365 14.9245 29.8112 14.9245 29.8112C14.9245 29.8112 16.4921 30.0053 18.6046 33.5062C21.1276 37.6863 27.2113 41.9859 29.3536 44.7329C24.5389 40.7319 21.6427 39.5898 19.8959 38.4253C19.5003 38.1566 19.1644 37.8132 18.9106 37.4027L18.3209 36.4472C18.1642 36.186 17.8432 36.0665 17.5521 36.1486L15.4396 36.7458C14.9171 36.8951 14.3722 36.604 14.2079 36.0889C14.0661 35.641 13.9093 35.0364 13.7899 34.2974C13.6182 33.2374 14.0512 31.8341 12.6329 30.8712C12.4985 30.7816 12.4388 30.6099 12.506 30.4681L12.5209 30.4457Z" fill="#F4F3F6"/>
<path d="M26.181 30.6323C26.3751 30.3337 26.7632 30.2367 27.0767 30.4009C29.3012 31.5803 31.6451 33.4913 33.9068 36.0815C33.9964 36.1785 33.8994 36.3427 33.7725 36.3129L32.8842 36.1113C32.7871 36.0889 32.7125 36.1934 32.7648 36.2755L33.3619 37.231C33.5485 37.5296 33.6008 37.8804 33.5261 38.2238C33.2425 39.448 32.3617 42.4562 30.2044 44.509C30.4881 42.3592 30.5403 38.6941 29.1295 35.6112C28.286 33.7674 27.4425 32.4387 26.3153 31.5206C26.0616 31.2967 25.9944 30.9234 26.181 30.6323Z" fill="#F4F3F6"/>
<path d="M41.0511 83.7654C40.2374 83.7206 39.2596 83.6161 38.3638 83.3847C37.5875 83.1757 37.1322 82.377 37.371 81.6156C38.013 79.5181 39.2073 75.0468 39.3492 70.6203C39.5134 65.4324 38.125 56.0494 37.7219 53.4219C37.6547 52.9964 37.6472 52.5709 37.7069 52.1454C37.9159 50.6525 38.1847 46.4798 35.7288 42.1429C32.8176 36.9998 31.4665 33.2152 26.7415 30.2294C30.0259 31.2147 33.1088 32.7599 34.4375 34.85C36.1692 37.3879 36.9008 40.956 39.4014 42.8445C41.3347 44.0911 42.4917 46.2111 42.4917 48.5102C42.4917 49.3984 42.3499 50.1748 42.1111 50.8615C40.7973 54.6013 40.9242 58.7217 42.5664 62.3346C43.8802 65.2159 44.7834 68.2018 44.7834 72.1057C44.7834 77.0174 44.1116 80.6079 43.1636 83.1832C43.0367 83.534 42.7008 83.7654 42.3275 83.7654H41.0511Z" fill="#36638C"/>
<path d="M5.13146 50.8763C5.13146 45.3301 3.04138 42.7324 3.04138 38.7015C3.04138 34.9319 7.31113 30.8114 13.88 29.4156C14.5592 29.2737 15.2684 29.4753 15.7685 29.9679C18.1646 32.3118 20.0905 35.0439 20.9415 36.8354C23.0614 41.2917 22.2478 45.1808 25.9577 52.4961C26.1816 52.944 26.3309 53.4292 26.3981 53.9293C26.846 57.1764 28.4882 69.8438 28.7644 81.6155C28.7793 82.3395 28.2493 82.9516 27.5252 83.0412C25.2933 83.3174 19.2172 83.7503 3.01152 83.7653C2.58604 83.7653 2.22027 83.4667 2.13816 83.0487C1.73508 80.9213 0.503418 75.5393 0.503418 70.2991C0.503418 61.4461 5.13146 57.0719 5.13146 50.8763Z" fill="#36638C"/>
<path d="M25.2709 55.5639C25.7986 55.5639 26.2264 55.1362 26.2264 54.6085C26.2264 54.0808 25.7986 53.653 25.2709 53.653C24.7432 53.653 24.3154 54.0808 24.3154 54.6085C24.3154 55.1362 24.7432 55.5639 25.2709 55.5639Z" fill="#12212F"/>
<path d="M27.4207 64.3946C27.4207 64.9245 26.9952 65.35 26.4652 65.35C25.9352 65.35 25.5098 64.9245 25.5098 64.3946C25.5098 63.8646 25.9352 63.4391 26.4652 63.4391C26.9952 63.4391 27.4207 63.8646 27.4207 64.3946Z" fill="#12212F"/>
<path d="M27.182 75.1362C27.7097 75.1362 28.1375 74.7084 28.1375 74.1807C28.1375 73.653 27.7097 73.2252 27.182 73.2252C26.6543 73.2252 26.2266 73.653 26.2266 74.1807C26.2266 74.7084 26.6543 75.1362 27.182 75.1362Z" fill="#12212F"/>
<path d="M26.3828 29.617C26.4798 29.3633 26.7859 29.2737 27.0098 29.423C27.9951 30.1097 29.3985 31.0652 30.451 31.6997C30.563 31.7669 30.6003 31.9087 30.5406 32.0206L30.5107 32.0878C30.4883 32.1326 30.5032 32.1849 30.548 32.2073L32.7128 33.3195C33.0935 33.521 33.4219 33.8122 33.6533 34.1854C34.3027 35.223 35.6762 37.5668 36.572 40.1123C37.2438 42.0381 38.5277 43.3818 38.8934 45.442C39.5279 48.9653 38.4082 50.3985 37.6692 52.5334C37.6767 52.4065 37.6842 52.2721 37.7066 52.1452C37.9156 50.6523 38.1843 46.4796 35.7285 42.1426C32.8173 37.007 31.4662 33.2224 26.7635 30.2441C26.6963 30.1993 26.6291 30.162 26.5694 30.1246C26.3903 30.0201 26.3156 29.8037 26.3828 29.617Z" fill="#24425D"/>
<path d="M13.2302 28.3705C13.2302 28.3631 13.2302 28.3631 13.2302 28.3705C13.3721 28.154 13.6706 28.1167 13.8647 28.2809C14.1782 28.5422 14.5216 28.8333 14.9098 29.1767C17.6941 31.6699 19.9782 34.8423 20.9337 36.8354C23.0536 41.2917 22.24 45.1808 25.9499 52.4961C26.032 52.6603 26.1067 52.832 26.1664 53.0111C23.4194 49.8835 20.874 44.091 19.6199 40.926C18.6794 38.5522 15.9473 35.4843 14.5963 34.0511C14.1708 33.6032 14.1932 32.8941 14.641 32.4686C14.8874 32.2372 15.1412 31.9983 15.3278 31.8266C15.4547 31.7072 15.4024 31.5056 15.2382 31.4534L13.7229 30.9981C13.4019 30.901 13.1108 30.7443 12.857 30.5203L12.3345 30.0724C12.2076 29.9605 12.1852 29.7664 12.2972 29.632C12.5062 29.3857 12.8495 28.9378 13.2302 28.3705Z" fill="#24425D"/>
<path d="M3.66096 126.702C4.10883 127.754 4.66121 128.232 5.13148 128.418C5.3181 128.493 5.49725 128.299 5.41514 128.112C5.14641 127.538 4.98965 127.045 4.90754 126.724C4.8329 126.433 4.90008 126.134 5.10162 125.91C5.60921 125.336 6.70651 124.656 8.14718 124.656C9.3639 124.656 10.3119 124.985 10.9315 125.358C11.3047 125.582 11.5734 125.925 11.7153 126.336C11.984 127.127 12.2228 127.844 12.7454 128.336C12.8275 128.411 12.9171 128.486 13.0141 128.56C13.5366 128.986 14.0965 129.493 14.0591 130.531V132.964C14.0591 133.405 13.7008 133.763 13.2604 133.763H3.2504C3.00407 133.763 2.80999 133.562 2.80999 133.323V129.934C2.79506 129.008 3.03393 127.709 3.2504 126.754C3.29519 126.53 3.57885 126.5 3.66096 126.702Z" fill="#24425D"/>
<path d="M2.81055 133.308V133.181C3.37039 129.045 7.16987 127.373 9.76008 127.373C10.3349 127.373 10.8872 127.381 11.4844 127.456C11.8875 127.508 12.2533 127.717 12.4921 128.038C12.5668 128.142 12.6563 128.239 12.7459 128.329C12.828 128.404 12.9176 128.478 13.0146 128.553C13.0669 128.598 13.1266 128.642 13.1863 128.695C12.2682 128.329 11.156 128.247 9.91684 128.247C7.55056 128.247 3.87052 130.314 3.46743 133.748H3.25842C3.01209 133.756 2.81055 133.554 2.81055 133.308Z" fill="#36638C"/>
<path d="M10.6409 131.658C13.1714 131.658 14.0597 132.442 14.0597 132.442V132.957C14.0597 133.397 13.7014 133.756 13.261 133.756H3.25096C3.00463 133.756 2.81055 133.554 2.81055 133.315V132.442H4.58712C5.66202 132.442 8.11041 131.658 10.6409 131.658Z" fill="#040709"/>
<path d="M13.7758 133.569C13.634 133.681 13.4623 133.756 13.2682 133.756H4.58691C5.66182 133.756 8.1102 132.972 10.6407 132.972C12.3725 132.972 13.3354 133.338 13.7758 133.569Z" fill="#092E3B"/>
<path d="M32.2353 131.315H34.0791C34.3254 131.315 34.5195 131.516 34.5195 131.755V133.308C34.5195 133.554 34.318 133.748 34.0791 133.748H32.2353C31.989 133.748 31.7949 133.547 31.7949 133.308V131.755C31.7949 131.509 31.9965 131.315 32.2353 131.315Z" fill="#092E3B"/>
<path d="M27.1295 130.083C27.1071 128.896 27.54 127.545 27.8088 126.687C27.8536 126.552 27.8909 126.44 27.9282 126.321C28.0252 126.052 28.3462 125.933 28.5851 126.097C31.459 128.045 36.0945 128.322 37.7292 128.359C37.9382 128.366 38.0353 128.105 37.8785 127.971C37.2888 127.493 36.3557 127 35.7735 126.717C35.4749 126.567 35.3853 126.172 35.6167 125.925C35.9526 125.567 36.4752 125.179 37.1544 124.91C37.3485 124.836 37.5725 124.88 37.7068 125.037C38.1771 125.575 39.3714 126.844 40.5508 127.456C41.3943 127.896 42.6857 128.217 43.477 128.419C44.3428 128.635 45.7984 128.993 45.7984 130.516V132.166C45.7984 132.532 45.582 132.86 45.2461 132.994C44.5145 133.293 43.1187 133.748 41.3645 133.748H38.3712C37.886 133.748 37.4082 133.681 36.9454 133.539L32.2427 132.136C31.9442 132.046 31.6381 132.002 31.3246 132.002H27.137L27.1295 130.083Z" fill="#24425D"/>
<path d="M27.1295 132.009V130.083C27.1071 128.896 27.54 127.545 27.8088 126.687C27.8536 126.552 27.8909 126.44 27.9282 126.321C27.973 126.194 28.07 126.097 28.182 126.052L28.1521 126.224C28.1148 126.44 28.2268 126.657 28.4209 126.754L29.3316 127.217C29.7272 127.418 29.9735 127.821 29.9735 128.262V132.009H27.1295Z" fill="#36638C"/>
<path d="M37.1694 133.606C37.356 130.822 38.7818 127.635 40.3046 127.329C40.3867 127.374 40.4688 127.426 40.5509 127.463C40.9614 127.672 41.469 127.859 41.9841 128.015C40.5808 128.486 39.1102 130.673 38.9311 133.748H38.3638C37.9607 133.756 37.5651 133.703 37.1694 133.606Z" fill="#36638C"/>
<path d="M31.3173 130.695C31.6308 130.695 31.9368 130.74 32.2354 130.83L36.9381 132.233C37.4009 132.375 37.8861 132.442 38.3639 132.442H40.1628C41.081 132.405 43.283 131.658 44.7535 131.658C45.3358 131.658 45.6344 131.778 45.7911 131.92V132.173C45.7911 132.338 45.7463 132.502 45.6642 132.636C45.6642 132.636 45.6642 132.644 45.6568 132.644C45.5746 132.77 45.4627 132.882 45.3283 132.957C45.2985 132.972 45.2686 132.987 45.2387 133.002C44.5072 133.3 43.1113 133.756 41.3572 133.756H40.0956H38.3639C37.8787 133.756 37.4009 133.689 36.9381 133.547L32.2354 132.143C32.1757 132.121 32.1085 132.106 32.0413 132.091C31.9144 132.061 31.795 132.158 31.795 132.293V133.308C31.795 133.554 31.9966 133.748 32.2354 133.748H27.57C27.3237 133.748 27.1296 133.547 27.1296 133.308V132.009V131.755V130.695H31.3173Z" fill="#040709"/>
<path d="M45.2388 133.002C44.5073 133.3 43.1114 133.748 41.3572 133.748H40.0957C40.9691 133.748 43.186 132.905 44.6939 132.905C44.888 132.912 45.1194 132.957 45.2388 133.002Z" fill="#092E3B"/>
<path d="M18.0969 3.77475C28.1965 2.85661 29.6521 10.1868 29.988 11.4558C30.4359 13.1354 30.615 14.8298 30.7718 16.5691C30.9211 18.1665 31.1749 19.8535 31.3465 21.8017C31.5854 24.3994 30.7419 27.012 28.3458 28.8558C27.2634 29.6844 25.5018 30.1845 24.0387 30.3188C17.4251 30.9235 13.857 26.1909 11.9237 24.0859C9.56486 21.5181 7.9973 17.8082 7.78829 15.5166C7.18366 8.7611 11.9311 4.34206 18.0969 3.77475Z" fill="#E1A781"/>
<path d="M9.62483 17.0617C10.4758 16.6736 11.4014 16.9348 11.7597 17.8156C12.2001 18.9055 11.4014 19.1667 11.7896 20.1521C12.0284 20.7567 12.3718 20.9209 12.6107 21.5181C12.8271 22.0555 12.8197 22.7572 12.2524 23.011C11.3268 23.4365 9.75173 22.2571 9.06499 20.9209C8.35585 19.5549 8.1767 17.7261 9.62483 17.0617Z" fill="#F48989"/>
<path d="M21.0306 19.5996C20.6797 19.6295 20.3737 19.3757 20.3364 19.0249L20.2841 18.4874C20.2543 18.1366 20.5081 17.8305 20.8589 17.7932C21.2097 17.7634 21.5158 18.0172 21.5531 18.368L21.6054 18.9054C21.6352 19.2637 21.3814 19.5698 21.0306 19.5996Z" fill="#092E3B"/>
<path d="M29.6448 18.8159C29.4209 18.8382 29.2044 18.5695 29.1746 18.2187L29.1223 17.6812C29.0924 17.3304 29.2492 17.0318 29.4731 17.0094C29.6971 16.987 29.9061 17.2558 29.9434 17.6066L29.9957 18.144C30.0255 18.4949 29.8688 18.7935 29.6448 18.8159Z" fill="#092E3B"/>
<path d="M26.6068 24.8174C27.8086 24.7055 28.9208 24.1157 29.6672 23.1976C29.8091 23.0185 29.7867 22.7572 29.6075 22.6154C29.4284 22.4735 29.1671 22.4959 29.0253 22.6751C28.4132 23.429 27.5249 23.8993 26.5396 23.9888C25.5468 24.0784 24.5913 23.7798 23.8523 23.1454C23.6806 22.9961 23.4119 23.0185 23.2626 23.1901C23.1133 23.3618 23.1357 23.6305 23.3074 23.7798C24.2032 24.5487 25.4124 24.9294 26.6068 24.8174Z" fill="#D63E39"/>
<path d="M18.082 17.114C18.1566 17.1065 18.2313 17.0841 18.2984 17.0468C19.2241 16.5019 20.7468 16.2108 21.5829 16.2779C21.8665 16.3003 22.1203 16.0913 22.1427 15.8002C22.1651 15.5166 21.9561 15.2628 21.665 15.2404C20.508 15.1433 18.7986 15.5464 17.7685 16.1436C17.5221 16.2854 17.44 16.6064 17.5818 16.8527C17.6864 17.0393 17.8879 17.1364 18.082 17.114Z" fill="#092E3B"/>
<path d="M29.1742 14.5536C29.6818 14.4267 30.182 14.5312 30.5851 14.7179C30.6373 15.1732 30.6896 15.6285 30.7343 16.0913C30.6522 16.054 30.5776 16.0018 30.5179 15.9197C30.4208 15.7928 29.9058 15.4345 29.428 15.5539C29.1519 15.6211 28.8682 15.4568 28.7936 15.1732C28.7264 14.9045 28.8906 14.6283 29.1742 14.5536Z" fill="#092E3B"/>
<path d="M33.5785 22.3017C33.3247 21.712 32.7723 21.3089 32.1975 21.0178C31.8765 20.8536 31.5481 20.7043 31.2197 20.5475C31.2271 20.5849 31.2271 20.6297 31.2346 20.6744C31.0704 19.1965 30.8912 17.8603 30.7718 16.5838C30.6598 15.3298 30.5329 14.0981 30.3015 12.8814C30.3463 12.9337 30.3911 12.9784 30.4433 13.0307C31.4137 14.0235 32.5857 14.8894 33.3097 16.0091C33.5486 16.3748 33.78 16.7182 34.0039 17.0541C34.8773 18.4649 35.5939 19.6369 35.3326 21.5179C35.1236 23.0482 34.2577 24.5112 32.9664 25.31C32.8469 25.198 32.72 25.0935 32.5782 24.9964L32.5707 24.989C33.4366 24.362 33.989 23.2423 33.5785 22.3017Z" fill="#3A5862"/>
<path d="M4.01887 20.9582C4.77279 19.6966 4.72054 18.0246 4.8549 16.6287C5.01913 14.9417 5.04898 13.2323 5.44461 11.5677C6.0791 8.91777 8.39312 4.34197 11.4984 3.34918C11.7298 3.27454 11.9463 3.14764 12.118 2.98342C13.5362 1.62486 16.3802 0.990373 17.8582 0.885869C20.6574 0.669395 23.6358 1.71444 25.8901 3.31186C28.2042 4.94661 29.9733 7.29049 31.0556 9.89563C31.6005 11.2094 31.8245 12.568 32.3993 13.8743C32.877 14.9566 34.0041 17.0392 34.0041 17.0392C33.7802 16.7108 33.5488 16.36 33.3099 15.9942C32.5784 14.8745 31.4065 14.0161 30.4435 13.0158C29.8538 12.4112 29.3462 11.7469 29.07 10.9481C28.4878 9.27607 27.7264 7.57414 26.0917 6.69332C24.8302 6.00658 23.285 5.88715 21.9339 6.37234C21.4786 6.53657 21.0307 6.76797 20.5529 6.83515C20.4186 6.85754 20.2768 6.85754 20.1424 6.84261C20.0528 6.82768 19.9632 6.87994 19.9259 6.96205C19.3362 8.17131 17.6119 9.24621 17.0595 10.4032C16.119 12.344 16.3653 14.6655 15.7905 16.7332C15.3651 18.256 13.0958 20.1072 13.5213 21.7046C13.8647 22.9736 15.1635 23.6603 15.6263 24.8621C16.0369 25.937 16.119 26.9224 15.9548 27.8256V27.833C15.798 28.7064 15.3949 29.4902 14.8276 30.162C13.8871 31.2966 12.4688 32.1327 10.8863 32.6029C7.99004 33.4614 4.84744 32.3417 3.12312 29.8186C1.87653 27.9973 1.86907 25.5041 2.59313 23.4663C2.91411 22.5705 3.53367 21.7718 4.01887 20.9582Z" fill="#092E3B"/>
<path d="M31.354 21.8091C31.3167 21.3762 31.2719 20.9582 31.2271 20.5476C31.5481 20.7118 31.884 20.8537 32.205 21.0179C32.7798 21.309 33.3321 21.7121 33.5859 22.3018C33.9965 23.2498 33.4441 24.3695 32.5931 24.9666C32.5409 25.004 32.4886 25.0338 32.4289 25.0712C31.9437 25.3623 31.4063 25.5265 30.8464 25.6235C31.3167 24.4143 31.4735 23.108 31.354 21.8091Z" fill="#092E3B"/>
<path d="M61.2128 74.3077H47.7915V74.9571H61.2128V74.3077Z" fill="#9DABB1"/>
<path d="M61.2128 78.4206H47.9482V79.07H61.2128V78.4206Z" fill="#9DABB1"/>
<path d="M45.7239 78.4207H60.6979C60.3022 78.2042 60.3022 75.1811 60.6979 74.9646H45.7239V78.4207Z" fill="#F3F0F3"/>
<path d="M45.6122 73.9643H30.6382C30.8994 73.9195 30.8994 71.8817 30.6382 71.8369H45.6122V73.9643Z" fill="#E3DBE0"/>
<path d="M30.459 79.07H48.8293C48.3814 78.9804 48.3814 74.3897 48.8293 74.3151H30.459C30.0111 74.3897 30.0111 78.9804 30.459 79.07Z" fill="#6B8289"/>
<path d="M45.6943 79.07H30.6382V79.5104H45.6943V79.07Z" fill="#7BB7ED"/>
<path d="M45.1791 67.2462H30.123V67.6866H45.1791V67.2462Z" fill="#6B8289"/>
<path d="M45.1791 68.9332H30.123V69.3736H45.1791V68.9332Z" fill="#6B8289"/>
<path d="M45.6943 81.4363H30.6382V81.8767H45.6943V81.4363Z" fill="#7BB7ED"/>
<path d="M48.4185 81.4363H31.1902C31.4514 81.3915 31.4514 79.5478 31.1902 79.503H48.4185V81.4363Z" fill="#E3DBE0"/>
<path d="M59.9368 81.8767H45.3062C45.7316 81.8767 45.7316 79.0775 45.3062 79.07H59.9368C60.3622 79.0775 60.3622 81.8767 59.9368 81.8767Z" fill="#5AA5E9"/>
<path d="M45.3131 68.9331H30.3391C30.7347 68.851 30.7347 67.7612 30.3391 67.6865H45.3131V68.9331Z" fill="#E3DBE0"/>
<path d="M56.0397 69.3735H40.9836V69.8139H56.0397V69.3735Z" fill="#5AA5E9"/>
<path d="M56.0397 71.0606H40.9836V71.501H56.0397V71.0606Z" fill="#5AA5E9"/>
<path d="M45.1791 71.501H30.123V71.9414H45.1791V71.501Z" fill="#092E3B"/>
<path d="M45.1791 73.8672H30.123V74.3077H45.1791V73.8672Z" fill="#092E3B"/>
<path d="M40.8494 71.0605H55.8233C55.4277 70.9784 55.4277 69.8886 55.8233 69.814H40.8494V71.0605Z" fill="#F3F0F3"/>
<path d="M56.3831 69.3736H44.5293C44.9324 69.2765 44.9324 67.3432 44.5293 67.2462H56.3905C56.7862 67.3432 56.7862 69.2691 56.3831 69.3736Z" fill="#9DABB1"/>
<path d="M29.4808 71.5009H43.1335C42.7304 71.4039 42.7304 69.4706 43.1335 69.3735H29.4808C29.0777 69.4706 29.0777 71.3964 29.4808 71.5009Z" fill="#7BB7ED"/>
<path d="M58.1671 74.3077H42.5063C42.9318 74.3077 42.9318 71.5084 42.5063 71.501H58.1671C58.5851 71.5084 58.5851 74.3077 58.1671 74.3077Z" fill="#3A5862"/>
<path d="M29.958 84.0265C30.1223 84.452 30.6 84.661 31.0255 84.4968C31.1972 84.4296 31.3315 84.3176 31.4211 84.1833C31.4435 84.1459 31.4883 84.1235 31.5331 84.1161C31.5778 84.1161 31.6226 84.1385 31.6525 84.1758C31.8988 84.5042 32.3467 84.6535 32.7573 84.4968C32.9961 84.4072 33.1827 84.228 33.2798 84.019C33.3022 83.9743 33.347 83.9444 33.3917 83.9369C33.444 83.9295 33.4888 83.9519 33.5186 83.9967C33.8098 84.3848 34.3248 84.5416 34.7802 84.3699C35.2056 84.2131 35.5192 83.7876 35.4893 83.2726C35.4893 83.2203 35.5117 83.1755 35.5565 83.1457C35.6013 83.1158 35.6535 83.1158 35.6983 83.1382C35.9297 83.2577 36.2059 83.2875 36.4746 83.183C36.9747 82.9889 37.2211 82.444 37.0419 81.9439C37.0419 81.9439 36.721 81.0407 36.5941 80.6824C36.5642 80.6077 36.609 80.5181 36.6836 80.4958C37.6914 80.1076 37.4823 78.7043 36.5642 77.3084C35.4893 75.6736 32.6154 73.2178 30.3984 74.1807C28.5472 74.9869 27.5171 77.4353 28.4353 80.018C28.5845 80.4734 28.271 79.6448 29.958 84.0265Z" fill="#E1A781"/>
<path d="M32.4225 79.0796C33.752 78.4981 34.3585 76.9489 33.777 75.6194C33.1955 74.2898 31.6463 73.6834 30.3168 74.2649C28.9872 74.8464 28.3808 76.3956 28.9623 77.7251C29.5438 79.0546 31.0929 79.6611 32.4225 79.0796Z" fill="#E1A781"/>
<path d="M20.5681 71.1128L26.2635 77.913C26.4278 78.1146 26.7264 78.1444 26.9354 77.9877L32.8175 73.4865C33.0265 73.3298 33.0713 73.0312 32.922 72.8222L27.846 65.5367C26.6741 63.8572 25.7783 62.5733 24.9125 61.1476C24.0018 59.677 23.1508 58.1692 22.367 56.6539C21.5907 55.1386 20.8592 53.571 20.1948 51.996C19.5827 50.5702 19.0901 49.1967 18.5153 47.6143L14.5441 36.6637C13.4021 33.5136 9.91609 31.8789 6.76603 33.021C6.17632 33.23 5.63141 33.5286 5.13875 33.9093C3.02627 35.5291 2.21263 38.3059 3.11584 40.8065C3.17556 40.9708 3.2502 41.1425 3.32485 41.2992L8.22162 51.7795C8.92329 53.2873 9.72201 54.9967 10.5804 56.5942C11.4986 58.3259 12.5063 60.0577 13.5588 61.7223C14.6188 63.3944 15.7534 65.0292 16.9253 66.6042C18.045 68.1046 19.2394 69.5378 20.5681 71.1128Z" fill="#4884BA"/>
</svg>
