
<svg width="73" height="124" viewBox="0 0 73 124" fill="none" xmlns="http://www.w3.org/2000/svg">
<path d="M15.3447 22.9432L15.4773 23.5175C15.4993 23.6427 15.5877 23.7384 15.7129 23.7752L23.547 25.7191L23.7311 25.0858L15.3447 22.9432Z" fill="#6B8289"/>
<path d="M69.4846 26.4996C68.8882 25.6382 67.7101 25.4246 66.856 26.021L53.2199 35.4309C52.1523 36.1671 50.7165 36.0935 49.7299 35.2541L37.1098 24.5264C36.3146 23.849 35.1218 23.9447 34.4445 24.7399C33.7671 25.5351 33.8628 26.7279 34.658 27.4053L47.278 38.133C49.5679 40.0769 52.8959 40.2462 55.3625 38.538L68.9913 29.1282C69.8601 28.5392 70.0736 27.3611 69.4846 26.4996Z" fill="#FFC0B5"/>
<path d="M69.242 22.9433C69.1905 22.9802 69.1095 22.9728 69.0727 22.9139C68.5352 22.2071 67.4676 22.7004 66.584 23.7533C65.5458 24.9902 64.272 27.8323 65.5532 29.3638C66.6208 30.645 68.8002 30.8806 70.6262 29.5552L69.242 22.9433Z" fill="#FFC0B5"/>
<path d="M55.6057 38.884C52.9771 40.7027 49.4429 40.526 47.0132 38.457L34.3931 27.7219C34.2385 27.5893 34.0986 27.4421 33.9882 27.2727C33.2961 26.2714 33.4875 24.865 34.5183 24.0993C35.3945 23.444 36.6167 23.5471 37.4487 24.2539L50.0099 34.9302C50.8566 35.6444 52.0715 35.7106 52.9845 35.0774L61.7243 29.0472C61.82 28.9809 61.9525 29.003 62.0188 29.0987L64.4044 32.5593C64.4707 32.655 64.4486 32.7875 64.3529 32.8538L55.6057 38.884Z" fill="#DEEDFB"/>
<path d="M64.3971 32.5593L66.952 30.7996C67.0477 30.7333 67.0698 30.6008 67.0035 30.505L64.8536 27.3905C64.7873 27.2948 64.6548 27.2727 64.559 27.339L62.0115 29.1061L64.3971 32.5593Z" fill="#BDDBF6"/>
<path d="M37.0212 60.0593C37.8826 60.0593 38.722 60.5085 39.1859 61.3037L49.9063 79.8729C52.9104 85.0712 54.4934 90.991 54.4934 96.9917V118.433C54.4934 119.809 53.3742 120.929 51.9974 120.929C50.6205 120.929 49.5013 119.809 49.5013 118.433V96.9917C49.5013 91.8671 48.1466 86.8088 45.5843 82.369L34.8638 63.8071C34.1717 62.6143 34.5841 61.0901 35.7769 60.398C36.1744 60.1698 36.6015 60.0593 37.0212 60.0593Z" fill="#051C23"/>
<path d="M52.2403 114.633C50.1934 114.633 49.2215 116.754 48.8313 118.02C48.441 119.287 47.2114 122.858 49.3909 122.858C51.5703 122.858 60.5751 122.858 60.5751 122.858C60.5751 122.858 61.3041 122.762 61.3041 121.51C61.3041 120.259 60.1113 120.126 59.5149 119.905C58.9185 119.684 57.5195 119.11 56.0322 117.608C54.5302 116.106 53.7718 114.633 52.2403 114.633Z" fill="#051C23"/>
<path d="M48.0067 122.372H61.3998C61.5618 122.372 61.6943 122.504 61.6943 122.666V122.968C61.6943 123.314 61.4146 123.594 61.0685 123.594H48.338C47.9919 123.594 47.7122 123.314 47.7122 122.968V122.666C47.7122 122.497 47.8447 122.372 48.0067 122.372Z" fill="#092E3B"/>
<path d="M55.7823 121.96C55.7823 119.891 57.1518 119.581 58.7127 119.581H59.2428C59.3533 119.625 59.4637 119.67 59.5815 119.714C59.6699 119.743 59.7656 119.773 59.8687 119.81C60.4798 119.994 61.5033 120.303 61.5033 121.518C61.5033 121.525 61.5033 121.525 61.5033 121.532C61.5033 122.018 61.3928 122.372 61.3928 122.372H55.7749C55.7823 122.239 55.7823 122.099 55.7823 121.96Z" fill="#9DABB1"/>
<path d="M55.7824 121.96C55.7824 122.099 55.7824 122.239 55.7824 122.372H48.4342C48.1323 120.325 49.0674 117.851 49.4797 117.019C49.8111 117.336 50.2528 117.564 50.8566 117.564C52.0789 117.564 52.5648 116.931 53.2643 116.504C53.6913 117.049 54.8252 118.536 56.3199 119.596C56.5334 119.751 56.5481 120.045 56.3641 120.229C56.0033 120.583 55.7824 121.128 55.7824 121.96Z" fill="#CED5D8"/>
<path d="M59.2431 119.581H58.7129C57.7778 119.581 56.9164 119.692 56.3715 120.229C56.5556 120.045 56.5409 119.743 56.3273 119.596C54.8253 118.536 53.6988 117.048 53.2717 116.504C53.6325 116.283 54.0522 116.121 54.6633 116.121C54.6707 116.121 54.6707 116.121 54.678 116.121C54.8621 116.121 55.0315 116.209 55.1493 116.342C55.1566 116.349 55.164 116.356 55.1714 116.371C55.4806 116.724 55.8046 117.1 56.1801 117.475C57.1078 118.411 58.1386 119.117 59.2431 119.581Z" fill="#6B8289"/>
<path d="M49.4793 117.012C49.067 117.851 48.1319 120.318 48.4337 122.364H48.1466C47.5944 121.289 48.2276 119.272 48.5736 118.16L48.6399 117.954C48.7356 117.637 48.8755 117.262 49.0522 116.879C49.1038 116.769 49.251 116.746 49.332 116.842C49.3762 116.908 49.4204 116.96 49.4793 117.012Z" fill="#9DABB1"/>
<path d="M55.1559 119.802C55.443 119.081 56.4002 118.514 57.1144 118.433C57.2543 118.418 57.6298 118.374 57.8581 118.646C57.9243 118.727 57.9759 118.823 57.998 118.933C57.9391 118.897 57.8802 118.86 57.8213 118.816C57.7182 118.749 57.2764 118.764 57.0334 118.816C56.4591 118.926 55.7228 119.397 55.5093 119.927C55.4799 120.001 55.4062 120.045 55.3326 120.045C55.3105 120.045 55.2884 120.038 55.2663 120.03C55.1633 120.001 55.1191 119.898 55.1559 119.802Z" fill="#3A5862"/>
<path d="M54.2947 119.088C54.5524 118.411 55.5684 117.748 56.1943 117.704C56.3268 117.696 56.7244 117.667 56.9748 117.961C57.0557 118.057 57.1146 118.182 57.1441 118.33C57.0999 118.293 57.0557 118.256 57.0116 118.219C56.7097 117.961 56.1943 118.065 56.0544 118.101C55.5537 118.234 54.8248 118.749 54.6481 119.213C54.6186 119.287 54.545 119.331 54.4714 119.331C54.4493 119.331 54.4272 119.324 54.4051 119.316C54.3094 119.294 54.2578 119.184 54.2947 119.088Z" fill="#3A5862"/>
<path d="M53.4332 118.374C53.6835 117.667 54.7953 116.99 55.3696 116.938C55.5316 116.923 55.9145 116.887 56.1501 117.174C56.2458 117.284 56.3047 117.431 56.3194 117.608C56.2826 117.579 56.2532 117.542 56.2163 117.512C56.0028 117.299 55.5831 117.262 55.3033 117.328C54.8616 117.424 53.978 117.962 53.7792 118.506C53.7498 118.58 53.6761 118.632 53.6025 118.632C53.5804 118.632 53.5583 118.632 53.5362 118.624C53.4479 118.58 53.3963 118.477 53.4332 118.374Z" fill="#3A5862"/>
<path d="M49.0889 96.9993C49.0889 91.9484 47.7562 86.9563 45.2234 82.5827L34.503 64.0134C33.7004 62.6218 34.179 60.84 35.5706 60.0375C36.0124 59.7797 36.5131 59.6472 37.0211 59.6472C38.0593 59.6472 39.0238 60.2068 39.5466 61.1051L50.267 79.6744C53.3079 84.9389 54.913 90.9249 54.913 96.9993V115.134C54.913 115.362 54.7289 115.547 54.5007 115.547H49.5086C49.2804 115.547 49.0963 115.362 49.0963 115.134V96.9993H49.0889Z" fill="#092E3B"/>
<path d="M27.2068 60.0594C26.3454 60.0594 25.506 60.5086 25.0421 61.3038L14.3217 79.8804C11.3176 85.0787 9.73462 90.9984 9.73462 96.9992V118.44C9.73462 119.817 10.8538 120.936 12.2307 120.936C13.6075 120.936 14.7267 119.817 14.7267 118.44V96.9992C14.7267 91.8746 16.0815 86.8163 18.6438 82.3765L29.3642 63.8072C30.0563 62.6144 29.644 61.0903 28.4512 60.3981C28.0609 60.1699 27.6265 60.0594 27.2068 60.0594Z" fill="#051C23"/>
<path d="M11.9873 114.634C14.0342 114.634 15.0061 116.754 15.3964 118.02C15.7866 119.287 17.0162 122.858 14.8368 122.858C12.6574 122.858 3.65251 122.858 3.65251 122.858C3.65251 122.858 2.92358 122.762 2.92358 121.511C2.92358 120.259 4.11638 120.126 4.71277 119.905C5.30917 119.685 6.70813 119.11 8.19544 117.608C9.69747 116.106 10.4632 114.634 11.9873 114.634Z" fill="#051C23"/>
<path d="M16.2211 122.372H2.83529C2.6733 122.372 2.54077 122.505 2.54077 122.667V122.968C2.54077 123.315 2.82056 123.594 3.16662 123.594H15.8971C16.2432 123.594 16.523 123.315 16.523 122.968V122.667C16.5156 122.497 16.3831 122.372 16.2211 122.372Z" fill="#092E3B"/>
<path d="M8.45317 121.96C8.45317 119.891 7.08366 119.581 5.52273 119.581H4.99259C4.88215 119.626 4.77171 119.67 4.6539 119.714C4.56555 119.743 4.46983 119.773 4.36675 119.81C3.75562 119.994 2.73218 120.303 2.73218 121.518C2.73218 121.525 2.73218 121.525 2.73218 121.533C2.73218 122.019 2.84262 122.372 2.84262 122.372H8.46053C8.45317 122.239 8.45317 122.1 8.45317 121.96Z" fill="#9DABB1"/>
<path d="M8.45315 121.96C8.45315 122.1 8.45315 122.24 8.45315 122.372H15.8013C16.1032 120.325 15.1681 117.851 14.7558 117.019C14.4245 117.336 13.9827 117.564 13.3789 117.564C12.1567 117.564 11.6707 116.931 10.9713 116.504C10.5442 117.049 9.41033 118.536 7.91566 119.596C7.70213 119.751 7.68741 120.045 7.87148 120.23C8.23226 120.583 8.45315 121.128 8.45315 121.96Z" fill="#CED5D8"/>
<path d="M4.98535 119.582H5.51548C6.45057 119.582 7.31203 119.692 7.85689 120.229C7.67282 120.045 7.68754 119.744 7.90107 119.596C9.40311 118.536 10.5296 117.049 10.9567 116.504C10.5959 116.283 10.1762 116.121 9.56509 116.121C9.55773 116.121 9.55773 116.121 9.55036 116.121C9.36629 116.121 9.19694 116.209 9.07914 116.342C9.07177 116.349 9.06441 116.357 9.05705 116.371C8.7478 116.725 8.42384 117.1 8.04833 117.476C7.1206 118.411 6.08979 119.118 4.98535 119.582Z" fill="#6B8289"/>
<path d="M14.7556 117.012C15.1679 117.851 16.103 120.318 15.8012 122.365H16.0883C16.6405 121.29 16.0073 119.272 15.6613 118.16L15.595 117.954C15.4993 117.638 15.3594 117.262 15.1827 116.879C15.1311 116.769 14.9839 116.747 14.9029 116.842C14.8587 116.909 14.8072 116.96 14.7556 117.012Z" fill="#9DABB1"/>
<path d="M9.07182 119.802C8.78467 119.081 7.82749 118.514 7.11329 118.433C6.97339 118.418 6.59788 118.374 6.36963 118.646C6.30337 118.727 6.25183 118.823 6.22974 118.934C6.28864 118.897 6.34754 118.86 6.40645 118.816C6.50953 118.75 6.9513 118.764 7.19428 118.816C7.76859 118.926 8.50488 119.397 8.7184 119.928C8.74786 120.001 8.82148 120.045 8.89511 120.045C8.9172 120.045 8.93929 120.038 8.96138 120.031C9.06446 120.001 9.10864 119.898 9.07182 119.802Z" fill="#3A5862"/>
<path d="M9.93319 119.088C9.67549 118.411 8.65941 117.748 8.03356 117.704C7.90102 117.697 7.50343 117.667 7.25309 117.962C7.1721 118.057 7.11319 118.183 7.08374 118.33C7.12792 118.293 7.1721 118.256 7.21627 118.219C7.51815 117.962 8.03356 118.065 8.17345 118.102C8.67413 118.234 9.40306 118.75 9.57977 119.213C9.60922 119.287 9.68285 119.331 9.75648 119.331C9.77857 119.331 9.80066 119.324 9.82275 119.316C9.92583 119.294 9.97001 119.184 9.93319 119.088Z" fill="#3A5862"/>
<path d="M10.7947 118.374C10.5444 117.667 9.43257 116.99 8.85826 116.938C8.69628 116.923 8.31341 116.887 8.07779 117.174C7.98208 117.284 7.92317 117.432 7.90845 117.608C7.94526 117.579 7.97471 117.542 8.01153 117.512C8.22505 117.299 8.64474 117.262 8.92453 117.328C9.36631 117.424 10.2499 117.962 10.4487 118.506C10.4781 118.58 10.5517 118.632 10.6254 118.632C10.6475 118.632 10.6695 118.632 10.6916 118.624C10.78 118.58 10.8315 118.477 10.7947 118.374Z" fill="#3A5862"/>
<path d="M15.1385 96.9993C15.1385 91.9484 16.4712 86.9563 19.0041 82.5827L29.7245 64.0134C30.527 62.6218 30.0484 60.84 28.6569 60.0375C28.2151 59.7797 27.7144 59.6472 27.2064 59.6472C26.1682 59.6472 25.2036 60.2068 24.6809 61.1051L13.9605 79.6744C10.9196 84.9389 9.31445 90.9249 9.31445 96.9993V115.134C9.31445 115.362 9.49853 115.547 9.72678 115.547H14.7188C14.9471 115.547 15.1312 115.362 15.1312 115.134V96.9993H15.1385Z" fill="#092E3B"/>
<path d="M31.3662 23.6206C30.5342 23.5985 29.5108 24.1728 29.0101 24.6367C28.9291 24.7177 28.988 24.8576 29.1058 24.8429L32.397 24.4968C32.4927 24.4894 32.5369 24.379 32.478 24.3054C32.2719 24.055 31.8595 23.628 31.3662 23.6206Z" fill="#331D37"/>
<path d="M21.6916 32.699C22.104 36.5793 21.1983 40.0693 20.1381 40.2607C17.2591 35.0036 16.5008 26.632 18.2973 25.8662C18.2973 25.8662 18.2973 25.8662 18.3047 25.8662C19.6668 25.3361 21.2719 28.7746 21.6916 32.699Z" fill="#331D37"/>
<path d="M25.3439 21.3823C28.5321 21.0436 30.3802 21.8167 31.0649 22.2364C31.5214 22.5235 31.8675 22.9064 32.4491 23.4218C32.6185 23.569 32.7584 23.7531 32.8394 23.9593C33.1339 24.7177 31.3668 25.7043 28.6499 25.962C26.0729 26.205 22.5534 25.7632 22.1779 24.968C22.1116 24.8281 22.1558 24.6588 22.2589 24.5409C23.1498 23.5322 23.2381 22.3173 23.5989 21.986C23.9523 21.662 24.6371 21.4559 25.3439 21.3823Z" fill="#E0EBF4"/>
<path d="M25.1009 25.1153C25.4543 26.3817 26.7649 27.1253 28.0313 26.7793C29.2977 26.4259 30.0414 25.1153 29.6953 23.8488C29.3419 22.5824 28.0313 21.8388 26.7649 22.1848C25.4911 22.5382 24.7474 23.8488 25.1009 25.1153Z" fill="#FFC0B5"/>
<path d="M29.0915 29.4668C30.3137 28.8852 31.0574 27.5525 30.8291 26.1535L29.0031 14.7999C28.7307 13.099 27.1256 11.9357 25.4247 12.2155C23.7165 12.4879 22.5605 14.093 22.8403 15.7939L24.6663 27.1475C24.9388 28.8483 26.5439 30.0117 28.2447 29.7319C28.5466 29.6803 28.8338 29.592 29.0915 29.4668Z" fill="#FFC0B5"/>
<path d="M23.9674 23.1093L23.0492 17.4405C22.7774 15.7596 23.9306 14.1732 25.6274 13.9039C27.3242 13.6347 28.9254 14.7772 29.1972 16.4581L30.3724 23.7133C29.1752 23.8515 27.8604 23.837 26.4354 23.6405C25.6127 23.5314 24.7827 23.3494 23.9674 23.1093Z" fill="#E49D90"/>
<path d="M38.1263 65.6627C39.4438 65.6627 40.5119 64.5946 40.5119 63.2771C40.5119 61.9595 39.4438 60.8915 38.1263 60.8915C36.8088 60.8915 35.7407 61.9595 35.7407 63.2771C35.7407 64.5946 36.8088 65.6627 38.1263 65.6627Z" fill="#FFC0B5"/>
<path d="M26.9635 66.8483C28.281 66.8483 29.3491 65.7803 29.3491 64.4627C29.3491 63.1452 28.281 62.0771 26.9635 62.0771C25.6459 62.0771 24.5779 63.1452 24.5779 64.4627C24.5779 65.7803 25.6459 66.8483 26.9635 66.8483Z" fill="#FFC0B5"/>
<path d="M37.5367 29.0027C38.5249 29.0027 39.3259 28.2016 39.3259 27.2135C39.3259 26.2254 38.5249 25.4243 37.5367 25.4243C36.5486 25.4243 35.7476 26.2254 35.7476 27.2135C35.7476 28.2016 36.5486 29.0027 37.5367 29.0027Z" fill="#FFC0B5"/>
<path d="M17.0306 31.1821C18.0188 31.1821 18.8198 30.3811 18.8198 29.3929C18.8198 28.4048 18.0188 27.6038 17.0306 27.6038C16.0425 27.6038 15.2415 28.4048 15.2415 29.3929C15.2415 30.3811 16.0425 31.1821 17.0306 31.1821Z" fill="#FFC0B5"/>
<path d="M15.7791 28.112C17.8554 25.8663 24.136 24.7987 27.037 24.5262C30.1663 24.1581 37.1905 23.6059 39.0018 26.205C39.0018 26.205 39.0018 26.2123 39.0091 26.2123C39.2006 26.4921 39.2374 26.6909 39.2374 26.6909C39.3552 27.0664 39.3625 27.4788 39.2079 27.8764C39.1637 27.9794 39.1196 28.0825 39.0607 28.1709C38.398 29.2385 38.1403 30.5049 38.3465 31.7493C38.8471 34.8343 39.1122 39.3183 38.6336 43.0293C38.0814 47.3292 38.4643 51.7396 39.7675 55.8776C39.9589 56.4813 40.0988 57.1587 40.1725 57.814C40.2314 58.3589 40.2903 58.8964 40.3344 59.4191C40.8793 64.6468 41.4904 66.6569 32.5297 67.6067H32.5224C25.7338 68.3283 24.5336 67.0618 23.9151 61.7164C23.6059 59.3749 24.0403 57.7183 24.5483 56.1205C25.7632 52.3213 25.2994 48.1833 23.2672 44.7448C22.2585 43.044 21.4412 41.3137 20.6607 39.981C19.8066 38.5158 18.658 36.3143 18.1352 34.017C17.8407 32.7433 17.0823 31.6315 16.0074 30.8952C15.8233 30.77 15.6539 30.6006 15.5288 30.4018C15.2931 30.0484 15.2122 29.6435 15.249 29.2459C15.3373 28.782 15.433 28.4359 15.7791 28.112Z" fill="#FFC0B5"/>
<path d="M14.8438 29.1944L14.8511 29.1502C14.9469 28.6863 15.0647 28.2372 15.4917 27.8396C17.627 25.5276 23.6793 24.541 25.8955 24.2539C27.6037 24.9975 29.7979 25.5939 29.7979 25.5939C29.7979 25.5939 30.836 24.865 31.16 23.8194C34.65 23.7311 38.0738 24.1729 39.3328 25.9841C39.539 26.2787 39.5979 26.5143 39.62 26.5953C39.7673 27.0738 39.7452 27.5598 39.5685 28.0163C39.5169 28.1415 39.458 28.2666 39.3918 28.3771C38.7806 29.3637 38.545 30.5344 38.7291 31.683C39.1782 34.4662 39.5243 39.1196 39.0236 43.0735C38.6334 46.1217 38.7217 49.251 39.2813 52.2624C39.3255 52.4907 39.1635 52.7042 38.9352 52.7263L25.1003 54.1988C24.8426 54.2283 24.6291 54 24.6659 53.7423C25.093 50.7162 24.4892 47.6017 22.9135 44.9289C22.3613 44.0012 21.8827 43.0808 21.4115 42.1899C21.0286 41.4536 20.6605 40.7689 20.3071 40.1651C19.0038 37.9415 18.135 35.8725 17.7227 34.0171C17.465 32.8611 16.736 31.8745 15.7641 31.1897C15.5359 31.0277 15.3445 30.8363 15.1898 30.6007C14.9174 30.1884 14.7996 29.7024 14.8438 29.1944Z" fill="#DEEDFB"/>
<path d="M27.766 28.5537C27.9574 28.6347 28.1709 28.561 28.2667 28.377L29.7982 25.5864L32.8317 28.0162C32.9127 28.0825 33.0305 28.0309 33.0452 27.9278C33.0894 27.5302 33.163 26.6909 33.1336 25.8147C33.1998 26.7056 33.1262 27.5302 33.082 28.0088C33.0599 28.2592 32.9937 28.4359 32.8538 28.4506C32.7286 28.4653 32.6034 28.4211 32.5077 28.3328L29.9307 26.1607L28.6127 28.5684C28.4876 28.7967 28.2593 28.9513 28.0016 28.9807C27.8691 28.9955 27.7292 28.9734 27.604 28.9218C26.3891 28.3991 23.871 26.9707 22.7739 25.7263C24.0845 26.9265 26.8235 28.1487 27.766 28.5537Z" fill="#A7C3DF"/>
<path d="M30.3208 28.988C30.2767 28.8702 30.203 28.7598 30.1147 28.6788C29.8349 28.4211 29.1575 27.7879 28.1782 26.9117C28.4507 26.3963 28.7599 25.9103 29.0912 25.6158C29.3342 25.6158 29.5772 25.6158 29.8054 25.5863L30.2325 25.4391C30.6448 25.5937 31.0645 25.9177 31.4621 26.2932V28.318C31.4621 28.4652 31.4989 28.6051 31.5725 28.7303C32.3456 30.0925 35.0405 34.9152 36.167 47.2333C36.1744 47.3364 36.1596 47.4395 36.1155 47.5352L35.1215 49.6116C35.0846 49.6926 35.0037 49.7515 34.9079 49.7662C34.8122 49.7809 34.7239 49.7367 34.665 49.6705L33.1924 47.8739C33.1114 47.7782 33.0672 47.653 33.0672 47.5279C33.0967 35.7693 31.5284 32.132 30.3208 28.988Z" fill="#7BB7ED"/>
<path d="M40.1725 55.8334C40.3713 56.4593 40.4965 57.1072 40.5628 57.7625L40.5701 57.8214C40.629 58.3515 40.6806 58.8743 40.7247 59.3676L40.791 60.0008C41.0561 62.438 41.2401 64.1977 40.1872 65.5009C39.1343 66.8042 36.9255 67.5257 32.5593 67.9896C25.4246 68.748 24.1582 67.2607 23.5102 61.7532C23.1863 59.3161 23.6575 57.5637 24.1582 55.988C24.3128 55.5095 24.438 55.0309 24.5337 54.5449C24.5705 54.3756 24.703 54.243 24.8797 54.2283L39.0092 52.7263C39.208 52.7042 39.392 52.8367 39.4362 53.0355C39.635 53.978 39.878 54.9131 40.1725 55.8334Z" fill="#636460"/>
<path d="M28.3408 54.3683L37.9715 53.3448L38.4207 55.539L28.3629 56.614L28.3408 54.3683Z" fill="#9E6463"/>
<path d="M38.958 53.2417L39.466 53.1902C39.628 53.9265 39.8121 54.6554 40.033 55.3696L39.4071 55.4359L38.958 53.2417Z" fill="#9E6463"/>
<path d="M24.1585 55.9807C24.2836 55.5831 24.3941 55.1782 24.4824 54.7732L27.354 54.4713L27.3761 56.7096L23.8271 57.0852C23.9302 56.7096 24.0407 56.3415 24.1585 55.9807Z" fill="#9E6463"/>
<path d="M33.3328 56.0839L36.2117 55.7747C36.3221 55.7599 36.4031 55.6642 36.3884 55.5538L36.1969 53.7278C36.1822 53.6173 36.0865 53.5363 35.976 53.551L33.0971 53.8603C32.9867 53.875 32.9057 53.9707 32.9204 54.0812L33.1119 55.9072C33.1266 56.0176 33.2223 56.0913 33.3328 56.0839Z" fill="#DC957E"/>
<path d="M37.117 53.6982C36.5942 53.0723 35.7769 51.8795 34.9228 50.164C34.2749 52.3581 32.9643 53.9559 32.2648 54.5597C32.1175 54.6848 31.9187 54.729 31.7347 54.6775C30.4314 54.3388 27.7587 52.2919 25.2921 52.5569C25.1301 52.5717 24.9829 52.6011 24.8356 52.6453C24.7104 52.6821 24.5853 52.579 24.5926 52.4465C24.7104 49.8695 24.0772 47.2924 22.7445 45.032C22.1923 44.0969 21.7064 43.1766 21.2351 42.2857C20.8523 41.5567 20.4841 40.8646 20.1381 40.2682C21.1983 40.0768 22.104 36.5794 21.6916 32.7065C21.2719 28.7821 19.6668 25.3509 18.3047 25.8737C19.5785 25.3583 21.0069 24.9607 22.3322 24.6736C22.7372 24.5852 23.4219 24.946 23.9373 25.3657C27.1034 27.9132 32.736 35.4161 33.5607 37.3378C33.7006 36.6162 35.21 29.9528 33.1704 25.8222C32.6918 24.8503 31.823 23.6869 31.3665 23.628C32.7655 23.6059 34.1497 23.6648 35.3867 23.871C37.2789 24.2097 38.5012 29.0471 38.8988 31.4622C38.9061 31.5284 38.9135 31.5947 38.9282 31.661C39.3847 34.4515 39.7308 39.127 39.2227 43.1103C38.8767 45.8125 38.9135 48.5662 39.3111 51.2611C39.3258 51.3789 39.3111 51.504 39.2522 51.6145C38.862 52.3729 38.4349 53.1828 38.0594 53.6835C37.8238 53.9853 37.3673 53.9927 37.117 53.6982Z" fill="#24425D"/>
<path d="M31.2486 23.407C31.2634 23.2671 31.2486 23.1419 31.1971 23.0167C31.1529 22.8989 31.1897 22.7664 31.2854 22.6928C31.3959 22.6044 31.5505 22.6118 31.6536 22.7075C31.8892 22.9137 32.1322 23.1566 32.4488 23.4438C32.6034 23.5837 32.7359 23.753 32.8096 23.9445C33.2882 25.1594 33.1114 27.2504 33.0378 27.9425C33.0231 28.0456 32.9053 28.0898 32.8243 28.0309L29.7908 25.6011C29.7981 25.5938 31.1087 24.6734 31.2486 23.407Z" fill="#E0EBF4"/>
<path d="M22.2513 24.5408C22.6636 24.0769 22.8992 23.5689 23.0759 23.1271C23.1864 22.8473 23.4882 22.7 23.7754 22.781C23.8564 22.8031 23.93 22.862 23.9595 22.9357C24.416 24.1284 29.8056 25.5937 29.8056 25.5937L28.2741 28.3842C28.1784 28.5609 27.9575 28.6419 27.7735 28.5609C26.6248 28.0676 22.8403 26.3668 22.1776 24.9825C22.1114 24.8426 22.1555 24.6512 22.2513 24.5408Z" fill="#E0EBF4"/>
<path d="M12.7901 5.58137C13.3423 4.97761 13.9682 4.44012 14.6382 3.97625C16.6778 2.56994 19.1443 1.922 21.4489 2.17234C22.627 2.29751 23.6799 2.68038 24.6812 3.21787C25.9477 3.89526 26.9122 4.90398 27.9725 5.87589C28.9444 6.7668 30.0341 7.60617 30.9029 8.60017C32.4123 10.3378 33.1781 12.8191 32.751 15.2783C32.2724 18.0542 29.6733 19.8507 27.2656 20.9331C24.9095 21.9933 22.1484 22.4277 19.7555 22.1774C17.0901 21.8976 14.6382 20.7637 12.7239 19.0629C12.665 19.0113 12.6061 18.9524 12.5472 18.9009C8.94668 15.5949 9.05713 9.63098 12.7901 5.58137Z" fill="#FFC0B5"/>
<path d="M20.5802 11.3172C20.6686 12.6793 19.2917 13.769 19.2328 13.8132C19.0635 13.9457 18.8131 13.9163 18.6732 13.7469C18.5407 13.5776 18.5702 13.3272 18.7395 13.1873C18.7542 13.18 19.8439 12.3112 19.7777 11.3687C19.7703 11.2583 19.8145 11.1478 19.8808 11.0742C19.947 11.0006 20.0427 10.9564 20.1458 10.949C20.3741 10.9343 20.5655 11.1036 20.5802 11.3172Z" fill="#6A3534"/>
<path d="M26.5879 5.83172C26.5437 5.89799 25.5792 7.35584 24.2096 7.37793C23.9888 7.3853 23.8121 7.20859 23.8047 6.9877C23.8047 6.88462 23.8415 6.78154 23.9078 6.70791C23.9814 6.63428 24.0771 6.58274 24.1949 6.58274C25.1374 6.56801 25.9105 5.40467 25.9178 5.39731C26.0357 5.21323 26.286 5.16169 26.4701 5.28686C26.6541 5.39731 26.7057 5.64765 26.5879 5.83172Z" fill="#6A3534"/>
<path d="M27.6191 7.95969L27.9357 8.24684C28.2155 8.50454 28.2523 8.9095 28.0241 9.15984C27.7958 9.41018 27.3835 9.40282 27.1111 9.14512L26.7945 8.85796C26.5147 8.60026 26.4779 8.1953 26.7061 7.94496C26.9344 7.69462 27.3393 7.70199 27.6191 7.95969Z" fill="#532442"/>
<path d="M22.6708 14.9765C22.4425 15.2268 22.0302 15.2195 21.7578 14.9618L21.4412 14.6746C21.1614 14.4169 21.1246 14.012 21.3528 13.7616C21.5811 13.5113 21.9934 13.5186 22.2658 13.7763L22.5824 14.0635C22.8622 14.3138 22.8991 14.7262 22.6708 14.9765Z" fill="#532442"/>
<path d="M25.8074 15.109L28.4212 12.267C28.5022 12.1786 28.6274 12.1344 28.7673 12.1418C28.8998 12.1565 29.0324 12.2228 29.1354 12.3332C30.0632 13.364 29.7834 14.3359 28.9735 15.2195L28.9366 15.2637C28.1267 16.1472 27.0517 16.6405 25.9399 15.8085C25.8221 15.7202 25.7411 15.595 25.7191 15.4625C25.6896 15.3226 25.7191 15.1974 25.8074 15.109Z" fill="#C74038"/>
<path d="M27.8251 14.3875C27.2655 14.9987 26.485 15.3005 25.7119 15.2932C25.7266 15.2196 25.7487 15.1606 25.8003 15.1091L28.4141 12.267C28.4583 12.2155 28.5245 12.186 28.5908 12.1639C28.6644 12.9297 28.4288 13.7322 27.8692 14.3434L27.8251 14.3875Z" fill="#F2EEF1"/>
<path d="M19.7255 4.94818C18.5328 4.41805 14.1003 7.6062 14.3212 11.052C14.3212 11.052 11.3024 8.15842 14.7703 4.39596C18.2382 0.633511 19.8286 2.23863 20.1158 2.68777C20.4029 3.14427 20.3882 3.71121 19.7255 4.94818Z" fill="#784342"/>
<path d="M24.6809 3.21793C23.6722 2.68043 22.6193 2.30492 21.4486 2.17239C20.1454 2.0325 18.7832 2.17975 17.48 2.59208C16.8836 2.08404 16.7805 1.59072 17.6788 1.28884C19.976 0.537822 21.5959 -0.301551 23.0169 0.302208C24.2907 0.847065 25.1301 3.2032 25.8222 3.96894C25.4688 3.68915 25.0859 3.43881 24.6809 3.21793Z" fill="#8F584E"/>
<path d="M14.0341 6.46508C12.51 10.3895 15.2784 12.1493 16.1104 12.7162C16.5817 13.0328 17.0161 13.4378 16.994 13.7544C16.9719 14.071 16.6406 14.7999 17.259 15.3742C17.8775 15.9485 19.166 16.9941 19.2249 17.2297C19.2839 17.4579 19.5636 18.96 19.1881 18.6139C18.8126 18.2678 16.5596 15.816 15.4183 17.053C14.3507 18.2089 15.168 19.4754 16.1693 20.3957C17.1707 21.3161 18.7022 22.0671 19.3869 22.1407C19.3869 22.1407 12.2596 21.721 8.82114 16.4271C5.25749 10.9417 11.9725 3.67453 13.769 2.62899C14.7704 2.04732 17.4578 0.184503 19.5636 1.3773C20.5503 1.93688 20.2116 2.81307 19.8729 3.21803C18.6433 1.0386 14.7483 4.61698 14.0341 6.46508Z" fill="#8F584E"/>
<path d="M15.7275 4.97778C14.52 7.82723 14.4979 9.44708 14.4242 10.5957C14.3285 12.1051 13.6953 15.8381 10.6765 18.1059C10.6765 18.1059 11.965 15.8013 11.3981 13.401C10.8238 11.008 14.1444 5.38274 15.7275 4.97778Z" fill="#864E45"/>
<path d="M19.7258 4.94831C21.8832 2.23876 20.3738 1.04596 20.2265 0.91343C20.0792 0.780898 18.3342 -0.441347 15.0872 3.08549C10.8167 7.72413 11.9653 13.5482 9.60181 15.1975C9.60181 15.1975 12.3482 13.9973 13.7619 10.5294C15.1755 7.06147 14.881 6.7964 16.9206 4.58016C18.3416 3.03395 19.3945 3.23275 19.7332 3.54936C20.1823 3.96168 19.7258 4.94831 19.7258 4.94831Z" fill="#AE7663"/>
<path d="M20.3737 19.2692C20.4106 19.225 20.4768 19.2176 20.5284 19.2397C20.8082 19.3649 21.2499 19.5269 21.7948 19.6005C22.509 19.7036 23.2674 19.5269 23.8859 19.1587C24.5043 18.7906 24.9977 18.2384 24.8872 17.4873C24.7989 16.9057 24.7547 16.4124 25.0492 15.8749C25.2995 15.4257 25.3953 15.1091 25.3216 14.5864C25.2701 14.1961 25.1744 13.7985 25.3584 13.4377C25.5352 13.099 26.0064 12.8045 26.3966 12.8193C26.4334 12.8193 26.4702 12.8045 26.4923 12.7824C26.5218 12.7604 26.5365 12.7235 26.5365 12.6867C26.5439 12.0462 26.9415 11.3688 27.6778 11.4498C28.23 11.5087 28.5245 11.8179 29.0473 11.4645C29.4154 11.2141 29.6805 11.1184 30.1223 11.1331C30.5419 11.1479 30.9543 11.3246 31.2856 10.9638C32.1544 10.014 30.3211 8.00391 30.3211 8.00391C30.3211 8.00391 38.7001 15.1754 34.0393 20.2411C30.4904 24.0993 25.6971 24.4379 22.5532 22.0597C21.6623 21.3897 20.9112 20.4988 20.3517 19.4164C20.3222 19.3723 20.3296 19.3134 20.3737 19.2692ZM26.8531 16.5964C27.4495 16.405 28.3772 16 29.1209 15.1901C29.7762 14.4759 29.894 13.7175 29.9897 13.1359C29.9971 13.0843 29.975 13.0328 29.9308 13.0033C29.8866 12.9739 29.8351 12.9739 29.7836 12.996C29.1651 13.342 28.311 13.6734 27.4127 13.4672C27.3685 13.4598 27.317 13.4672 27.2875 13.504C27.2581 13.5335 27.2434 13.585 27.2507 13.6292C27.4348 14.5054 27.0593 15.6245 26.6764 16.4197C26.6543 16.4713 26.6617 16.5228 26.6985 16.567C26.75 16.5964 26.8016 16.6112 26.8531 16.5964Z" fill="#8F584E"/>
<path d="M24.2751 19.1662C24.2604 19.1883 24.2678 19.2104 24.2825 19.2251C24.2972 19.2398 24.3267 19.2398 24.3414 19.2251L24.6948 18.9379L24.5181 18.7833L24.2751 19.1662Z" fill="#092E3B"/>
<path d="M27.8092 14.3949C27.5956 14.6526 27.3821 14.903 27.176 15.1533C26.9698 15.4036 26.7636 15.654 26.5722 15.897C26.3808 16.1399 26.1893 16.3755 26.0126 16.5964C25.8359 16.8247 25.6739 17.0382 25.5193 17.237C25.2174 17.6346 24.9744 17.9659 24.8051 18.2015C24.7315 18.3046 24.6799 18.3856 24.6357 18.4445L25.0039 18.7685C25.0628 18.717 25.1364 18.6507 25.2248 18.5697C25.4383 18.3709 25.7402 18.0911 26.101 17.745C26.2777 17.5683 26.4691 17.3769 26.6753 17.1781C26.8814 16.9793 27.0876 16.7584 27.3085 16.5375C27.5294 16.3166 27.7503 16.081 27.9711 15.8454C28.192 15.6098 28.4203 15.3668 28.6485 15.1238C28.8989 14.8514 29.1492 14.579 29.3922 14.3139L28.5307 13.5555C28.2951 13.8353 28.0521 14.1151 27.8092 14.3949Z" fill="#9DABB1"/>
<path d="M28.5308 13.5557L29.3996 14.3214C29.4953 14.211 29.591 14.1079 29.6867 14.0048L28.8106 13.2317C28.7148 13.3421 28.6191 13.4452 28.5308 13.5557Z" fill="#5AA5E9"/>
<path d="M31.9765 11.0153C32.0428 10.9049 32.0354 10.765 31.9544 10.6619C31.844 10.5146 31.6452 10.4852 31.5053 10.5956C31.5053 10.5956 31.4759 10.6177 31.4243 10.6545L31.925 11.0963C31.9618 11.0448 31.9765 11.0153 31.9765 11.0153Z" fill="#5AA5E9"/>
<path d="M30.3056 14.1299C30.2614 14.0858 30.2393 14.0268 30.2467 13.9679C30.2614 13.887 30.2982 13.806 30.3571 13.7471L31.8812 12.1199C32.0506 11.9431 32.0874 11.6854 31.9843 11.4646L31.8592 11.2069L31.8076 11.1038C31.7782 11.0522 31.7193 11.0301 31.6677 11.0522C31.6162 11.0743 31.5941 11.1406 31.6162 11.1921L31.7193 11.4057L31.7855 11.5455C31.8518 11.6854 31.8297 11.8474 31.7193 11.9652L30.1951 13.5924C30.1068 13.6882 30.0552 13.7986 30.0331 13.9238C30.0111 14.0563 30.0552 14.1962 30.1583 14.2846C30.2025 14.3214 30.2688 14.3214 30.3056 14.2772C30.3498 14.233 30.3498 14.1667 30.3056 14.1299Z" fill="#5AA5E9"/>
<path d="M31.6676 11.0522C31.7192 11.0228 31.7854 11.0449 31.8075 11.1038L31.8591 11.2068C31.8812 11.1627 31.9106 11.1259 31.9253 11.1038L31.4247 10.662C31.3658 10.7062 31.27 10.7872 31.1449 10.8902C30.924 11.0817 30.6147 11.3615 30.254 11.7075C30.0773 11.8842 29.8858 12.0683 29.687 12.2745C29.4956 12.4806 29.2821 12.6942 29.0759 12.9298C28.9875 13.0255 28.8918 13.1286 28.8035 13.2316L29.6797 14.0048C29.768 13.9017 29.8637 13.7986 29.9521 13.6955C30.1582 13.4599 30.3497 13.2243 30.5264 13.0108C30.7105 12.7972 30.8724 12.5763 31.0271 12.3849C31.3289 11.9947 31.5646 11.656 31.7265 11.413L31.6235 11.1995C31.594 11.1406 31.6161 11.0817 31.6676 11.0522Z" fill="#CED5D8"/>
<path d="M24.5177 18.7833L24.6944 18.9379C24.7607 18.9526 24.8343 18.9305 24.8932 18.879C24.8932 18.879 24.9374 18.8422 25.011 18.7685L24.6429 18.4446C24.584 18.5256 24.5545 18.5771 24.5545 18.5771C24.503 18.636 24.4882 18.717 24.5177 18.7833Z" fill="#5AA5E9"/>
<path d="M27.7661 16.1031C27.7661 16.1031 27.6042 16.1399 28.0827 15.5582C28.5613 14.9765 29.3933 14.2108 29.6805 14.0046L29.3344 14.6231C29.3418 14.6231 28.2668 15.8601 27.7661 16.1031Z" fill="#C74038"/>
<path d="M26.8381 65.199V60.2217H57.4679V65.199C57.4679 65.6261 57.1218 65.9721 56.6948 65.9721H27.6186C27.1916 65.9721 26.8381 65.6261 26.8381 65.199Z" fill="#36638C"/>
<path d="M57.4676 57.4828H26.8379V60.2218H57.4676V57.4828Z" fill="#643C4D"/>
<path d="M51.4749 62.9092C51.6074 62.3423 52.3142 61.9005 53.1683 61.9005C54.0224 61.9005 54.7366 62.3349 54.8618 62.9092V62.9166C54.7293 63.4909 54.0224 63.918 53.1683 63.918C52.3142 63.918 51.6074 63.4835 51.4749 62.9092Z" fill="#BDDBF6"/>
<path d="M28.1783 61.0391H46.2764C46.3647 61.0391 46.431 61.0906 46.431 61.1495V65.0371C46.431 65.1034 46.3647 65.1476 46.2764 65.1476H28.1783C28.0899 65.1476 28.0237 65.096 28.0237 65.0371V61.1495C28.0237 61.0906 28.0899 61.0391 28.1783 61.0391Z" fill="#E7EBEC"/>
<path d="M53.168 63.918C54.0221 63.918 54.7289 63.4836 54.8614 62.9166C54.8688 62.9387 54.8688 62.9608 54.8762 62.9829C54.8835 63.0197 54.8835 63.0639 54.8835 63.1007C54.8835 63.7634 54.1104 64.2935 53.168 64.2935C52.2181 64.2935 51.4524 63.756 51.4524 63.1007C51.4524 63.0639 51.4598 63.0197 51.4598 62.9829C51.4671 62.9608 51.4671 62.9387 51.4745 62.9166C51.607 63.4836 52.3139 63.918 53.168 63.918Z" fill="#092E3B"/>
<path d="M43.4708 61.7091V64.4922C43.4708 64.5732 43.3751 64.6469 43.2499 64.6469C43.1321 64.6469 43.0291 64.5806 43.0291 64.4922V61.7091C43.0291 61.6207 43.1248 61.5544 43.2499 61.5544C43.3751 61.5544 43.4708 61.6207 43.4708 61.7091Z" fill="#CED5D8"/>
<path d="M39.3037 61.5544C39.4215 61.5544 39.5245 61.6207 39.5245 61.7091V64.4922C39.5245 64.5732 39.4288 64.6469 39.3037 64.6469C39.1858 64.6469 39.0828 64.5806 39.0828 64.4922V61.7091C39.0828 61.6207 39.1785 61.5544 39.3037 61.5544Z" fill="#CED5D8"/>
<path d="M35.3422 61.5544C35.46 61.5544 35.5631 61.6207 35.5631 61.7091V64.4922C35.5631 64.5732 35.4674 64.6469 35.3422 64.6469C35.2244 64.6469 35.1213 64.5806 35.1213 64.4922V61.7091C35.1287 61.6207 35.2244 61.5544 35.3422 61.5544Z" fill="#CED5D8"/>
<path d="M31.3886 61.5546C31.5064 61.5546 31.6095 61.6208 31.6095 61.7092V64.4924C31.6095 64.5734 31.5138 64.647 31.3886 64.647C31.2634 64.647 31.1677 64.5807 31.1677 64.4924V61.7092C31.1751 61.6208 31.2708 61.5546 31.3886 61.5546Z" fill="#CED5D8"/>
<path d="M42.146 59.9123V59.8461C42.146 59.6841 42.2785 59.5442 42.4479 59.5442H41.7926H27.1035C26.9195 59.5442 26.7722 59.6914 26.7722 59.8755V59.8829C26.7722 60.067 26.9195 60.2142 27.1035 60.2142H42.4405C42.2785 60.2142 42.146 60.0817 42.146 59.9123Z" fill="#7BB7ED"/>
<path d="M41.4905 59.2497V59.1835C41.4905 59.0215 41.623 58.8816 41.7924 58.8816H27.1033H26.3081C26.1241 58.8816 25.9768 59.0289 25.9768 59.2129V59.2203C25.9768 59.4044 26.1241 59.5516 26.3081 59.5516H27.1033H41.7924C41.623 59.5516 41.4905 59.4117 41.4905 59.2497Z" fill="#CED5D8"/>
<path d="M42.4405 58.8816C42.2785 58.8816 42.1386 58.749 42.1386 58.5797V58.5134C42.1386 58.3514 42.2712 58.2115 42.4405 58.2115H41.7852H27.1035C26.9195 58.2115 26.7722 58.3588 26.7722 58.5429V58.5502C26.7722 58.7343 26.9195 58.8816 27.1035 58.8816H41.7926H42.4405Z" fill="#5AA5E9"/>
<path d="M41.4905 57.9171V57.8508C41.4905 57.6888 41.623 57.549 41.7924 57.549H27.1033H26.3081C26.1241 57.549 25.9768 57.6962 25.9768 57.8803V57.8876C25.9768 58.0717 26.1241 58.219 26.3081 58.219H27.1033H41.7924C41.623 58.219 41.4905 58.0864 41.4905 57.9171Z" fill="#7BB7ED"/>
<path d="M42.4405 57.5563C42.2785 57.5563 42.1386 57.4237 42.1386 57.2544V57.1881C42.1386 57.0261 42.2712 56.8862 42.4405 56.8862H27.8987H27.1035C26.9195 56.8862 26.7722 57.0335 26.7722 57.2176V57.2249C26.7722 57.409 26.9195 57.5563 27.1035 57.5563H41.7926H42.4405Z" fill="#CED5D8"/>
<path d="M43.0958 56.8861C42.9338 56.8861 42.7939 56.7536 42.7939 56.5842V56.5179C42.7939 56.356 42.9264 56.2161 43.0958 56.2161H41.7925H27.8987C27.7146 56.2161 27.5674 56.3633 27.5674 56.5474V56.5548C27.5674 56.7388 27.7146 56.8861 27.8987 56.8861H42.4405H43.0958Z" fill="#E8E1E6"/>
<path d="M41.4905 55.9215V55.8552C41.4905 55.6932 41.623 55.5533 41.7924 55.5533H27.1033H26.3081C26.1241 55.5533 25.9768 55.7006 25.9768 55.8847V55.892C25.9768 56.0761 26.1241 56.2234 26.3081 56.2234H27.8985H41.785C41.623 56.2234 41.4905 56.0908 41.4905 55.9215Z" fill="#BDDBF6"/>
<path d="M42.4405 55.5609C42.2785 55.5609 42.1386 55.4284 42.1386 55.259V55.1927C42.1386 55.0308 42.2712 54.8909 42.4405 54.8909H27.8987H27.1035C26.9195 54.8909 26.7722 55.0381 26.7722 55.2222V55.2296C26.7722 55.4136 26.9195 55.5609 27.1035 55.5609H41.7926H42.4405Z" fill="#7BB7ED"/>
<path d="M43.0958 54.8909C42.9338 54.8909 42.7939 54.7583 42.7939 54.589V54.5227C42.7939 54.3607 42.9264 54.2208 43.0958 54.2208H42.4405H27.8987C27.7146 54.2208 27.5674 54.3681 27.5674 54.5522V54.5595C27.5674 54.7436 27.7146 54.8909 27.8987 54.8909H42.4405H43.0958Z" fill="#00B5AC"/>
<path d="M42.146 53.9263V53.86C42.146 53.698 42.2785 53.5581 42.4479 53.5581H27.8987H27.1035C26.9195 53.5581 26.7722 53.7054 26.7722 53.8894V53.8968C26.7722 54.0809 26.9195 54.2281 27.1035 54.2281H27.8987H42.4405C42.2785 54.2281 42.146 54.0956 42.146 53.9263Z" fill="#19AAA3"/>
<path d="M43.0958 53.5655C42.9338 53.5655 42.7939 53.433 42.7939 53.2637V53.1974C42.7939 53.0354 42.9264 52.8955 43.0958 52.8955H27.8987C27.7146 52.8955 27.5674 53.0428 27.5674 53.2268V53.2342C27.5674 53.4183 27.7146 53.5655 27.8987 53.5655H42.4405H43.0958Z" fill="#92798C"/>
<path d="M44.605 59.5515H42.4476C42.2856 59.5515 42.1458 59.684 42.1458 59.8534V59.9197C42.1458 60.0816 42.2783 60.2215 42.4476 60.2215H45.4002H57.387C57.549 60.2215 57.6889 60.089 57.6889 59.9197V59.8534C57.6889 59.6914 57.5563 59.5515 57.387 59.5515H56.7317H45.4002H44.605Z" fill="#9CC9F2"/>
<path d="M44.605 58.8816H42.4477H41.7924C41.6304 58.8816 41.4905 59.0141 41.4905 59.1835V59.2497C41.4905 59.4117 41.623 59.5516 41.7924 59.5516H42.4477H44.605H45.4002H56.7317C56.8937 59.5516 57.0336 59.4191 57.0336 59.2497V59.1835C57.0336 59.0215 56.9011 58.8816 56.7317 58.8816H45.4002H44.605Z" fill="#6B8289"/>
<path d="M44.605 58.2189H42.4476C42.2856 58.2189 42.1458 58.3514 42.1458 58.5208V58.587C42.1458 58.749 42.2783 58.8889 42.4476 58.8889H44.605H45.4002H56.7317H57.387C57.549 58.8889 57.6889 58.7564 57.6889 58.587V58.5208C57.6889 58.3588 57.5563 58.2189 57.387 58.2189H56.7317H45.4002H44.605Z" fill="#5AA5E9"/>
<path d="M44.605 57.5562H42.4477H41.7924C41.6304 57.5562 41.4905 57.6887 41.4905 57.858V57.9243C41.4905 58.0863 41.623 58.2262 41.7924 58.2262H42.4477H44.605H45.4002H56.7317C56.8937 58.2262 57.0336 58.0936 57.0336 57.9243V57.858C57.0336 57.696 56.9011 57.5562 56.7317 57.5562H45.4002H44.605Z" fill="#9CC9F2"/>
<path d="M45.4 56.8862H43.0954H42.4401C42.2781 56.8862 42.1382 57.0188 42.1382 57.1881V57.2544C42.1382 57.4164 42.2707 57.5563 42.4401 57.5563H44.5974H45.3926H56.7315H57.3868C57.5488 57.5563 57.6887 57.4237 57.6887 57.2544V57.1881C57.6887 57.0261 57.5561 56.8862 57.3868 56.8862H46.1952H45.4Z" fill="#6B8289"/>
<path d="M43.0956 56.2236C42.9336 56.2236 42.7937 56.3562 42.7937 56.5255V56.5918C42.7937 56.7538 42.9262 56.8937 43.0956 56.8937H45.4002H46.1954H57.387H58.0423C58.2043 56.8937 58.3442 56.7611 58.3442 56.5918V56.5255C58.3442 56.3635 58.2117 56.2236 58.0423 56.2236H56.7317H43.0956Z" fill="#CFC2CC"/>
<path d="M44.605 55.5609H42.4477H41.7924C41.6304 55.5609 41.4905 55.6934 41.4905 55.8628V55.9291C41.4905 56.091 41.623 56.2309 41.7924 56.2309H43.0956H56.7317C56.8937 56.2309 57.0336 56.0984 57.0336 55.9291V55.8628C57.0336 55.7008 56.9011 55.5609 56.7317 55.5609H45.4002H44.605Z" fill="#19AAA3"/>
<path d="M45.4 54.8909H43.0954H42.4401C42.2781 54.8909 42.1382 55.0234 42.1382 55.1927V55.259C42.1382 55.421 42.2707 55.5609 42.4401 55.5609H44.5974H45.3926H56.7315H57.3868C57.5488 55.5609 57.6887 55.4284 57.6887 55.259V55.1927C57.6887 55.0308 57.5561 54.8909 57.3868 54.8909H46.1952H45.4Z" fill="#9CC9F2"/>
<path d="M45.4002 54.2283H43.0956C42.9336 54.2283 42.7937 54.3608 42.7937 54.5301V54.5964C42.7937 54.7584 42.9262 54.8983 43.0956 54.8983H45.4002H46.1954H57.387H58.0423C58.2043 54.8983 58.3442 54.7658 58.3442 54.5964V54.5301C58.3442 54.3682 58.2117 54.2283 58.0423 54.2283H57.387H46.1954H45.4002Z" fill="#4FACA8"/>
<path d="M45.4 53.5656H43.0954H42.4401C42.2781 53.5656 42.1382 53.6981 42.1382 53.8674V53.9337C42.1382 54.0957 42.2707 54.2356 42.4401 54.2356H43.0954H45.4H46.1952H57.3868C57.5488 54.2356 57.6887 54.103 57.6887 53.9337V53.8674C57.6887 53.7054 57.5561 53.5656 57.3868 53.5656H46.1952H45.4Z" fill="#158882"/>
<path d="M58.3368 53.2637V53.1974C58.3368 53.0354 58.2043 52.8955 58.0349 52.8955H46.1954H43.0956C42.9336 52.8955 42.7937 53.028 42.7937 53.1974V53.2637C42.7937 53.4256 42.9262 53.5655 43.0956 53.5655H45.4002H46.1954H57.387H58.0423C58.2043 53.5655 58.3368 53.433 58.3368 53.2637Z" fill="#6C4E66"/>
<path d="M63.4394 33.4281H45.2604C44.4873 33.4943 44.0455 34.1865 43.8614 34.9448L40.6954 51.666L40.0842 51.4378L43.2503 34.7166C43.427 33.9729 43.8761 33.2661 44.6492 33.1998H62.8283C63.1081 33.2219 63.1523 33.2661 63.7192 33.4796C63.5499 33.4354 63.6161 33.4502 63.4394 33.4281Z" fill="#6B8289"/>
<path d="M40.0623 51.9974C40.0475 51.7102 40.0549 51.6955 40.0917 51.4378L40.7028 51.6661L43.8689 34.9449C44.0456 34.1865 44.4948 33.4944 45.2679 33.4281H63.4469C63.6236 33.4428 63.5574 33.4281 63.7267 33.4796C64.2789 33.7594 64.3599 34.3264 64.2716 34.9449L61.1055 51.6661C60.9288 52.4171 60.4797 53.1166 59.7066 53.1828C59.4783 53.1828 59.1249 53.1828 58.661 53.1828C54.7955 53.1828 43.6333 53.1828 41.5349 53.1828C41.2182 53.1534 40.9458 53.0135 40.6439 52.903L40.6219 52.8957H40.563C37.7209 52.8957 30.0929 52.8957 26.4924 52.8957C26.3304 52.8957 26.1758 52.8957 26.0285 52.8957C25.9034 52.8957 25.8003 52.7926 25.8003 52.6674V52.0931C25.8003 52.0416 25.8445 51.9974 25.896 51.9974C30.9028 51.9974 35.1365 51.9974 40.0623 51.9974Z" fill="#9DABB1"/>
<path d="M40.6146 52.8883L40.6366 52.8957C41.1226 53.0798 41.2183 53.1534 41.5276 53.1755C43.626 53.1755 54.7882 53.1755 58.6537 53.1755V53.1902C58.6537 53.308 58.558 53.4037 58.4402 53.4037C55.6644 53.4037 29.5849 53.4037 26.7134 53.4037C26.5882 53.4037 26.4851 53.3007 26.4851 53.1755V52.881C30.0856 52.881 37.7209 52.881 40.5556 52.881H40.6146V52.8883Z" fill="#3A5862"/>
<path d="M15.9265 20.5797L15.3301 22.818C15.2859 22.98 15.4847 23.1641 15.7645 23.2377L23.1569 25.1962C23.4367 25.2699 23.7018 25.2036 23.7459 25.0416L24.3423 22.8033C24.3865 22.6413 24.1877 22.4572 23.9079 22.3836L16.5156 20.4251C16.2358 20.3514 15.9707 20.4177 15.9265 20.5797Z" fill="#092E3B"/>
<path d="M16.361 20.7711L15.8088 22.8621C15.794 22.921 15.8677 22.9873 15.9634 23.0168L22.1924 24.6661C22.2955 24.6955 22.3912 24.6661 22.4059 24.6145L22.9582 22.5234C22.9729 22.4645 22.8993 22.3983 22.8035 22.3688L16.5745 20.7195C16.4714 20.6901 16.3757 20.7122 16.361 20.7711Z" fill="#3A5862"/>
<path d="M22.9434 23.6353C22.9066 23.7678 23.0686 23.9225 23.3042 23.9887C23.5398 24.0476 23.7607 23.9961 23.7975 23.8636C23.8344 23.731 23.6724 23.5764 23.4368 23.5101C23.1938 23.4439 22.9729 23.5028 22.9434 23.6353Z" fill="#6B8289"/>
<path d="M15.1902 17.7597C15.5952 17.016 16.464 16.773 17.2592 17.3252C18.2532 18.0026 17.8041 18.6137 18.695 19.2322C19.2399 19.6151 19.6006 19.5783 20.1455 19.9464C20.6388 20.2851 21.0511 20.8594 20.7787 21.3528C20.3369 22.1627 18.4299 21.9712 17.1046 21.2129C15.7351 20.4324 14.4908 19.0187 15.1902 17.7597Z" fill="#FFC0B5"/>
<path d="M20.9922 24.6293L16.1106 23.4218C16.1327 23.5469 17.4727 24.0034 17.5905 24.0402L23.2158 25.6674C23.3263 25.6969 23.5103 25.6306 23.5766 25.4392L23.7533 25.0416C23.5545 25.1373 23.3336 25.1668 23.1201 25.1152L20.9922 24.6293Z" fill="#6B8289"/>
<path d="M34.908 64.2491C35.5927 63.4613 35.5044 62.2685 34.7165 61.5837L22.7886 51.2388C21.0289 49.7073 19.9612 47.5868 19.7993 45.2528L18.6801 29.5035C18.6065 28.4653 17.7008 27.6775 16.6627 27.7511C15.6245 27.8247 14.8367 28.7304 14.9103 29.7685L16.0295 45.5178C16.2651 48.8532 17.7892 51.8941 20.3147 54.0883L32.2426 64.4332C33.0304 65.1179 34.2232 65.0369 34.908 64.2491Z" fill="#FFC0B5"/>
<path d="M33.6266 68.77C33.7592 68.7037 33.8622 68.6006 33.9211 68.4755C33.9359 68.4386 33.9727 68.4165 34.0095 68.4092C34.0463 68.4018 34.0831 68.4165 34.1126 68.446C34.3482 68.6963 34.7237 68.7773 35.0477 68.6153C35.2391 68.5196 35.3716 68.3576 35.4379 68.1736C35.4526 68.1368 35.4821 68.1073 35.5263 68.0999C35.5631 68.0926 35.6073 68.1073 35.6367 68.1368C35.9091 68.4313 36.3435 68.5123 36.7043 68.3356C37.0357 68.1662 37.2639 67.7981 37.1903 67.3784C37.1829 67.3342 37.1976 67.2974 37.2345 67.2679C37.2639 67.2385 37.3155 67.2311 37.3523 67.2532C37.5511 67.3342 37.7867 67.3268 37.9928 67.2238C38.3904 67.025 38.5451 66.5537 38.3463 66.1635C38.3463 66.1635 38.0076 65.4493 37.875 65.1695C37.8456 65.1106 37.875 65.037 37.9339 65.0075C38.7291 64.6026 38.4346 63.4687 37.5584 62.4084C36.535 61.1641 33.9727 59.397 32.235 60.3762C30.7845 61.1935 30.1587 63.292 31.1232 65.3241C31.2926 65.6849 30.9686 65.037 32.7284 68.4755C32.883 68.8068 33.2879 68.9393 33.6266 68.77Z" fill="#FFC0B5"/>
<path d="M20.0424 54.405C17.4506 52.1593 15.8603 48.9711 15.6173 45.5474L14.5055 29.8864C14.4687 29.3195 14.5938 28.7452 14.9252 28.2887C15.3301 27.7217 15.956 27.383 16.6407 27.3315C17.2592 27.2873 17.8482 27.4861 18.3195 27.8911C18.7833 28.296 19.0631 28.8556 19.1073 29.4741L20.2265 45.2234C20.3811 47.4249 21.4045 49.4718 23.0759 50.9223L30.5125 57.3796C30.6008 57.4532 30.6082 57.5857 30.5346 57.6741L27.7808 60.8401C27.7072 60.9285 27.5747 60.9359 27.4863 60.8622L20.0424 54.405Z" fill="#DEEDFB"/>
<path d="M30.5271 57.6666L27.7808 60.84L30.1222 62.8722C30.2105 62.9458 30.3431 62.9385 30.4167 62.8501L32.8906 59.9933C32.9643 59.905 32.9569 59.7724 32.8685 59.6988L30.5271 57.6666Z" fill="#BDDBF6"/>
<path d="M69.3078 11.8913C69.0575 11.9428 68.8219 12.0386 68.6084 12.1637C68.4243 12.2742 68.1887 12.2742 67.9972 12.1637C67.7174 12.0017 67.3861 11.9355 67.0401 12.0091C66.3848 12.149 65.9062 12.7601 65.9798 13.4596C66.0019 13.6437 65.9283 13.8351 65.7884 13.9603C65.273 14.4389 65.0153 15.1678 65.1699 15.9115C65.192 16.0072 65.2141 16.0955 65.2509 16.1839C65.3319 16.4121 65.273 16.6625 65.0962 16.8245C64.7134 17.1779 64.5219 17.7227 64.6397 18.2676C64.8165 19.0996 65.6337 19.6297 66.4657 19.4604C67.1947 19.3058 67.7027 18.6578 67.688 17.9289C67.6806 17.6859 67.8279 17.465 68.0414 17.3693C68.4022 17.2073 68.6894 16.957 68.9029 16.6478C69.028 16.4637 69.2489 16.3606 69.4772 16.39C69.7275 16.4195 69.9852 16.4121 70.2429 16.3606C71.4799 16.0955 72.2677 14.8807 72.01 13.6437C71.7597 12.4141 70.5448 11.6262 69.3078 11.8913Z" fill="#CED5D8"/>
<path d="M67.8428 21.7135C67.7987 21.7208 67.7545 21.7061 67.725 21.6767C67.6956 21.6472 67.6809 21.603 67.6809 21.5589L67.725 21.1981C67.7471 21.0214 67.6219 20.8667 67.4452 20.8447L61.3635 20.1305C61.1868 20.1084 61.0321 20.2335 61.01 20.4102L60.2148 27.162C60.1486 27.7511 60.6787 28.2886 61.2677 28.3622L65.6929 28.885C66.2819 28.9512 66.8562 28.5389 66.9298 27.9572C66.9446 27.8542 66.9519 27.7732 66.9593 27.7069C66.9814 27.5376 66.9887 27.4787 66.9887 27.486C66.9887 27.4566 66.9961 27.4271 66.9961 27.3977C67.0035 27.3608 67.0182 27.324 67.0476 27.3019C67.0771 27.2799 67.1139 27.2651 67.1581 27.2725C68.2257 27.4124 69.9339 27.2062 70.2358 24.6513C70.5892 21.5883 68.7043 21.5957 67.8428 21.7135ZM67.1728 26.3153C67.1507 26.3006 67.1213 26.2932 67.1213 26.2932C67.6367 21.927 67.4379 23.6058 67.5483 22.6707C67.5778 22.3909 69.8308 21.8902 69.5216 24.5556C69.2565 26.8086 67.8576 26.6393 67.1728 26.3153Z" fill="#00B5AC"/>
<path d="M69.9186 22.5309C69.5725 22.3689 69.1528 22.5162 68.9908 22.8549C68.9025 23.0389 68.9099 23.2377 68.9835 23.4071C69.0056 23.4513 69.0056 23.5028 68.9835 23.547C68.9614 23.5912 68.9246 23.628 68.873 23.6427C68.689 23.6942 68.5343 23.8194 68.446 24.0035C68.3576 24.1876 68.365 24.3864 68.4386 24.5557C68.4607 24.5999 68.4607 24.6514 68.4386 24.6956C68.4165 24.7398 68.3797 24.7766 68.3282 24.7913C68.1441 24.8429 67.9895 24.968 67.9011 25.1521C67.798 25.373 67.8275 25.6307 67.96 25.8221C67.9895 25.8589 67.9968 25.9105 67.9895 25.9547C67.9821 25.9988 67.9527 26.043 67.9085 26.0651C67.7907 26.1314 67.695 26.2271 67.6361 26.3596C67.4741 26.6983 67.6287 27.1106 67.9821 27.2726L68.4607 27.4935C68.6227 27.5671 68.7331 27.7144 68.7552 27.8837C68.8951 28.8409 69.3295 29.5772 69.9627 29.776C70.9936 30.1 72.1716 28.8925 72.5839 27.0738C73.3865 23.5691 73.173 24.0182 69.9186 22.5309Z" fill="#F9B5A5"/>
<path d="M61.923 20.2042C61.923 20.2042 60.745 19.8949 60.8702 19.1587C60.988 18.4224 61.4518 19.0408 61.6359 19.3648C61.8273 19.6888 62.6078 20.4766 62.2176 19.6225C61.8273 18.7684 61.1426 18.7905 61.0395 17.8775C60.9511 17.1118 62.5194 16.508 62.6593 17.4652C62.7624 18.1794 62.7624 20.5502 65.4278 20.6092L61.923 20.2042Z" fill="#8F584E"/>
<path d="M60.2073 17.3327C60.2073 17.3327 60.0011 16.6259 60.4797 15.9632C60.9656 15.3005 60.3251 14.3949 59.6992 15.0723C59.3973 15.4036 59.1544 16.5449 60.2073 17.3327Z" fill="#8F584E"/>
<path d="M61.0095 16.2724C61.0095 16.2724 61.0537 15.7423 61.5912 15.5287C62.1287 15.3152 62.3275 15.4257 62.4453 15.595C62.5705 15.7643 62.4306 15.9263 62.3275 15.9926C62.1655 16.103 61.4734 15.7791 61.0095 16.2724Z" fill="#8F584E"/>
</svg>
