
<svg width="64" height="128" viewBox="0 0 64 128" fill="none" xmlns="http://www.w3.org/2000/svg">
<path d="M34.2355 14.3111L33.9837 13.6676C33.515 12.5273 33.515 11.6668 33.6199 10.4426C33.6968 9.5472 33.501 8.61679 32.4516 8.35796C32.5636 7.90325 32.5566 7.39958 32.2837 6.85393C32.0669 6.4272 31.7101 6.08442 31.2904 5.86056C30.5978 5.48281 30.262 5.56675 29.8703 5.68568C29.5345 5.78361 29.2477 5.50379 29.2617 5.14702C29.2617 3.7759 28.1564 3.10433 26.7923 3.10433C26.0787 3.10433 26.0507 3.04137 25.666 3.28622C25.5121 3.38415 25.2533 3.39115 25.1064 3.28622C25.0364 3.23725 24.9105 3.04137 24.8965 3.0064C24.2669 1.46739 23.7282 1.17357 22.2872 1.17357C21.9234 1.17357 21.5806 1.25052 21.2658 1.38344C20.5942 1.67026 19.8177 1.62828 19.2021 1.22954C18.7964 0.970704 18.3137 0.816803 17.803 0.816803C17.2154 0.816803 16.6768 1.01268 16.243 1.33447C15.7184 1.73321 15.0608 1.92909 14.4172 1.79617C14.2563 1.76819 14.0884 1.74721 13.9205 1.74721C12.9482 1.74721 12.1017 2.27886 11.654 3.06936C11.5351 3.27922 11.3182 3.41913 11.0734 3.41913H11.0034C9.56233 3.41913 8.39408 4.58738 8.39408 6.02846V6.03545C8.39408 6.2663 8.24718 6.46218 8.03032 6.53213C7.02296 6.8889 6.29543 7.85428 6.29543 8.98756C6.29543 9.15545 6.30942 9.31635 6.3444 9.47025C6.37938 9.66612 6.23247 9.84101 6.0296 9.84101C4.66548 9.84101 3.82601 10.9323 3.82601 12.3034C3.82601 12.4363 3.84001 12.5693 3.86099 12.7022C3.95193 13.2478 3.77705 13.8075 3.44126 14.2552C3.12646 14.6679 2.94458 15.1856 2.94458 15.7452C2.94458 16.151 3.04252 16.5357 3.2174 16.8715C3.51821 17.4661 3.58817 18.1587 3.39229 18.7953C3.31534 19.0541 3.26637 19.3269 3.26637 19.6067C3.26637 20.9289 4.20377 22.0342 5.44897 22.3C5.66583 22.349 5.82673 22.5309 5.82673 22.7547C5.82673 24.3427 7.04395 25.7068 8.62493 25.7908C9.79318 25.8467 10.8215 25.2241 11.3532 24.2867L14.9629 25.1262L18.6845 24.9093L27.0301 22.356L27.6247 22.4189C28.751 22.5449 29.8773 22.1951 30.7307 21.4536C32.5776 19.8656 35.3898 16.8785 34.2355 14.3111ZM24.3299 5.39886C24.3229 5.45482 24.3229 5.51079 24.3229 5.56675C24.3229 5.61572 24.3299 5.66469 24.3299 5.71366C24.2599 5.68568 24.1829 5.66469 24.113 5.63671C24.1899 5.56675 24.2599 5.4898 24.3299 5.39886Z" fill="#0B2E3A"/>
<path d="M38.2442 12.4293C38.1603 12.1075 38.0624 12.3454 37.7406 12.4293C37.6146 12.4643 37.8875 11.6318 37.8105 11.7298C37.7895 11.7577 37.7546 11.7717 37.7196 11.7647C37.6846 11.7647 37.6566 11.7437 37.6356 11.7158C37.4817 11.4569 37.1669 11.317 36.8591 11.401C36.6772 11.4499 36.5303 11.5619 36.4394 11.7088C36.4184 11.7368 36.3834 11.7577 36.3485 11.7577C36.3135 11.7577 36.2785 11.7368 36.2575 11.7088C36.0756 11.401 35.7119 11.9326 35.3691 12.0236C35.0473 12.1075 34.7955 11.7088 34.7745 12.0865C34.7745 12.1215 34.7535 12.1565 34.7185 12.1775C34.6835 12.1915 34.6485 12.1915 34.6136 12.1705C34.4527 12.0655 35.0823 12.4223 34.8864 12.4713C34.5086 12.5692 34.1938 12.884 34.2918 13.2618C34.2918 13.2618 33.7181 13.6046 33.7811 13.8774C33.7951 13.9333 33.7601 13.9963 33.7042 14.0103C32.9416 14.2132 32.9906 15.2485 33.5503 16.3258C34.2078 17.592 36.0966 19.5927 37.7755 19.0611C39.1816 18.6203 40.105 16.9274 39.6433 14.9897C39.5804 14.6259 39.1257 15.7312 38.2442 12.4293Z" fill="#885856"/>
<path d="M43.337 31.4435C43.6937 32.7727 43.309 34.1928 42.3366 35.1652C41.8609 35.6408 41.2663 35.9836 40.6087 36.1585C39.9581 36.3334 39.2656 36.3334 38.615 36.1585L23.064 31.9892C21.9377 31.6884 21.2661 30.5201 21.567 29.3939C21.7628 28.6663 22.3365 28.0927 23.064 27.8968C23.4208 27.7989 23.7985 27.7989 24.1623 27.8968L39.0697 31.8913L35.7049 19.3203C35.6419 19.0965 35.7818 18.8586 36.0057 18.8027L39.2796 17.9282C39.5034 17.8653 39.7413 18.0052 39.7972 18.229L43.337 31.4435Z" fill="#006D67"/>
<path d="M35.9212 20.1384L40.0136 19.0401L39.7967 18.2217C39.7338 17.9978 39.5029 17.8649 39.2791 17.9209L36.0052 18.8023C35.7743 18.8653 35.6484 19.0961 35.7044 19.32L35.9212 20.1384Z" fill="#004845"/>
<path d="M19.1529 127.107L19.1459 127.191C19.1389 127.309 19.055 127.4 18.964 127.4H18.6632C18.5723 127.4 18.4884 127.309 18.4814 127.191L18.2925 124.721L18.9011 126.708C18.9571 126.862 19.041 126.995 19.1529 127.107Z" fill="#002422"/>
<path d="M17.74 118.852L18.5515 121.216C18.5585 121.244 18.5724 121.272 18.5794 121.3C18.7963 121.916 19.0761 122.511 19.4189 123.07C19.5028 123.21 19.5938 123.343 19.6847 123.476L20.4193 124.546C20.6081 124.833 20.9509 125.001 21.3007 125.001H21.3916H24.008C24.2178 125.001 24.4207 125.05 24.5886 125.134C24.5956 125.134 24.5956 125.141 24.5956 125.141C24.6445 125.162 24.7005 125.197 24.7425 125.225C24.7915 125.26 24.8334 125.295 24.8754 125.33C24.9174 125.365 24.9523 125.407 24.9943 125.442C25.0293 125.484 25.0643 125.526 25.0923 125.575C25.1132 125.603 25.1342 125.631 25.1482 125.673C25.1622 125.694 25.1762 125.715 25.1832 125.743C25.2112 125.792 25.2252 125.84 25.2392 125.896C25.2532 125.931 25.2602 125.966 25.2671 126.008C25.2741 126.029 25.2741 126.05 25.2811 126.071C25.2881 126.113 25.2881 126.162 25.2881 126.204C25.2881 126.533 25.1412 126.834 24.9104 127.051C24.6795 127.268 24.3577 127.4 24.008 127.4H20.5592H19.8806C19.5938 127.4 19.328 127.289 19.1461 127.107C19.0341 126.995 18.9502 126.862 18.9012 126.708L18.2926 124.721L17.698 122.783C17.5301 122.238 17.4602 121.664 17.5021 121.098C17.5511 120.517 17.6211 119.705 17.74 118.852Z" fill="#004845"/>
<path d="M21.3987 125.008H21.3078C20.951 125.008 20.6152 124.84 20.4264 124.553L19.6918 123.483C19.6009 123.35 19.5099 123.217 19.426 123.077C19.0832 122.518 18.8034 121.923 18.5865 121.307C18.5795 121.279 18.5655 121.251 18.5585 121.223L17.7541 118.859H17.7471C17.796 118.537 17.852 118.201 17.908 117.88H17.915C18.0898 116.362 19.1532 115.2 20.4333 115.2C21.8394 115.2 22.9867 116.606 22.9867 118.334L23.0427 119.314C23.0776 120.013 23.1756 120.706 23.3155 121.391L23.8611 123.952C23.9381 124.315 24.12 124.651 24.3928 124.917L24.6167 125.148C24.4418 125.064 24.2459 125.015 24.036 125.015H21.3987V125.008Z" fill="#885856"/>
<path d="M26.7784 60.8662C27.9326 60.9922 28.7581 62.0345 28.6322 63.1818L22.5531 117.915C22.4272 119.069 21.3918 119.894 20.2376 119.768C19.0833 119.643 18.2579 118.6 18.3838 117.453L24.4629 62.72C24.5958 61.5728 25.6311 60.7403 26.7784 60.8662Z" fill="#885856"/>
<path d="M6.06481 123.777L9.24077 125.071C9.24776 125.071 9.24776 125.071 9.24776 125.071C9.93332 125.351 10.2831 126.058 10.0452 126.645L10.0173 126.708C9.77942 127.303 9.02391 127.555 8.33835 127.275L5.16938 125.988C4.48382 125.708 4.12705 125.001 4.3649 124.407L4.39288 124.344C4.63772 123.763 5.37925 123.504 6.06481 123.777Z" fill="#004845"/>
<path d="M8.07279 117.439L6.59674 120.699C6.4918 120.93 6.39387 121.161 6.30292 121.384L5.65934 122.972C5.53342 123.273 5.7223 123.637 6.07207 123.777C5.38651 123.504 4.63799 123.756 4.40015 124.351L5.03674 122.784C5.64535 121.287 6.41485 119.859 7.33127 118.523L8.07279 117.439Z" fill="#004845"/>
<path d="M9.2478 125.078C9.59758 125.218 9.98233 125.092 10.1083 124.791L10.7518 123.203C10.8428 122.972 10.9337 122.742 11.0247 122.504L12.2349 119.139L12.018 120.44C11.7382 122.042 11.2975 123.595 10.6889 125.092L10.0523 126.659C10.2901 126.064 9.93336 125.358 9.2478 125.078Z" fill="#004845"/>
<path d="M10.7521 123.196L10.1085 124.784C9.98255 125.085 9.60479 125.218 9.24802 125.071C9.24103 125.071 9.24103 125.071 9.24103 125.071L6.07206 123.784H6.06506C5.71529 123.644 5.53341 123.28 5.65233 122.979L6.29592 121.391C6.38686 121.161 6.4848 120.93 6.58973 120.706L8.07278 117.439L8.10076 117.397C8.75134 115.795 10.2134 114.872 11.3537 115.34C12.5009 115.809 12.8927 117.481 12.2421 119.083L12.2281 119.132L11.0179 122.497C10.9339 122.735 10.85 122.965 10.7521 123.196Z" fill="#885856"/>
<path d="M16.9987 61.0063C17.6703 61.2791 18.1809 61.8947 18.2859 62.6642L21.5668 84.4762C22.3293 90.0167 21.6227 95.676 19.5101 100.853L12.3537 118.432C11.92 119.503 10.6958 120.02 9.61844 119.587C8.54813 119.153 8.03046 117.929 8.46418 116.851L15.6206 99.2717C17.4534 94.7736 18.069 89.8558 17.4044 85.0499L14.1236 63.2379C13.9627 62.0906 14.7671 61.0343 15.9144 60.8734C16.3061 60.8244 16.6699 60.8734 16.9987 61.0063Z" fill="#885856"/>
<path d="M20.93 28.6868C24.113 28.6868 24.5048 27.3436 24.5048 27.3436C23.6163 26.0774 22.1683 25.3289 20.6222 25.3289H18.1109C17.2924 25.3289 16.5369 25.7836 16.1521 26.5042C16.0962 26.6091 16.0752 26.721 16.0892 26.826C16.1171 27.0988 16.7887 28.6868 20.93 28.6868Z" fill="#F4F4F6"/>
<path d="M17.4111 26.6231C18.2576 26.5181 19.195 26.4482 20.2093 26.4482C21.5245 26.4482 22.6927 26.5811 23.7071 26.77C23.6231 27.7214 22.6927 28.3999 21.2796 28.3999C19.8036 28.3999 18.2506 27.6514 17.4111 26.6231Z" fill="#D9C868"/>
<path d="M17.4744 26.6162L18.9784 34.3742L25.1205 35.5635L23.7074 26.6092C23.7074 26.6092 18.4957 24.9303 17.4744 26.6162Z" fill="#885856"/>
<path d="M17.9991 26.9101C18.153 28.0573 19.2093 28.8618 20.3566 28.7079C21.5038 28.554 22.3083 27.4977 22.1544 26.3504C22.0005 25.2032 20.9442 24.3987 19.7969 24.5526C18.6497 24.7065 17.8452 25.7628 17.9991 26.9101Z" fill="#F3978E"/>
<path d="M20.4195 30.8698C20.5175 30.8628 20.6154 30.8488 20.7064 30.8278C21.8746 30.59 22.7141 29.5057 22.6091 28.2815L21.8816 19.4671C21.7697 18.145 20.6154 17.1656 19.2933 17.2705C17.9571 17.3755 16.9917 18.5367 17.0967 19.8589L17.8242 28.6732C17.9431 29.9954 19.0974 30.9747 20.4195 30.8698Z" fill="#885856"/>
<path d="M17.4399 23.867L17.1111 19.8586C16.9991 18.5364 17.9715 17.3752 19.3077 17.2703C20.6298 17.1583 21.7841 18.1447 21.896 19.4668L22.3717 25.2591C21.5532 25.1892 20.6788 25.0283 19.7624 24.7694C18.9649 24.5386 18.1884 24.2308 17.4399 23.867Z" fill="#4D2523"/>
<path d="M28.3386 40.7332C28.2756 41.055 28.1987 41.3838 28.1077 41.7195H14.5714C14.1097 40.7961 13.676 39.7328 13.2563 38.4946C12.6057 36.5988 12.3119 34.9199 12.3679 33.4998C12.4028 32.6534 12.067 31.8209 11.4654 31.2333C11.3325 31.1004 11.2206 30.9535 11.1366 30.7926C10.626 29.8761 10.9618 28.7079 11.8782 28.2042C11.9831 28.1483 14.0118 27.043 17.4816 26.6162C19.5872 28.0573 20.0419 32.3036 24.8338 35.3326C23.6656 33.241 23.9734 30.3588 23.8895 29.3515C23.7635 27.9174 23.3018 27.1409 22.7212 26.6162C25.9881 27.043 27.9049 28.1832 28.0028 28.2392C28.9052 28.7848 29.1921 29.9601 28.6464 30.8555C28.4715 31.1493 28.2127 31.3872 27.9189 31.5481C27.6251 31.702 27.3312 32.0238 27.4222 32.3316L27.4851 32.5065C27.73 33.0591 27.6251 33.4299 28.1567 33.7097C29.1851 34.2483 30.1085 35.1228 30.3393 36.2561C30.7451 38.2358 29.213 39.2571 28.3386 40.7332Z" fill="#006D67"/>
<path d="M11.1854 60.5164C11.1574 59.1103 11.5981 57.2145 12.0179 55.9203C13.6338 50.9605 16.2222 50.6737 16.3551 46.8472C16.467 43.7621 14.956 43.5033 13.2491 38.4875C12.6894 36.8436 12.3886 35.3605 12.3607 34.0664C12.3886 34.5421 12.6125 36.6407 13.333 36.7876C14.2704 36.9765 15.6415 35.5984 15.6415 32.996C15.6415 30.3098 13.5709 27.7634 12.5495 27.8683C13.1372 27.6165 14.0885 27.2667 15.3547 26.9729C16.3971 27.2807 17.2225 29.4703 18.5027 31.3591C19.4051 32.6882 20.4824 33.4507 21.7346 34.9478C23.3716 36.8925 24.0432 38.3336 24.5049 38.3336C25.0575 38.3336 26.2048 35.5634 25.7361 32.2475C25.4772 30.4147 24.7707 27.5885 23.0708 26.6581C24.9176 26.9379 26.2957 27.4416 27.1212 27.7984C28.891 28.5609 27.7788 31.0163 27.5689 31.9397C27.6039 32.6393 27.7508 33.2759 28.4853 33.7306C30.9617 35.2486 31.0736 38.7184 28.884 40.2574C28.1985 40.7401 28.2055 41.3767 27.9886 42.1881C27.9746 42.2511 27.9536 42.3141 27.9397 42.377C26.5825 47.5327 27.352 48.2463 28.7721 52.2197C29.1079 52.9892 29.3667 53.8636 29.5486 54.822C29.9054 56.396 30.0593 57.4034 30.1362 57.7881C30.7169 61.097 31.1436 64.8956 31.4444 68.2184C31.8501 72.6676 32.102 77.0468 32.2489 80.4326C32.2839 80.4466 32.4588 86.2878 32.4588 86.3298C32.4727 86.9034 33.4661 86.7215 11.6751 86.7215C11.4652 86.7215 11.2973 86.5536 11.2903 86.3508C11.2134 83.5246 11.1784 80.9852 11.1784 80.9852C11.1784 80.9503 11.0875 73.1153 11.1155 73.0943C11.1225 69.5756 11.1854 60.5164 11.1854 60.5164Z" fill="#006D67"/>
<path d="M15.9563 48.9109C16.1802 48.3302 16.3271 47.6727 16.355 46.8472C16.362 46.7213 16.362 46.6023 16.362 46.4904H27.2401C27.2261 47.3858 27.359 48.1204 27.5898 48.9109" fill="#004845"/>
<path d="M24.5046 27.3437C24.7775 27.7355 25.0573 28.1902 25.3161 28.7428C25.8688 29.9181 26.5473 30.7995 26.9251 31.2542C27.037 31.3871 26.9321 31.583 26.7642 31.569C26.2045 31.5201 25.6309 31.4151 25.2392 31.3312C25.0573 31.2962 24.9384 31.5061 25.0573 31.646C25.2811 31.9048 25.5749 32.2056 25.7218 32.3595C25.7848 32.4225 25.7918 32.5204 25.7428 32.5904C24.5046 34.6121 24.8194 35.3256 24.8194 35.3256C23.6512 33.234 23.959 30.3518 23.875 29.3445C23.7491 27.9104 23.2874 27.1339 22.7068 26.6092V26.5952C22.7697 26.2315 23.1895 26.0636 23.4833 26.2874C23.875 26.5812 24.2178 26.931 24.5046 27.3437Z" fill="#F4F4F6"/>
<path d="M16.5162 28.8408C16.4742 28.0363 16.1664 27.2108 16.0965 26.8261C16.0825 26.7071 16.1105 26.6022 16.1874 26.4623C16.2924 26.2734 16.5162 26.1895 16.7191 26.2524C19.5383 27.1129 19.5173 31.9747 24.8269 35.3326C23.008 34.759 22.0567 33.9265 20.8744 33.206C20.1749 32.7862 19.3494 32.4784 18.9786 32.3525C18.8737 32.3175 18.8247 32.1986 18.8667 32.1007C18.9786 31.8488 19.0696 31.611 19.1185 31.4011C19.1465 31.2682 19.0136 31.1493 18.8807 31.1843C17.8454 31.4361 16.845 31.4711 16.3553 31.4641C16.2154 31.4641 16.1315 31.3242 16.1874 31.1913C16.4672 30.5826 16.5582 29.6872 16.5162 28.8408Z" fill="#F4F4F6"/>
<path d="M10.9897 13.4856C10.4021 9.15537 13.8089 5.12596 18.5939 4.47537C19.3074 4.37744 20.0279 4.36345 20.7415 4.4334C22.9101 4.63627 24.9458 5.60165 26.3589 7.09169C27.0864 7.8542 27.5831 8.71465 27.9678 9.65905C28.4505 10.8483 28.5345 12.0935 28.7094 13.3667C28.8703 14.5349 29.1431 15.7381 29.1711 16.9134C29.227 18.9771 28.3526 21.1177 26.6947 22.5658C24.8199 24.2027 22.0566 23.9439 19.8251 23.3143C17.6355 22.6917 15.5228 21.4115 14.0398 19.8655C12.3958 18.1446 11.3605 15.969 11.0107 13.6955C11.0037 13.6255 10.9967 13.5555 10.9897 13.4856Z" fill="#885856"/>
<path d="M18.1042 13.9683C18.7407 12.898 20.2098 12.9819 20.2728 12.9819C20.4127 12.9889 20.5106 13.1078 20.5036 13.2478C20.4966 13.3807 20.3777 13.4856 20.2378 13.4786C20.2238 13.4786 19.0136 13.4086 18.5309 14.2201C18.4889 14.2901 18.4259 14.3321 18.349 14.339C18.293 14.346 18.2371 14.339 18.1881 14.3041C18.0692 14.2411 18.0342 14.0872 18.1042 13.9683Z" fill="#0B2E3A"/>
<path d="M25.9112 12.709C25.7783 12.751 25.6384 12.6811 25.5964 12.5551C25.5544 12.4292 25.6174 12.2823 25.7503 12.2403C25.8062 12.2194 27.2053 11.7507 28.1008 12.6111C28.1987 12.709 28.2057 12.863 28.1078 12.9609C28.0658 13.0029 28.0168 13.0308 27.9609 13.0378C27.8909 13.0448 27.814 13.0238 27.758 12.9679C27.0794 12.3173 25.9182 12.7021 25.9112 12.709Z" fill="#0B2E3A"/>
<path d="M27.2401 14.227L27.324 14.8356C27.366 15.1225 27.1701 15.3813 26.8903 15.4163C26.6105 15.4512 26.3516 15.2554 26.3167 14.9686L26.2327 14.3599C26.1907 14.0731 26.3866 13.8143 26.6664 13.7723C26.9463 13.7373 27.2051 13.9402 27.2401 14.227Z" fill="#0B2E3A"/>
<path d="M22.0495 18.4804L25.4703 18.0187C25.5822 18.0047 25.6941 18.0397 25.7781 18.1236C25.862 18.2076 25.918 18.3265 25.918 18.4524C25.96 19.6486 25.1975 20.67 24.1341 20.8169L24.0852 20.8239C23.0219 20.9708 22.0145 20.1873 21.7347 19.019C21.7067 18.9001 21.7207 18.7672 21.7837 18.6693C21.8396 18.5643 21.9376 18.4944 22.0495 18.4804Z" fill="#C74038"/>
<path d="M23.8471 19.1099C23.1126 19.2079 22.406 18.991 21.8813 18.5573C21.9303 18.5153 21.9863 18.4873 22.0492 18.4803L25.47 18.0186C25.533 18.0116 25.596 18.0256 25.6519 18.0466C25.2672 18.5993 24.6446 19.005 23.903 19.1029L23.8471 19.1099Z" fill="#F2EEF1"/>
<path d="M11.7102 28.7777L1.74857 38.7813C-0.0352853 40.5791 -0.0282899 43.4892 1.76256 45.2731L11.7661 55.2347C12.3608 55.8293 13.3261 55.8293 13.9208 55.2277C14.5154 54.6331 14.5154 53.6677 13.9138 53.0731L3.91018 43.1115C3.30857 42.5099 3.30857 41.5375 3.90319 40.9289L13.8648 30.9253C14.4594 30.3307 14.4594 29.3653 13.8578 28.7707C13.2702 28.1831 12.3048 28.1831 11.7102 28.7777Z" fill="#885856"/>
<path d="M1.48956 45.546C-0.455194 43.6083 -0.462189 40.4603 1.47557 38.5155L11.3742 28.5679C12.0738 27.8614 13.221 27.7424 13.9905 28.372C14.872 29.0926 14.9209 30.4077 14.1374 31.1982L4.17583 41.2018C3.72113 41.6565 3.72812 42.391 4.18283 42.8388L12.6474 51.2683C12.7943 51.4152 12.7943 51.6601 12.6474 51.807L10.4928 53.9686C10.3459 54.1155 10.101 54.1155 9.95412 53.9686L1.48956 45.546Z" fill="#006D67"/>
<path d="M12.1088 50.7366L9.41553 53.4369L9.95418 53.9755C10.1011 54.1224 10.3459 54.1224 10.4928 53.9755L12.6475 51.8139C12.7944 51.667 12.7944 51.4222 12.6475 51.2753L12.1088 50.7366Z" fill="#004845"/>
<path d="M17.4813 50.9396C17.887 51.1565 18.2508 51.4433 18.5586 51.7931L19.6289 52.9963C19.8318 53.2271 19.8108 53.5769 19.5799 53.7868C19.559 53.8078 19.531 53.8287 19.503 53.8427C19.4121 53.8987 19.3561 53.9896 19.3421 54.0946C19.3281 54.1995 19.3561 54.3044 19.426 54.3814L19.447 54.4094C19.6499 54.6402 19.6289 54.99 19.3981 55.1999C19.1952 55.3817 18.8944 55.3887 18.6845 55.2208C18.6565 55.1999 18.6356 55.1789 18.6146 55.1509C18.5866 55.1229 18.5446 55.1089 18.5026 55.1159C18.4607 55.1229 18.4327 55.1579 18.4257 55.1999C18.3977 55.3048 18.3417 55.4027 18.2578 55.4797C18.0269 55.6826 17.6772 55.6616 17.4673 55.4377C17.4393 55.4027 17.3903 55.3887 17.3484 55.4027C17.3064 55.4097 17.2714 55.4447 17.2574 55.4867C17.2364 55.5636 17.1875 55.6406 17.1175 55.6965C16.9286 55.8574 16.6418 55.8365 16.4739 55.6476L15.7254 54.7731C15.6345 54.6682 15.5086 54.6052 15.3756 54.5983C15.2427 54.5913 15.1028 54.6402 15.0049 54.7312C14.0115 55.6406 12.8573 56.0183 12.1577 55.5846C11.2693 55.032 11.4442 53.381 12.5425 51.905C14.6481 49.0578 14.6411 49.4146 17.4813 50.9396Z" fill="#885856"/>
<path d="M12.0879 17.7249C12.0879 17.7249 17.5794 13.8494 16.2712 8.57476L17.2156 8.31593C18.076 8.07808 18.9994 8.17602 19.7899 8.59575C20.3636 8.89655 21.0421 8.88956 21.6088 8.57476C21.9585 8.38588 22.3853 8.41387 22.7001 8.64472L23.2107 9.02947C23.7704 9.4492 24.4559 9.67306 25.1555 9.67306C25.7151 9.67306 26.2328 9.93889 26.5616 10.3936C26.8204 10.7574 27.2052 11.0022 27.6459 11.0861L29.1779 11.387L28.1845 5.16795L20.5035 2.46768L11.0875 5.25889L9.90528 11.9956L8.67407 17.7249L9.00286 22.188L12.3257 19.6626L12.0879 17.7249Z" fill="#0B2E3A"/>
<path d="M12.2906 14.0453C12.8502 13.8284 13.4238 14.0802 13.6127 14.7448C13.8436 15.5633 13.3329 15.6962 13.5358 16.4307C13.6617 16.8854 13.8715 17.0253 13.9975 17.4731C14.1094 17.8788 14.0744 18.3755 13.7107 18.5224C13.102 18.7602 12.1507 17.8018 11.7729 16.7875C11.3881 15.7452 11.3462 14.423 12.2906 14.0453Z" fill="#885856"/>
<path d="M20.8041 15.1575C20.7552 15.0316 20.6432 14.9477 20.5103 14.9337L19.2931 14.8427C19.1042 14.8287 18.9363 14.9686 18.9224 15.1575C18.9084 15.3464 19.0483 15.5143 19.2371 15.5283L19.7198 15.5633L19.3841 15.906C19.2511 16.039 19.2511 16.2558 19.391 16.3887C19.489 16.4867 19.6289 16.5077 19.7548 16.4657C19.8038 16.4517 19.8458 16.4237 19.8807 16.3817L20.7342 15.5073C20.8251 15.4234 20.8531 15.2834 20.8041 15.1575Z" fill="#0B2E3A"/>
<path d="M40.4829 12.7021L49.8079 11.5968V17.0323L40.4829 16.053V12.7021Z" fill="#6B8289"/>
<path d="M40.4828 13.024L30.0525 13.6605V15.1436L40.4828 15.7522V13.024Z" fill="#3A5862"/>
<path d="M49.8079 11.0512V17.543L62.092 18.0887V10.6035L49.8079 11.0512Z" fill="#9DABB1"/>
<path d="M62.7843 18.4665H62.2036C62.1407 18.4665 62.0847 18.4175 62.0847 18.3476V10.3377C62.0847 10.2747 62.1337 10.2188 62.2036 10.2188H62.7843C62.8472 10.2188 62.9032 10.2677 62.9032 10.3377V18.3476C62.8962 18.4175 62.8472 18.4665 62.7843 18.4665Z" fill="#CED5D8"/>
<path d="M62.8962 17.8998C62.8962 17.8998 65.3796 13.9543 62.8962 10.7784V17.8998Z" fill="#CCF0EE"/>
<path d="M33.536 14.1082C33.466 14.402 33.6479 14.7028 33.9417 14.7728C34.1026 14.8078 34.2565 14.7728 34.3824 14.6888C34.4174 14.6678 34.4524 14.6609 34.4944 14.6678C34.5363 14.6748 34.5643 14.7028 34.5853 14.7378C34.6552 14.8707 34.7812 14.9757 34.9421 15.0106C35.103 15.0456 35.2569 15.0106 35.3828 14.9267C35.4178 14.9057 35.4527 14.8987 35.4947 14.9057C35.5367 14.9127 35.5647 14.9407 35.5857 14.9757C35.6556 15.1086 35.7815 15.2065 35.9424 15.2485C36.1383 15.2974 36.3272 15.2345 36.4601 15.1016C36.4881 15.0736 36.523 15.0596 36.565 15.0596C36.6 15.0596 36.642 15.0736 36.663 15.1086C36.7329 15.1855 36.8239 15.2415 36.9358 15.2695C37.2296 15.3394 37.5304 15.1575 37.6004 14.8637L37.6983 14.465C37.7333 14.3321 37.8312 14.2201 37.9641 14.1712C38.6987 13.9123 39.2093 13.4646 39.2653 12.947C39.3562 12.1005 38.216 11.387 36.7189 11.345C33.8018 11.268 34.1866 11.366 33.536 14.1082Z" fill="#885856"/>
</svg>
